<svg width="16" height="16" viewBox="0 0 16 16" fill="none" xmlns="http://www.w3.org/2000/svg">
<g clip-path="url(#clip0)">
<path d="M13.9375 0.5H2.0625C0.925219 0.5 0 1.42522 0 2.5625V13.4375C0 14.5748 0.925219 15.5 2.0625 15.5H12.5C13.1172 15.5 13.6974 15.2597 14.1339 14.8232L15.3232 13.6339C15.7597 13.1975 16 12.6172 16 12V2.5625C16 1.42522 15.0748 0.5 13.9375 0.5ZM2.0625 1.5H13.9375C14.5234 1.5 15 1.97662 15 2.5625V4H1V2.5625C1 1.97662 1.47662 1.5 2.0625 1.5ZM1 13.4375V5H15V11.5H13.4375C12.6449 11.5 12 12.1449 12 12.9375V14.5H2.0625C1.47662 14.5 1 14.0234 1 13.4375ZM14.6161 12.9268L13.4268 14.1161C13.3025 14.2404 13.1577 14.3366 13 14.4017V12.9375C13 12.6962 13.1962 12.5 13.4375 12.5H14.9017C14.8366 12.6577 14.7404 12.8025 14.6161 12.9268Z" fill="white" stroke="#090F60" stroke-width="0.2"/>
<path d="M12.5 7C12.5 6.72387 12.2762 6.5 12 6.5H4C3.72384 6.5 3.5 6.72387 3.5 7C3.5 7.27613 3.72384 7.5 4 7.5H12C12.2762 7.5 12.5 7.27613 12.5 7Z" fill="white" stroke="#090F60" stroke-width="0.2"/>
<path d="M11 9H5C4.72384 9 4.5 9.22387 4.5 9.5C4.5 9.77613 4.72384 10 5 10H11C11.2762 10 11.5 9.77613 11.5 9.5C11.5 9.22387 11.2762 9 11 9Z" fill="white" stroke="#090F60" stroke-width="0.2"/>
</g>
<defs>
<clipPath id="clip0">
<rect width="16" height="16" fill="white"/>
</clipPath>
</defs>
</svg>
