<svg width="16" height="16" viewBox="0 0 16 16" fill="none" xmlns="http://www.w3.org/2000/svg">
<path d="M10.6865 10.2613C10.3074 10.2613 9.99902 9.99431 9.99902 9.66622C9.99902 9.3381 10.3074 9.07116 10.6865 9.07116C11.0656 9.07116 11.374 9.3381 11.374 9.66622C11.374 9.83878 11.514 9.97872 11.6865 9.97872C11.8591 9.97872 11.999 9.83878 11.999 9.66622C11.999 9.09356 11.5723 8.61207 10.999 8.48138V8.31885C10.999 8.14628 10.8591 8.00635 10.6865 8.00635C10.514 8.00635 10.374 8.14628 10.374 8.31885V8.48138C9.80071 8.61207 9.37402 9.09356 9.37402 9.66622C9.37402 10.3389 9.9628 10.8862 10.6865 10.8862C11.0656 10.8862 11.374 11.1532 11.374 11.4813C11.374 11.8094 11.0656 12.0764 10.6865 12.0764C10.3074 12.0764 9.99902 11.8094 9.99902 11.4813C9.99902 11.3087 9.85909 11.1688 9.68652 11.1688C9.51396 11.1688 9.37402 11.3087 9.37402 11.4813C9.37402 12.054 9.80071 12.5355 10.374 12.6662V12.8012C10.374 12.9737 10.514 13.1137 10.6865 13.1137C10.8591 13.1137 10.999 12.9737 10.999 12.8012V12.6662C11.5723 12.5355 11.999 12.054 11.999 11.4813C11.999 10.8086 11.4102 10.2613 10.6865 10.2613Z" fill="#76FFFF"/>
<path d="M12.1065 5.47399C12.0685 5.38336 12.0219 5.29796 11.9677 5.21874H12.7812C13.5738 5.21874 14.2187 4.57387 14.2187 3.78124C14.2187 2.98862 13.5738 2.34375 12.7812 2.34375H10.2787C10.4378 2.11243 10.5312 1.83259 10.5312 1.53125C10.5312 0.738624 9.88636 0.09375 9.09373 0.09375H1.4375C0.644874 0.09375 0 0.738624 0 1.53125C0 2.32387 0.644874 2.96874 1.4375 2.96874H3.93999C3.7809 3.20006 3.68749 3.4799 3.68749 3.78124C3.68749 4.08259 3.78087 4.36243 3.93999 4.59374H3.12499C2.33237 4.59374 1.6875 5.23862 1.6875 6.03124C1.6875 6.48646 1.90043 6.89267 2.23171 7.15624C1.90043 7.4198 1.6875 7.82602 1.6875 8.28123C1.6875 8.73645 1.90043 9.14267 2.23171 9.40623C1.90043 9.66979 1.6875 10.076 1.6875 10.5312C1.6875 10.9864 1.90043 11.3927 2.23171 11.6562C1.90043 11.9198 1.6875 12.326 1.6875 12.7812C1.6875 13.5738 2.33237 14.2187 3.12499 14.2187H6.8078C7.77799 15.2564 9.15817 15.9063 10.6875 15.9063C13.6168 15.9063 16 13.5231 16 10.5938C16 8.15574 14.3491 6.09633 12.1065 5.47399ZM12.7812 2.96874C13.2293 2.96874 13.5937 3.33324 13.5937 3.78124C13.5937 4.22924 13.2293 4.59374 12.7812 4.59374H10.7812H5.12499C4.67696 4.59374 4.31249 4.22924 4.31249 3.78124C4.31249 3.33324 4.67696 2.96874 5.12499 2.96874H12.7812ZM1.4375 2.34375C0.989467 2.34375 0.624999 1.97925 0.624999 1.53125C0.624999 1.08325 0.989467 0.718749 1.4375 0.718749H9.09373C9.54176 0.718749 9.90623 1.08325 9.90623 1.53125C9.90623 1.97925 9.54176 2.34375 9.09373 2.34375H1.4375ZM3.12499 5.21874H10.7812C10.9071 5.21874 11.0276 5.24799 11.1358 5.30036C10.9879 5.28796 10.8385 5.28127 10.6875 5.28127C9.22048 5.28127 7.89048 5.87905 6.92817 6.84374H3.12499C2.67699 6.84374 2.3125 6.47924 2.3125 6.03124C2.3125 5.58324 2.67699 5.21874 3.12499 5.21874ZM3.12499 7.46874H6.39421C6.03946 7.95477 5.76518 8.50295 5.59099 9.09373H3.12499C2.67696 9.09373 2.3125 8.72927 2.3125 8.28123C2.3125 7.83324 2.67696 7.46874 3.12499 7.46874ZM3.12499 9.71873H5.44749C5.40008 10.0035 5.37502 10.2957 5.37502 10.5938C5.37502 10.8483 5.39343 11.0986 5.42821 11.3437H3.12499C2.67696 11.3437 2.3125 10.9793 2.3125 10.5312C2.3125 10.0832 2.67696 9.71873 3.12499 9.71873ZM3.12499 13.5937C2.67696 13.5937 2.3125 13.2293 2.3125 12.7812C2.3125 12.3332 2.67696 11.9687 3.12499 11.9687H5.5558C5.71349 12.5566 5.96965 13.1045 6.30558 13.5937H3.12499ZM10.6875 15.2813C8.10283 15.2813 6.00002 13.1784 6.00002 10.5938C6.00002 8.00908 8.10283 5.90627 10.6875 5.90627C13.2722 5.90627 15.375 8.00908 15.375 10.5938C15.375 13.1784 13.2722 15.2813 10.6875 15.2813Z" fill="#76FFFF"/>
</svg>
