<svg width="16" height="16" viewBox="0 0 16 16" fill="none" xmlns="http://www.w3.org/2000/svg">
<g clip-path="url(#clip0)">
<path d="M14.2936 0.0734863C13.4351 0.0754932 12.7107 0.712678 12.5992 1.56388C11.925 2.07263 8.86483 4.25826 5.97292 4.25826H1.82269C0.815236 4.25898 -0.000848247 5.07635 1.1845e-05 6.08381V8.93157C-0.00357187 9.9343 0.806491 10.7501 1.80921 10.7537H2.05319L3.24299 14.6373C3.53126 15.5875 4.52883 16.1307 5.48338 15.8569C6.43794 15.5832 6.99614 14.5941 6.73711 13.6354C6.60093 13.135 6.38032 12.1294 6.34491 10.7772C9.24026 10.9423 11.9817 12.9671 12.6016 13.4541C12.7137 14.3491 13.5035 15.0021 14.4037 14.9442C15.3039 14.8864 16.0035 14.1376 16 13.2356V1.78607C16.0019 0.841978 15.238 0.0753499 14.294 0.0734863L14.2936 0.0734863ZM5.61469 10.0197H2.71561V4.99221H5.61469V10.0197ZM0.733957 8.93143V6.09026C0.729083 5.48862 1.21288 4.99694 1.81452 4.99221H1.98166V10.0197H1.82269C1.22564 10.0239 0.738257 9.54338 0.733957 8.94634C0.733957 8.94146 0.733957 8.93645 0.733957 8.93143ZM5.34003 15.1338C5.0618 15.2325 4.75532 15.2122 4.49227 15.0781C4.22794 14.9433 4.03012 14.7062 3.94482 14.422L2.82097 10.7537H5.61082C5.63748 11.8546 5.78327 12.9194 6.02897 13.8222C6.17547 14.3721 5.87587 14.9425 5.34003 15.1338ZM6.34864 10.0417V4.97931C7.74313 4.90448 9.27496 4.4095 10.9346 3.50497C11.5039 3.1939 12.0555 2.85187 12.5872 2.48045V12.5247C12.078 12.1585 11.5479 11.8223 10.9996 11.5179C9.85322 10.8831 8.1468 10.1343 6.34864 10.0417ZM15.2661 13.2355C15.2661 13.7725 14.8307 14.2079 14.2936 14.2079C13.7565 14.2079 13.3211 13.7725 13.3211 13.2355V1.78593C13.3211 1.2488 13.7565 0.813452 14.2936 0.813452C14.8307 0.813452 15.2661 1.2488 15.2661 1.78593V13.2355Z" fill="white"/>
</g>
<defs>
<clipPath id="clip0">
<rect width="16" height="16" fill="white"/>
</clipPath>
</defs>
</svg>
