<svg width="16" height="16" viewBox="0 0 16 16" fill="none" xmlns="http://www.w3.org/2000/svg">
<g clip-path="url(#clip0)">
<mask id="path-1-outside-1" maskUnits="userSpaceOnUse" x="-1" y="-1" width="18" height="18" fill="black">
<rect fill="white" x="-1" y="-1" width="18" height="18"/>
<path d="M14.9123 9.93994L13.1104 8.81089C12.9267 8.71061 12.8123 8.51808 12.8123 8.30848V7.57677C13.023 7.35677 13.564 6.73012 13.7838 5.90078C14.0046 5.71944 14.1334 5.45119 14.1334 5.16372V4.24238C14.1334 4.02663 14.0392 3.80932 13.8667 3.62104L13.8662 2.38533C13.8648 2.36161 13.7038 0 10.9334 0C10.4342 0 9.98185 0.0820308 9.58666 0.243374C9.14135 0.0815933 8.61154 0 8.00005 0C7.38855 0 6.85871 0.0815933 6.41337 0.243405C6.01818 0.082062 5.56584 0 5.06663 0C2.29652 0 2.13517 2.36158 2.1333 2.39999V3.62104C1.96049 3.80957 1.86665 4.02663 1.86665 4.24238V5.16372C1.86665 5.45119 1.99571 5.71944 2.21624 5.90078C2.43595 6.73012 2.97705 7.35677 3.1877 7.57677V8.30848C3.1877 8.51808 3.07358 8.71061 2.8757 8.81914L1.10187 9.93166C0.422122 10.3023 0 11.0135 0 11.7874V12.5333C0 12.6805 0.119468 12.7999 0.266655 12.7999H2.13033C1.96002 13.1331 1.86677 13.507 1.86677 13.8949V15.7333C1.86677 15.8804 1.98596 15.9999 2.13342 15.9999H13.8667C14.0142 15.9999 14.1334 15.8804 14.1334 15.7333V13.8949C14.1334 13.507 14.0401 13.1331 13.8698 12.7999H15.7333C15.8808 12.7999 16 12.6805 16 12.5333V11.7874C16 11.0135 15.5779 10.3023 14.9123 9.93994ZM0.533341 12.2666V11.7874C0.533341 11.2087 0.849089 10.677 1.37121 10.3917L3.14479 9.27917C3.50026 9.08529 3.72107 8.71329 3.72107 8.30851V7.46664C3.72107 7.39305 3.69042 7.32236 3.63679 7.27199C3.6296 7.26533 2.91998 6.5904 2.71173 5.68347C2.69627 5.616 2.65467 5.55681 2.59655 5.51922C2.47361 5.43975 2.40002 5.30694 2.40002 5.16375V4.24241C2.40002 4.14641 2.46536 4.03254 2.57895 3.9296C2.63495 3.8792 2.66667 3.8072 2.66667 3.73201L2.66614 2.41574C2.6712 2.33867 2.80961 0.533341 5.06666 0.533341C5.30834 0.533341 5.53137 0.553903 5.739 0.595403C5.59778 0.697715 5.47056 0.812902 5.35797 0.941338C4.7265 1.66162 4.78491 2.53492 4.8001 2.68161V4.10001C4.62916 4.29413 4.53344 4.54319 4.53344 4.8V5.86665C4.53344 6.19093 4.68091 6.49359 4.93263 6.69571C5.17691 7.66289 5.68834 8.39198 5.86675 8.62582V9.86663C5.86675 10.1248 5.72622 10.3618 5.49956 10.4853L3.12011 11.7832C2.88508 11.9114 2.67733 12.0756 2.5017 12.2666L0.533341 12.2666ZM13.6 15.4666H2.40008V13.8949C2.40008 13.4635 2.54827 13.0542 2.80805 12.7281C2.8248 12.7125 2.83948 12.6948 2.8518 12.6753C2.99701 12.5061 3.17333 12.3616 3.37554 12.2511L5.75472 10.9536C6.15284 10.7365 6.40006 10.32 6.40006 9.86663V8.53329C6.40006 8.47117 6.37793 8.41036 6.33818 8.36236C6.33153 8.35464 5.67659 7.55808 5.42859 6.47809C5.41312 6.41037 5.37206 6.35143 5.31366 6.31381C5.159 6.21381 5.06672 6.04662 5.06672 5.86662V4.79997C5.06672 4.65038 5.13019 4.51091 5.24538 4.40691C5.30138 4.35626 5.33338 4.28426 5.33338 4.20879V2.66664C5.33338 2.65492 5.33256 2.64345 5.33097 2.6317C5.32991 2.62423 5.2395 1.88558 5.75897 1.29306C5.94428 1.08156 6.18475 0.914026 6.47837 0.790527C6.49971 0.784902 6.52018 0.776433 6.53952 0.765714C6.93543 0.611246 7.42333 0.533309 8.00002 0.533309C8.57636 0.533309 9.06404 0.611215 9.45982 0.765527C9.47941 0.776433 9.50019 0.785027 9.52188 0.790683C9.81288 0.91312 10.0517 1.07884 10.2363 1.28768C10.7554 1.87461 10.6698 2.62527 10.6691 2.63167C10.6675 2.64339 10.6667 2.65486 10.6667 2.66661V4.20873C10.6667 4.28419 10.6987 4.35619 10.7547 4.40685C10.8698 4.51085 10.9333 4.65032 10.9333 4.79991V5.86656C10.9333 6.04656 10.841 6.21375 10.6864 6.31374C10.628 6.35134 10.5869 6.41028 10.5714 6.47802C10.3234 7.55802 9.66851 8.35454 9.66185 8.36229C9.62213 8.41029 9.59997 8.47111 9.59997 8.53323V9.86657C9.59997 10.3199 9.84716 10.7364 10.2453 10.9535L12.6245 12.2511C12.8266 12.3615 13.0029 12.506 13.1481 12.6751C13.1604 12.6946 13.1752 12.7124 13.192 12.7281C13.4518 13.0542 13.6 13.4635 13.6 13.8948L13.6 15.4666ZM15.4667 12.2666H13.4985C13.3228 12.0756 13.1151 11.9114 12.88 11.7831L10.5006 10.4853C10.2739 10.3618 10.1334 10.1247 10.1334 9.8666V8.62579C10.3118 8.39192 10.8233 7.66286 11.0675 6.69568C11.3192 6.49356 11.4667 6.19087 11.4667 5.86662V4.79997C11.4667 4.54316 11.371 4.2941 11.2001 4.09998V2.68158C11.2152 2.53492 11.2737 1.66158 10.6422 0.941307C10.5296 0.81287 10.4023 0.697683 10.2612 0.595372C10.4688 0.553872 10.6918 0.533309 10.9334 0.533309C13.1905 0.533309 13.3289 2.33864 13.3334 2.39996V3.73195C13.3334 3.80713 13.3651 3.87913 13.4211 3.92954C13.535 4.03248 13.6 4.14635 13.6 4.24235V5.16369C13.6 5.30688 13.5267 5.43969 13.4038 5.51916C13.3454 5.55675 13.304 5.61597 13.2883 5.6834C13.0803 6.59034 12.3707 7.26527 12.3632 7.27193C12.3096 7.32233 12.279 7.39299 12.279 7.46658V8.30845C12.279 8.71326 12.4998 9.08526 12.8411 9.27085L14.6429 10.3999C15.1509 10.677 15.4667 11.2087 15.4667 11.7874L15.4667 12.2666Z"/>
</mask>
<path d="M14.9123 9.93994L13.1104 8.81089C12.9267 8.71061 12.8123 8.51808 12.8123 8.30848V7.57677C13.023 7.35677 13.564 6.73012 13.7838 5.90078C14.0046 5.71944 14.1334 5.45119 14.1334 5.16372V4.24238C14.1334 4.02663 14.0392 3.80932 13.8667 3.62104L13.8662 2.38533C13.8648 2.36161 13.7038 0 10.9334 0C10.4342 0 9.98185 0.0820308 9.58666 0.243374C9.14135 0.0815933 8.61154 0 8.00005 0C7.38855 0 6.85871 0.0815933 6.41337 0.243405C6.01818 0.082062 5.56584 0 5.06663 0C2.29652 0 2.13517 2.36158 2.1333 2.39999V3.62104C1.96049 3.80957 1.86665 4.02663 1.86665 4.24238V5.16372C1.86665 5.45119 1.99571 5.71944 2.21624 5.90078C2.43595 6.73012 2.97705 7.35677 3.1877 7.57677V8.30848C3.1877 8.51808 3.07358 8.71061 2.8757 8.81914L1.10187 9.93166C0.422122 10.3023 0 11.0135 0 11.7874V12.5333C0 12.6805 0.119468 12.7999 0.266655 12.7999H2.13033C1.96002 13.1331 1.86677 13.507 1.86677 13.8949V15.7333C1.86677 15.8804 1.98596 15.9999 2.13342 15.9999H13.8667C14.0142 15.9999 14.1334 15.8804 14.1334 15.7333V13.8949C14.1334 13.507 14.0401 13.1331 13.8698 12.7999H15.7333C15.8808 12.7999 16 12.6805 16 12.5333V11.7874C16 11.0135 15.5779 10.3023 14.9123 9.93994ZM0.533341 12.2666V11.7874C0.533341 11.2087 0.849089 10.677 1.37121 10.3917L3.14479 9.27917C3.50026 9.08529 3.72107 8.71329 3.72107 8.30851V7.46664C3.72107 7.39305 3.69042 7.32236 3.63679 7.27199C3.6296 7.26533 2.91998 6.5904 2.71173 5.68347C2.69627 5.616 2.65467 5.55681 2.59655 5.51922C2.47361 5.43975 2.40002 5.30694 2.40002 5.16375V4.24241C2.40002 4.14641 2.46536 4.03254 2.57895 3.9296C2.63495 3.8792 2.66667 3.8072 2.66667 3.73201L2.66614 2.41574C2.6712 2.33867 2.80961 0.533341 5.06666 0.533341C5.30834 0.533341 5.53137 0.553903 5.739 0.595403C5.59778 0.697715 5.47056 0.812902 5.35797 0.941338C4.7265 1.66162 4.78491 2.53492 4.8001 2.68161V4.10001C4.62916 4.29413 4.53344 4.54319 4.53344 4.8V5.86665C4.53344 6.19093 4.68091 6.49359 4.93263 6.69571C5.17691 7.66289 5.68834 8.39198 5.86675 8.62582V9.86663C5.86675 10.1248 5.72622 10.3618 5.49956 10.4853L3.12011 11.7832C2.88508 11.9114 2.67733 12.0756 2.5017 12.2666L0.533341 12.2666ZM13.6 15.4666H2.40008V13.8949C2.40008 13.4635 2.54827 13.0542 2.80805 12.7281C2.8248 12.7125 2.83948 12.6948 2.8518 12.6753C2.99701 12.5061 3.17333 12.3616 3.37554 12.2511L5.75472 10.9536C6.15284 10.7365 6.40006 10.32 6.40006 9.86663V8.53329C6.40006 8.47117 6.37793 8.41036 6.33818 8.36236C6.33153 8.35464 5.67659 7.55808 5.42859 6.47809C5.41312 6.41037 5.37206 6.35143 5.31366 6.31381C5.159 6.21381 5.06672 6.04662 5.06672 5.86662V4.79997C5.06672 4.65038 5.13019 4.51091 5.24538 4.40691C5.30138 4.35626 5.33338 4.28426 5.33338 4.20879V2.66664C5.33338 2.65492 5.33256 2.64345 5.33097 2.6317C5.32991 2.62423 5.2395 1.88558 5.75897 1.29306C5.94428 1.08156 6.18475 0.914026 6.47837 0.790527C6.49971 0.784902 6.52018 0.776433 6.53952 0.765714C6.93543 0.611246 7.42333 0.533309 8.00002 0.533309C8.57636 0.533309 9.06404 0.611215 9.45982 0.765527C9.47941 0.776433 9.50019 0.785027 9.52188 0.790683C9.81288 0.91312 10.0517 1.07884 10.2363 1.28768C10.7554 1.87461 10.6698 2.62527 10.6691 2.63167C10.6675 2.64339 10.6667 2.65486 10.6667 2.66661V4.20873C10.6667 4.28419 10.6987 4.35619 10.7547 4.40685C10.8698 4.51085 10.9333 4.65032 10.9333 4.79991V5.86656C10.9333 6.04656 10.841 6.21375 10.6864 6.31374C10.628 6.35134 10.5869 6.41028 10.5714 6.47802C10.3234 7.55802 9.66851 8.35454 9.66185 8.36229C9.62213 8.41029 9.59997 8.47111 9.59997 8.53323V9.86657C9.59997 10.3199 9.84716 10.7364 10.2453 10.9535L12.6245 12.2511C12.8266 12.3615 13.0029 12.506 13.1481 12.6751C13.1604 12.6946 13.1752 12.7124 13.192 12.7281C13.4518 13.0542 13.6 13.4635 13.6 13.8948L13.6 15.4666ZM15.4667 12.2666H13.4985C13.3228 12.0756 13.1151 11.9114 12.88 11.7831L10.5006 10.4853C10.2739 10.3618 10.1334 10.1247 10.1334 9.8666V8.62579C10.3118 8.39192 10.8233 7.66286 11.0675 6.69568C11.3192 6.49356 11.4667 6.19087 11.4667 5.86662V4.79997C11.4667 4.54316 11.371 4.2941 11.2001 4.09998V2.68158C11.2152 2.53492 11.2737 1.66158 10.6422 0.941307C10.5296 0.81287 10.4023 0.697683 10.2612 0.595372C10.4688 0.553872 10.6918 0.533309 10.9334 0.533309C13.1905 0.533309 13.3289 2.33864 13.3334 2.39996V3.73195C13.3334 3.80713 13.3651 3.87913 13.4211 3.92954C13.535 4.03248 13.6 4.14635 13.6 4.24235V5.16369C13.6 5.30688 13.5267 5.43969 13.4038 5.51916C13.3454 5.55675 13.304 5.61597 13.2883 5.6834C13.0803 6.59034 12.3707 7.26527 12.3632 7.27193C12.3096 7.32233 12.279 7.39299 12.279 7.46658V8.30845C12.279 8.71326 12.4998 9.08526 12.8411 9.27085L14.6429 10.3999C15.1509 10.677 15.4667 11.2087 15.4667 11.7874L15.4667 12.2666Z" fill="white"/>
<path d="M14.9123 9.93994L13.1104 8.81089C12.9267 8.71061 12.8123 8.51808 12.8123 8.30848V7.57677C13.023 7.35677 13.564 6.73012 13.7838 5.90078C14.0046 5.71944 14.1334 5.45119 14.1334 5.16372V4.24238C14.1334 4.02663 14.0392 3.80932 13.8667 3.62104L13.8662 2.38533C13.8648 2.36161 13.7038 0 10.9334 0C10.4342 0 9.98185 0.0820308 9.58666 0.243374C9.14135 0.0815933 8.61154 0 8.00005 0C7.38855 0 6.85871 0.0815933 6.41337 0.243405C6.01818 0.082062 5.56584 0 5.06663 0C2.29652 0 2.13517 2.36158 2.1333 2.39999V3.62104C1.96049 3.80957 1.86665 4.02663 1.86665 4.24238V5.16372C1.86665 5.45119 1.99571 5.71944 2.21624 5.90078C2.43595 6.73012 2.97705 7.35677 3.1877 7.57677V8.30848C3.1877 8.51808 3.07358 8.71061 2.8757 8.81914L1.10187 9.93166C0.422122 10.3023 0 11.0135 0 11.7874V12.5333C0 12.6805 0.119468 12.7999 0.266655 12.7999H2.13033C1.96002 13.1331 1.86677 13.507 1.86677 13.8949V15.7333C1.86677 15.8804 1.98596 15.9999 2.13342 15.9999H13.8667C14.0142 15.9999 14.1334 15.8804 14.1334 15.7333V13.8949C14.1334 13.507 14.0401 13.1331 13.8698 12.7999H15.7333C15.8808 12.7999 16 12.6805 16 12.5333V11.7874C16 11.0135 15.5779 10.3023 14.9123 9.93994ZM0.533341 12.2666V11.7874C0.533341 11.2087 0.849089 10.677 1.37121 10.3917L3.14479 9.27917C3.50026 9.08529 3.72107 8.71329 3.72107 8.30851V7.46664C3.72107 7.39305 3.69042 7.32236 3.63679 7.27199C3.6296 7.26533 2.91998 6.5904 2.71173 5.68347C2.69627 5.616 2.65467 5.55681 2.59655 5.51922C2.47361 5.43975 2.40002 5.30694 2.40002 5.16375V4.24241C2.40002 4.14641 2.46536 4.03254 2.57895 3.9296C2.63495 3.8792 2.66667 3.8072 2.66667 3.73201L2.66614 2.41574C2.6712 2.33867 2.80961 0.533341 5.06666 0.533341C5.30834 0.533341 5.53137 0.553903 5.739 0.595403C5.59778 0.697715 5.47056 0.812902 5.35797 0.941338C4.7265 1.66162 4.78491 2.53492 4.8001 2.68161V4.10001C4.62916 4.29413 4.53344 4.54319 4.53344 4.8V5.86665C4.53344 6.19093 4.68091 6.49359 4.93263 6.69571C5.17691 7.66289 5.68834 8.39198 5.86675 8.62582V9.86663C5.86675 10.1248 5.72622 10.3618 5.49956 10.4853L3.12011 11.7832C2.88508 11.9114 2.67733 12.0756 2.5017 12.2666L0.533341 12.2666ZM13.6 15.4666H2.40008V13.8949C2.40008 13.4635 2.54827 13.0542 2.80805 12.7281C2.8248 12.7125 2.83948 12.6948 2.8518 12.6753C2.99701 12.5061 3.17333 12.3616 3.37554 12.2511L5.75472 10.9536C6.15284 10.7365 6.40006 10.32 6.40006 9.86663V8.53329C6.40006 8.47117 6.37793 8.41036 6.33818 8.36236C6.33153 8.35464 5.67659 7.55808 5.42859 6.47809C5.41312 6.41037 5.37206 6.35143 5.31366 6.31381C5.159 6.21381 5.06672 6.04662 5.06672 5.86662V4.79997C5.06672 4.65038 5.13019 4.51091 5.24538 4.40691C5.30138 4.35626 5.33338 4.28426 5.33338 4.20879V2.66664C5.33338 2.65492 5.33256 2.64345 5.33097 2.6317C5.32991 2.62423 5.2395 1.88558 5.75897 1.29306C5.94428 1.08156 6.18475 0.914026 6.47837 0.790527C6.49971 0.784902 6.52018 0.776433 6.53952 0.765714C6.93543 0.611246 7.42333 0.533309 8.00002 0.533309C8.57636 0.533309 9.06404 0.611215 9.45982 0.765527C9.47941 0.776433 9.50019 0.785027 9.52188 0.790683C9.81288 0.91312 10.0517 1.07884 10.2363 1.28768C10.7554 1.87461 10.6698 2.62527 10.6691 2.63167C10.6675 2.64339 10.6667 2.65486 10.6667 2.66661V4.20873C10.6667 4.28419 10.6987 4.35619 10.7547 4.40685C10.8698 4.51085 10.9333 4.65032 10.9333 4.79991V5.86656C10.9333 6.04656 10.841 6.21375 10.6864 6.31374C10.628 6.35134 10.5869 6.41028 10.5714 6.47802C10.3234 7.55802 9.66851 8.35454 9.66185 8.36229C9.62213 8.41029 9.59997 8.47111 9.59997 8.53323V9.86657C9.59997 10.3199 9.84716 10.7364 10.2453 10.9535L12.6245 12.2511C12.8266 12.3615 13.0029 12.506 13.1481 12.6751C13.1604 12.6946 13.1752 12.7124 13.192 12.7281C13.4518 13.0542 13.6 13.4635 13.6 13.8948L13.6 15.4666ZM15.4667 12.2666H13.4985C13.3228 12.0756 13.1151 11.9114 12.88 11.7831L10.5006 10.4853C10.2739 10.3618 10.1334 10.1247 10.1334 9.8666V8.62579C10.3118 8.39192 10.8233 7.66286 11.0675 6.69568C11.3192 6.49356 11.4667 6.19087 11.4667 5.86662V4.79997C11.4667 4.54316 11.371 4.2941 11.2001 4.09998V2.68158C11.2152 2.53492 11.2737 1.66158 10.6422 0.941307C10.5296 0.81287 10.4023 0.697683 10.2612 0.595372C10.4688 0.553872 10.6918 0.533309 10.9334 0.533309C13.1905 0.533309 13.3289 2.33864 13.3334 2.39996V3.73195C13.3334 3.80713 13.3651 3.87913 13.4211 3.92954C13.535 4.03248 13.6 4.14635 13.6 4.24235V5.16369C13.6 5.30688 13.5267 5.43969 13.4038 5.51916C13.3454 5.55675 13.304 5.61597 13.2883 5.6834C13.0803 6.59034 12.3707 7.26527 12.3632 7.27193C12.3096 7.32233 12.279 7.39299 12.279 7.46658V8.30845C12.279 8.71326 12.4998 9.08526 12.8411 9.27085L14.6429 10.3999C15.1509 10.677 15.4667 11.2087 15.4667 11.7874L15.4667 12.2666Z" stroke="white" stroke-width="0.2" mask="url(#path-1-outside-1)"/>
</g>
<defs>
<clipPath id="clip0">
<rect width="16" height="16" fill="white"/>
</clipPath>
</defs>
</svg>
