<svg width="30" height="30" viewBox="0 0 30 30" fill="none" xmlns="http://www.w3.org/2000/svg">
<g clip-path="url(#clip0)">
<path d="M19.8439 24.8369L19.844 24.8371C19.9449 25.0774 20.1775 25.2217 20.4217 25.2217C20.5022 25.2217 20.5844 25.2063 20.6633 25.1733L20.6633 25.1732L23.295 24.0717L25.5263 24.1042L25.5263 24.1042H25.5285H25.5285H25.5286H25.5286H25.5286H25.5286H25.5286H25.5286H25.5286H25.5287H25.5287H25.5287H25.5287H25.5287H25.5287H25.5287H25.5288H25.5288H25.5288H25.5288H25.5288H25.5288H25.5288H25.5289H25.5289H25.5289H25.5289H25.5289H25.5289H25.5289H25.529H25.529H25.529H25.529H25.529H25.529H25.529H25.5291H25.5291H25.5291H25.5291H25.5291H25.5291H25.5291H25.5292H25.5292H25.5292H25.5292H25.5292H25.5292H25.5292H25.5293H25.5293H25.5293H25.5293H25.5293H25.5293H25.5293H25.5294H25.5294H25.5294H25.5294H25.5294H25.5294H25.5294H25.5295H25.5295H25.5295H25.5295H25.5295H25.5295H25.5295H25.5296H25.5296H25.5296H25.5296H25.5296H25.5296H25.5296H25.5296H25.5297H25.5297H25.5297H25.5297H25.5297H25.5297H25.5297H25.5298H25.5298H25.5298H25.5298H25.5298H25.5298H25.5298H25.5299H25.5299H25.5299H25.5299H25.5299H25.5299H25.5299H25.53H25.53H25.53H25.53H25.53H25.53H25.53H25.5301H25.5301H25.5301H25.5301H25.5301H25.5301H25.5301H25.5301H25.5302H25.5302H25.5302H25.5302H25.5302H25.5302H25.5302H25.5303H25.5303H25.5303H25.5303H25.5303H25.5303H25.5303H25.5304H25.5304H25.5304H25.5304H25.5304H25.5304H25.5304H25.5305H25.5305H25.5305H25.5305H25.5305H25.5305H25.5305H25.5305H25.5306H25.5306H25.5306H25.5306H25.5306H25.5306H25.5306H25.5307H25.5307H25.5307H25.5307H25.5307H25.5307H25.5307H25.5308H25.5308H25.5308H25.5308H25.5308H25.5308H25.5308H25.5308H25.5309H25.5309H25.5309H25.5309H25.5309H25.5309H25.5309H25.531H25.531H25.531H25.531H25.531H25.531H25.531H25.5311H25.5311H25.5311H25.5311H25.5311H25.5311H25.5311H25.5311H25.5312H25.5312H25.5312H25.5312H25.5312H25.5312H25.5312H25.5313H25.5313H25.5313H25.5313H25.5313H25.5313H25.5313H25.5314H25.5314H25.5314H25.5314H25.5314H25.5314H25.5314H25.5314H25.5315H25.5315H25.5315H25.5315H25.5315H25.5315H25.5315H25.5316H25.5316H25.5316H25.5316H25.5316H25.5316H25.5316H25.5317H25.5317H25.5317H25.5317H25.5317H25.5317H25.5317H25.5317H25.5318H25.5318H25.5318H25.5318H25.5318H25.5318H25.5318H25.5319H25.5319H25.5319H25.5319H25.5319H25.5319H25.5319H25.532H25.532H25.532H25.532H25.532H25.532H25.532H25.532H25.5321H25.5321H25.5321H25.5321H25.5321H25.5321H25.5321H25.5322H25.5322H25.5322H25.5322H25.5322H25.5322H25.5322H25.5322H25.5323H25.5323H25.5323H25.5323H25.5323H25.5323H25.5323H25.5324H25.5324H25.5324H25.5324H25.5324H25.5324H25.5324H25.5325H25.5325H25.5325H25.5325H25.5325H25.5325H25.5325H25.5325H25.5326H25.5326H25.5326H25.5326H25.5326H25.5326H25.5326H25.5327H25.5327H25.5327H25.5327H25.5327H25.5327H25.5327H25.5328H25.5328H25.5328H25.5328H25.5328H25.5328H25.5328H25.5328H25.5329H25.5329H25.5329H25.5329H25.5329H25.5329H25.5329H25.533H25.533H25.533H25.533H25.533H25.533H25.533H25.5331H25.5331H25.5331H25.5331H25.5331H25.5331H25.5331H25.5331H25.5332H25.5332H25.5332H25.5332H25.5332H25.5332H25.5332H25.5333H25.5333H25.5333H25.5333H25.5333H25.5333H25.5333H25.5334H25.5334H25.5334H25.5334H25.5334H25.5334H25.5334H25.5334H25.5335H25.5335H25.5335H25.5335H25.5335H25.5335H25.5335H25.5336H25.5336H25.5336H25.5336H25.5336H25.5336H25.5336H25.5337H25.5337H25.5337H25.5337H25.5337H25.5337H25.5337H25.5337H25.5338H25.5338H25.5338H25.5338H25.5338H25.5338H25.5338H25.5339H25.5339H25.5339H25.5339H25.5339H25.5339H25.5339H25.534H25.534H25.534H25.534H25.534H25.534H25.534H25.5341H25.5341H25.5341H25.5341H25.5341H25.5341H25.5341H25.5341H25.5342H25.5342H25.5342H25.5342H25.5342H25.5342H25.5342H25.5343H25.5343H25.5343H25.5343H25.5343H25.5343H25.5343H25.5344H25.5344H25.5344H25.5344H25.5344H25.5344H25.5344H25.5345H25.5345H25.5345H25.5345H25.5345H25.5345H25.5345H25.5346H25.5346H25.5346H25.5346H25.5346H25.5346H25.5346H25.5347H25.5347H25.5347H25.5347H25.5347H25.5347H25.5347H25.5347H25.5348H25.5348H25.5348H25.5348H25.5348H25.5348H25.5348H25.5349H25.5349H25.5349H25.5349H25.5349H25.5349H25.5349H25.535H25.535H25.535H25.535H25.535H25.535H25.535H25.5351H25.5351H25.5351H25.5351H25.5351H25.5351H25.5351H25.5352H25.5352H25.5352H25.5352H25.5352H25.5352H25.5352H25.5353H25.5353H25.5353H25.5353H25.5353H25.5353H25.5353H25.5354H25.5354H25.5354H25.5354H25.5354H25.5354H25.5354H25.5355H25.5355H25.5355H25.5355H25.5355H25.5355H25.5355H25.5356H25.5356H25.5356H25.5356H25.5356C25.8774 24.1042 26.1569 23.8299 26.1619 23.4872L26.1619 23.4872C26.1669 23.1412 25.8904 22.8567 25.5449 22.8516L23.1839 22.8173C23.1018 22.8153 23.011 22.8331 22.9327 22.8655L22.9322 22.8657L20.1802 24.0178L20.1802 24.0178C19.8611 24.1513 19.7105 24.5181 19.8439 24.8369Z" fill="#76FFFF" stroke="#76FFFF" stroke-width="0.3"/>
<path d="M3.87751 17.287L3.87751 17.287C3.86962 16.9414 4.14348 16.6549 4.48929 16.6467L4.48947 16.6467L8.40917 16.558L9.92705 16.1483L9.92801 16.148C9.98701 16.1325 10.0456 16.1289 10.0894 16.1269L10.0978 16.1265L10.0978 16.1268L13.5806 16.1667L15.2248 14.8214L15.2249 14.8213C15.3354 14.7311 15.4867 14.6747 15.6284 14.6802L18.9166 14.7058C18.9167 14.7058 18.9167 14.7058 18.9167 14.7058L18.9169 14.7058L18.9157 14.8558C19.0032 14.8563 19.0887 14.8814 19.1631 14.9275L3.87751 17.287ZM3.87751 17.287C3.88539 17.6283 4.16411 17.8992 4.50368 17.8992M3.87751 17.287L4.02747 17.2836C4.03346 17.5432 4.24545 17.7492 4.50376 17.7492H4.50377C4.50677 17.7492 4.51058 17.7492 4.51439 17.7495L8.51001 17.6588C8.54816 17.6577 8.58631 17.6522 8.62336 17.6424L10.1511 17.2304M10.1511 17.2304L10.1494 17.3804L10.1702 17.3807M10.1511 17.2304L10.1902 17.3753L10.1702 17.3807M10.1511 17.2304L13.7955 17.2718C13.9141 17.2601 14.0157 17.2345 14.1024 17.1645L15.7895 15.7841M10.1702 17.3807L8.66242 17.7872L8.66175 17.7874C8.6134 17.8002 8.56381 17.8073 8.5143 17.8087L8.51342 17.8087L4.51779 17.8995L4.50364 17.8998L4.50368 17.8992M10.1702 17.3807L13.7938 17.4218L13.8021 17.4219L13.8103 17.4211C13.9406 17.4082 14.0767 17.3781 14.1966 17.2812L14.1973 17.2806L15.8426 15.9345M4.50368 17.8992C4.50371 17.8992 4.50374 17.8992 4.50376 17.8992L4.50369 17.8991L4.50368 17.8992ZM15.8426 15.9345L15.7884 15.9341L15.7895 15.7841M15.8426 15.9345L18.7312 15.957M15.8426 15.9345L15.8845 15.9002L15.7895 15.7841M15.7895 15.7841L18.7745 15.8073M18.7312 15.957L18.6954 15.9347L18.7745 15.8073M18.7312 15.957L21.5989 17.7368L21.6786 17.6097M18.7312 15.957L18.7734 15.9573L18.7745 15.8073M18.7745 15.8073L21.6786 17.6097M21.6786 17.6097L21.5995 17.7372L21.5991 17.7369M21.6786 17.6097C21.7525 17.656 21.8383 17.6806 21.9255 17.6814L21.5991 17.7369M21.5991 17.7369C21.697 17.7983 21.81 17.8303 21.9241 17.8314L21.9241 17.8314L25.529 17.8646H25.5304H25.5304H25.5304H25.5304H25.5304H25.5305H25.5305H25.5305H25.5305H25.5305H25.5305H25.5305H25.5306H25.5306H25.5306H25.5306H25.5306H25.5306H25.5307H25.5307H25.5307H25.5307H25.5307H25.5307H25.5308H25.5308H25.5308H25.5308H25.5308H25.5308H25.5309H25.5309H25.5309H25.5309H25.5309H25.5309H25.5309H25.531H25.531H25.531H25.531H25.531H25.531H25.5311H25.5311H25.5311H25.5311H25.5311H25.5311H25.5312H25.5312H25.5312H25.5312H25.5312H25.5312H25.5313H25.5313H25.5313H25.5313H25.5313H25.5313H25.5313H25.5314H25.5314H25.5314H25.5314H25.5314H25.5314H25.5315H25.5315H25.5315H25.5315H25.5315H25.5315H25.5316H25.5316H25.5316H25.5316H25.5316H25.5316H25.5317H25.5317H25.5317H25.5317H25.5317H25.5317H25.5317H25.5318H25.5318H25.5318H25.5318H25.5318H25.5318H25.5319H25.5319H25.5319H25.5319H25.5319H25.5319H25.532H25.532H25.532H25.532H25.532H25.532H25.532H25.5321H25.5321H25.5321H25.5321H25.5321H25.5321H25.5322H25.5322H25.5322H25.5322H25.5322H25.5322H25.5323H25.5323H25.5323H25.5323H25.5323H25.5323H25.5324H25.5324H25.5324H25.5324H25.5324H25.5324H25.5324H25.5325H25.5325H25.5325H25.5325H25.5325H25.5325H25.5326H25.5326H25.5326H25.5326H25.5326H25.5326H25.5327H25.5327H25.5327H25.5327H25.5327H25.5327H25.5328H25.5328H25.5328H25.5328H25.5328H25.5328H25.5328H25.5329H25.5329H25.5329H25.5329H25.5329H25.5329H25.533H25.533H25.533H25.533H25.533H25.533H25.5331H25.5331H25.5331H25.5331H25.5331H25.5331H25.5332H25.5332H25.5332H25.5332H25.5332H25.5332H25.5332H25.5333H25.5333H25.5333H25.5333H25.5333H25.5333H25.5334H25.5334H25.5334H25.5334H25.5334H25.5334H25.5335H25.5335H25.5335H25.5335H25.5335H25.5335H25.5336H25.5336H25.5336H25.5336H25.5336H25.5336H25.5336H25.5337H25.5337H25.5337H25.5337H25.5337H25.5337H25.5338H25.5338H25.5338H25.5338H25.5338H25.5338H25.5339H25.5339H25.5339H25.5339H25.5339H25.5339H25.5339H25.534H25.534H25.534H25.534H25.534H25.534H25.5341H25.5341H25.5341H25.5341H25.5341H25.5341H25.5342H25.5342H25.5342H25.5342H25.5342H25.5342H25.5343H25.5343H25.5343H25.5343H25.5343H25.5343H25.5343H25.5344H25.5344H25.5344H25.5344H25.5344H25.5344H25.5345C25.8778 17.8646 26.1575 17.588 26.1607 17.2438V17.2437C26.1636 16.8984 25.8863 16.6153 25.5402 16.6121L25.5402 16.6121L22.1108 16.5808L22.1466 16.603L21.5991 17.7369Z" fill="#76FFFF" stroke="#76FFFF" stroke-width="0.3"/>
<path d="M13.42 22.4088L13.42 22.4089C12.7448 22.8854 11.8547 22.9321 11.1332 22.5953C10.985 22.5825 10.8404 22.5173 10.7307 22.3997C10.7307 22.3996 10.7306 22.3995 10.7305 22.3995L10.4579 22.1088L10.4429 22.0929L10.4418 22.0908C10.3365 21.9707 10.2853 21.8202 10.2871 21.6716C10.0205 20.9316 10.1553 20.0556 10.7031 19.4493L14.7687 14.945L14.7688 14.9449C14.8862 14.815 15.0524 14.7401 15.2273 14.7383L15.2273 14.7383L19.0242 14.7007C19.1542 14.6911 19.2795 14.7391 19.374 14.8C19.374 14.8 19.3741 14.8 19.3741 14.8001L22.1666 16.5899L25.3172 16.5818L25.3176 16.5818L25.319 16.5818C25.6639 16.5818 25.9446 16.8611 25.9453 17.2062C25.946 17.5521 25.6666 17.8331 25.3211 17.8342L25.321 17.8342L21.9856 17.8429L21.9744 17.8429L21.9633 17.8413C21.959 17.8406 21.9545 17.84 21.9498 17.8393C21.8733 17.8282 21.7491 17.8102 21.6457 17.744L21.6457 17.744L18.855 15.955L15.5141 15.9877L11.6326 20.2885L11.6325 20.2886C11.3718 20.5768 11.3343 21.0413 11.5268 21.3825C11.8691 21.6098 12.3671 21.6186 12.6976 21.3856L13.42 22.4088ZM13.42 22.4088L15.8464 20.6953L19.9358 25.0492C20.0589 25.1809 20.2259 25.2472 20.3923 25.2472C20.5465 25.2472 20.7002 25.1908 20.8211 25.0771C21.073 24.8407 21.086 24.4443 20.8486 24.1922L16.3861 19.4411L16.3861 19.4411C16.1714 19.2128 15.8233 19.1789 15.5687 19.3586C15.5687 19.3586 15.5687 19.3586 15.5687 19.3586L12.6977 21.3855L13.42 22.4088Z" fill="#76FFFF" stroke="#76FFFF" stroke-width="0.3"/>
<path d="M4.2867 24.0346L4.28625 24.0346L4.28625 24.0346H4.28625H4.28624H4.28624H4.28624H4.28623H4.28623H4.28623H4.28622H4.28622H4.28622H4.28621H4.28621H4.28621H4.2862H4.2862H4.2862H4.2862H4.28619H4.28619H4.28619H4.28618H4.28618H4.28618H4.28617H4.28617H4.28617H4.28616H4.28616H4.28616H4.28615H4.28615H4.28615H4.28614H4.28614H4.28614H4.28613H4.28613H4.28613H4.28612H4.28612H4.28612H4.28612H4.28611H4.28611H4.28611H4.2861H4.2861H4.2861H4.28609H4.28609H4.28609H4.28608H4.28608H4.28608H4.28607H4.28607H4.28607H4.28606H4.28606H4.28606H4.28605H4.28605H4.28605H4.28604H4.28604H4.28604H4.28604H4.28603H4.28603H4.28603H4.28602H4.28602H4.28602H4.28601H4.28601H4.28601H4.286H4.286H4.286H4.28599H4.28599H4.28599H4.28598H4.28598H4.28598H4.28597H4.28597H4.28597H4.28597H4.28596H4.28596H4.28596H4.28595H4.28595H4.28595H4.28594H4.28594H4.28594H4.28593H4.28593H4.28593H4.28592H4.28592H4.28592H4.28591H4.28591H4.28591H4.2859H4.2859H4.2859H4.28589H4.28589H4.28589H4.28589H4.28588H4.28588H4.28588H4.28587H4.28587H4.28587H4.28586H4.28586H4.28586H4.28585H4.28585H4.28585H4.28584H4.28584H4.28584H4.28583H4.28583H4.28583H4.28582H4.28582H4.28582H4.28582H4.28581H4.28581H4.28581H4.2858H4.2858H4.2858H4.28579H4.28579H4.28579H4.28578H4.28578H4.28578H4.28577H4.28577H4.28577H4.28576H4.28576H4.28576H4.28575H4.28575H4.28575H4.28574H4.28574H4.28574H4.28574H4.28573H4.28573H4.28573H4.28572H4.28572H4.28572H4.28571H4.28571H4.28571H4.2857H4.2857H4.2857H4.28569H4.28569H4.28569H4.28568H4.28568H4.28568H4.28567H4.28567H4.28567H4.28567H4.28566H4.28566H4.28566H4.28565H4.28565H4.28565H4.28564H4.28564H4.28564H4.28563H4.28563H4.28563H4.28562H4.28562H4.28562H4.28561H4.28561H4.28561H4.2856H4.2856H4.2856H4.28559H4.28559H4.28559H4.28559H4.28558H4.28558H4.28558H4.28557H4.28557H4.28557H4.28556H4.28556H4.28556H4.28555H4.28555H4.28555H4.28554H4.28554H4.28554H4.28553H4.28553H4.28553H4.28552H4.28552H4.28552H4.28551H4.28551H4.28551H4.28551H4.2855H4.2855H4.2855H4.28549H4.28549H4.28549H4.28548H4.28548H4.28548H4.28547H4.28547H4.28547H4.28546H4.28546H4.28546H4.28545H4.28545H4.28545H4.28544H4.28544H4.28544H4.28544H4.28543H4.28543H4.28543H4.28542H4.28542H4.28542H4.28541H4.28541H4.28541H4.2854H4.2854H4.2854H4.28539H4.28539H4.28539H4.28538H4.28538H4.28538H4.28537H4.28537H4.28537H4.28536H4.28536H4.28536H4.28536H4.28535H4.28535H4.28535H4.28534H4.28534H4.28534H4.28533H4.28533H4.28533H4.28532H4.28532H4.28532H4.28531H4.28531H4.28531H4.2853H4.2853H4.2853H4.28529H4.28529H4.28529H4.28529H4.28528H4.28528H4.28528H4.28527H4.28527H4.28527H4.28526H4.28526H4.28526H4.28525H4.28525H4.28525H4.28524H4.28524H4.28524H4.28523H4.28523H4.28523H4.28522H4.28522H4.28522H4.28521H4.28521H4.28521H4.28521H4.2852H4.2852H4.2852H4.28519H4.28519H4.28519H4.28518H4.28518H4.28518H4.28517H4.28517H4.28517H4.28516H4.28516H4.28516H4.28515H4.28515H4.28515H4.28514H4.28514H4.28514H4.28513H4.28513H4.28513H4.28513H4.28512H4.28512H4.28512H4.28511H4.28511H4.28511H4.2851H4.2851H4.2851H4.28509H4.28509H4.28509H4.28508H4.28508H4.28508H4.28507H4.28507H4.28507H4.28506H4.28506H4.28506H4.28506H4.28505H4.28505H4.28505H4.28504H4.28504H4.28504H4.28503H4.28503H4.28503H4.28502H4.28502H4.28502H4.28501H4.28501H4.28501H4.285H4.285H4.285H4.28499H4.28499H4.28499H4.28498H4.28498H4.28498H4.28498H4.28497H4.28497H4.28497H4.28496H4.28496H4.28496H4.28495H4.28495H4.28495H4.28494H4.28494H4.28494H4.28493H4.28493H4.28493H4.28492H4.28492H4.28492H4.28491H4.28491H4.28491H4.28491H4.2849H4.2849H4.2849H4.28489H4.28489H4.28489H4.28488H4.28488H4.28488H4.28487H4.28487H4.28487H4.28486H4.28486H4.28486H4.28485H4.28485H4.28485H4.28484H4.28484H4.28484H4.28483H4.28483H4.28483H4.28483H4.28482H4.28482H4.28482H4.28481H4.28481H4.28481H4.2848H4.2848H4.2848H4.28479H4.28479H4.28479H4.28478H4.28478H4.28478H4.28477H4.28477H4.28477H4.28476H4.28476H4.28476H4.28475H4.28475H4.28475H4.28475H4.28474H4.28474H4.28474H4.28473H4.28473H4.28473H4.28472H4.28472H4.28472H4.28471H4.28471H4.28471H4.2847H4.2847H4.2847H4.28469H4.28469H4.28469H4.28468H4.28468H4.28468H4.28468H4.28467H4.28467H4.28467H4.28466H4.28466H4.28466H4.28465H4.28465H4.28465H4.28464H4.28464H4.28464H4.28463H4.28463H4.28463H4.28462H4.28462H4.28462C3.93992 24.0346 3.65972 23.7559 3.6586 23.4105C3.65721 23.0648 3.93688 22.7837 4.28263 22.7823L4.2828 22.7823L7.54621 22.7725C7.54632 22.7725 7.54642 22.7725 7.54653 22.7725L7.54682 22.7725L4.2867 24.0346ZM4.2867 24.0346L7.31101 24.0255L12.9358 29.0411L4.2867 24.0346ZM13.7694 28.107L7.96599 22.9318L12.936 29.0412C13.3163 29.3811 13.858 29.5602 14.3805 29.5602C14.6589 29.5602 14.9362 29.509 15.1852 29.4009L15.1853 29.4009L20.9909 26.8762C21.4034 26.697 21.698 26.3648 21.7818 25.9568C21.8665 25.5491 21.7273 25.1273 21.4196 24.7992L21.4195 24.7991L20.8498 24.1923C20.6129 23.94 20.2172 23.9288 19.9649 24.1636L19.9644 24.1641C19.7126 24.4006 19.6996 24.7971 19.9362 25.0493L19.9362 25.0494L20.5058 25.6563C20.5058 25.6563 20.5058 25.6563 20.5058 25.6563C20.5216 25.6732 20.5332 25.6885 20.5413 25.7011C20.529 25.7095 20.5124 25.7189 20.4915 25.7281C20.4914 25.7281 20.4913 25.7282 20.4912 25.7282L14.686 28.2524C14.6859 28.2524 14.6859 28.2525 14.6858 28.2525C14.5642 28.3052 14.3891 28.3199 14.209 28.2913C14.0288 28.2627 13.8677 28.1946 13.7694 28.107L13.7694 28.107Z" fill="#76FFFF" stroke="#76FFFF" stroke-width="0.3"/>
<path d="M15.8646 28.6142L15.8647 28.6143C15.982 28.713 16.1252 28.7616 16.2675 28.7616C16.446 28.7616 16.6227 28.6856 16.7467 28.5394L16.7471 28.539C16.9697 28.2748 16.9359 27.8797 16.672 27.6567L16.6718 27.6566L14.2628 25.6251L14.1659 25.7396L14.2626 25.6249L14.2627 25.625C13.9975 25.4009 13.603 25.4361 13.3802 25.7001L13.3801 25.7002C13.1575 25.9644 13.191 26.3591 13.4552 26.5825L13.4553 26.5826L15.8646 28.6142Z" fill="#76FFFF" stroke="#76FFFF" stroke-width="0.3"/>
<path d="M16.1972 24.8619C16.1972 24.8619 16.1973 24.862 16.1973 24.862L18.4101 26.8489L18.4101 26.849L18.3099 26.9606L16.1972 24.8619ZM16.1972 24.8619C15.9412 24.6311 15.5441 24.6523 15.3131 24.9097L16.1972 24.8619ZM18.458 27.733L18.458 27.733L15.313 24.9098C15.082 25.167 15.1031 25.5626 15.3607 25.7937C15.3607 25.7937 15.3607 25.7938 15.3608 25.7938L17.5736 27.7807C17.5736 27.7808 17.5736 27.7808 17.5736 27.7808C17.6932 27.8885 17.8433 27.9411 17.9922 27.9411C18.1632 27.9411 18.3346 27.8705 18.458 27.733Z" fill="#76FFFF" stroke="#76FFFF" stroke-width="0.3"/>
<path d="M19.4543 26.9649L19.4543 26.9649L17.0601 24.8184C17.0601 24.8184 17.0601 24.8184 17.0601 24.8183L17.06 24.8183L17.1601 24.7066C16.9642 24.5314 16.9481 24.2306 17.1239 24.0344L19.4543 26.9649ZM19.4543 26.9649C19.5741 27.0722 19.7235 27.125 19.8726 27.125C20.0441 27.125 20.2149 27.0547 20.3384 26.9172L20.3386 26.917C20.5694 26.6594 20.5486 26.2638 20.2908 26.0328C20.2907 26.0328 20.2907 26.0327 20.2907 26.0327L17.8963 23.8862L19.4543 26.9649Z" fill="#76FFFF" stroke="#76FFFF" stroke-width="0.3"/>
<path d="M0.476292 25.4755H4.28581C4.63198 25.4755 4.91183 25.1952 4.91183 24.8492V15.8016C4.91183 15.4555 4.63187 15.1756 4.28581 15.1756H0.476292C0.130347 15.1756 -0.15 15.4554 -0.15 15.8016V24.8492C-0.15 25.1953 0.130235 25.4755 0.476292 25.4755ZM3.65952 16.4279V24.2232H1.10231V16.4279H3.65952Z" fill="#76FFFF" stroke="#76FFFF" stroke-width="0.3"/>
<path d="M25.7126 25.4755H29.5221C29.8683 25.4755 30.1482 25.1952 30.1482 24.8492V15.8016C30.1482 15.4555 29.8682 15.1756 29.5221 15.1756H25.7126C25.3667 15.1756 25.0863 15.4554 25.0863 15.8016V24.8492C25.0863 25.1953 25.3666 25.4755 25.7126 25.4755ZM28.8958 16.4279V24.2232H26.3386V16.4279H28.8958Z" fill="#76FFFF" stroke="#76FFFF" stroke-width="0.3"/>
<path d="M8.37955 15.9219C8.44228 15.9421 8.50711 15.9517 8.57037 15.9517C8.76858 15.9517 8.95987 15.8571 9.07981 15.6895L9.07989 15.6894L10.5933 13.5708H22.6739C23.645 13.5708 24.4347 12.781 24.4347 11.8099V2.17449C24.4347 1.20337 23.645 0.413599 22.6739 0.413599H7.80035C6.82922 0.413599 6.03945 1.20337 6.03945 2.17449V11.8099C6.03945 12.781 6.82922 13.5708 7.80035 13.5708H7.94435V15.3257C7.94435 15.5977 8.12028 15.8388 8.37955 15.9219ZM8.37955 15.9219C8.37958 15.9219 8.37961 15.9219 8.37964 15.9219L8.42541 15.7791L8.37946 15.9218C8.37949 15.9219 8.37952 15.9219 8.37955 15.9219ZM7.80035 1.66591C7.51997 1.66591 7.29177 1.89412 7.29177 2.17449V11.8099C7.29177 12.0902 7.51997 12.3185 7.80035 12.3185H8.57037C8.91643 12.3185 9.19666 12.5987 9.19666 12.9447V13.3717L9.76155 12.5809L7.80035 1.66591ZM7.80035 1.66591H22.6739C22.9542 1.66591 23.1824 1.89412 23.1824 2.17449V11.8099C23.1824 12.0902 22.9542 12.3185 22.6739 12.3185H10.2709C10.0688 12.3185 9.87894 12.4162 9.76165 12.5807L7.80035 1.66591Z" fill="#76FFFF" stroke="#76FFFF" stroke-width="0.3"/>
</g>
<defs>
<clipPath id="clip0">
<rect width="30" height="30" fill="white"/>
</clipPath>
</defs>
</svg>
