<svg width="24" height="24" viewBox="0 0 24 24" fill="none" xmlns="http://www.w3.org/2000/svg">
<g clip-path="url(#clip0)">
<path d="M15.8483 19.8814L15.8482 19.8812C15.7351 19.6108 15.8629 19.2998 16.1333 19.1866L16.1333 19.1866L18.335 18.2649L18.3355 18.2647C18.4017 18.2373 18.4784 18.2222 18.5485 18.2239M15.8483 19.8814L18.5455 18.3739M15.8483 19.8814C15.9339 20.0851 16.1311 20.2074 16.3382 20.2074C16.4064 20.2074 16.476 20.1943 16.543 20.1663L16.543 20.1663L18.6426 19.2875M15.8483 19.8814L16.4851 20.0279L18.6135 19.137M18.5485 18.2239C18.5489 18.2239 18.5492 18.2239 18.5496 18.2239L18.5455 18.3739M18.5485 18.2239L18.5477 18.2239L18.5455 18.3739M18.5485 18.2239L20.4371 18.2514C20.7301 18.2556 20.9645 18.4969 20.9603 18.7902L20.9603 18.7903C20.956 19.0808 20.719 19.3134 20.4293 19.3134H20.4293H20.4293H20.4292H20.4292H20.4292H20.4292H20.4292H20.4292H20.4292H20.4292H20.4291H20.4291H20.4291H20.4291H20.4291H20.4291H20.4291H20.4291H20.4291H20.429H20.429H20.429H20.429H20.429H20.429H20.429H20.429H20.429H20.4289H20.4289H20.4289H20.4289H20.4289H20.4289H20.4289H20.4289H20.4289H20.4288H20.4288H20.4288H20.4288H20.4288H20.4288H20.4288H20.4288H20.4288H20.4287H20.4287H20.4287H20.4287H20.4287H20.4287H20.4287H20.4287H20.4286H20.4286H20.4286H20.4286H20.4286H20.4286H20.4286H20.4286H20.4286H20.4285H20.4285H20.4285H20.4285H20.4285H20.4285H20.4285H20.4285H20.4285H20.4284H20.4284H20.4284H20.4284H20.4284H20.4284H20.4284H20.4284H20.4284H20.4283H20.4283H20.4283H20.4283H20.4283H20.4283H20.4283H20.4283H20.4283H20.4282H20.4282H20.4282H20.4282H20.4282H20.4282H20.4282H20.4282H20.4282H20.4281H20.4281H20.4281H20.4281H20.4281H20.4281H20.4281H20.4281H20.4281H20.428H20.428H20.428H20.428H20.428H20.428H20.428H20.428H20.428H20.4279H20.4279H20.4279H20.4279H20.4279H20.4279H20.4279H20.4279H20.4279H20.4278H20.4278H20.4278H20.4278H20.4278H20.4278H20.4278H20.4278H20.4278H20.4277H20.4277H20.4277H20.4277H20.4277H20.4277H20.4277H20.4277H20.4277H20.4276H20.4276H20.4276H20.4276H20.4276H20.4276H20.4276H20.4276H20.4276H20.4276H20.4275H20.4275H20.4275H20.4275H20.4275H20.4275H20.4275H20.4275H20.4275H20.4274H20.4274H20.4274H20.4274H20.4274H20.4274H20.4274H20.4274H20.4274H20.4273H20.4273H20.4273H20.4273H20.4273H20.4273H20.4273H20.4273H20.4273H20.4272H20.4272H20.4272H20.4272H20.4272H20.4272H20.4272H20.4272H20.4272H20.4271H20.4271H20.4271H20.4271H20.4271H20.4271H20.4271H20.4271H20.4271H20.427H20.427H20.427H20.427H20.427H20.427H20.427H20.427H20.427H20.427H20.4269H20.4269H20.4269H20.4269H20.4269H20.4269H20.4269H20.4269H20.4269H20.4268H20.4268H20.4268H20.4268H20.4268H20.4268H20.4268H20.4268H20.4268H20.4267H20.4267H20.4267H20.4267H20.4267H20.4267H20.4267H20.4267H20.4267H20.4266H20.4266H20.4266H20.4266H20.4266H20.4266H20.4266H20.4266H20.4266H20.4265H20.4265H20.4265H20.4265H20.4265H20.4265H20.4265H20.4265H20.4265H20.4265H20.4264H20.4264H20.4264H20.4264H20.4264H20.4264H20.4264H20.4264H20.4264H20.4263H20.4263H20.4263H20.4263H20.4263H20.4263H20.4263H20.4263H20.4263H20.4262H20.4262H20.4262H20.4262H20.4262H20.4262H20.4262H20.4262H20.4262H20.4261H20.4261H20.4261H20.4261H20.4261H20.4261H20.4261H20.4261H20.4261H20.426H20.426H20.426H20.426H20.426H20.426H20.426H20.426H20.426H20.426H20.4259H20.4259H20.4259H20.4259H20.4259H20.4259H20.4259H20.4259H20.4259H20.4258H20.4258H20.4258H20.4258H20.4258H20.4258H20.4258H20.4258H20.4258H20.4257H20.4257H20.4257H20.4257H20.4257H20.4257H20.4257H20.4257H20.4257H20.4256H20.4256H20.4256H20.4256H20.4256H20.4256H20.4256H20.4256H20.4256H20.4255H20.4255H20.4255H20.4255H20.4255H20.4255H20.4255H20.4255H20.4255H20.4255H20.4254H20.4254H20.4254H20.4254H20.4254H20.4254H20.4254H20.4254H20.4254H20.4253H20.4253H20.4253H20.4253H20.4253H20.4253H20.4253H20.4253H20.4253H20.4252H20.4252H20.4252H20.4252H20.4252H20.4252H20.4252H20.4252H20.4252H20.4251H20.4251H20.4251H20.4251H20.4251H20.4251H20.4251H20.4251H20.4251H20.425H20.425H20.425H20.425H20.425H20.425H20.425H20.425H20.425H20.4249H20.4249H20.4249H20.4249H20.4249H20.4249H20.4249H20.4249H20.4249H20.4248H20.4248H20.4248H20.4248H20.4248H20.4248H20.4248H20.4248H20.4248H20.4247H20.4247H20.4247H20.4247H20.4247H20.4247H20.4247H20.4247H20.4247H20.4246H20.4246H20.4246H20.4246H20.4246H20.4246H20.4246H20.4246H20.4246H20.4245H20.4245H20.4245H20.4245H20.4245H20.4245H20.4245H20.4245H20.4245H20.4244H20.4244H20.4244H20.4244H20.4244H20.4244H20.4244H20.4244H20.4244H20.4243H20.4243H20.4243H20.4243H20.4243H20.4243H20.4243H20.4243H20.4243H20.4242H20.4242H20.4242H20.4242H20.4242H20.4242H20.4242H20.4242H20.4242H20.4241H20.4241H20.4241H20.4241H20.4241H20.4241H20.4241H20.4241H20.4241H20.424H20.424H20.424H20.424H20.424H20.424H20.424H20.424H20.4239H20.4239H20.4239H20.4239H20.4239H20.4239H20.4239H20.4239H20.4239H20.4238H20.4238H20.4238H20.4238H20.4238H20.4238H20.4238H20.4238H20.4238H20.4237H20.4237H20.4237H20.4237H20.4237H20.4237H20.4237H20.4237H20.4237H20.4236H20.4236H20.4236H20.4236H20.4214L20.4214 19.3134L18.6426 19.2875M18.5455 18.3739L20.4349 18.4014C20.6451 18.4044 20.8134 18.5775 20.8103 18.7881C20.8073 18.9964 20.6372 19.1634 20.4293 19.1634H20.4236L18.6135 19.137M18.6426 19.2875L18.6714 19.2754L18.6135 19.137M18.6426 19.2875L18.6113 19.287L18.6135 19.137" fill="#76FFFF" stroke="#76FFFF" stroke-width="0.3"/>
<path d="M3.0728 13.8302L3.0728 13.8302C3.06611 13.5371 3.29833 13.2942 3.5915 13.2873L3.59168 13.2873L6.72381 13.2164L7.9346 12.8896L7.93556 12.8893C7.98606 12.876 8.03567 12.873 8.07094 12.8715L8.07939 12.8711L8.07939 12.8713L10.8547 12.9032L12.1616 11.8338L12.1618 11.8337C12.255 11.7576 12.3828 11.7095 12.5042 11.7141L15.1343 11.7345C15.1343 11.7345 15.1344 11.7345 15.1344 11.7345L15.1345 11.7345L15.1333 11.8845C15.2033 11.885 15.2718 11.905 15.3313 11.9419L3.0728 13.8302ZM3.0728 13.8302C3.07946 14.1189 3.31463 14.3481 3.60159 14.3493L3.60155 14.3498L3.6157 14.3495L6.8122 14.2769L6.8122 14.2769L6.81307 14.2769C6.85496 14.2757 6.89692 14.2697 6.93786 14.2588L6.93853 14.2587L8.14073 13.9345L11.0355 13.9674L11.0438 13.9675L11.052 13.9667C11.1586 13.9561 11.2743 13.9311 11.377 13.8482L11.3777 13.8476L12.6855 12.7776L14.9771 12.7954L17.264 14.2147C17.2641 14.2148 17.2642 14.2149 17.2643 14.215C17.3474 14.267 17.4431 14.2941 17.5398 14.295L17.5398 14.295L20.4237 14.3216H20.4251H20.4251H20.4251H20.4251H20.4252H20.4252H20.4252H20.4252H20.4252H20.4253H20.4253H20.4253H20.4253H20.4253H20.4254H20.4254H20.4254H20.4254H20.4254H20.4254H20.4255H20.4255H20.4255H20.4255H20.4255H20.4256H20.4256H20.4256H20.4256H20.4256H20.4257H20.4257H20.4257H20.4257H20.4257H20.4258H20.4258H20.4258H20.4258H20.4258H20.4258H20.4259H20.4259H20.4259H20.4259H20.4259H20.426H20.426H20.426H20.426H20.426H20.4261H20.4261H20.4261H20.4261H20.4261H20.4262H20.4262H20.4262H20.4262H20.4262H20.4263H20.4263H20.4263H20.4263H20.4263H20.4263H20.4264H20.4264H20.4264H20.4264H20.4264H20.4265H20.4265H20.4265H20.4265H20.4265H20.4266H20.4266H20.4266H20.4266H20.4266H20.4267H20.4267H20.4267H20.4267H20.4267H20.4267H20.4268H20.4268H20.4268H20.4268H20.4268H20.4269H20.4269H20.4269H20.4269H20.4269H20.427H20.427H20.427H20.427H20.427H20.4271H20.4271H20.4271H20.4271H20.4271H20.4272H20.4272H20.4272H20.4272H20.4272H20.4272H20.4273H20.4273H20.4273H20.4273H20.4273H20.4274H20.4274H20.4274H20.4274H20.4274H20.4275H20.4275H20.4275H20.4275H20.4275H20.4276H20.4276H20.4276H20.4276H20.4276H20.4276H20.4277H20.4277H20.4277H20.4277H20.4277H20.4278H20.4278H20.4278H20.4278H20.4278H20.4279H20.4279H20.4279H20.4279H20.4279H20.428H20.428H20.428H20.428H20.428H20.4281H20.4281H20.4281H20.4281H20.4281H20.4281H20.4282H20.4282H20.4282H20.4282H20.4282H20.4283H20.4283H20.4283H20.4283H20.4284C20.7194 14.3216 20.9566 14.087 20.9594 13.7952V13.7951C20.9618 13.5023 20.7267 13.2623 20.4332 13.2595L20.4332 13.2595L17.6981 13.2346L3.0728 13.8302Z" fill="#76FFFF" stroke="#76FFFF" stroke-width="0.3"/>
<path d="M10.7537 17.9516L10.7537 17.9517C10.2056 18.3384 9.48449 18.3769 8.89902 18.1057C8.77533 18.0937 8.6548 18.0386 8.56305 17.9403C8.56299 17.9402 8.56293 17.9401 8.56288 17.9401L8.34481 17.7076L8.32983 17.6917L8.32874 17.6895C8.24244 17.5896 8.19981 17.4655 8.20003 17.3425C7.98573 16.7419 8.09567 16.0319 8.54056 15.5394C8.54057 15.5394 8.54059 15.5394 8.5406 15.5394L11.7931 11.9359L11.7931 11.9359C11.8927 11.8257 12.0336 11.7622 12.1819 11.7607L12.182 11.7607L15.2185 11.7306C15.3306 11.7226 15.4368 11.764 15.5157 11.8147C15.5158 11.8148 15.5159 11.8148 15.5159 11.8149L17.7424 13.242L20.2541 13.2355L20.2545 13.2355L20.2556 13.2355C20.548 13.2355 20.786 13.4723 20.7866 13.7649C20.7872 14.0582 20.5504 14.2965 20.2574 14.2974L20.2573 14.2974L17.589 14.3043L17.5777 14.3044L17.5667 14.3027C17.5631 14.3022 17.5593 14.3017 17.5553 14.3011C17.4946 14.2924 17.3892 14.2772 17.3008 14.2205L17.3007 14.2205L15.0758 12.7942L12.4251 12.8201L9.32871 16.2509L9.3286 16.251C9.13088 16.4696 9.10038 16.8232 9.24448 17.085C9.50852 17.2566 9.88956 17.2614 10.1412 17.084L10.7537 17.9516ZM10.7537 17.9516L12.6735 16.5958L15.9271 20.0599C15.9272 20.0599 15.9272 20.0599 15.9272 20.06M10.7537 17.9516L15.9272 20.06M15.9272 20.06C16.0316 20.1716 16.1732 20.2278 16.3142 20.2278C16.4449 20.2278 16.5753 20.18 16.6778 20.0836C16.6779 20.0836 16.6779 20.0836 16.6779 20.0835L15.9272 20.06ZM12.4381 15.4624L10.1413 17.084L16.7011 19.3332L13.1311 15.5324L13.1311 15.5323C12.9491 15.3388 12.6539 15.3101 12.4381 15.4624C12.4381 15.4624 12.4381 15.4624 12.4381 15.4624Z" fill="#76FFFF" stroke="#76FFFF" stroke-width="0.3"/>
<path d="M3.42945 19.2578L3.429 19.2578L3.429 19.2578H3.429H3.42899H3.42899H3.42899H3.42899H3.42898H3.42898H3.42898H3.42898H3.42897H3.42897H3.42897H3.42897H3.42896H3.42896H3.42896H3.42896H3.42895H3.42895H3.42895H3.42895H3.42894H3.42894H3.42894H3.42894H3.42893H3.42893H3.42893H3.42893H3.42892H3.42892H3.42892H3.42892H3.42891H3.42891H3.42891H3.4289H3.4289H3.4289H3.4289H3.42889H3.42889H3.42889H3.42889H3.42888H3.42888H3.42888H3.42888H3.42887H3.42887H3.42887H3.42887H3.42886H3.42886H3.42886H3.42886H3.42885H3.42885H3.42885H3.42885H3.42884H3.42884H3.42884H3.42884H3.42883H3.42883H3.42883H3.42883H3.42882H3.42882H3.42882H3.42882H3.42881H3.42881H3.42881H3.42881H3.4288H3.4288H3.4288H3.4288H3.42879H3.42879H3.42879H3.42878H3.42878H3.42878H3.42878H3.42877H3.42877H3.42877H3.42877H3.42876H3.42876H3.42876H3.42876H3.42875H3.42875H3.42875H3.42875H3.42874H3.42874H3.42874H3.42874H3.42873H3.42873H3.42873H3.42873H3.42872H3.42872H3.42872H3.42872H3.42871H3.42871H3.42871H3.42871H3.4287H3.4287H3.4287H3.4287H3.42869H3.42869H3.42869H3.42869H3.42868H3.42868H3.42868H3.42868H3.42867H3.42867H3.42867H3.42866H3.42866H3.42866H3.42866H3.42865H3.42865H3.42865H3.42865H3.42864H3.42864H3.42864H3.42864H3.42863H3.42863H3.42863H3.42863H3.42862H3.42862H3.42862H3.42862H3.42861H3.42861H3.42861H3.42861H3.4286H3.4286H3.4286H3.4286H3.42859H3.42859H3.42859H3.42859H3.42858H3.42858H3.42858H3.42858H3.42857H3.42857H3.42857H3.42857H3.42856H3.42856H3.42856H3.42856H3.42855H3.42855H3.42855H3.42854H3.42854H3.42854H3.42854H3.42853H3.42853H3.42853H3.42853H3.42852H3.42852H3.42852H3.42852H3.42851H3.42851H3.42851H3.42851H3.4285H3.4285H3.4285H3.4285H3.42849H3.42849H3.42849H3.42849H3.42848H3.42848H3.42848H3.42848H3.42847H3.42847H3.42847H3.42847H3.42846H3.42846H3.42846H3.42846H3.42845H3.42845H3.42845H3.42845H3.42844H3.42844H3.42844H3.42843H3.42843H3.42843H3.42843H3.42842H3.42842H3.42842H3.42842H3.42841H3.42841H3.42841H3.42841H3.4284H3.4284H3.4284H3.4284H3.42839H3.42839H3.42839H3.42839H3.42838H3.42838H3.42838H3.42838H3.42837H3.42837H3.42837H3.42837H3.42836H3.42836H3.42836H3.42836H3.42835H3.42835H3.42835H3.42835H3.42834H3.42834H3.42834H3.42834H3.42833H3.42833H3.42833H3.42833H3.42832H3.42832H3.42832H3.42831H3.42831H3.42831H3.42831H3.4283H3.4283H3.4283H3.4283H3.42829H3.42829H3.42829H3.42829H3.42828H3.42828H3.42828H3.42828H3.42827H3.42827H3.42827H3.42827H3.42826H3.42826H3.42826H3.42826H3.42825H3.42825H3.42825H3.42825H3.42824H3.42824H3.42824H3.42824H3.42823H3.42823H3.42823H3.42823H3.42822H3.42822H3.42822H3.42822H3.42821H3.42821H3.42821H3.42821H3.4282H3.4282H3.4282H3.42819H3.42819H3.42819H3.42819H3.42818H3.42818H3.42818H3.42818H3.42817H3.42817H3.42817H3.42817H3.42816H3.42816H3.42816H3.42816H3.42815H3.42815H3.42815H3.42815H3.42814H3.42814H3.42814H3.42814H3.42813H3.42813H3.42813H3.42813H3.42812H3.42812H3.42812H3.42812H3.42811H3.42811H3.42811H3.42811H3.4281H3.4281H3.4281H3.4281H3.42809H3.42809H3.42809H3.42808H3.42808H3.42808H3.42808H3.42807H3.42807H3.42807H3.42807H3.42806H3.42806H3.42806H3.42806H3.42805H3.42805H3.42805H3.42805H3.42804H3.42804H3.42804H3.42804H3.42803H3.42803H3.42803H3.42803H3.42802H3.42802H3.42802H3.42802H3.42801H3.42801H3.42801H3.42801H3.428H3.428H3.428H3.428H3.42799H3.42799H3.42799H3.42799H3.42798H3.42798H3.42798H3.42798H3.42797H3.42797H3.42797H3.42796H3.42796H3.42796H3.42796H3.42795H3.42795H3.42795H3.42795H3.42794H3.42794H3.42794H3.42794H3.42793H3.42793H3.42793H3.42793H3.42792H3.42792H3.42792H3.42792H3.42791H3.42791H3.42791H3.42791H3.4279H3.4279H3.4279H3.4279H3.42789H3.42789H3.42789H3.42789H3.42788H3.42788H3.42788H3.42788H3.42787H3.42787H3.42787H3.42787H3.42786H3.42786H3.42786H3.42786H3.42785H3.42785H3.42785H3.42784H3.42784H3.42784H3.42784H3.42783H3.42783H3.42783H3.42783H3.42782H3.42782H3.42782H3.42782H3.42781H3.42781H3.42781H3.42781H3.4278H3.4278H3.4278H3.4278H3.42779H3.42779H3.42779H3.42779H3.42778H3.42778H3.42778H3.42778H3.42777H3.42777H3.42777H3.42777H3.42776H3.42776H3.42776H3.42776H3.42775H3.42775H3.42775H3.42775H3.42774H3.42774H3.42774H3.42774H3.42773H3.42773H3.42773H3.42772H3.42772H3.42772H3.42772H3.42771H3.42771H3.42771H3.42771H3.4277H3.4277H3.4277H3.4277H3.42769C3.13542 19.2578 2.89783 19.0215 2.89688 18.7287C2.8957 18.4354 3.13287 18.1972 3.42598 18.196L3.42615 18.196L6.03675 18.1881C6.03686 18.1881 6.03698 18.1881 6.03709 18.1881L6.03737 18.1881L3.42945 19.2578ZM3.42945 19.2578L5.83742 19.2506L10.3287 23.2554C10.3287 23.2554 10.3287 23.2554 10.3287 23.2554C10.6393 23.533 11.0802 23.6783 11.5044 23.6783C11.7307 23.6783 11.9567 23.6367 12.1601 23.5484L12.1602 23.5484L16.8047 21.5286M3.42945 19.2578L16.8047 21.5286M16.8047 21.5286C16.8047 21.5286 16.8047 21.5286 16.8047 21.5286L16.8047 21.5286ZM11.0355 22.4633L6.39283 18.3233L16.3829 20.5459C16.3848 20.5479 16.3866 20.5499 16.3883 20.5519C16.386 20.5529 16.3837 20.554 16.3812 20.5551C16.3811 20.5552 16.381 20.5552 16.3809 20.5553L11.7368 22.5746C11.7368 22.5746 11.7368 22.5746 11.7367 22.5746C11.6462 22.6138 11.5123 22.6258 11.3719 22.6036C11.2314 22.5813 11.1085 22.5285 11.0355 22.4634L11.0355 22.4633ZM15.9271 20.0602L16.3827 20.5456L17.308 20.7412L17.4548 20.7717C17.4548 20.7717 17.4548 20.7717 17.4548 20.7716C17.5248 20.4345 17.4094 20.0875 17.1575 19.819L17.1575 19.8189L16.7017 19.3335C16.5008 19.1195 16.1654 19.1101 15.9515 19.3091L15.951 19.3095C15.7375 19.51 15.7265 19.8462 15.927 20.0601L15.9271 20.0602Z" fill="#76FFFF" stroke="#76FFFF" stroke-width="0.3"/>
<path d="M10.7947 20.6374L10.7947 20.6374L10.7947 20.6374ZM10.7947 20.6374C10.6593 20.7981 10.6796 21.0383 10.8404 21.1743L10.7947 20.6374ZM12.6711 22.9143L12.6712 22.9144C12.7707 22.998 12.8921 23.0392 13.0128 23.0392C13.1641 23.0392 13.314 22.9748 13.4191 22.8509L13.4194 22.8505C13.6082 22.6264 13.5795 22.2915 13.3558 22.1024L13.3556 22.1023L11.4284 20.4771L11.3315 20.5916L11.4282 20.477L11.4283 20.477C11.2035 20.287 10.8689 20.3169 10.68 20.5407L10.6799 20.5408C10.4912 20.7648 10.5196 21.0995 10.7436 21.2889L10.7437 21.289L12.6711 22.9143Z" fill="#76FFFF" stroke="#76FFFF" stroke-width="0.3"/>
<path d="M12.9778 19.8674C12.9779 19.8674 12.9779 19.8674 12.978 19.8675L14.7481 21.457L14.7482 21.457L14.6479 21.5686L12.9778 19.8674ZM12.9778 19.8674C12.7606 19.6716 12.424 19.6896 12.2282 19.9078L12.9778 19.8674ZM14.7887 22.2066L14.7887 22.2066L12.2281 19.9079C12.0322 20.126 12.0501 20.4615 12.2685 20.6575C12.2685 20.6575 12.2685 20.6575 12.2686 20.6575L14.0388 22.247C14.0388 22.247 14.0388 22.2471 14.0388 22.2471C14.1402 22.3384 14.2676 22.383 14.3938 22.383C14.5388 22.383 14.6841 22.3231 14.7887 22.2066Z" fill="#76FFFF" stroke="#76FFFF" stroke-width="0.3"/>
<path d="M15.5434 21.5943L15.5434 21.5942L13.6281 19.8771C13.6281 19.8771 13.6281 19.877 13.628 19.877L13.628 19.877L13.7281 19.7653C13.5714 19.6251 13.5585 19.3845 13.6991 19.2275L15.5434 21.5943ZM15.5434 21.5943C15.645 21.6852 15.7717 21.73 15.8981 21.73C16.0434 21.73 16.1883 21.6704 16.2931 21.5538L16.2932 21.5536C16.4889 21.3353 16.4713 20.9998 16.2526 20.8039C16.2526 20.8039 16.2526 20.8038 16.2526 20.8038L14.337 19.0866L15.5434 21.5943Z" fill="#76FFFF" stroke="#76FFFF" stroke-width="0.3"/>
<path d="M0.381034 20.4105H3.42865C3.72218 20.4105 3.95947 20.1727 3.95947 19.8794V12.6413C3.95947 12.3479 3.72206 12.1105 3.42865 12.1105H0.381034C0.0877316 12.1105 -0.15 12.3478 -0.15 12.6413V19.8794C-0.15 20.1728 0.0876197 20.4105 0.381034 20.4105ZM2.89762 13.1723V19.3486H0.911849V13.1723H2.89762Z" fill="#76FFFF" stroke="#76FFFF" stroke-width="0.3"/>
<path d="M20.5705 20.4105H23.6181C23.9116 20.4105 24.1489 20.1727 24.1489 19.8794V12.6413C24.1489 12.3479 23.9115 12.1105 23.6181 12.1105H20.5705C20.2772 12.1105 20.0395 12.3478 20.0395 12.6413V19.8794C20.0395 20.1728 20.2771 20.4105 20.5705 20.4105ZM23.0871 13.1723V19.3486H21.1013V13.1723H23.0871Z" fill="#76FFFF" stroke="#76FFFF" stroke-width="0.3"/>
<path d="M6.23989 10.8867H6.32509V12.2606C6.32509 12.4913 6.47426 12.6956 6.69407 12.7661C6.74732 12.7832 6.80228 12.7914 6.8559 12.7914C7.02398 12.7914 7.18616 12.7112 7.28785 12.5691L7.28793 12.569L8.48971 10.8867H18.1387C18.9322 10.8867 19.5774 10.2414 19.5774 9.44794V1.73964C19.5774 0.946175 18.9322 0.300928 18.1387 0.300928H6.23989C5.44642 0.300928 4.80117 0.946175 4.80117 1.73964V9.44794C4.80117 10.2414 5.44642 10.8867 6.23989 10.8867ZM5.86302 1.73964C5.86302 1.53191 6.03216 1.36278 6.23989 1.36278L7.90658 10.1344L7.78452 10.0472L7.78441 10.0473L7.38694 10.6038V10.3558C7.38694 10.0624 7.14932 9.82481 6.8559 9.82481H6.23989C6.03216 9.82481 5.86302 9.65567 5.86302 9.44794V1.73964Z" fill="#76FFFF" stroke="#76FFFF" stroke-width="0.3"/>
</g>
<defs>
<clipPath id="clip0">
<rect width="24" height="24" fill="white"/>
</clipPath>
</defs>
</svg>
