<svg width="13" height="24" viewBox="0 0 13 24" fill="none" xmlns="http://www.w3.org/2000/svg">
<path d="M12.0134 21.9903C12.0072 21.7265 11.8969 21.4759 11.7068 21.2931L2.41378 12.0001L11.7068 2.70711C11.8025 2.61392 11.8787 2.50248 11.9307 2.37936C11.9827 2.25625 12.0095 2.12396 12.0095 1.99032C12.0094 1.79138 11.9501 1.59699 11.8389 1.43198C11.7278 1.26697 11.57 1.13884 11.3857 1.06399C11.2014 0.989129 10.999 0.970939 10.8043 1.01174C10.6095 1.05255 10.4314 1.15049 10.2927 1.29305L0.29269 11.2931C0.105225 11.4806 -8.58307e-05 11.7349 -8.58307e-05 12.0001C-8.58307e-05 12.2653 0.105225 12.5196 0.29269 12.7071L10.2927 22.7071C10.4323 22.8523 10.6126 22.952 10.8099 22.993C11.0071 23.0341 11.2122 23.0146 11.3982 22.9371C11.5841 22.8596 11.7424 22.7278 11.8522 22.5588C11.962 22.3899 12.0181 22.1917 12.0134 21.9903Z" fill="white"/>
</svg>
