<svg width="13" height="24" viewBox="0 0 13 24" fill="none" xmlns="http://www.w3.org/2000/svg">
<path d="M0.986607 2.00968C0.992843 2.27345 1.10306 2.52408 1.29325 2.70695L10.5862 11.9999L1.29325 21.2929C1.19745 21.3861 1.12131 21.4975 1.06931 21.6206C1.01731 21.7438 0.990521 21.876 0.990513 22.0097C0.990565 22.2086 1.04994 22.403 1.16106 22.568C1.27217 22.733 1.42997 22.8612 1.61428 22.936C1.79859 23.0109 2.00104 23.0291 2.19575 22.9883C2.39045 22.9475 2.56856 22.8495 2.70731 22.7069L12.7073 12.7069C12.8948 12.5194 13.0001 12.2651 13.0001 11.9999C13.0001 11.7347 12.8948 11.4804 12.7073 11.2929L2.70731 1.29289C2.56766 1.14766 2.3874 1.048 2.19014 1.00696C1.99289 0.965918 1.78784 0.985413 1.60185 1.06289C1.41586 1.14037 1.25761 1.27221 1.14783 1.44116C1.03805 1.6101 0.981853 1.80826 0.986607 2.00968Z" fill="white"/>
</svg>
