<svg width="75" height="75" viewBox="0 0 75 75" fill="none" xmlns="http://www.w3.org/2000/svg">
<g filter="url(#filter0_d)">
<path fill-rule="evenodd" clip-rule="evenodd" d="M37.5 15C49.9085 15 60 25.0967 60 37.5C60 49.9651 49.9033 60 37.5 60C25.0349 60.0051 15 49.9703 15 37.5C15 25.0967 25.0349 15 37.5 15Z" fill="#00D7D7"/>
<path fill-rule="evenodd" clip-rule="evenodd" d="M37.5006 15.7929C49.4817 15.7929 59.2128 25.524 59.2128 37.5051C59.2128 49.5481 49.4817 59.2792 37.5006 59.2792C25.4577 59.2792 15.7266 49.5481 15.7266 37.5051C15.7317 25.5189 25.4628 15.7929 37.5006 15.7929Z" fill="#1BE6E6"/>
<path fill-rule="evenodd" clip-rule="evenodd" d="M37.5013 15.7929C41.7593 15.7929 45.7135 17.008 49.0551 19.1396C42.1867 18.5887 30.082 20.1076 19.9904 34.524C17.5602 38.0509 17.0093 42.2471 17.864 46.8707C16.5202 44.0698 15.7324 40.8467 15.7324 37.5C15.7324 25.5189 25.4635 15.7929 37.5013 15.7929Z" fill="#26EDED"/>
<path fill-rule="evenodd" clip-rule="evenodd" d="M37.5002 19.8037C47.2931 19.8037 55.1964 27.7122 55.1964 37.4999C55.1964 47.2877 47.2931 55.2631 37.5002 55.2631C27.7124 55.2631 19.7422 47.2928 19.7422 37.4999C19.7422 27.707 27.7124 19.8037 37.5002 19.8037Z" fill="#76FFFF"/>
<path fill-rule="evenodd" clip-rule="evenodd" d="M37.4991 21.5698C46.3189 21.5698 53.4344 28.6854 53.4344 37.5052C53.4344 46.3868 46.3189 53.5023 37.4991 53.5023C28.6793 53.5023 21.502 46.3868 21.502 37.5052C21.5071 28.6854 28.6844 21.5698 37.4991 21.5698Z" fill="#1BE6E6"/>
<path fill-rule="evenodd" clip-rule="evenodd" d="M47.4158 24.9731C51.1281 27.8924 53.4347 32.4542 53.4347 37.5C53.4347 46.3816 46.3191 53.4971 37.4993 53.4971C33.4267 53.4971 29.7762 52.04 26.9805 49.5429C54.104 48.8735 48.0234 26.9811 47.4158 24.9731Z" fill="#26EDED"/>
<path fill-rule="evenodd" clip-rule="evenodd" d="M37.3924 20C47 20 54.7849 27.7849 54.7849 37.3924C54.7849 47 47.0051 54.8467 37.3924 54.8467C27.7849 54.8467 20 47 20 37.3924C20 27.7849 27.7849 20 37.3924 20ZM37.5778 21.6424C46.7014 21.6424 54.0589 29 54.0589 38.1236C54.0589 47.2471 46.7014 54.6047 37.5778 54.6047C28.4542 54.6047 21.0967 47.2471 21.0967 38.1236C21.0967 29 28.4542 21.6424 37.5778 21.6424Z" fill="#07B4B4"/>
<path d="M46.3303 38.0663C45.7837 37.3754 44.959 36.9008 43.856 36.6428C45.2605 35.9424 45.8778 34.7537 45.7083 33.0764C45.6517 32.4682 45.4797 31.9411 45.1921 31.4943C44.9043 31.0474 44.5159 30.6881 44.0254 30.4163C43.5354 30.1442 43.0024 29.937 42.4277 29.7942C41.8528 29.6514 41.1929 29.5477 40.4482 29.4832V26H38.271V29.3865C37.894 29.3865 37.3191 29.3957 36.5462 29.4141V26H34.3688V29.4832C34.0576 29.4925 33.6006 29.4972 32.9973 29.4972L30 29.4832V31.7501H31.5693C32.2857 31.7501 32.7051 32.0635 32.8276 32.69V36.6571C32.922 36.6571 32.9973 36.6618 33.0539 36.671H32.8276V42.2274C32.7523 42.6972 32.479 42.9324 32.0077 42.9324H30.4385L30.0001 45.4619H32.8279C33.007 45.4619 33.266 45.4642 33.6055 45.4684C33.9448 45.4731 34.1992 45.4754 34.3689 45.4754V49H36.5467V45.5168C36.9425 45.5263 37.5174 45.5308 38.2715 45.5308V49H40.4487V45.4754C41.2218 45.4386 41.9074 45.3698 42.5057 45.2681C43.1043 45.1664 43.677 45.0077 44.2236 44.791C44.7701 44.5746 45.2272 44.3049 45.5948 43.9824C45.9625 43.6601 46.2662 43.2499 46.507 42.7522C46.747 42.2545 46.9004 41.6786 46.9661 41.0242C47.0892 39.7436 46.877 38.7576 46.3303 38.0663ZM36.5886 31.9018C36.6546 31.9018 36.8408 31.8994 37.1471 31.8948C37.4536 31.89 37.708 31.8855 37.9106 31.8808C38.1133 31.8763 38.3867 31.8878 38.7308 31.9155C39.0749 31.9431 39.3647 31.98 39.6002 32.026C39.8358 32.072 40.0953 32.1481 40.3778 32.2541C40.6608 32.3599 40.8869 32.489 41.0563 32.641C41.2261 32.7931 41.3698 32.9867 41.4875 33.2217C41.6054 33.4566 41.6643 33.7261 41.6643 34.0302C41.6643 34.2882 41.622 34.5232 41.5373 34.7353C41.4527 34.9472 41.3251 35.1246 41.1557 35.2674C40.9861 35.4103 40.8114 35.5348 40.6323 35.6407C40.4534 35.7466 40.2246 35.8319 39.9466 35.8963C39.6687 35.9609 39.426 36.0116 39.2188 36.0484C39.0114 36.0852 38.7522 36.1107 38.4411 36.1244C38.13 36.1382 37.8943 36.1476 37.7341 36.1521C37.5738 36.1567 37.3547 36.1567 37.0766 36.1521C36.7984 36.1476 36.636 36.1451 36.5887 36.1451V31.9017H36.5886V31.9018ZM42.5341 41.3146C42.4444 41.5266 42.3291 41.7111 42.1878 41.8678C42.0463 42.0242 41.86 42.1626 41.6292 42.2822C41.3984 42.4022 41.1743 42.4987 40.9577 42.5725C40.7408 42.6465 40.4791 42.7106 40.1731 42.7661C39.8664 42.8215 39.5979 42.8604 39.3667 42.8836C39.1359 42.9067 38.8603 42.925 38.5397 42.939C38.2194 42.9525 37.9694 42.9595 37.7904 42.9595C37.6113 42.9595 37.385 42.957 37.1117 42.9525C36.8382 42.9482 36.664 42.9459 36.5885 42.9459V38.2738C36.6638 38.2738 36.8877 38.2693 37.2601 38.2599C37.6326 38.2506 37.9364 38.2463 38.172 38.2463C38.4077 38.2463 38.733 38.2599 39.1479 38.2877C39.5624 38.3152 39.9111 38.3565 40.1941 38.4117C40.4768 38.4671 40.7853 38.5522 41.1202 38.6676C41.4547 38.7827 41.7258 38.9232 41.9332 39.089C42.1406 39.2552 42.3149 39.4668 42.4562 39.7249C42.5979 39.9828 42.6686 40.2778 42.6686 40.6096C42.6685 40.8679 42.6238 41.1025 42.5341 41.3146Z" fill="white"/>
</g>
<defs>
<filter id="filter0_d" x="0" y="0" width="75" height="75" filterUnits="userSpaceOnUse" color-interpolation-filters="sRGB">
<feFlood flood-opacity="0" result="BackgroundImageFix"/>
<feColorMatrix in="SourceAlpha" type="matrix" values="0 0 0 0 0 0 0 0 0 0 0 0 0 0 0 0 0 0 127 0"/>
<feOffset/>
<feGaussianBlur stdDeviation="7.5"/>
<feColorMatrix type="matrix" values="0 0 0 0 0.462745 0 0 0 0 1 0 0 0 0 1 0 0 0 1 0"/>
<feBlend mode="normal" in2="BackgroundImageFix" result="effect1_dropShadow"/>
<feBlend mode="normal" in="SourceGraphic" in2="effect1_dropShadow" result="shape"/>
</filter>
</defs>
</svg>
