<svg width="18" height="19" viewBox="0 0 18 19" fill="none" xmlns="http://www.w3.org/2000/svg">
<path d="M3 1C1.895 1 1 1.92212 1 3.06061V15.9394C1 17.0779 1.895 18 3 18H15C16.105 18 17 17.0779 17 15.9394V3.06061C17 1.92212 16.105 1 15 1H3ZM3 3.26061C3 3.15015 3.08954 3.06061 3.2 3.06061H14.8C14.9105 3.06061 15 3.15015 15 3.26061V5.12121H3V3.26061ZM3 7.18182H15V15.7394C15 15.8499 14.9105 15.9394 14.8 15.9394H3.2C3.08954 15.9394 3 15.8499 3 15.7394V7.18182Z" fill="white" stroke="#091265" stroke-width="1.2"/>
<rect x="5" y="8" width="1.5" height="1.5" rx="0.75" fill="white"/>
<rect x="8" y="8" width="1.5" height="1.5" rx="0.75" fill="white"/>
<rect x="11" y="8" width="1.5" height="1.5" rx="0.75" fill="white"/>
<rect x="5" y="10.5" width="1.5" height="1.5" rx="0.75" fill="white"/>
<rect x="8" y="10.5" width="1.5" height="1.5" rx="0.75" fill="white"/>
<rect x="11" y="10.5" width="1.5" height="1.5" rx="0.75" fill="white"/>
<rect x="5" y="13" width="1.5" height="1.5" rx="0.75" fill="white"/>
<rect x="8" y="13" width="4.5" height="1.5" rx="0.75" fill="white"/>
</svg>
