<svg width="16" height="16" viewBox="0 0 16 16" fill="none" xmlns="http://www.w3.org/2000/svg">
<path d="M15.3605 2.88525C15.2731 2.46557 15.0458 2.09836 14.7485 1.81858C14.2764 1.34645 13.6294 1.06667 12.9299 1.06667H11.8458V0.33224C11.8458 0.157377 11.7059 0 11.5136 0C11.3387 0 11.1813 0.139891 11.1813 0.33224V1.04918H4.85126V0.33224C4.85126 0.157377 4.71137 0 4.51902 0C4.34416 0 4.18678 0.139891 4.18678 0.33224V1.04918H3.10263C2.56055 1.04918 2.07093 1.20656 1.65126 1.48634C1.51137 1.57377 1.38897 1.67869 1.26656 1.80109C0.79443 2.27322 0.514648 2.92022 0.514648 3.61967V5.36831V13.4295C0.514648 14.1464 0.811916 14.7934 1.26656 15.2481C1.73869 15.7202 2.38569 16 3.08514 16H12.9125C13.6294 16 14.2764 15.7027 14.731 15.2481C15.2032 14.776 15.483 14.129 15.483 13.4295V5.40328V3.65464C15.483 3.39235 15.448 3.13005 15.3605 2.88525ZM14.8534 13.447C14.8534 13.9891 14.6436 14.4787 14.2939 14.8284C13.9442 15.1781 13.4545 15.388 12.9299 15.388H3.10263C2.57804 15.388 2.08842 15.1781 1.73869 14.8284C1.38897 14.4787 1.17913 13.9891 1.17913 13.4645V5.71803H14.8534V13.447ZM14.8709 5.07104H1.17913V3.63716C1.17913 3.11257 1.38897 2.62295 1.73869 2.27322C2.08842 1.9235 2.57804 1.71366 3.10263 1.71366H4.18678V2.4306C4.18678 2.60546 4.32667 2.76284 4.51902 2.76284C4.69388 2.76284 4.85126 2.62295 4.85126 2.4306V1.71366H11.1988V2.4306C11.1988 2.60546 11.3387 2.76284 11.531 2.76284C11.7059 2.76284 11.8633 2.62295 11.8633 2.4306V1.71366H12.9474C13.472 1.71366 13.9616 1.9235 14.3114 2.27322C14.5737 2.53552 14.766 2.86776 14.836 3.25246C14.8534 3.37486 14.8709 3.51475 14.8709 3.63716V5.07104Z" fill="#76FFFF"/>
<path d="M3.73189 8.69059C4.01167 8.69059 4.27397 8.56818 4.46632 8.39332C4.65867 8.20097 4.76359 7.93867 4.76359 7.65889C4.76359 7.37911 4.64118 7.11681 4.46632 6.92446C4.27397 6.7496 4.01167 6.6272 3.73189 6.6272C3.45211 6.6272 3.18981 6.7496 2.99746 6.92446C2.80511 7.11681 2.7002 7.37911 2.7002 7.65889C2.7002 7.93867 2.8226 8.20097 2.99746 8.39332C3.18981 8.58567 3.45211 8.69059 3.73189 8.69059ZM3.43462 7.37911C3.50457 7.30916 3.592 7.27419 3.7144 7.27419C3.81932 7.27419 3.92424 7.30916 3.99419 7.37911C4.06413 7.44906 4.09911 7.53649 4.09911 7.65889C4.11659 7.7813 4.06413 7.86873 3.99419 7.93867C3.92424 8.00862 3.83681 8.04359 3.7144 8.04359C3.60949 8.04359 3.50457 8.00862 3.43462 7.93867C3.36468 7.86873 3.3297 7.7813 3.3297 7.65889C3.3297 7.55397 3.36468 7.44906 3.43462 7.37911Z" fill="#76FFFF"/>
<path d="M6.58346 8.69059C6.86324 8.69059 7.12553 8.56818 7.31788 8.39332C7.51023 8.20097 7.61515 7.93867 7.61515 7.65889C7.61515 7.37911 7.49275 7.11681 7.31788 6.92446C7.14302 6.73211 6.88072 6.6272 6.58346 6.6272C6.30367 6.6272 6.04138 6.7496 5.84903 6.92446C5.65668 7.11681 5.55176 7.37911 5.55176 7.65889C5.55176 7.93867 5.67416 8.20097 5.84903 8.39332C6.04138 8.58567 6.30367 8.69059 6.58346 8.69059ZM6.30367 7.37911C6.37362 7.30916 6.46105 7.27419 6.58346 7.27419C6.68837 7.27419 6.79329 7.30916 6.86324 7.37911C6.93318 7.44906 6.96816 7.53649 6.96816 7.65889C6.96816 7.7813 6.93318 7.86873 6.86324 7.93867C6.79329 8.00862 6.70586 8.04359 6.58346 8.04359C6.47854 8.04359 6.37362 8.00862 6.30367 7.93867C6.23373 7.86873 6.19875 7.7813 6.19875 7.65889C6.19875 7.55397 6.23373 7.44906 6.30367 7.37911Z" fill="#76FFFF"/>
<path d="M9.44966 8.69059C9.72944 8.69059 9.99174 8.56818 10.1841 8.39332C10.3764 8.20097 10.4814 7.93867 10.4814 7.65889C10.4814 7.37911 10.359 7.11681 10.1841 6.92446C10.0092 6.73211 9.72944 6.6272 9.44966 6.6272C9.16988 6.6272 8.90759 6.7496 8.71524 6.92446C8.52289 7.09933 8.41797 7.37911 8.41797 7.65889C8.41797 7.93867 8.54037 8.20097 8.71524 8.39332C8.90759 8.58567 9.16988 8.69059 9.44966 8.69059ZM9.16988 7.3966C9.23983 7.32665 9.32726 7.29168 9.44966 7.29168C9.55458 7.29168 9.6595 7.32665 9.72944 7.3966C9.79939 7.46654 9.83436 7.55397 9.83436 7.67638C9.83436 7.7813 9.7819 7.86873 9.71196 7.93867C9.64201 8.00862 9.55458 8.04359 9.43218 8.04359C9.32726 8.04359 9.22234 8.00862 9.15239 7.93867C9.09994 7.86873 9.06496 7.7813 9.06496 7.67638C9.06496 7.57146 9.09994 7.46654 9.16988 7.3966Z" fill="#76FFFF"/>
<path d="M12.3002 8.69059C12.58 8.69059 12.8423 8.56818 13.0347 8.39332C13.227 8.20097 13.3319 7.93867 13.3319 7.65889C13.3319 7.37911 13.2095 7.11681 13.0347 6.92446C12.8598 6.7496 12.5975 6.6272 12.3002 6.6272C12.0205 6.6272 11.7582 6.7496 11.5658 6.92446C11.3735 7.11681 11.2686 7.37911 11.2686 7.65889C11.2686 7.93867 11.391 8.20097 11.5658 8.39332C11.7582 8.58567 12.0205 8.69059 12.3002 8.69059ZM12.0205 7.37911C12.0904 7.30916 12.1778 7.27419 12.3002 7.27419C12.4052 7.27419 12.5101 7.30916 12.58 7.37911C12.65 7.44906 12.6849 7.53649 12.6849 7.65889C12.6849 7.7813 12.65 7.86873 12.58 7.93867C12.5101 8.00862 12.4227 8.04359 12.3002 8.04359C12.1953 8.04359 12.0904 8.00862 12.0205 7.93867C11.9505 7.86873 11.9156 7.7813 11.9156 7.65889C11.9156 7.55397 11.9505 7.44906 12.0205 7.37911Z" fill="#76FFFF"/>
<path d="M3.73189 11.5585C4.01167 11.5585 4.27397 11.4361 4.46632 11.2612C4.65867 11.0689 4.76359 10.8066 4.76359 10.5268C4.76359 10.247 4.64118 9.98473 4.46632 9.79238C4.27397 9.60003 4.01167 9.49512 3.73189 9.49512C3.45211 9.49512 3.18981 9.61752 2.99746 9.79238C2.80511 9.98473 2.7002 10.247 2.7002 10.5268C2.7002 10.8066 2.8226 11.0689 2.99746 11.2612C3.18981 11.4536 3.45211 11.5585 3.73189 11.5585ZM3.43462 10.247C3.50457 10.1771 3.592 10.1421 3.7144 10.1421C3.81932 10.1421 3.92424 10.1771 3.99419 10.247C4.06413 10.317 4.09911 10.4044 4.09911 10.5268C4.11659 10.6317 4.06413 10.7366 3.99419 10.8066C3.92424 10.8765 3.83681 10.9115 3.7144 10.9115C3.60949 10.9115 3.50457 10.8765 3.43462 10.8066C3.36468 10.7366 3.3297 10.6492 3.3297 10.5268C3.3297 10.4219 3.36468 10.317 3.43462 10.247Z" fill="#76FFFF"/>
<path d="M6.58346 11.5585C6.86324 11.5585 7.12553 11.4361 7.31788 11.2612C7.51023 11.0864 7.61515 10.8066 7.61515 10.5268C7.61515 10.247 7.49275 9.98473 7.31788 9.79238C7.14302 9.60003 6.88072 9.49512 6.58346 9.49512C6.30367 9.49512 6.04138 9.61752 5.84903 9.79238C5.65668 9.98473 5.55176 10.247 5.55176 10.5268C5.55176 10.8066 5.67416 11.0689 5.84903 11.2612C6.04138 11.4536 6.30367 11.5585 6.58346 11.5585ZM6.30367 10.247C6.37362 10.1771 6.46105 10.1421 6.58346 10.1421C6.68837 10.1421 6.79329 10.1771 6.86324 10.247C6.93318 10.317 6.96816 10.4044 6.96816 10.5268C6.96816 10.6317 6.93318 10.7366 6.86324 10.8066C6.79329 10.8765 6.70586 10.9115 6.58346 10.9115C6.47854 10.9115 6.37362 10.8765 6.30367 10.8066C6.23373 10.7366 6.19875 10.6492 6.19875 10.5268C6.19875 10.4219 6.23373 10.317 6.30367 10.247Z" fill="#76FFFF"/>
<path d="M9.44966 11.5585C9.72944 11.5585 9.99174 11.4361 10.1841 11.2612C10.3764 11.0864 10.4814 10.8066 10.4814 10.5268C10.4814 10.247 10.359 9.98473 10.1841 9.79238C10.0092 9.60003 9.72944 9.49512 9.44966 9.49512C9.16988 9.49512 8.90759 9.61752 8.71524 9.79238C8.52289 9.96724 8.41797 10.247 8.41797 10.5268C8.41797 10.8066 8.54037 11.0689 8.71524 11.2612C8.8901 11.4536 9.16988 11.5585 9.44966 11.5585ZM9.15239 10.247C9.22234 10.1771 9.30977 10.1421 9.43218 10.1421C9.53709 10.1421 9.64201 10.1771 9.71196 10.247C9.7819 10.317 9.81688 10.4044 9.81688 10.5268C9.83436 10.6317 9.7819 10.7366 9.71196 10.8066C9.64201 10.8765 9.55458 10.9115 9.43218 10.9115C9.32726 10.9115 9.22234 10.8765 9.15239 10.8066C9.08245 10.7366 9.04748 10.6492 9.04748 10.5268C9.04748 10.4219 9.08245 10.317 9.15239 10.247Z" fill="#76FFFF"/>
<path d="M12.3002 11.5585C12.58 11.5585 12.8423 11.4361 13.0347 11.2612C13.227 11.0689 13.3319 10.8066 13.3319 10.5268C13.3319 10.247 13.2095 9.98473 13.0347 9.79238C12.8598 9.60003 12.5975 9.49512 12.3002 9.49512C12.0205 9.49512 11.7582 9.61752 11.5658 9.79238C11.3735 9.98473 11.2686 10.247 11.2686 10.5268C11.2686 10.8066 11.391 11.0689 11.5658 11.2612C11.7582 11.4536 12.0205 11.5585 12.3002 11.5585ZM12.0205 10.247C12.0904 10.1771 12.1778 10.1421 12.3002 10.1421C12.4052 10.1421 12.5101 10.1771 12.58 10.247C12.65 10.317 12.6849 10.4044 12.6849 10.5268C12.6849 10.6317 12.65 10.7366 12.58 10.8066C12.5101 10.8765 12.4227 10.9115 12.3002 10.9115C12.1953 10.9115 12.0904 10.8765 12.0205 10.8066C11.9505 10.7366 11.9156 10.6492 11.9156 10.5268C11.9156 10.4219 11.9505 10.317 12.0205 10.247Z" fill="#76FFFF"/>
<path d="M3.73189 14.3913C4.01167 14.3913 4.27397 14.2689 4.46632 14.094C4.65867 13.9017 4.76359 13.6394 4.76359 13.3596C4.76359 13.0798 4.64118 12.8175 4.46632 12.6251C4.27397 12.4328 4.01167 12.3279 3.73189 12.3279C3.45211 12.3279 3.18981 12.4503 2.99746 12.6251C2.80511 12.8175 2.7002 13.0798 2.7002 13.3596C2.7002 13.6394 2.8226 13.9017 2.99746 14.094C3.18981 14.2864 3.45211 14.3913 3.73189 14.3913ZM3.43462 13.0798C3.50457 13.0098 3.592 12.9749 3.7144 12.9749C3.81932 12.9749 3.92424 13.0098 3.99419 13.0798C4.06413 13.1497 4.09911 13.2372 4.09911 13.3596C4.11659 13.4645 4.06413 13.5694 3.99419 13.6394C3.92424 13.7093 3.83681 13.7443 3.7144 13.7443C3.60949 13.7443 3.50457 13.7093 3.43462 13.6394C3.36468 13.5694 3.3297 13.482 3.3297 13.3596C3.3297 13.2547 3.36468 13.1497 3.43462 13.0798Z" fill="#76FFFF"/>
<path d="M6.58346 14.3913C6.86324 14.3913 7.12553 14.2689 7.31788 14.094C7.51023 13.9191 7.61515 13.6394 7.61515 13.3596C7.61515 13.0798 7.49275 12.8175 7.31788 12.6251C7.14302 12.4328 6.88072 12.3279 6.58346 12.3279C6.30367 12.3279 6.04138 12.4503 5.84903 12.6251C5.65668 12.8175 5.55176 13.0798 5.55176 13.3596C5.55176 13.6394 5.67416 13.9017 5.84903 14.094C6.04138 14.2864 6.30367 14.3913 6.58346 14.3913ZM6.30367 13.0798C6.37362 13.0098 6.46105 12.9749 6.58346 12.9749C6.68837 12.9749 6.79329 13.0098 6.86324 13.0798C6.93318 13.1497 6.96816 13.2372 6.96816 13.3596C6.96816 13.4645 6.93318 13.5694 6.86324 13.6394C6.79329 13.7093 6.70586 13.7443 6.58346 13.7443C6.47854 13.7443 6.37362 13.7093 6.30367 13.6394C6.23373 13.5694 6.19875 13.482 6.19875 13.3596C6.19875 13.2547 6.23373 13.1497 6.30367 13.0798Z" fill="#76FFFF"/>
<path d="M9.44966 14.3913C9.72944 14.3913 9.99174 14.2689 10.1841 14.094C10.3764 13.9191 10.4814 13.6394 10.4814 13.3596C10.4814 13.0798 10.359 12.8175 10.1841 12.6251C9.99174 12.4328 9.72944 12.3279 9.44966 12.3279C9.16988 12.3279 8.90759 12.4503 8.71524 12.6251C8.52289 12.8175 8.41797 13.0798 8.41797 13.3596C8.41797 13.6394 8.54037 13.9017 8.71524 14.094C8.8901 14.2864 9.16988 14.3913 9.44966 14.3913ZM9.15239 13.0798C9.22234 13.0098 9.30977 12.9749 9.43218 12.9749C9.53709 12.9749 9.64201 13.0098 9.71196 13.0798C9.7819 13.1497 9.81688 13.2372 9.81688 13.3596C9.83436 13.4645 9.7819 13.5694 9.71196 13.6394C9.64201 13.7093 9.55458 13.7443 9.43218 13.7443C9.32726 13.7443 9.22234 13.7093 9.15239 13.6394C9.08245 13.5694 9.04748 13.482 9.04748 13.3596C9.04748 13.2547 9.08245 13.1497 9.15239 13.0798Z" fill="#76FFFF"/>
<path d="M12.3002 14.3913C12.58 14.3913 12.8423 14.2689 13.0347 14.094C13.227 13.9017 13.3319 13.6394 13.3319 13.3596C13.3319 13.0798 13.2095 12.8175 13.0347 12.6251C12.8598 12.4328 12.5975 12.3279 12.3002 12.3279C12.0205 12.3279 11.7582 12.4503 11.5658 12.6251C11.3735 12.8175 11.2686 13.0798 11.2686 13.3596C11.2686 13.6394 11.391 13.9017 11.5658 14.094C11.7582 14.2864 12.0205 14.3913 12.3002 14.3913ZM12.0205 13.0798C12.0904 13.0098 12.1778 12.9749 12.3002 12.9749C12.4052 12.9749 12.5101 13.0098 12.58 13.0798C12.65 13.1497 12.6849 13.2372 12.6849 13.3596C12.6849 13.4645 12.65 13.5694 12.58 13.6394C12.5101 13.7093 12.4227 13.7443 12.3002 13.7443C12.1953 13.7443 12.0904 13.7093 12.0205 13.6394C11.9505 13.5694 11.9156 13.482 11.9156 13.3596C11.9156 13.2547 11.9505 13.1497 12.0205 13.0798Z" fill="#76FFFF"/>
</svg>
