<svg width="16" height="20" viewBox="0 0 16 20" fill="none" xmlns="http://www.w3.org/2000/svg">
<path d="M5.25 0.5C3.74011 0.5 2.5 1.74011 2.5 3.25V14.25C2.5 15.7599 3.74011 17 5.25 17H13.25C14.7599 17 16 15.7599 16 14.25V3.25C16 1.74011 14.7599 0.5 13.25 0.5H5.25ZM5.25 2H13.25C13.9491 2 14.5 2.55089 14.5 3.25V14.25C14.5 14.9491 13.9491 15.5 13.25 15.5H5.25C4.55089 15.5 4 14.9491 4 14.25V3.25C4 2.55089 4.55089 2 5.25 2ZM1.5 3L0.890625 3.40625C0.334125 3.77725 0 4.40181 0 5.07031V14.75C0 17.3735 2.1265 19.5 4.75 19.5H11.4297C12.0987 19.5 12.7233 19.1659 13.0938 18.6094L13.5 18H4.75C2.955 18 1.5 16.545 1.5 14.75V3Z" fill="#9CA5FF"/>
</svg>
