<svg width="16" height="16" viewBox="0 0 16 16" fill="none" xmlns="http://www.w3.org/2000/svg">
<g clip-path="url(#clip0)">
<path d="M10.087 0C7.38196 0 5.06777 1.79263 4.38128 4.3823C1.86226 5.05944 0 7.35683 0 10.087C0 13.3475 2.65251 16 5.91304 16C8.64317 16 10.9406 14.1377 11.6177 11.6187C14.2074 10.9322 16 8.61804 16 5.91304C16 2.65251 13.3475 0 10.087 0V0ZM5.91304 15.3043C3.03618 15.3043 0.695652 12.9638 0.695652 10.087C0.695652 7.59834 2.44803 5.51444 4.78295 4.99609C4.91542 4.9662 5.05112 4.94531 5.18716 4.92595C5.241 4.91831 5.29399 4.9071 5.34817 4.90115C5.53431 4.88145 5.72283 4.86957 5.91304 4.86957C6.44735 4.86957 6.96315 4.95092 7.44871 5.10088C7.44905 5.10088 7.44905 5.10122 7.44939 5.10122C7.63791 5.15897 7.82014 5.22996 7.99864 5.3074C8.06369 5.33594 8.12619 5.36872 8.18954 5.39963C8.29433 5.45041 8.39725 5.50374 8.49779 5.56063C8.57846 5.607 8.65778 5.65489 8.73522 5.70533C8.81114 5.75408 8.88417 5.80588 8.9572 5.85836C9.04212 5.91967 9.12738 5.98013 9.20805 6.04586C9.26019 6.08832 9.30859 6.13536 9.35904 6.17986C9.52208 6.32388 9.67578 6.47758 9.8198 6.64062C9.8643 6.69107 9.91101 6.73947 9.9538 6.79161C10.0199 6.87228 10.0803 6.95754 10.1411 7.04246C10.1938 7.11549 10.2456 7.18852 10.2943 7.26427C10.3448 7.34222 10.3927 7.42154 10.439 7.50187C10.4963 7.60241 10.5496 7.70533 10.6 7.81012C10.6309 7.87381 10.6637 7.93631 10.6923 8.00102C10.7697 8.17952 10.8407 8.36175 10.8984 8.55027C10.8984 8.55061 10.8988 8.55061 10.8988 8.55095C11.0491 9.03685 11.1304 9.55265 11.1304 10.087C11.1304 10.2772 11.1185 10.4657 11.0985 10.6518C11.0926 10.706 11.0814 10.759 11.0737 10.8128C11.0547 10.9489 11.0338 11.0846 11.0034 11.2171C10.4856 13.552 8.40166 15.3043 5.91304 15.3043ZM9.21281 5.18257C9.10224 5.10819 8.98641 5.04144 8.87058 4.97418C8.81046 4.93954 8.7517 4.90234 8.69005 4.86957C8.59969 4.8215 8.50577 4.77921 8.41253 4.73573C8.31895 4.69175 8.22571 4.64793 8.12976 4.6087C8.10394 4.59834 8.07965 4.58475 8.0535 4.57456C8.49779 3.89844 9.26053 3.47826 10.087 3.47826C11.4292 3.47826 12.5217 4.57082 12.5217 5.91304C12.5217 6.73947 12.1016 7.50221 11.4254 7.94684C11.4153 7.92069 11.4017 7.89674 11.3913 7.87058C11.3524 7.77463 11.3086 7.68139 11.2643 7.58781C11.2208 7.49457 11.1785 7.40065 11.1304 7.31029C11.0973 7.24864 11.0605 7.18988 11.0258 7.12976C10.9589 7.01393 10.8918 6.8981 10.8174 6.78753C10.8105 6.777 10.8025 6.76766 10.7955 6.75764C10.3794 6.14674 9.8536 5.62092 9.24287 5.20482C9.23268 5.19752 9.223 5.18954 9.21281 5.18257ZM11.7767 10.85C11.7812 10.8161 11.7829 10.7809 11.7869 10.7464C11.7913 10.7057 11.7952 10.6651 11.7986 10.6243C11.8149 10.4467 11.8261 10.2675 11.8261 10.087C11.8261 9.58152 11.7554 9.09324 11.6355 8.62432C12.6028 8.07303 13.2174 7.04246 13.2174 5.91304C13.2174 4.18682 11.8132 2.78261 10.087 2.78261C8.95754 2.78261 7.92697 3.39725 7.37568 4.36447C6.90676 4.24457 6.41848 4.17391 5.91304 4.17391C5.73251 4.17391 5.55333 4.18512 5.37568 4.20109C5.33492 4.20482 5.29433 4.20839 5.25357 4.21281C5.21909 4.21671 5.18427 4.21841 5.14997 4.223C5.85921 2.12143 7.81878 0.695652 10.087 0.695652C12.9638 0.695652 15.3043 3.03618 15.3043 5.91304C15.3043 8.18122 13.8786 10.1408 11.7767 10.85Z" fill="white"/>
<path d="M8.69527 8.34794C8.88769 8.34794 9.0431 8.19254 9.0431 8.00012C9.0431 7.80769 8.88769 7.65229 8.69527 7.65229H6.26049V6.60881C6.26049 6.41639 6.10509 6.26099 5.91266 6.26099C5.72024 6.26099 5.56484 6.41639 5.56484 6.60881V7.65229H3.13005C2.93763 7.65229 2.78223 7.80769 2.78223 8.00012V10.0871C2.78223 10.2795 2.93763 10.4349 3.13005 10.4349H5.56484V11.8262H3.13005C2.93763 11.8262 2.78223 11.9816 2.78223 12.174C2.78223 12.3665 2.93763 12.5219 3.13005 12.5219H5.56484V13.5653C5.56484 13.7578 5.72024 13.9132 5.91266 13.9132C6.10509 13.9132 6.26049 13.7578 6.26049 13.5653V12.5219H8.69527C8.88769 12.5219 9.0431 12.3665 9.0431 12.174V10.0871C9.0431 9.89465 8.88769 9.73925 8.69527 9.73925H6.26049V8.34794H8.69527ZM8.34744 10.4349V11.8262H6.26049V10.4349H8.34744ZM5.56484 9.73925H3.47788V8.34794H5.56484V9.73925Z" fill="white"/>
</g>
<defs>
<clipPath id="clip0">
<rect width="16" height="16" fill="white"/>
</clipPath>
</defs>
</svg>
