<svg width="72" height="72" viewBox="0 0 72 72" fill="none" xmlns="http://www.w3.org/2000/svg">
<g filter="url(#filter0_d)">
<path fill-rule="evenodd" clip-rule="evenodd" d="M36 15C47.5812 15 57 24.4236 57 36C57 47.6341 47.5764 57 36 57C24.3659 57.0048 15 47.6389 15 36C15 24.4236 24.3659 15 36 15Z" fill="#00D7D7"/>
<path fill-rule="evenodd" clip-rule="evenodd" d="M36.0002 15.7401C47.1825 15.7401 56.2649 24.8225 56.2649 36.0049C56.2649 47.2449 47.1825 56.3273 36.0002 56.3273C24.7601 56.3273 15.6777 47.2449 15.6777 36.0049C15.6825 24.8177 24.7649 15.7401 36.0002 15.7401Z" fill="#1BE6E6"/>
<path fill-rule="evenodd" clip-rule="evenodd" d="M36.0012 15.7401C39.9754 15.7401 43.666 16.8742 46.7847 18.8637C40.3742 18.3495 29.0765 19.7671 19.6577 33.2225C17.3895 36.5143 16.8754 40.4307 17.6731 44.7461C16.4188 42.1319 15.6836 39.1236 15.6836 36.0001C15.6836 24.8177 24.766 15.7401 36.0012 15.7401Z" fill="#26EDED"/>
<path fill-rule="evenodd" clip-rule="evenodd" d="M35.9999 19.4834C45.14 19.4834 52.5164 26.8646 52.5164 35.9999C52.5164 45.1351 45.14 52.5788 35.9999 52.5788C26.8647 52.5788 19.4258 45.1399 19.4258 35.9999C19.4258 26.8598 26.8647 19.4834 35.9999 19.4834Z" fill="#76FFFF"/>
<path fill-rule="evenodd" clip-rule="evenodd" d="M35.999 21.1318C44.2308 21.1318 50.872 27.773 50.872 36.0048C50.872 44.2943 44.2308 50.9355 35.999 50.9355C27.7672 50.9355 21.0684 44.2943 21.0684 36.0048C21.0732 27.773 27.772 21.1318 35.999 21.1318Z" fill="#1BE6E6"/>
<path fill-rule="evenodd" clip-rule="evenodd" d="M45.2527 24.3082C48.7174 27.0329 50.8703 31.2906 50.8703 36C50.8703 44.2895 44.2291 50.9307 35.9973 50.9307C32.1962 50.9307 28.7891 49.5707 26.1797 47.24C51.495 46.6153 45.8197 26.1824 45.2527 24.3082Z" fill="#26EDED"/>
<path fill-rule="evenodd" clip-rule="evenodd" d="M36.0025 19.7671C44.9695 19.7671 52.2354 27.033 52.2354 36C52.2354 44.9671 44.9743 52.2907 36.0025 52.2907C27.0354 52.2907 19.7695 44.9671 19.7695 36C19.7695 27.033 27.0354 19.7671 36.0025 19.7671ZM36.1755 21.3C44.6908 21.3 51.5579 28.1671 51.5579 36.6824C51.5579 45.1978 44.6908 52.0648 36.1755 52.0648C27.6601 52.0648 20.7931 45.1978 20.7931 36.6824C20.7931 28.1671 27.6601 21.3 36.1755 21.3Z" fill="#07B4B4"/>
<g clip-path="url(#clip0)">
<path d="M39.8284 36.4778C39.0984 36.0209 38.0823 35.6027 36.7812 35.2223C35.48 34.8429 34.5454 34.4208 33.9782 33.9549C33.4101 33.4911 33.126 32.8663 33.126 32.0827C33.126 31.2384 33.3952 30.5789 33.9335 30.1071C34.4709 29.6343 35.2476 29.3989 36.2627 29.3989C37.2351 29.3989 38.0088 29.7178 38.5799 30.3564C39.152 30.9951 39.4381 31.8562 39.4381 32.9398L39.4371 33.0203H41.7931L41.7941 32.9408C41.7941 31.3695 41.3958 30.1309 40.5972 29.2261C39.7986 28.3222 38.6832 27.7809 37.249 27.6051L37.242 27.6041V25.0743H35.2555V27.6081C33.8729 27.772 32.7784 28.2428 31.9808 29.0304C31.1654 29.8359 30.7571 30.8669 30.7571 32.1244C30.7571 33.359 31.1733 34.3771 32.0057 35.1786C32.838 35.9792 34.163 36.6297 35.9806 37.1283C37.2867 37.5197 38.2144 37.9567 38.7657 38.4394C39.3149 38.9231 39.591 39.5171 39.591 40.2223C39.591 41.0586 39.2702 41.7181 38.6306 42.2008C37.9899 42.6835 37.1109 42.9249 35.9925 42.9249C34.8493 42.9249 33.9653 42.6379 33.3426 42.0628C32.7198 41.4877 32.4089 40.6673 32.4089 39.6015H30.041C30.041 41.1192 30.491 42.321 31.3908 43.207C32.2679 44.0701 33.4776 44.5677 35.0072 44.7137V46.9257H36.9937V44.7306L37.0185 44.7296C38.5799 44.5836 39.7947 44.1168 40.6608 43.3262C41.5259 42.5365 41.9599 41.4936 41.9599 40.1985C41.9599 39.386 41.7861 38.6768 41.4415 38.0699C41.0958 37.465 40.5575 36.9337 39.8284 36.4778Z" fill="white" stroke="white" stroke-width="1.2"/>
</g>
</g>
<defs>
<filter id="filter0_d" x="0" y="0" width="72" height="72" filterUnits="userSpaceOnUse" color-interpolation-filters="sRGB">
<feFlood flood-opacity="0" result="BackgroundImageFix"/>
<feColorMatrix in="SourceAlpha" type="matrix" values="0 0 0 0 0 0 0 0 0 0 0 0 0 0 0 0 0 0 127 0"/>
<feOffset/>
<feGaussianBlur stdDeviation="7.5"/>
<feColorMatrix type="matrix" values="0 0 0 0 0.462745 0 0 0 0 1 0 0 0 0 1 0 0 0 1 0"/>
<feBlend mode="normal" in2="BackgroundImageFix" result="effect1_dropShadow"/>
<feBlend mode="normal" in="SourceGraphic" in2="effect1_dropShadow" result="shape"/>
</filter>
<clipPath id="clip0">
<rect width="23.8378" height="23.8378" fill="white" transform="translate(24.082 24.0811)"/>
</clipPath>
</defs>
</svg>
