<svg width="24" height="24" viewBox="0 0 24 24" fill="none" xmlns="http://www.w3.org/2000/svg">
<path d="M12.0805 3.6001C11.9107 3.6001 11.7479 3.66753 11.6279 3.78755C11.5079 3.90757 11.4405 4.07036 11.4405 4.2401C11.4405 4.40984 11.5079 4.57262 11.6279 4.69265C11.7479 4.81267 11.9107 4.8801 12.0805 4.8801C12.2502 4.8801 12.413 4.81267 12.533 4.69265C12.653 4.57262 12.7205 4.40984 12.7205 4.2401C12.7205 4.07036 12.653 3.90757 12.533 3.78755C12.413 3.66753 12.2502 3.6001 12.0805 3.6001ZM12.0805 6.1601C11.9107 6.1601 11.7479 6.22753 11.6279 6.34755C11.5079 6.46757 11.4405 6.63036 11.4405 6.8001C11.4405 6.96984 11.5079 7.13262 11.6279 7.25265C11.7479 7.37267 11.9107 7.4401 12.0805 7.4401C12.2502 7.4401 12.413 7.37267 12.533 7.25265C12.653 7.13262 12.7205 6.96984 12.7205 6.8001C12.7205 6.63036 12.653 6.46757 12.533 6.34755C12.413 6.22753 12.2502 6.1601 12.0805 6.1601ZM12.0705 8.71135C11.9009 8.714 11.7394 8.7838 11.6213 8.90542C11.5032 9.02705 11.4381 9.19057 11.4405 9.3601V14.2151L9.97295 12.7476C9.91331 12.6863 9.84198 12.6376 9.76319 12.6043C9.6844 12.571 9.59973 12.5539 9.5142 12.5538C9.38688 12.5539 9.26247 12.5919 9.15686 12.663C9.05126 12.7341 8.96926 12.8351 8.92135 12.9531C8.87344 13.071 8.8618 13.2006 8.88791 13.3252C8.91403 13.4498 8.97671 13.5638 9.06795 13.6526L12.0805 16.6651L15.093 13.6526C15.1544 13.5936 15.2034 13.523 15.2372 13.4448C15.271 13.3667 15.2888 13.2825 15.2897 13.1974C15.2906 13.1123 15.2744 13.0278 15.2422 12.949C15.2101 12.8701 15.1625 12.7985 15.1023 12.7383C15.042 12.6781 14.9704 12.6305 14.8916 12.5983C14.8128 12.5661 14.7283 12.55 14.6431 12.5509C14.558 12.5517 14.4739 12.5696 14.3957 12.6034C14.3176 12.6371 14.2469 12.6862 14.188 12.7476L12.7205 14.2151V9.3601C12.7216 9.27447 12.7056 9.18948 12.6733 9.11016C12.6411 9.03084 12.5932 8.9588 12.5326 8.8983C12.472 8.83781 12.3999 8.79009 12.3205 8.75798C12.2411 8.72587 12.1561 8.71001 12.0705 8.71135ZM5.03045 13.8313C4.86093 13.834 4.69939 13.9038 4.58127 14.0254C4.46316 14.1471 4.39813 14.3106 4.40045 14.4801V18.3201C4.40045 19.0197 4.98089 19.6001 5.68045 19.6001H18.4805C19.18 19.6001 19.7605 19.0197 19.7605 18.3201V14.4801C19.7617 14.3953 19.746 14.3111 19.7144 14.2324C19.6827 14.1537 19.6358 14.0821 19.5762 14.0217C19.5167 13.9613 19.4457 13.9133 19.3675 13.8806C19.2892 13.8478 19.2053 13.831 19.1205 13.831C19.0356 13.831 18.9517 13.8478 18.8734 13.8806C18.7952 13.9133 18.7242 13.9613 18.6647 14.0217C18.6051 14.0821 18.5582 14.1537 18.5265 14.2324C18.4949 14.3111 18.4793 14.3953 18.4805 14.4801V18.3201H5.68045V14.4801C5.68162 14.3945 5.6656 14.3095 5.63334 14.2302C5.60107 14.1508 5.55321 14.0788 5.4926 14.0183C5.43199 13.9578 5.35986 13.9101 5.28048 13.878C5.20109 13.8459 5.11607 13.83 5.03045 13.8313Z" fill="#9CA5FF"/>
</svg>
