<svg width="70" height="70" viewBox="0 0 70 70" fill="none" xmlns="http://www.w3.org/2000/svg">
<g filter="url(#filter0_d)">
<path fill-rule="evenodd" clip-rule="evenodd" d="M35 15C46.0297 15 55 23.9748 55 35C55 46.0801 46.0252 55 35 55C23.9199 55.0046 15 46.0847 15 35C15 23.9748 23.9199 15 35 15Z" fill="#00D7D7"/>
<path fill-rule="evenodd" clip-rule="evenodd" d="M34.9992 15.7047C45.6491 15.7047 54.299 24.3546 54.299 35.0045C54.299 45.7093 45.6491 54.3592 34.9992 54.3592C24.2944 54.3592 15.6445 45.7093 15.6445 35.0045C15.6491 24.35 24.299 15.7047 34.9992 15.7047Z" fill="#1BE6E6"/>
<path fill-rule="evenodd" clip-rule="evenodd" d="M35.0025 15.7047C38.7874 15.7047 42.3022 16.7848 45.2725 18.6795C39.1672 18.1898 28.4075 19.54 19.4372 32.3546C17.2771 35.4896 16.7874 39.2196 17.5471 43.3294C16.3526 40.8397 15.6523 37.9747 15.6523 34.9999C15.6523 24.35 24.3022 15.7047 35.0025 15.7047Z" fill="#26EDED"/>
<path fill-rule="evenodd" clip-rule="evenodd" d="M35.0017 19.2699C43.7065 19.2699 50.7317 26.2996 50.7317 34.9999C50.7317 43.7001 43.7065 50.7893 35.0017 50.7893C26.3015 50.7893 19.2168 43.7047 19.2168 34.9999C19.2168 26.2951 26.3015 19.2699 35.0017 19.2699Z" fill="#76FFFF"/>
<path fill-rule="evenodd" clip-rule="evenodd" d="M35.0009 20.8398C42.8407 20.8398 49.1657 27.1648 49.1657 35.0046C49.1657 42.8993 42.8407 49.2243 35.0009 49.2243C27.1611 49.2243 20.7812 42.8993 20.7812 35.0046C20.7858 27.1648 27.1657 20.8398 35.0009 20.8398Z" fill="#1BE6E6"/>
<path fill-rule="evenodd" clip-rule="evenodd" d="M43.8132 23.8649C47.113 26.4598 49.1633 30.5148 49.1633 34.9999C49.1633 42.8946 42.8384 49.2196 34.9986 49.2196C31.3784 49.2196 28.1336 47.9244 25.6484 45.7047C49.7583 45.1097 44.3532 25.6498 43.8132 23.8649Z" fill="#26EDED"/>
<path fill-rule="evenodd" clip-rule="evenodd" d="M35.001 19.54C43.541 19.54 50.4609 26.4599 50.4609 35C50.4609 43.54 43.5456 50.5149 35.001 50.5149C26.4609 50.5149 19.541 43.54 19.541 35C19.541 26.4599 26.4609 19.54 35.001 19.54ZM35.1657 21C43.2756 21 49.8156 27.54 49.8156 35.6499C49.8156 43.7597 43.2756 50.2998 35.1657 50.2998C27.0559 50.2998 20.5158 43.7597 20.5158 35.6499C20.5158 27.54 27.0559 21 35.1657 21Z" fill="#07B4B4"/>
<path fill-rule="evenodd" clip-rule="evenodd" d="M34.3589 22.5L26.8998 34.7183L34.3589 39.0976L41.818 34.7183L34.3589 22.5ZM26.25 35.9081L34.3589 46.5567L42.4678 35.9081L34.3589 40.6627L26.25 35.9081Z" fill="white"/>
<path fill-rule="evenodd" clip-rule="evenodd" d="M34.3594 46.5567L42.4683 35.9081L34.3594 40.6627V46.5567ZM41.8185 34.7183L34.3594 22.5V39.0931L41.8185 34.7183Z" fill="#E4E4E4"/>
</g>
<defs>
<filter id="filter0_d" x="0" y="0" width="70" height="70" filterUnits="userSpaceOnUse" color-interpolation-filters="sRGB">
<feFlood flood-opacity="0" result="BackgroundImageFix"/>
<feColorMatrix in="SourceAlpha" type="matrix" values="0 0 0 0 0 0 0 0 0 0 0 0 0 0 0 0 0 0 127 0"/>
<feOffset/>
<feGaussianBlur stdDeviation="7.5"/>
<feColorMatrix type="matrix" values="0 0 0 0 0.462745 0 0 0 0 1 0 0 0 0 1 0 0 0 1 0"/>
<feBlend mode="normal" in2="BackgroundImageFix" result="effect1_dropShadow"/>
<feBlend mode="normal" in="SourceGraphic" in2="effect1_dropShadow" result="shape"/>
</filter>
</defs>
</svg>
