<svg width="62" height="62" viewBox="0 0 62 62" fill="none" xmlns="http://www.w3.org/2000/svg">
<g filter="url(#filter0_d)">
<path fill-rule="evenodd" clip-rule="evenodd" d="M31 15C39.8238 15 47 22.1799 47 31C47 39.8641 39.8201 47 31 47C22.1359 47.0037 15 39.8677 15 31C15 22.1799 22.1359 15 31 15Z" fill="#00D7D7"/>
<path fill-rule="evenodd" clip-rule="evenodd" d="M31.0013 15.5638C39.5212 15.5638 46.4411 22.4838 46.4411 31.0037C46.4411 39.5675 39.5212 46.4874 31.0013 46.4874C22.4375 46.4874 15.5176 39.5675 15.5176 31.0037C15.5212 22.4801 22.4411 15.5638 31.0013 15.5638Z" fill="#1BE6E6"/>
<path fill-rule="evenodd" clip-rule="evenodd" d="M31.0016 15.5638C34.0295 15.5638 36.8414 16.4279 39.2176 17.9437C34.3334 17.5519 25.7256 18.632 18.5494 28.8838C16.8213 31.3918 16.4295 34.3757 17.0373 37.6636C16.0817 35.6719 15.5215 33.3799 15.5215 31C15.5215 22.4801 22.4414 15.5638 31.0016 15.5638Z" fill="#26EDED"/>
<path fill-rule="evenodd" clip-rule="evenodd" d="M30.999 18.416C37.9629 18.416 43.583 24.0398 43.583 31C43.583 37.9602 37.9629 43.6316 30.999 43.6316C24.0388 43.6316 18.3711 37.9638 18.3711 31C18.3711 24.0362 24.0388 18.416 30.999 18.416Z" fill="#76FFFF"/>
<path fill-rule="evenodd" clip-rule="evenodd" d="M30.9988 19.6719C37.2706 19.6719 42.3306 24.7318 42.3306 31.0037C42.3306 37.3195 37.2706 42.3794 30.9988 42.3794C24.7269 42.3794 19.623 37.3195 19.623 31.0037C19.6267 24.7318 24.7306 19.6719 30.9988 19.6719Z" fill="#1BE6E6"/>
<path fill-rule="evenodd" clip-rule="evenodd" d="M38.0513 22.0919C40.6912 24.1679 42.3314 27.4118 42.3314 30.9999C42.3314 37.3157 37.2715 42.3757 30.9996 42.3757C28.1035 42.3757 25.5076 41.3395 23.5195 39.5638C42.8074 39.0878 38.4834 23.5198 38.0513 22.0919Z" fill="#26EDED"/>
<path fill-rule="evenodd" clip-rule="evenodd" d="M31.0008 18.6321C37.8328 18.6321 43.3687 24.168 43.3687 31C43.3687 37.8321 37.8365 43.4119 31.0008 43.4119C24.1687 43.4119 18.6328 37.8321 18.6328 31C18.6328 24.168 24.1687 18.6321 31.0008 18.6321ZM31.1326 19.8C37.6205 19.8 42.8525 25.0321 42.8525 31.5199C42.8525 38.0078 37.6205 43.2399 31.1326 43.2399C24.6447 43.2399 19.4127 38.0078 19.4127 31.5199C19.4127 25.0321 24.6447 19.8 31.1326 19.8Z" fill="#07B4B4"/>
<path d="M35.9156 36.4801C35.7587 36.0964 35.5988 35.7126 35.4243 35.3347C35.2703 34.9974 35.0726 34.8986 34.7034 34.9829C34.2353 35.0905 33.776 35.2329 33.3079 35.3289C32.4038 35.5178 31.4968 35.5353 30.6043 35.2533C29.485 34.9015 28.889 34.0904 28.5227 33.0438H31.5578C31.7962 33.0438 31.9881 32.852 31.9881 32.6136V31.6571C31.9881 31.4187 31.7962 31.2269 31.5578 31.2269H28.232C28.232 30.9594 28.2291 30.7036 28.232 30.4477H31.5578C31.7962 30.4477 31.9881 30.2559 31.9881 30.0175V29.061C31.9881 28.8226 31.7962 28.6308 31.5578 28.6308H28.6506C28.6506 28.6191 28.6506 28.6075 28.6565 28.6017C29.0053 27.808 29.5141 27.1714 30.3484 26.8399C31.3194 26.4562 32.3108 26.4649 33.3108 26.6713C33.7847 26.7673 34.2498 26.9126 34.7237 27.0202C35.0697 27.0987 35.2703 26.9969 35.4185 26.6742C35.59 26.3021 35.747 25.9242 35.904 25.5433C36.0523 25.1858 35.9651 24.9328 35.6278 24.7352C35.5435 24.6857 35.4563 24.645 35.3662 24.6101C33.9649 24.0636 32.5201 23.8601 31.0287 24.0985C29.9792 24.2671 28.9995 24.6276 28.1535 25.2846C27.0866 26.1102 26.3947 27.2004 25.9935 28.4825L25.9441 28.6308H24.4498C24.2114 28.6308 24.0195 28.8226 24.0195 29.061V30.0175C24.0195 30.2559 24.2114 30.4477 24.4498 30.4477H25.6272C25.6272 30.7094 25.6272 30.9623 25.6272 31.2269H24.4498C24.2114 31.2269 24.0195 31.4187 24.0195 31.6571V32.6136C24.0195 32.852 24.2114 33.0438 24.4498 33.0438H25.8685C25.9761 33.3927 26.0662 33.7474 26.2028 34.0817C26.9209 35.8144 28.1244 37.047 29.9356 37.6342C31.4328 38.1197 32.9416 38.1052 34.4504 37.6895C34.8429 37.5819 35.2325 37.4424 35.6046 37.2708C35.9651 37.1051 36.0581 36.826 35.9156 36.4801Z" fill="white"/>
</g>
<defs>
<filter id="filter0_d" x="0" y="0" width="62" height="62" filterUnits="userSpaceOnUse" color-interpolation-filters="sRGB">
<feFlood flood-opacity="0" result="BackgroundImageFix"/>
<feColorMatrix in="SourceAlpha" type="matrix" values="0 0 0 0 0 0 0 0 0 0 0 0 0 0 0 0 0 0 127 0"/>
<feOffset/>
<feGaussianBlur stdDeviation="7.5"/>
<feColorMatrix type="matrix" values="0 0 0 0 0.462745 0 0 0 0 1 0 0 0 0 1 0 0 0 1 0"/>
<feBlend mode="normal" in2="BackgroundImageFix" result="effect1_dropShadow"/>
<feBlend mode="normal" in="SourceGraphic" in2="effect1_dropShadow" result="shape"/>
</filter>
</defs>
</svg>
