<svg width="30" height="30" viewBox="0 0 30 30" fill="none" xmlns="http://www.w3.org/2000/svg">
<g clip-path="url(#clip0)">
<path d="M0.996484 11.8845C0.996484 12.2802 1.31692 12.6006 1.71264 12.6006C2.10847 12.6006 2.42848 12.2801 2.42848 11.8845C2.42848 9.15951 4.64538 6.94259 7.37067 6.94259H8.26622C8.66205 6.94259 8.98206 6.62204 8.98206 6.22644C8.98206 5.83083 8.66205 5.51028 8.26622 5.51028H7.37067C3.85557 5.51028 0.996484 8.36936 0.996484 11.8845Z" fill="#76FFFF" stroke="#76FFFF" stroke-width="0.3"/>
<path d="M21.3264 8.96123L21.3264 8.96133C21.2026 9.33712 20.7972 9.54097 20.4224 9.41808L20.4221 9.418C20.0467 9.29422 19.8429 8.88948 19.9657 8.51408L19.9658 8.51389C20.1477 7.96038 20.2401 7.38121 20.2401 6.79261C20.2401 3.75444 17.7679 1.28199 14.7298 1.28199C11.6916 1.28199 9.21949 3.75444 9.21949 6.79261C9.21949 7.4235 9.32514 8.04113 9.53259 8.62973C9.66441 9.00256 9.46894 9.41147 9.09607 9.54299M21.3264 8.96123L9.04617 9.40154M21.3264 8.96123C21.5559 8.26294 21.6724 7.5336 21.6724 6.79261C21.6724 2.96398 18.5584 -0.15 14.7298 -0.15C10.9015 -0.15 7.7875 2.96399 7.7875 6.79261C7.7875 7.58578 7.92021 8.36446 8.18277 9.10651M21.3264 8.96123L8.32422 9.05659M9.09607 9.54299L9.04617 9.40154M9.09607 9.54299C9.09613 9.54297 9.09619 9.54295 9.09625 9.54293L9.04617 9.40154M9.09607 9.54299C9.01789 9.57066 8.93721 9.58425 8.85767 9.58425C8.56305 9.58425 8.2866 9.40139 8.18277 9.10651M9.04617 9.40154C8.98399 9.42356 8.92018 9.43425 8.85767 9.43425C8.62447 9.43425 8.40617 9.28947 8.32422 9.05659M8.18277 9.10651C8.18279 9.10655 8.1828 9.10659 8.18282 9.10663L8.32422 9.05659M8.18277 9.10651C8.18276 9.10647 8.18274 9.10643 8.18273 9.10638L8.32422 9.05659" fill="#76FFFF" stroke="#76FFFF" stroke-width="0.3"/>
<path d="M4.16222 30.15H25.8664C27.612 30.15 29.0324 28.7299 29.0321 26.9839V11.5065C29.0321 9.76087 27.6121 8.34048 25.8664 8.34048H4.16222C2.41684 8.34048 0.996484 9.76086 0.996484 11.5065V26.9842C0.996484 28.7299 2.41686 30.15 4.16222 30.15ZM2.42848 11.5065C2.42848 10.5507 3.20665 9.7728 4.16222 9.7728H25.8664C26.8219 9.7728 27.6001 10.5507 27.6001 11.5065V26.9842C27.6001 27.9398 26.8222 28.718 25.8664 28.718H4.16222C3.20669 28.718 2.42848 27.9398 2.42848 26.9839V11.5065Z" fill="#76FFFF" stroke="#76FFFF" stroke-width="0.3"/>
<path d="M21.8041 23.9235H28.3136C28.7092 23.9235 29.0297 23.6035 29.0297 23.2076V16.9812C29.0297 16.5855 28.7093 16.265 28.3136 16.265H21.8041C19.6927 16.265 17.975 17.9827 17.975 20.0944C17.975 22.2058 19.6927 23.9235 21.8041 23.9235ZM19.407 20.0944C19.407 18.7725 20.4825 17.697 21.8041 17.697H27.5978V22.4915H21.8041C20.4825 22.4915 19.407 21.416 19.407 20.0944Z" fill="#76FFFF" stroke="#76FFFF" stroke-width="0.3"/>
</g>
<defs>
<clipPath id="clip0">
<rect width="30" height="30" fill="white"/>
</clipPath>
</defs>
</svg>
