<svg width="16" height="16" viewBox="0 0 16 16" fill="none" xmlns="http://www.w3.org/2000/svg">
<g clip-path="url(#clip0)">
<path d="M15.938 14.4892L14.8396 11.2926C15.3679 10.2246 15.6473 9.03431 15.6492 7.83656C15.6524 5.774 14.8544 3.82372 13.4021 2.3451C11.9495 0.866198 10.0139 0.0337616 7.95191 0.0010429C6.87157 -0.0163008 5.82326 0.182761 4.83451 0.592042C3.88086 0.986822 3.02564 1.55867 2.29264 2.29166C1.55961 3.02466 0.987771 3.87988 0.593022 4.83353C0.183741 5.82228 -0.015102 6.87112 0.00199177 7.95093C0.034648 10.013 0.867115 11.9486 2.34602 13.4011C3.82177 14.8506 5.76701 15.6484 7.82513 15.6483C7.82916 15.6483 7.83341 15.6483 7.83745 15.6483C9.03519 15.6465 10.2255 15.367 11.2935 14.8387L14.4902 15.9371C14.6131 15.9794 14.7391 16 14.8637 16C15.1598 16 15.4478 15.8837 15.6662 15.6652C15.9764 15.355 16.0806 14.9043 15.938 14.4892ZM14.9954 14.9945C14.9639 15.026 14.8965 15.0737 14.7984 15.04L11.4111 13.8761C11.361 13.8589 11.3089 13.8503 11.2569 13.8503C11.1804 13.8503 11.1042 13.8689 11.0351 13.9054C10.0562 14.4233 8.94991 14.698 7.83595 14.6997C4.10002 14.7057 1.00965 11.6712 0.950459 7.9359C0.920677 6.05656 1.63555 4.29029 2.96339 2.96244C4.29123 1.63463 6.05698 0.919885 7.93685 0.949604C11.6722 1.00882 14.7064 4.09766 14.7006 7.83509C14.6988 8.94909 14.4242 10.0553 13.9063 11.0342C13.845 11.1501 13.8344 11.2862 13.877 11.4102L15.0409 14.7975C15.0746 14.8956 15.0269 14.963 14.9954 14.9945Z" fill="white"/>
<path d="M7.74815 11.3359C7.50006 11.3359 7.26237 11.5541 7.27384 11.8102C7.28534 12.0672 7.48225 12.2846 7.74815 12.2846C7.99625 12.2846 8.23394 12.0664 8.22247 11.8102C8.21097 11.5532 8.01406 11.3359 7.74815 11.3359Z" fill="white"/>
<path d="M7.74754 3.98975C6.44632 3.98975 5.3877 5.04837 5.3877 6.34959C5.3877 6.61152 5.60007 6.8239 5.86201 6.8239C6.12395 6.8239 6.33632 6.61152 6.33632 6.34959C6.33632 5.57146 6.96941 4.93837 7.74754 4.93837C8.52566 4.93837 9.15876 5.57146 9.15876 6.34959C9.15876 7.12771 8.52566 7.7608 7.74754 7.7608C7.4856 7.7608 7.27323 7.97318 7.27323 8.23511V10.1696C7.27323 10.4316 7.4856 10.644 7.74754 10.644C8.00948 10.644 8.22185 10.4316 8.22185 10.1696V8.66152C9.29651 8.44136 10.1074 7.4884 10.1074 6.34959C10.1074 5.04837 9.04876 3.98975 7.74754 3.98975Z" fill="white"/>
</g>
<defs>
<clipPath id="clip0">
<rect width="16" height="16" fill="white"/>
</clipPath>
</defs>
</svg>
