<svg width="24" height="24" viewBox="0 0 24 24" fill="none" xmlns="http://www.w3.org/2000/svg">
<path d="M20.2875 5.27186H9.57836C9.28394 4.39741 8.45683 3.76562 7.48436 3.76562C6.51189 3.76562 5.68478 4.39741 5.39036 5.27186H3.71875C3.33044 5.27186 3.01562 5.58667 3.01562 5.97498C3.01562 6.3633 3.33044 6.67811 3.71875 6.67811H5.39041C5.68483 7.55256 6.51194 8.18434 7.48441 8.18434C8.45687 8.18434 9.28398 7.55256 9.57841 6.67811H20.2875C20.6758 6.67811 20.9906 6.3633 20.9906 5.97498C20.9906 5.58667 20.6758 5.27186 20.2875 5.27186ZM7.48436 6.77809C7.04153 6.77809 6.68125 6.41781 6.68125 5.97498C6.68125 5.53216 7.04153 5.17188 7.48436 5.17188C7.92719 5.17188 8.28747 5.53216 8.28747 5.97498C8.28747 6.41781 7.92719 6.77809 7.48436 6.77809Z" fill="white" stroke="#091467" stroke-width="0.6"/>
<path d="M20.2875 11.297H18.6158C18.3214 10.4226 17.4942 9.79077 16.5218 9.79077C15.5494 9.79077 14.7223 10.4226 14.4279 11.297H3.71875C3.33044 11.297 3.01562 11.6118 3.01562 12.0001C3.01562 12.3884 3.33044 12.7033 3.71875 12.7033H14.4279C14.7223 13.5777 15.5494 14.2095 16.5219 14.2095C17.4943 14.2095 18.3214 13.5777 18.6159 12.7033H20.2875C20.6758 12.7033 20.9906 12.3884 20.9906 12.0001C20.9906 11.6118 20.6758 11.297 20.2875 11.297ZM16.5219 12.8032C16.079 12.8032 15.7188 12.443 15.7188 12.0001C15.7188 11.5573 16.079 11.197 16.5219 11.197C16.9647 11.197 17.325 11.5573 17.325 12.0001C17.325 12.443 16.9647 12.8032 16.5219 12.8032Z" fill="white" stroke="#091467" stroke-width="0.6"/>
<path d="M20.2875 17.3219H12.5909C12.2965 16.4475 11.4693 15.8157 10.4969 15.8157C9.52441 15.8157 8.6973 16.4475 8.40288 17.3219H3.71875C3.33044 17.3219 3.01562 17.6367 3.01562 18.025C3.01562 18.4133 3.33044 18.7282 3.71875 18.7282H8.40288C8.6973 19.6026 9.52441 20.2344 10.4969 20.2344C11.4693 20.2344 12.2965 19.6026 12.5909 18.7282H20.2875C20.6758 18.7282 20.9906 18.4133 20.9906 18.025C20.9906 17.6367 20.6758 17.3219 20.2875 17.3219ZM10.4969 18.8282C10.054 18.8282 9.69377 18.4679 9.69377 18.0251C9.69377 17.5823 10.054 17.222 10.4969 17.222C10.9397 17.222 11.3 17.5822 11.3 18.025C11.3 18.4679 10.9397 18.8282 10.4969 18.8282Z" fill="white" stroke="#091467" stroke-width="0.6"/>
</svg>
