<svg width="16" height="16" viewBox="0 0 16 16" fill="none" xmlns="http://www.w3.org/2000/svg">
<g clip-path="url(#clip0)">
<path d="M15.1225 4.36379C13.7959 1.77632 11.1022 0 8 0C4.89674 0 2.20279 1.777 0.876529 4.36634C0.871264 4.3767 0.86498 4.38604 0.860904 4.39691C0.311651 5.48064 0 6.70431 0 8C0 9.29603 0.311651 10.5197 0.860904 11.6031C0.86498 11.614 0.871264 11.6233 0.876529 11.6337C2.20245 14.223 4.89674 16 8 16C11.1022 16 13.7959 14.224 15.1225 11.6362C15.1284 11.6247 15.1354 11.6143 15.1398 11.6021C15.6887 10.5187 16 9.29535 16 8C16 6.70465 15.6887 5.48132 15.1398 4.39793C15.135 4.3857 15.1284 4.37534 15.1225 4.36379ZM14.5895 11.1304H11.5321C11.7019 10.2734 11.8028 9.33628 11.8218 8.34783H15.2867C15.2396 9.34018 14.9954 10.2797 14.5895 11.1304ZM8 15.3043C6.8998 15.3043 5.91304 13.8939 5.35343 11.8261H10.6466C10.087 13.8939 9.1002 15.3043 8 15.3043ZM5.18716 11.1304C5.0073 10.2751 4.89844 9.33458 4.87755 8.34783H11.1228C11.1016 9.33458 10.9927 10.2751 10.8132 11.1304H5.18716ZM0.713315 8.34783H4.17816C4.19752 9.33628 4.29806 10.2734 4.4679 11.1304H1.4105C1.00459 10.2797 0.76036 9.34018 0.713315 8.34783ZM1.4105 4.86957H4.4679C4.29806 5.72656 4.19718 6.66372 4.17816 7.65217H0.713315C0.76036 6.65982 1.00459 5.72028 1.4105 4.86957ZM8 0.695652C9.1002 0.695652 10.087 2.10615 10.6466 4.17391H5.35343C5.91304 2.10615 6.8998 0.695652 8 0.695652ZM10.8128 4.86957C10.9927 5.72452 11.1016 6.66542 11.1225 7.65217H4.87721C4.89844 6.66542 5.0073 5.72452 5.18682 4.86957H10.8128ZM11.8218 7.65217C11.8025 6.66372 11.7019 5.72656 11.5321 4.86957H14.5895C14.9954 5.72028 15.2396 6.65982 15.2867 7.65217H11.8218ZM14.2101 4.17391H11.3747C11.0226 2.79382 10.4828 1.66814 9.8215 0.934952C11.6688 1.41185 13.2313 2.59103 14.2101 4.17391ZM6.17816 0.934952C5.51715 1.66814 4.97741 2.79382 4.625 4.17391H1.78957C2.76868 2.59103 4.33118 1.41185 6.17816 0.934952ZM1.78991 11.8261H4.625C4.97707 13.2062 5.51681 14.3319 6.17816 15.065C4.33118 14.5881 2.76868 13.4086 1.78991 11.8261ZM9.82184 15.065C10.4828 14.3319 11.0226 13.2062 11.375 11.8261H14.2101C13.2313 13.4086 11.6688 14.5881 9.82184 15.065Z" fill="#76FFFF"/>
</g>
<defs>
<clipPath id="clip0">
<rect width="16" height="16" fill="white"/>
</clipPath>
</defs>
</svg>
