<svg width="738" height="256" viewBox="0 0 738 256" fill="none" xmlns="http://www.w3.org/2000/svg">
<path d="M0 29.9381V244C0 250.627 5.37257 256 12 256H726C732.627 256 738 250.627 738 244V69.9899L659.099 7.17837C651.828 1.3898 642.292 -0.700826 633.244 1.42184C607.062 7.56379 551.917 19.9605 527.252 21.4545C494.299 23.4507 378.579 2.99033 346.393 3.48936C314.206 3.98839 239.103 33.4313 202.318 33.9304C165.533 34.4294 112.654 16.4642 82.7664 17.4623C52.8785 18.4603 0 29.9381 0 29.9381Z" fill="url(#paint0_linear)" fill-opacity="0.5"/>
<defs>
<linearGradient id="paint0_linear" x1="477.529" y1="3.48936" x2="477.529" y2="265.82" gradientUnits="userSpaceOnUse">
<stop stop-color="#07FFFF"/>
<stop offset="1" stop-color="#183699"/>
</linearGradient>
</defs>
</svg>
