<svg width="728" height="1000" viewBox="0 0 728 1000" fill="none" xmlns="http://www.w3.org/2000/svg">
<path d="M175.073 523.005C175.616 522.633 175.901 522.143 175.866 521.642C175.832 521.141 175.481 520.669 174.889 520.327V520.327C175.433 520.695 176.189 520.915 176.994 520.939C177.798 520.964 178.586 520.791 179.185 520.457V520.457C178.644 520.827 178.36 521.313 178.394 521.812C178.429 522.31 178.779 522.78 179.37 523.119V523.119C179.1 522.936 178.775 522.788 178.413 522.683C178.051 522.578 177.659 522.519 177.26 522.508C176.86 522.498 176.462 522.536 176.086 522.621C175.711 522.706 175.367 522.837 175.073 523.005V523.005Z" fill="white"/>
<path d="M378.378 586.741C377.81 587.092 377.087 587.331 376.299 587.428C375.512 587.524 374.696 587.474 373.955 587.284C373.214 587.093 372.58 586.771 372.135 586.358C371.689 585.944 371.451 585.458 371.451 584.961C371.451 584.464 371.689 583.978 372.135 583.564C372.58 583.151 373.214 582.828 373.955 582.638C374.696 582.447 375.512 582.397 376.299 582.494C377.087 582.591 377.81 582.83 378.378 583.181C378.759 583.413 379.061 583.69 379.268 583.996C379.474 584.302 379.581 584.63 379.581 584.961C379.581 585.292 379.474 585.62 379.268 585.926C379.061 586.231 378.759 586.508 378.378 586.741Z" fill="white"/>
<path d="M289.338 372.898C288.913 373.16 288.373 373.338 287.786 373.41C287.198 373.482 286.589 373.444 286.036 373.302C285.483 373.159 285.01 372.919 284.678 372.61C284.345 372.301 284.168 371.938 284.168 371.567C284.168 371.196 284.345 370.834 284.678 370.525C285.01 370.216 285.483 369.976 286.036 369.833C286.589 369.691 287.198 369.653 287.786 369.725C288.373 369.797 288.913 369.975 289.338 370.237C289.621 370.411 289.845 370.618 289.998 370.847C290.152 371.075 290.23 371.32 290.23 371.567C290.23 371.815 290.152 372.06 289.998 372.288C289.845 372.516 289.621 372.724 289.338 372.898V372.898Z" fill="white"/>
<path d="M431.836 216.786C431.411 217.047 430.871 217.225 430.284 217.297C429.696 217.369 429.087 217.331 428.534 217.189C427.981 217.047 427.508 216.806 427.176 216.497C426.843 216.189 426.666 215.826 426.666 215.455C426.666 215.084 426.843 214.721 427.176 214.412C427.508 214.104 427.981 213.863 428.534 213.721C429.087 213.578 429.696 213.54 430.284 213.612C430.871 213.684 431.411 213.862 431.836 214.124C432.119 214.298 432.343 214.506 432.496 214.734C432.65 214.962 432.728 215.207 432.728 215.455C432.728 215.702 432.65 215.947 432.496 216.175C432.343 216.404 432.119 216.611 431.836 216.786Z" fill="white"/>
<path d="M565.329 269.651C565.87 269.282 566.154 268.795 566.12 268.297C566.085 267.798 565.735 267.329 565.145 266.989V266.989C565.692 267.355 566.45 267.572 567.255 267.593C568.059 267.615 568.845 267.439 569.441 267.104V267.104C569.171 267.287 568.963 267.501 568.828 267.734C568.692 267.967 568.633 268.214 568.652 268.462C568.672 268.709 568.77 268.952 568.942 269.175C569.113 269.399 569.355 269.6 569.652 269.765V269.765C569.1 269.399 568.337 269.181 567.528 269.16C566.719 269.138 565.93 269.315 565.329 269.651V269.651Z" fill="white"/>
<path d="M464.536 348.509C465.077 348.14 465.361 347.653 465.327 347.155C465.292 346.656 464.942 346.187 464.352 345.847C464.899 346.213 465.657 346.43 466.462 346.451C467.266 346.473 468.052 346.297 468.648 345.962V345.962C468.105 346.334 467.82 346.823 467.855 347.324C467.89 347.825 468.241 348.298 468.833 348.64C468.288 348.272 467.532 348.052 466.728 348.027C465.923 348.003 465.136 348.176 464.536 348.509V348.509Z" fill="white"/>
<path d="M279.286 120.998C279.827 120.629 280.111 120.142 280.077 119.644C280.042 119.145 279.692 118.676 279.102 118.336V118.336C279.649 118.702 280.407 118.919 281.212 118.94C282.016 118.962 282.802 118.786 283.398 118.451V118.451C282.857 118.82 282.573 119.307 282.607 119.805C282.642 120.303 282.992 120.773 283.583 121.112V121.112C283.035 120.747 282.277 120.53 281.472 120.508C280.668 120.487 279.882 120.663 279.286 120.998V120.998Z" fill="white"/>
<path d="M429.029 268.769C429.567 268.398 429.847 267.91 429.807 267.411C429.768 266.913 429.412 266.444 428.818 266.107V266.107C429.371 266.474 430.133 266.692 430.942 266.713C431.751 266.734 432.541 266.558 433.141 266.222V266.222C432.6 266.591 432.316 267.078 432.35 267.576C432.385 268.074 432.735 268.544 433.326 268.883V268.883C432.778 268.518 432.02 268.301 431.215 268.279C430.411 268.258 429.625 268.434 429.029 268.769Z" fill="white"/>
<path d="M276.202 235.211C276.745 234.839 277.03 234.35 276.995 233.848C276.961 233.347 276.609 232.875 276.018 232.533V232.533C276.562 232.901 277.318 233.121 278.122 233.145C278.927 233.17 279.714 232.997 280.314 232.664V232.664C279.773 233.033 279.489 233.52 279.523 234.018C279.558 234.516 279.908 234.986 280.498 235.325V235.325C280.229 235.142 279.904 234.994 279.542 234.889C279.18 234.784 278.788 234.725 278.389 234.714C277.989 234.704 277.591 234.742 277.215 234.827C276.84 234.913 276.496 235.043 276.202 235.211V235.211Z" fill="white"/>
<path d="M376.499 74.9962C377.04 74.6269 377.324 74.1402 377.29 73.6418C377.255 73.1435 376.905 72.6737 376.314 72.3344V72.3344C376.862 72.7001 377.62 72.9172 378.425 72.9386C379.229 72.96 380.015 72.784 380.611 72.4487V72.4487C380.07 72.8181 379.786 73.3048 379.82 73.8031C379.855 74.3015 380.205 74.7713 380.795 75.1106C380.248 74.7449 379.489 74.5278 378.685 74.5064C377.881 74.485 377.095 74.661 376.499 74.9962V74.9962Z" fill="white"/>
<path d="M421.81 338.743C422.351 338.374 422.635 337.887 422.6 337.389C422.566 336.891 422.215 336.421 421.625 336.082V336.082C422.173 336.447 422.931 336.664 423.735 336.686C424.54 336.707 425.325 336.531 425.921 336.196C425.38 336.565 425.096 337.052 425.131 337.55C425.165 338.049 425.516 338.519 426.106 338.858C425.558 338.492 424.8 338.275 423.996 338.254C423.191 338.232 422.406 338.408 421.81 338.743V338.743Z" fill="white"/>
<path d="M399.38 88.6155C399.921 88.2462 400.205 87.7595 400.17 87.2611C400.136 86.7628 399.786 86.293 399.195 85.9537C399.743 86.3194 400.501 86.5365 401.306 86.5579C402.11 86.5793 402.895 86.4033 403.492 86.068C402.951 86.4374 402.666 86.9241 402.701 87.4224C402.736 87.9208 403.086 88.3906 403.676 88.7298C403.129 88.3642 402.37 88.1471 401.566 88.1257C400.762 88.1043 399.976 88.2803 399.38 88.6155V88.6155Z" fill="white"/>
<path d="M102.081 155.683C102.624 155.311 102.908 154.822 102.874 154.321C102.839 153.82 102.488 153.347 101.896 153.005V153.005C102.165 153.193 102.491 153.346 102.856 153.456C103.22 153.565 103.617 153.629 104.021 153.642C104.426 153.656 104.831 153.62 105.213 153.536C105.595 153.451 105.946 153.321 106.246 153.152V153.152C105.704 153.521 105.42 154.008 105.455 154.506C105.489 155.005 105.84 155.475 106.43 155.814C106.16 155.627 105.832 155.475 105.467 155.367C105.101 155.259 104.704 155.197 104.3 155.185C103.895 155.173 103.49 155.211 103.11 155.296C102.729 155.382 102.379 155.513 102.081 155.683V155.683Z" fill="white"/>
<path d="M242.519 103.312C242.095 103.574 241.555 103.752 240.967 103.824C240.38 103.896 239.771 103.858 239.218 103.716C238.665 103.573 238.192 103.333 237.86 103.024C237.527 102.715 237.35 102.353 237.35 101.982C237.35 101.61 237.527 101.248 237.86 100.939C238.192 100.63 238.665 100.39 239.218 100.247C239.771 100.105 240.38 100.067 240.967 100.139C241.555 100.211 242.095 100.389 242.519 100.651C242.802 100.825 243.027 101.033 243.18 101.261C243.333 101.489 243.412 101.734 243.412 101.982C243.412 102.229 243.333 102.474 243.18 102.702C243.027 102.931 242.802 103.138 242.519 103.312Z" fill="white"/>
<path d="M385.014 314.918C384.589 315.18 384.049 315.358 383.461 315.43C382.874 315.501 382.265 315.464 381.712 315.321C381.159 315.179 380.686 314.938 380.354 314.63C380.021 314.321 379.844 313.958 379.844 313.587C379.844 313.216 380.021 312.853 380.354 312.545C380.686 312.236 381.159 311.995 381.712 311.853C382.265 311.711 382.874 311.673 383.461 311.745C384.049 311.816 384.589 311.994 385.014 312.256C385.296 312.431 385.521 312.638 385.674 312.867C385.827 313.095 385.906 313.34 385.906 313.587C385.906 313.834 385.827 314.079 385.674 314.308C385.521 314.536 385.296 314.744 385.014 314.918V314.918Z" fill="white"/>
<path d="M23.6903 226.878C23.1223 227.229 22.399 227.468 21.6118 227.565C20.8246 227.661 20.0089 227.611 19.2677 227.421C18.5264 227.23 17.8929 226.908 17.4472 226.494C17.0016 226.081 16.7637 225.595 16.7637 225.098C16.7637 224.601 17.0016 224.115 17.4472 223.701C17.8929 223.288 18.5264 222.965 19.2677 222.775C20.0089 222.584 20.8246 222.534 21.6118 222.631C22.399 222.727 23.1223 222.967 23.6903 223.318C24.0712 223.55 24.3738 223.827 24.5803 224.133C24.7868 224.438 24.8931 224.766 24.8931 225.098C24.8931 225.429 24.7868 225.757 24.5803 226.063C24.3738 226.368 24.0712 226.645 23.6903 226.878Z" fill="white"/>
<g style="mix-blend-mode:overlay">
<path d="M344.511 145.066C344.782 144.884 344.992 144.67 345.13 144.438C345.267 144.206 345.329 143.958 345.312 143.711C345.295 143.464 345.199 143.221 345.03 142.996C344.861 142.772 344.622 142.571 344.326 142.404V142.404C344.874 142.77 345.632 142.987 346.436 143.008C347.241 143.03 348.026 142.853 348.623 142.518V142.518C348.085 142.89 347.805 143.378 347.845 143.876C347.884 144.374 348.239 144.843 348.833 145.18C348.281 144.813 347.519 144.596 346.71 144.574C345.901 144.553 345.111 144.729 344.511 145.066Z" fill="white"/>
</g>
<g style="mix-blend-mode:overlay">
<path d="M321.874 267.264C322.415 266.895 322.699 266.408 322.665 265.91C322.63 265.412 322.28 264.942 321.689 264.603V264.603C322.237 264.968 322.995 265.185 323.8 265.207C324.604 265.228 325.39 265.052 325.986 264.717V264.717C325.716 264.9 325.508 265.114 325.372 265.347C325.237 265.58 325.177 265.828 325.197 266.075C325.217 266.322 325.315 266.565 325.487 266.789C325.658 267.012 325.9 267.213 326.197 267.379V267.379C325.645 267.012 324.882 266.794 324.073 266.773C323.264 266.752 322.475 266.928 321.874 267.264V267.264Z" fill="white"/>
</g>
<g style="mix-blend-mode:overlay">
<path d="M221.079 346.122C221.62 345.753 221.904 345.266 221.87 344.768C221.835 344.269 221.485 343.799 220.895 343.46C221.442 343.826 222.2 344.043 223.005 344.064C223.809 344.086 224.595 343.91 225.191 343.575V343.575C224.648 343.947 224.363 344.436 224.398 344.937C224.432 345.438 224.784 345.911 225.375 346.253C224.831 345.885 224.075 345.665 223.271 345.64C222.466 345.616 221.679 345.789 221.079 346.122V346.122Z" fill="white"/>
</g>
<g style="mix-blend-mode:overlay">
<path d="M462.284 115.786C462.825 115.416 463.109 114.93 463.075 114.431C463.04 113.933 462.69 113.463 462.1 113.124C462.654 113.485 463.417 113.696 464.221 113.712C465.025 113.727 465.807 113.545 466.396 113.206C465.855 113.575 465.571 114.062 465.605 114.56C465.64 115.058 465.99 115.528 466.581 115.867C466.026 115.506 465.264 115.295 464.459 115.28C463.655 115.265 462.874 115.446 462.284 115.786V115.786Z" fill="white"/>
</g>
<g style="mix-blend-mode:overlay">
<path d="M185.57 266.382C186.108 266.011 186.388 265.523 186.348 265.025C186.309 264.526 185.953 264.058 185.359 263.721V263.721C185.912 264.087 186.674 264.305 187.483 264.326C188.292 264.348 189.082 264.171 189.682 263.835V263.835C189.141 264.204 188.857 264.691 188.891 265.189C188.926 265.688 189.276 266.158 189.867 266.497V266.497C189.319 266.131 188.561 265.914 187.756 265.893C186.952 265.871 186.166 266.047 185.57 266.382Z" fill="white"/>
</g>
<g style="mix-blend-mode:overlay">
<path d="M178.351 336.357C178.892 335.987 179.176 335.501 179.141 335.002C179.107 334.504 178.756 334.034 178.166 333.695V333.695C178.714 334.06 179.472 334.278 180.276 334.299C181.081 334.32 181.866 334.144 182.462 333.809C181.921 334.179 181.637 334.665 181.672 335.164C181.706 335.662 182.057 336.132 182.647 336.471C182.099 336.105 181.341 335.888 180.537 335.867C179.732 335.845 178.947 336.021 178.351 336.357V336.357Z" fill="white"/>
</g>
<g style="mix-blend-mode:overlay">
<path d="M506.715 201.617C506.149 201.97 505.425 202.212 504.637 202.31C503.849 202.409 503.031 202.36 502.288 202.17C501.545 201.98 500.909 201.658 500.462 201.244C500.014 200.83 499.775 200.343 499.775 199.845C499.775 199.347 500.014 198.86 500.462 198.446C500.909 198.032 501.545 197.71 502.288 197.52C503.031 197.33 503.849 197.281 504.637 197.38C505.425 197.478 506.149 197.72 506.715 198.073C507.464 198.546 507.883 199.182 507.883 199.845C507.883 200.508 507.464 201.144 506.715 201.617V201.617Z" fill="white"/>
</g>
<g style="mix-blend-mode:overlay">
<path d="M236.044 296.56C235.476 296.912 234.753 297.151 233.965 297.247C233.178 297.344 232.362 297.294 231.621 297.103C230.88 296.913 230.246 296.591 229.801 296.177C229.355 295.764 229.117 295.278 229.117 294.78C229.117 294.283 229.355 293.797 229.801 293.384C230.246 292.97 230.88 292.648 231.621 292.458C232.362 292.267 233.178 292.217 233.965 292.314C234.753 292.41 235.476 292.649 236.044 293C236.425 293.233 236.727 293.51 236.934 293.816C237.14 294.121 237.247 294.449 237.247 294.78C237.247 295.112 237.14 295.44 236.934 295.745C236.727 296.051 236.425 296.328 236.044 296.56Z" fill="white"/>
</g>
<g style="mix-blend-mode:overlay">
<path d="M141.551 312.531C141.126 312.793 140.586 312.971 139.998 313.043C139.411 313.115 138.802 313.077 138.249 312.934C137.696 312.792 137.223 312.551 136.891 312.243C136.558 311.934 136.381 311.571 136.381 311.2C136.381 310.829 136.558 310.466 136.891 310.158C137.223 309.849 137.696 309.608 138.249 309.466C138.802 309.324 139.411 309.286 139.998 309.358C140.586 309.43 141.126 309.608 141.551 309.869C141.834 310.044 142.058 310.251 142.211 310.48C142.364 310.708 142.443 310.953 142.443 311.2C142.443 311.448 142.364 311.692 142.211 311.921C142.058 312.149 141.834 312.357 141.551 312.531V312.531Z" fill="white"/>
</g>
<g style="mix-blend-mode:overlay">
<path d="M463.755 30.1018C463.755 30.1018 439.426 30.1018 432.837 30.1018C427.064 30.1835 426.642 31.1633 432.837 31.0816C441.377 31.0163 463.755 30.1018 463.755 30.1018Z" fill="white"/>
</g>
<g style="mix-blend-mode:overlay">
<path d="M493.273 44.6194C493.273 44.6194 468.945 44.6194 462.329 44.6194C456.583 44.7011 456.135 45.6809 462.329 45.5829C470.79 45.5339 493.273 44.6194 493.273 44.6194Z" fill="white"/>
</g>
<g style="mix-blend-mode:overlay">
<path d="M383.097 122.857C383.097 122.857 333.017 122.857 319.363 122.987C307.528 123.151 306.632 125.176 319.547 124.98C336.759 124.735 383.097 122.857 383.097 122.857Z" fill="white"/>
</g>
<g style="mix-blend-mode:overlay">
<path d="M269.624 96.2879C269.624 96.2879 219.543 96.2879 205.915 96.4185C194.081 96.5818 193.158 98.6068 206.074 98.4108C223.312 98.1659 269.624 96.2879 269.624 96.2879Z" fill="white"/>
</g>
<g style="mix-blend-mode:overlay">
<path d="M472.528 6.40692C472.528 6.40692 454.578 6.40692 449.729 6.40692C445.485 6.40692 445.142 7.19075 449.729 7.12543C455.844 7.0601 472.528 6.40692 472.528 6.40692Z" fill="white"/>
</g>
<g style="mix-blend-mode:overlay">
<path d="M573.694 7.1582C573.694 7.1582 536.793 7.15821 526.698 7.23986C517.947 7.3705 517.288 8.87288 526.829 8.7259C539.534 8.54627 573.694 7.1582 573.694 7.1582Z" fill="white"/>
</g>
<path d="M427.241 102.774C427.782 102.404 428.066 101.918 428.032 101.419C427.997 100.921 427.647 100.451 427.057 100.112V100.112C427.604 100.478 428.363 100.695 429.167 100.716C429.971 100.738 430.757 100.561 431.353 100.226V100.226C430.812 100.596 430.528 101.082 430.562 101.581C430.597 102.079 430.947 102.549 431.538 102.888C430.99 102.522 430.232 102.305 429.427 102.284C428.623 102.262 427.837 102.438 427.241 102.774V102.774Z" fill="white"/>
<path d="M250.03 137.459C250.571 137.089 250.855 136.603 250.821 136.104C250.786 135.606 250.436 135.136 249.846 134.797C250.393 135.163 251.152 135.38 251.956 135.401C252.76 135.423 253.546 135.247 254.142 134.911V134.911C253.601 135.281 253.317 135.767 253.351 136.266C253.386 136.764 253.736 137.234 254.327 137.573C253.779 137.207 253.021 136.99 252.216 136.969C251.412 136.948 250.626 137.124 250.03 137.459V137.459Z" fill="white"/>
<path d="M390.467 85.1046C390.042 85.3664 389.502 85.5444 388.914 85.6162C388.327 85.688 387.718 85.6503 387.165 85.5079C386.612 85.3655 386.139 85.1248 385.807 84.8162C385.474 84.5075 385.297 84.1448 385.297 83.7737C385.297 83.4027 385.474 83.0399 385.807 82.7313C386.139 82.4226 386.612 82.1819 387.165 82.0395C387.718 81.8971 388.327 81.8594 388.914 81.9312C389.502 82.003 390.042 82.181 390.467 82.4428C390.75 82.6173 390.974 82.8247 391.127 83.0531C391.28 83.2815 391.359 83.5264 391.359 83.7737C391.359 84.021 391.28 84.2659 391.127 84.4943C390.974 84.7227 390.75 84.9301 390.467 85.1046V85.1046Z" fill="white"/>
<path d="M345.37 2.1474C345.086 2.32301 344.724 2.44252 344.33 2.49084C343.937 2.53916 343.529 2.51412 343.158 2.41888C342.788 2.32364 342.471 2.16246 342.248 1.95573C342.025 1.74901 341.906 1.506 341.906 1.25741C341.906 1.00882 342.025 0.765822 342.248 0.559093C342.471 0.352365 342.788 0.191189 343.158 0.0959468C343.529 0.000704164 343.937 -0.0243359 344.33 0.0239843C344.724 0.0723044 345.086 0.191817 345.37 0.367426C345.558 0.48422 345.708 0.622938 345.811 0.775654C345.913 0.92837 345.965 1.09208 345.965 1.25741C345.965 1.42275 345.913 1.58646 345.811 1.73917C345.708 1.89189 345.558 2.03061 345.37 2.1474Z" fill="white"/>
<path d="M532.961 296.694C532.536 296.956 531.996 297.134 531.409 297.206C530.821 297.277 530.212 297.24 529.659 297.097C529.106 296.955 528.633 296.714 528.301 296.406C527.968 296.097 527.791 295.734 527.791 295.363C527.791 294.992 527.968 294.629 528.301 294.321C528.633 294.012 529.106 293.771 529.659 293.629C530.212 293.486 530.821 293.449 531.409 293.521C531.996 293.592 532.536 293.77 532.961 294.032C533.244 294.207 533.468 294.414 533.621 294.642C533.775 294.871 533.853 295.116 533.853 295.363C533.853 295.61 533.775 295.855 533.621 296.084C533.468 296.312 533.244 296.519 532.961 296.694Z" fill="white"/>
<path d="M508.155 34.824C507.871 34.9996 507.509 35.1192 507.116 35.1675C506.722 35.2158 506.314 35.1908 505.943 35.0955C505.573 35.0003 505.256 34.8391 505.033 34.6324C504.81 34.4257 504.691 34.1826 504.691 33.934C504.691 33.6855 504.81 33.4425 505.033 33.2357C505.256 33.029 505.573 32.8678 505.943 32.7726C506.314 32.6773 506.722 32.6523 507.116 32.7006C507.509 32.7489 507.871 32.8685 508.155 33.0441C508.344 33.1609 508.494 33.2996 508.596 33.4523C508.698 33.605 508.751 33.7687 508.751 33.934C508.751 34.0994 508.698 34.2631 508.596 34.4158C508.494 34.5685 508.344 34.7072 508.155 34.824Z" fill="white"/>
<path d="M96.2348 25.3803C96.2192 25.8568 95.9766 26.3198 95.5374 26.7111C95.0982 27.1023 94.482 27.4045 93.7664 27.5794C93.0509 27.7543 92.2679 27.7943 91.5157 27.6942C90.7636 27.5942 90.076 27.3586 89.5394 27.0171C89.0028 26.6756 88.6412 26.2434 88.4999 25.775C88.3587 25.3065 88.4441 24.8226 88.7456 24.3841C89.0471 23.9456 89.5512 23.5721 90.1943 23.3106C90.8374 23.0492 91.5909 22.9113 92.3602 22.9144C92.878 22.9143 93.3907 22.9785 93.8678 23.1032C94.3449 23.2279 94.7767 23.4106 95.1379 23.6404C95.4991 23.8703 95.7824 24.1427 95.9708 24.4416C96.1592 24.7404 96.2489 25.0596 96.2348 25.3803V25.3803Z" fill="white"/>
<path d="M194.854 40.9191C195.397 40.547 195.682 40.0577 195.647 39.5566C195.613 39.0556 195.262 38.583 194.67 38.241V38.241C195.214 38.6089 195.97 38.8291 196.775 38.8535C197.579 38.878 198.367 38.7048 198.966 38.3716V38.3716C198.425 38.741 198.141 39.2276 198.176 39.726C198.21 40.2243 198.56 40.6941 199.151 41.0334V41.0334C198.603 40.6677 197.845 40.4506 197.04 40.4292C196.236 40.4078 195.451 40.5839 194.854 40.9191V40.9191Z" fill="url(#paint0_linear)"/>
<path d="M164.044 104.573C163.83 104.706 163.557 104.796 163.261 104.833C162.964 104.869 162.657 104.85 162.377 104.779C162.098 104.707 161.859 104.586 161.691 104.43C161.523 104.274 161.434 104.091 161.434 103.904C161.434 103.716 161.523 103.533 161.691 103.377C161.859 103.222 162.098 103.1 162.377 103.029C162.657 102.957 162.964 102.938 163.261 102.975C163.557 103.011 163.83 103.102 164.044 103.234C164.324 103.414 164.48 103.654 164.48 103.904C164.48 104.154 164.324 104.394 164.044 104.573V104.573Z" fill="white"/>
<g style="mix-blend-mode:overlay">
<path d="M257.975 130.902C257.975 130.902 221.074 130.902 210.979 130.902C202.228 131.032 201.569 132.535 210.979 132.371C223.815 132.273 257.975 130.902 257.975 130.902Z" fill="white"/>
</g>
<g style="mix-blend-mode:overlay">
<path d="M32.4626 137.654C32.4626 137.654 70.5503 137.654 80.8564 137.556C89.8709 137.426 90.5563 135.923 80.7247 136.037C67.6509 136.25 32.4626 137.654 32.4626 137.654Z" fill="white"/>
</g>
<path d="M262.413 451.915C262.397 452.391 262.154 452.854 261.715 453.245C261.276 453.637 260.66 453.939 259.944 454.114C259.229 454.289 258.446 454.329 257.693 454.228C256.941 454.128 256.254 453.893 255.717 453.551C255.18 453.21 254.819 452.778 254.678 452.309C254.536 451.841 254.622 451.357 254.923 450.918C255.225 450.48 255.729 450.106 256.372 449.845C257.015 449.583 257.769 449.446 258.538 449.449C259.056 449.449 259.568 449.513 260.046 449.637C260.523 449.762 260.954 449.945 261.316 450.175C261.677 450.405 261.96 450.677 262.149 450.976C262.337 451.275 262.427 451.594 262.413 451.915V451.915Z" fill="white"/>
<path d="M124.129 211.321C124.114 211.797 123.871 212.26 123.432 212.651C122.993 213.043 122.377 213.345 121.661 213.52C120.945 213.695 120.162 213.735 119.41 213.635C118.658 213.535 117.97 213.299 117.434 212.957C116.897 212.616 116.536 212.184 116.394 211.715C116.253 211.247 116.339 210.763 116.64 210.324C116.942 209.886 117.446 209.513 118.089 209.251C118.732 208.99 119.485 208.852 120.255 208.855C120.773 208.855 121.285 208.919 121.762 209.044C122.239 209.168 122.671 209.351 123.032 209.581C123.394 209.811 123.677 210.083 123.865 210.382C124.054 210.681 124.143 211 124.129 211.321V211.321Z" fill="white"/>
<path d="M242.825 661.388C242.809 661.864 242.566 662.327 242.127 662.719C241.688 663.11 241.072 663.412 240.356 663.587C239.641 663.762 238.858 663.802 238.106 663.702C237.353 663.602 236.666 663.366 236.129 663.025C235.593 662.683 235.231 662.251 235.09 661.782C234.949 661.314 235.034 660.83 235.335 660.392C235.637 659.953 236.141 659.58 236.784 659.318C237.427 659.057 238.181 658.919 238.95 658.922C239.468 658.922 239.981 658.986 240.458 659.111C240.935 659.235 241.367 659.418 241.728 659.648C242.089 659.878 242.372 660.15 242.561 660.449C242.749 660.748 242.839 661.067 242.825 661.388V661.388Z" fill="white"/>
<path d="M179.25 424.609C179.629 424.353 179.923 424.053 180.115 423.727C180.307 423.4 180.394 423.053 180.369 422.706C180.345 422.358 180.21 422.017 179.973 421.702C179.735 421.387 179.4 421.104 178.986 420.87C179.755 421.384 180.82 421.689 181.95 421.72C183.08 421.75 184.184 421.504 185.022 421.033V421.033C184.263 421.552 183.865 422.236 183.914 422.936C183.963 423.637 184.456 424.296 185.286 424.773V424.773C184.907 424.516 184.45 424.309 183.942 424.162C183.433 424.015 182.883 423.931 182.322 423.916C181.762 423.901 181.202 423.954 180.675 424.073C180.148 424.192 179.663 424.374 179.25 424.609V424.609Z" fill="white"/>
<path d="M141.538 529.002C142.081 528.63 142.366 528.141 142.331 527.64C142.296 527.139 141.945 526.666 141.354 526.324V526.324C141.898 526.692 142.654 526.912 143.458 526.937C144.263 526.961 145.05 526.788 145.65 526.455V526.455C145.109 526.824 144.825 527.311 144.859 527.809C144.894 528.308 145.244 528.777 145.834 529.117V529.117C145.287 528.751 144.528 528.534 143.724 528.512C142.92 528.491 142.134 528.667 141.538 529.002V529.002Z" fill="url(#paint1_linear)"/>
<path d="M50.04 504.224C50.5827 503.851 50.8676 503.362 50.8331 502.861C50.7986 502.36 50.4474 501.887 49.8555 501.545V501.545C50.123 501.73 50.4467 501.879 50.8079 501.985C51.169 502.092 51.5606 502.153 51.9599 502.165C52.3593 502.177 52.7584 502.14 53.1347 502.056C53.5109 501.972 53.8566 501.843 54.1519 501.676C53.6108 502.045 53.3266 502.532 53.3612 503.03C53.3957 503.529 53.7462 503.999 54.3364 504.338V504.338C53.7888 503.972 53.0306 503.755 52.2262 503.734C51.4218 503.712 50.6362 503.888 50.04 504.224Z" fill="url(#paint2_linear)"/>
<path d="M180.362 514.632C180.148 514.764 179.876 514.855 179.579 514.891C179.283 514.928 178.975 514.909 178.696 514.837C178.416 514.766 178.178 514.644 178.01 514.489C177.842 514.333 177.752 514.15 177.752 513.962C177.752 513.775 177.842 513.592 178.01 513.436C178.178 513.28 178.416 513.159 178.696 513.087C178.975 513.016 179.283 512.997 179.579 513.033C179.876 513.07 180.148 513.16 180.362 513.293C180.642 513.472 180.799 513.712 180.799 513.962C180.799 514.212 180.642 514.452 180.362 514.632V514.632Z" fill="white"/>
<path d="M235.262 610.531C235.049 610.664 234.776 610.754 234.48 610.791C234.183 610.827 233.876 610.808 233.596 610.737C233.317 610.665 233.078 610.544 232.91 610.388C232.742 610.232 232.652 610.049 232.652 609.862C232.652 609.674 232.742 609.491 232.91 609.335C233.078 609.18 233.317 609.058 233.596 608.987C233.876 608.915 234.183 608.896 234.48 608.933C234.776 608.969 235.049 609.06 235.262 609.192C235.543 609.372 235.699 609.612 235.699 609.862C235.699 610.112 235.543 610.352 235.262 610.531V610.531Z" fill="white"/>
<g style="mix-blend-mode:overlay">
<path d="M119.053 528.778C119.053 528.778 94.6977 528.778 88.1081 528.778C82.362 528.778 81.9139 529.839 88.1081 529.758C96.5427 529.676 119.053 528.778 119.053 528.778Z" fill="white"/>
</g>
<g style="mix-blend-mode:overlay">
<path d="M94.777 699.33C94.777 699.33 70.4483 699.33 63.8324 699.33C58.0863 699.411 57.6646 700.391 63.8324 700.309C72.2934 700.228 94.777 699.33 94.777 699.33Z" fill="white"/>
</g>
<g style="mix-blend-mode:overlay">
<path d="M208.778 649.882C208.778 649.882 170.691 649.882 160.358 649.964C151.37 650.094 150.685 651.597 160.49 651.499C173.59 651.27 208.778 649.882 208.778 649.882Z" fill="white"/>
</g>
<g style="mix-blend-mode:overlay">
<path d="M115.814 457.53C115.814 457.53 97.8636 457.53 93.0137 457.53C88.77 457.53 88.4273 458.314 93.0137 458.248C99.2342 458.199 115.814 457.53 115.814 457.53Z" fill="white"/>
</g>
<g style="mix-blend-mode:overlay">
<path d="M54.6024 582.44C54.6024 582.44 17.157 582.44 6.91296 582.44C-1.96695 582.57 -2.63562 584.061 6.91296 583.898C19.9386 583.801 54.6024 582.44 54.6024 582.44Z" fill="white"/>
</g>
<g style="mix-blend-mode:overlay">
<path d="M198.642 564.188C198.642 564.188 236.73 564.188 247.036 564.09C256.051 563.96 256.736 562.457 246.904 562.572C233.831 562.784 198.642 564.188 198.642 564.188Z" fill="white"/>
</g>
<path d="M335.473 851.756C335.457 852.232 335.215 852.695 334.776 853.086C334.336 853.478 333.72 853.78 333.005 853.955C332.289 854.13 331.506 854.17 330.754 854.07C330.002 853.969 329.314 853.734 328.778 853.392C328.241 853.051 327.879 852.619 327.738 852.15C327.597 851.682 327.682 851.198 327.984 850.759C328.285 850.321 328.789 849.947 329.433 849.686C330.076 849.424 330.829 849.287 331.598 849.29C332.116 849.29 332.629 849.354 333.106 849.479C333.583 849.603 334.015 849.786 334.376 850.016C334.737 850.246 335.021 850.518 335.209 850.817C335.397 851.116 335.487 851.435 335.473 851.756V851.756Z" fill="white"/>
<path d="M252.316 824.451C252.696 824.194 252.99 823.894 253.182 823.568C253.374 823.241 253.46 822.894 253.435 822.547C253.411 822.2 253.276 821.859 253.039 821.544C252.802 821.229 252.467 820.946 252.053 820.711C252.822 821.225 253.887 821.53 255.017 821.561C256.147 821.592 257.25 821.345 258.089 820.874V820.874C257.329 821.394 256.931 822.077 256.98 822.778C257.03 823.478 257.523 824.138 258.352 824.614V824.614C257.973 824.357 257.517 824.15 257.008 824.003C256.5 823.856 255.949 823.772 255.389 823.757C254.828 823.742 254.268 823.795 253.741 823.914C253.214 824.033 252.73 824.216 252.316 824.451V824.451Z" fill="white"/>
<path d="M9.15478 929.335C8.98822 929.438 8.77591 929.508 8.54483 929.536C8.31374 929.565 8.07423 929.55 7.85653 929.494C7.63883 929.439 7.45282 929.345 7.32191 929.224C7.19099 929.103 7.12109 928.96 7.12109 928.815C7.12109 928.67 7.19099 928.527 7.32191 928.406C7.45282 928.285 7.63883 928.191 7.85653 928.136C8.07423 928.08 8.31374 928.065 8.54483 928.094C8.77591 928.122 8.98822 928.192 9.15478 928.295C9.37312 928.435 9.49511 928.621 9.49511 928.815C9.49511 929.009 9.37312 929.195 9.15478 929.335V929.335Z" fill="white"/>
<path d="M40.5419 999.886C41.0847 999.514 41.3696 999.024 41.3351 998.523C41.3006 998.022 40.9493 997.55 40.3574 997.208V997.208C40.6249 997.392 40.9487 997.541 41.3098 997.648C41.671 997.754 42.0625 997.815 42.4619 997.827C42.8612 997.839 43.2604 997.802 43.6366 997.718C44.0128 997.634 44.3585 997.505 44.6538 997.338C44.1127 997.708 43.8286 998.194 43.8631 998.693C43.8977 999.191 44.2481 999.661 44.8384 1000V1000C44.2908 999.634 43.5325 999.417 42.7281 999.396C41.9237 999.374 41.1381 999.551 40.5419 999.886Z" fill="url(#paint3_linear)"/>
<path d="M253.426 914.473C253.213 914.605 252.94 914.696 252.644 914.732C252.347 914.769 252.04 914.75 251.76 914.678C251.481 914.607 251.242 914.485 251.074 914.329C250.906 914.174 250.816 913.991 250.816 913.803C250.816 913.616 250.906 913.433 251.074 913.277C251.242 913.121 251.481 913 251.76 912.928C252.04 912.856 252.347 912.838 252.644 912.874C252.94 912.911 253.213 913.001 253.426 913.134C253.707 913.313 253.863 913.553 253.863 913.803C253.863 914.053 253.707 914.293 253.426 914.473V914.473Z" fill="white"/>
<g style="mix-blend-mode:overlay">
<path d="M162.703 914.085C162.703 914.085 138.374 914.085 131.758 914.085C126.012 914.166 125.564 915.146 131.758 915.065C140.219 914.999 162.703 914.085 162.703 914.085Z" fill="white"/>
</g>
<g style="mix-blend-mode:overlay">
<path d="M171.371 890.406C171.371 890.406 153.421 890.406 148.545 890.406C144.301 890.406 143.985 891.19 148.545 891.125C154.792 891.076 171.371 890.406 171.371 890.406Z" fill="white"/>
</g>
<g style="mix-blend-mode:overlay">
<path d="M188.87 857.371C188.87 857.371 170.92 857.371 166.07 857.371C161.827 857.371 161.484 858.155 166.07 858.089C172.291 858.04 188.87 857.371 188.87 857.371Z" fill="white"/>
</g>
<g style="mix-blend-mode:overlay">
<path d="M272.534 891.157C272.534 891.157 235.632 891.157 225.537 891.157C216.786 891.288 216.127 892.79 225.537 892.627C238.374 892.529 272.534 891.157 272.534 891.157Z" fill="white"/>
</g>
<g style="mix-blend-mode:overlay">
<path d="M271.707 964.029C271.707 964.029 309.794 964.029 320.101 963.931C329.115 963.801 329.8 962.298 319.969 962.413C306.895 962.625 271.707 964.029 271.707 964.029Z" fill="white"/>
</g>
<path d="M723.541 785.679C723.116 785.94 722.576 786.118 721.989 786.19C721.401 786.262 720.792 786.224 720.239 786.082C719.686 785.94 719.213 785.699 718.881 785.39C718.549 785.081 718.371 784.719 718.371 784.348C718.371 783.977 718.549 783.614 718.881 783.305C719.213 782.997 719.686 782.756 720.239 782.613C720.792 782.471 721.401 782.433 721.989 782.505C722.576 782.577 723.116 782.755 723.541 783.017C723.824 783.191 724.048 783.399 724.201 783.627C724.355 783.855 724.434 784.1 724.434 784.348C724.434 784.595 724.355 784.84 724.201 785.068C724.048 785.297 723.824 785.504 723.541 785.679V785.679Z" fill="white"/>
<path d="M586.146 687.444C585.722 687.706 585.182 687.884 584.594 687.956C584.007 688.028 583.398 687.99 582.845 687.848C582.292 687.705 581.819 687.464 581.486 687.156C581.154 686.847 580.977 686.484 580.977 686.113C580.977 685.742 581.154 685.379 581.486 685.071C581.819 684.762 582.292 684.522 582.845 684.379C583.398 684.237 584.007 684.199 584.594 684.271C585.182 684.343 585.722 684.521 586.146 684.782C586.429 684.957 586.654 685.164 586.807 685.393C586.96 685.621 587.039 685.866 587.039 686.113C587.039 686.361 586.96 686.606 586.807 686.834C586.654 687.062 586.429 687.27 586.146 687.444Z" fill="white"/>
<path d="M433.602 591.657C434.144 591.287 434.428 590.801 434.393 590.302C434.359 589.804 434.008 589.334 433.418 588.995V588.995C433.966 589.36 434.724 589.578 435.528 589.599C436.333 589.62 437.118 589.444 437.714 589.109V589.109C437.173 589.478 436.889 589.965 436.924 590.463C436.958 590.962 437.309 591.432 437.899 591.771V591.771C437.351 591.405 436.593 591.188 435.789 591.167C434.984 591.145 434.199 591.321 433.602 591.657V591.657Z" fill="white"/>
<path d="M430.513 705.87C431.055 705.497 431.34 705.008 431.306 704.507C431.271 704.006 430.92 703.533 430.328 703.191V703.191C430.872 703.559 431.629 703.78 432.433 703.804C433.237 703.828 434.025 703.655 434.625 703.322V703.322C434.083 703.691 433.799 704.178 433.834 704.676C433.868 705.175 434.219 705.645 434.809 705.984V705.984C434.54 705.801 434.215 705.653 433.853 705.548C433.49 705.443 433.099 705.384 432.699 705.373C432.3 705.362 431.901 705.401 431.526 705.486C431.151 705.571 430.806 705.702 430.513 705.87V705.87Z" fill="white"/>
<path d="M530.81 545.654C531.351 545.285 531.635 544.798 531.6 544.3C531.566 543.802 531.215 543.332 530.625 542.993V542.993C531.173 543.358 531.931 543.575 532.735 543.597C533.54 543.618 534.325 543.442 534.921 543.107V543.107C534.38 543.476 534.096 543.963 534.131 544.461C534.165 544.96 534.516 545.43 535.106 545.769C534.558 545.403 533.8 545.186 532.996 545.165C532.191 545.143 531.406 545.319 530.81 545.654V545.654Z" fill="white"/>
<path d="M553.692 559.274C554.233 558.905 554.518 558.418 554.483 557.92C554.448 557.421 554.098 556.952 553.508 556.612C554.055 556.978 554.814 557.195 555.618 557.216C556.422 557.238 557.208 557.062 557.804 556.727C557.263 557.096 556.979 557.583 557.014 558.081C557.048 558.579 557.398 559.049 557.989 559.388C557.441 559.023 556.683 558.806 555.878 558.784C555.074 558.763 554.288 558.939 553.692 559.274V559.274Z" fill="white"/>
<path d="M256.393 626.342C256.936 625.97 257.221 625.48 257.186 624.979C257.152 624.478 256.801 624.006 256.209 623.663V623.663C256.477 623.852 256.803 624.005 257.168 624.114C257.533 624.224 257.929 624.287 258.334 624.301C258.739 624.314 259.144 624.278 259.525 624.194C259.907 624.11 260.258 623.979 260.558 623.81V623.81C260.017 624.18 259.733 624.666 259.767 625.165C259.802 625.663 260.152 626.133 260.743 626.472C260.472 626.285 260.145 626.133 259.779 626.025C259.413 625.917 259.017 625.855 258.612 625.843C258.207 625.831 257.803 625.869 257.422 625.954C257.041 626.04 256.692 626.172 256.393 626.342V626.342Z" fill="white"/>
<path d="M396.83 573.971C396.406 574.233 395.865 574.411 395.278 574.482C394.69 574.554 394.081 574.517 393.528 574.374C392.975 574.232 392.503 573.991 392.17 573.682C391.838 573.374 391.66 573.011 391.66 572.64C391.66 572.269 391.838 571.906 392.17 571.597C392.503 571.289 392.975 571.048 393.528 570.906C394.081 570.763 394.69 570.726 395.278 570.797C395.865 570.869 396.406 571.047 396.83 571.309C397.113 571.484 397.337 571.691 397.491 571.919C397.644 572.148 397.723 572.393 397.723 572.64C397.723 572.887 397.644 573.132 397.491 573.361C397.337 573.589 397.113 573.796 396.83 573.971Z" fill="white"/>
<g style="mix-blend-mode:overlay">
<path d="M498.827 615.724C499.098 615.542 499.309 615.329 499.446 615.097C499.584 614.864 499.646 614.617 499.629 614.37C499.611 614.122 499.516 613.879 499.346 613.655C499.177 613.431 498.938 613.229 498.643 613.062V613.062C499.19 613.428 499.948 613.645 500.753 613.667C501.557 613.688 502.343 613.512 502.939 613.177V613.177C502.401 613.548 502.122 614.036 502.161 614.535C502.201 615.033 502.556 615.502 503.15 615.839C502.598 615.472 501.835 615.254 501.026 615.233C500.218 615.212 499.428 615.388 498.827 615.724Z" fill="white"/>
</g>
<g style="mix-blend-mode:overlay">
<path d="M616.597 586.444C617.138 586.075 617.422 585.588 617.387 585.09C617.353 584.592 617.002 584.122 616.412 583.782C616.967 584.144 617.729 584.355 618.533 584.37C619.338 584.385 620.119 584.204 620.709 583.864C620.167 584.233 619.883 584.72 619.918 585.219C619.952 585.717 620.303 586.187 620.893 586.526C620.338 586.165 619.576 585.954 618.772 585.938C617.968 585.923 617.186 586.105 616.597 586.444V586.444Z" fill="white"/>
</g>
<g style="mix-blend-mode:overlay">
<path d="M661.028 672.275C660.461 672.629 659.738 672.87 658.95 672.969C658.162 673.067 657.344 673.019 656.6 672.829C655.857 672.639 655.221 672.317 654.774 671.903C654.327 671.489 654.088 671.002 654.088 670.504C654.088 670.005 654.327 669.519 654.774 669.105C655.221 668.691 655.857 668.368 656.6 668.178C657.344 667.989 658.162 667.94 658.95 668.038C659.738 668.137 660.461 668.378 661.028 668.732C661.776 669.205 662.196 669.841 662.196 670.504C662.196 671.166 661.776 671.802 661.028 672.275V672.275Z" fill="white"/>
</g>
<g style="mix-blend-mode:overlay">
<path d="M618.069 500.76C618.069 500.76 593.741 500.76 587.151 500.76C581.379 500.842 580.957 501.822 587.151 501.74C595.691 501.675 618.069 500.76 618.069 500.76Z" fill="white"/>
</g>
<g style="mix-blend-mode:overlay">
<path d="M647.588 515.278C647.588 515.278 623.259 515.278 616.643 515.278C610.897 515.359 610.449 516.339 616.643 516.241C625.104 516.192 647.588 515.278 647.588 515.278Z" fill="white"/>
</g>
<g style="mix-blend-mode:overlay">
<path d="M537.406 593.515C537.406 593.515 487.325 593.515 473.672 593.646C461.837 593.809 460.941 595.834 473.856 595.638C491.068 595.393 537.406 593.515 537.406 593.515Z" fill="white"/>
</g>
<g style="mix-blend-mode:overlay">
<path d="M423.936 566.946C423.936 566.946 373.855 566.946 360.228 567.077C348.393 567.24 347.471 569.265 360.386 569.069C377.624 568.824 423.936 566.946 423.936 566.946Z" fill="white"/>
</g>
<g style="mix-blend-mode:overlay">
<path d="M626.839 477.065C626.839 477.065 608.889 477.065 604.039 477.065C599.795 477.065 599.453 477.849 604.039 477.784C610.154 477.719 626.839 477.065 626.839 477.065Z" fill="white"/>
</g>
<g style="mix-blend-mode:overlay">
<path d="M727.999 477.817C727.999 477.817 691.098 477.817 681.002 477.898C672.251 478.029 671.592 479.531 681.134 479.384C693.839 479.205 727.999 477.817 727.999 477.817Z" fill="white"/>
</g>
<path d="M581.552 573.432C582.093 573.063 582.377 572.576 582.342 572.078C582.308 571.579 581.957 571.11 581.367 570.77V570.77C581.915 571.136 582.673 571.353 583.478 571.374C584.282 571.396 585.067 571.22 585.664 570.885V570.885C585.122 571.254 584.838 571.741 584.873 572.239C584.907 572.737 585.258 573.207 585.848 573.546C585.301 573.181 584.542 572.964 583.738 572.942C582.933 572.921 582.148 573.097 581.552 573.432V573.432Z" fill="white"/>
<path d="M404.343 608.117C404.884 607.748 405.168 607.261 405.133 606.763C405.099 606.265 404.748 605.795 404.158 605.456C404.706 605.821 405.464 606.038 406.268 606.06C407.073 606.081 407.858 605.905 408.455 605.57V605.57C407.913 605.939 407.629 606.426 407.664 606.924C407.698 607.423 408.049 607.892 408.639 608.232C408.091 607.866 407.333 607.649 406.529 607.628C405.724 607.606 404.939 607.782 404.343 608.117V608.117Z" fill="white"/>
<path d="M544.775 555.763C544.351 556.025 543.811 556.203 543.223 556.275C542.635 556.346 542.027 556.309 541.474 556.166C540.921 556.024 540.448 555.783 540.115 555.475C539.783 555.166 539.605 554.803 539.605 554.432C539.605 554.061 539.783 553.698 540.115 553.39C540.448 553.081 540.921 552.84 541.474 552.698C542.027 552.556 542.635 552.518 543.223 552.59C543.811 552.661 544.351 552.839 544.775 553.101C545.058 553.276 545.283 553.483 545.436 553.712C545.589 553.94 545.668 554.185 545.668 554.432C545.668 554.679 545.589 554.924 545.436 555.153C545.283 555.381 545.058 555.589 544.775 555.763V555.763Z" fill="white"/>
<path d="M499.68 472.806C499.396 472.982 499.034 473.101 498.641 473.149C498.247 473.198 497.839 473.173 497.469 473.077C497.098 472.982 496.781 472.821 496.559 472.614C496.336 472.408 496.217 472.165 496.217 471.916C496.217 471.667 496.336 471.424 496.559 471.218C496.781 471.011 497.098 470.85 497.469 470.755C497.839 470.659 498.247 470.634 498.641 470.683C499.034 470.731 499.396 470.85 499.68 471.026C499.869 471.143 500.019 471.282 500.121 471.434C500.223 471.587 500.276 471.751 500.276 471.916C500.276 472.081 500.223 472.245 500.121 472.398C500.019 472.55 499.869 472.689 499.68 472.806Z" fill="white"/>
<path d="M662.465 505.482C662.181 505.658 661.82 505.778 661.426 505.826C661.032 505.874 660.625 505.849 660.254 505.754C659.883 505.659 659.567 505.497 659.344 505.291C659.121 505.084 659.002 504.841 659.002 504.592C659.002 504.344 659.121 504.101 659.344 503.894C659.567 503.687 659.883 503.526 660.254 503.431C660.625 503.336 661.032 503.311 661.426 503.359C661.82 503.407 662.181 503.527 662.465 503.702C662.654 503.819 662.804 503.958 662.906 504.111C663.009 504.263 663.061 504.427 663.061 504.592C663.061 504.758 663.009 504.921 662.906 505.074C662.804 505.227 662.654 505.366 662.465 505.482Z" fill="white"/>
<path d="M174.774 864.346C175.317 863.974 175.602 863.485 175.567 862.984C175.533 862.483 175.182 862.01 174.59 861.668V861.668C175.134 862.036 175.89 862.256 176.695 862.281C177.499 862.305 178.287 862.132 178.886 861.799V861.799C178.345 862.168 178.061 862.655 178.096 863.153C178.13 863.652 178.48 864.122 179.071 864.461V864.461C178.523 864.095 177.765 863.878 176.96 863.857C176.156 863.835 175.371 864.011 174.774 864.346V864.346Z" fill="url(#paint4_linear)"/>
<path d="M151.921 874.961C152.464 874.589 152.749 874.099 152.714 873.598C152.679 873.097 152.328 872.625 151.736 872.283V872.283C152.004 872.467 152.328 872.616 152.689 872.723C153.05 872.829 153.441 872.89 153.841 872.902C154.24 872.914 154.639 872.877 155.016 872.793C155.392 872.709 155.737 872.58 156.033 872.413C155.492 872.783 155.207 873.269 155.242 873.768C155.277 874.266 155.627 874.736 156.217 875.075V875.075C155.67 874.709 154.911 874.492 154.107 874.471C153.303 874.45 152.517 874.626 151.921 874.961Z" fill="url(#paint5_linear)"/>
<path d="M523.555 772.551C523.539 773.027 523.297 773.49 522.858 773.882C522.419 774.273 521.802 774.575 521.087 774.75C520.371 774.925 519.588 774.965 518.836 774.865C518.084 774.765 517.396 774.529 516.86 774.188C516.323 773.846 515.961 773.414 515.82 772.945C515.679 772.477 515.764 771.993 516.066 771.555C516.367 771.116 516.871 770.743 517.515 770.481C518.158 770.22 518.911 770.082 519.681 770.085C520.198 770.085 520.711 770.149 521.188 770.274C521.665 770.398 522.097 770.581 522.458 770.811C522.819 771.041 523.103 771.313 523.291 771.612C523.479 771.911 523.569 772.23 523.555 772.551V772.551Z" fill="white"/>
<path d="M440.392 745.245C440.772 744.989 441.066 744.689 441.258 744.363C441.45 744.036 441.536 743.689 441.512 743.342C441.487 742.995 441.353 742.654 441.115 742.339C440.878 742.024 440.543 741.741 440.129 741.506C440.898 742.02 441.963 742.325 443.093 742.356C444.223 742.386 445.327 742.14 446.165 741.669V741.669C445.405 742.188 445.007 742.872 445.056 743.573C445.106 744.273 445.599 744.932 446.428 745.409V745.409C446.05 745.152 445.593 744.945 445.084 744.798C444.576 744.651 444.026 744.567 443.465 744.552C442.904 744.537 442.345 744.59 441.817 744.709C441.29 744.828 440.806 745.01 440.392 745.245V745.245Z" fill="white"/>
<path d="M213.598 849.976C213.385 850.108 213.112 850.199 212.816 850.235C212.519 850.272 212.212 850.253 211.932 850.181C211.653 850.11 211.414 849.988 211.246 849.833C211.078 849.677 210.988 849.494 210.988 849.306C210.988 849.119 211.078 848.936 211.246 848.78C211.414 848.624 211.653 848.503 211.932 848.431C212.212 848.359 212.519 848.341 212.816 848.377C213.112 848.414 213.385 848.504 213.598 848.637C213.879 848.816 214.035 849.056 214.035 849.306C214.035 849.556 213.879 849.796 213.598 849.976V849.976Z" fill="white"/>
<path d="M622.179 788.09C622.721 787.717 623.006 787.228 622.972 786.727C622.937 786.226 622.586 785.753 621.994 785.411V785.411C622.538 785.779 623.294 785.999 624.099 786.024C624.903 786.048 625.691 785.875 626.291 785.542V785.542C625.749 785.911 625.465 786.398 625.5 786.896C625.534 787.395 625.885 787.865 626.475 788.204V788.204C625.927 787.838 625.169 787.621 624.365 787.6C623.56 787.578 622.775 787.754 622.179 788.09V788.09Z" fill="url(#paint6_linear)"/>
<path d="M379.827 860.253C380.37 859.881 380.655 859.391 380.62 858.89C380.586 858.389 380.234 857.917 379.643 857.575V857.575C379.91 857.759 380.234 857.908 380.595 858.015C380.956 858.121 381.348 858.182 381.747 858.194C382.146 858.206 382.546 858.169 382.922 858.085C383.298 858.001 383.644 857.872 383.939 857.705C383.398 858.075 383.114 858.561 383.148 859.06C383.183 859.558 383.533 860.028 384.124 860.367V860.367C383.576 860.001 382.818 859.784 382.013 859.763C381.209 859.742 380.423 859.918 379.827 860.253Z" fill="url(#paint7_linear)"/>
<path d="M591.368 851.744C591.154 851.876 590.882 851.966 590.585 852.003C590.288 852.04 589.981 852.021 589.702 851.949C589.422 851.878 589.184 851.756 589.016 851.6C588.848 851.445 588.758 851.261 588.758 851.074C588.758 850.887 588.848 850.704 589.016 850.548C589.184 850.392 589.422 850.271 589.702 850.199C589.981 850.127 590.288 850.109 590.585 850.145C590.882 850.182 591.154 850.272 591.368 850.405C591.648 850.584 591.805 850.824 591.805 851.074C591.805 851.324 591.648 851.564 591.368 851.744V851.744Z" fill="white"/>
<g style="mix-blend-mode:overlay">
<path d="M232.093 820.34C232.093 820.34 207.768 820.109 201.152 820.047C195.405 820.074 194.933 821.049 201.128 821.026C209.59 821.041 232.093 820.34 232.093 820.34Z" fill="white"/>
</g>
<g style="mix-blend-mode:overlay">
<path d="M380.195 849.414C380.195 849.414 355.84 849.414 349.251 849.414C343.505 849.414 343.056 850.475 349.251 850.394C357.685 850.312 380.195 849.414 380.195 849.414Z" fill="white"/>
</g>
<g style="mix-blend-mode:overlay">
<path d="M469.919 970.518C469.919 970.518 431.831 970.518 421.499 970.6C412.511 970.73 411.825 972.233 421.631 972.135C434.731 971.906 469.919 970.518 469.919 970.518Z" fill="white"/>
</g>
<g style="mix-blend-mode:overlay">
<path d="M270.016 927.651C270.016 927.651 219.935 927.57 206.281 927.766C194.446 927.945 193.524 929.954 206.466 929.774C223.678 929.529 270.016 927.651 270.016 927.651Z" fill="white"/>
</g>
<g style="mix-blend-mode:overlay">
<path d="M156.547 901.082C156.547 901.082 106.466 901.082 92.8392 901.197C80.978 901.376 80.0819 903.385 92.9975 903.205C110.341 902.96 156.547 901.082 156.547 901.082Z" fill="white"/>
</g>
<g style="mix-blend-mode:overlay">
<path d="M359.455 811.201C359.455 811.201 341.505 811.201 336.629 811.201C332.385 811.201 332.069 811.985 336.629 811.92C342.876 811.871 359.455 811.201 359.455 811.201Z" fill="white"/>
</g>
<g style="mix-blend-mode:overlay">
<path d="M376.956 778.166C376.956 778.166 359.006 778.166 354.156 778.166C349.913 778.166 349.57 778.95 354.156 778.884C360.377 778.835 376.956 778.166 376.956 778.166Z" fill="white"/>
</g>
<g style="mix-blend-mode:overlay">
<path d="M460.624 811.952C460.624 811.952 423.722 811.952 413.627 811.952C404.876 812.083 404.217 813.585 413.627 813.422C426.464 813.324 460.624 811.952 460.624 811.952Z" fill="white"/>
</g>
<g style="mix-blend-mode:overlay">
<path d="M685.298 878.072C685.298 878.072 648.396 878.072 638.301 878.072C629.55 878.203 628.891 879.705 638.301 879.542C651.137 879.444 685.298 878.072 685.298 878.072Z" fill="white"/>
</g>
<g style="mix-blend-mode:overlay">
<path d="M459.787 884.824C459.787 884.824 497.875 884.824 508.181 884.726C517.195 884.596 517.881 883.093 508.049 883.208C494.975 883.42 459.787 884.824 459.787 884.824Z" fill="white"/>
</g>
<path d="M551.452 958.491C551.436 958.967 551.193 959.43 550.754 959.822C550.315 960.213 549.699 960.515 548.983 960.69C548.268 960.865 547.485 960.905 546.733 960.805C545.98 960.705 545.293 960.469 544.756 960.128C544.22 959.786 543.858 959.354 543.717 958.885C543.575 958.417 543.661 957.933 543.962 957.495C544.264 957.056 544.768 956.683 545.411 956.421C546.054 956.16 546.808 956.022 547.577 956.025C548.095 956.025 548.607 956.089 549.085 956.214C549.562 956.338 549.994 956.521 550.355 956.751C550.716 956.981 550.999 957.253 551.188 957.552C551.376 957.851 551.466 958.17 551.452 958.491V958.491Z" fill="white"/>
<g style="mix-blend-mode:overlay">
<path d="M270.016 927.651C270.016 927.651 219.935 927.57 206.281 927.766C194.446 927.945 193.524 929.954 206.466 929.774C223.678 929.529 270.016 927.651 270.016 927.651Z" fill="white"/>
</g>
<defs>
<linearGradient id="paint0_linear" x1="-6520.18" y1="-4323.4" x2="-6509.39" y2="-4323.4" gradientUnits="userSpaceOnUse">
<stop stop-color="white"/>
<stop offset="0.21" stop-color="#76FFFF"/>
<stop offset="1" stop-color="#FEED58"/>
</linearGradient>
<linearGradient id="paint1_linear" x1="-6573.5" y1="-3835.32" x2="-6562.7" y2="-3835.32" gradientUnits="userSpaceOnUse">
<stop stop-color="white"/>
<stop offset="0.21" stop-color="#76FFFF"/>
<stop offset="1" stop-color="#FEED58"/>
</linearGradient>
<linearGradient id="paint2_linear" x1="-6672.09" y1="-3830.14" x2="-6661.3" y2="-3830.14" gradientUnits="userSpaceOnUse">
<stop stop-color="white"/>
<stop offset="0.21" stop-color="#76FFFF"/>
<stop offset="1" stop-color="#FEED58"/>
</linearGradient>
<linearGradient id="paint3_linear" x1="-6681.59" y1="-3334.47" x2="-6670.79" y2="-3334.47" gradientUnits="userSpaceOnUse">
<stop stop-color="white"/>
<stop offset="0.21" stop-color="#76FFFF"/>
<stop offset="1" stop-color="#FEED58"/>
</linearGradient>
<linearGradient id="paint4_linear" x1="-6540.26" y1="-3499.98" x2="-6529.47" y2="-3499.98" gradientUnits="userSpaceOnUse">
<stop stop-color="white"/>
<stop offset="0.21" stop-color="#76FFFF"/>
<stop offset="1" stop-color="#FEED58"/>
</linearGradient>
<linearGradient id="paint5_linear" x1="-6570.21" y1="-3459.4" x2="-6559.41" y2="-3459.4" gradientUnits="userSpaceOnUse">
<stop stop-color="white"/>
<stop offset="0.21" stop-color="#76FFFF"/>
<stop offset="1" stop-color="#FEED58"/>
</linearGradient>
<linearGradient id="paint6_linear" x1="-6092.86" y1="-3576.23" x2="-6082.06" y2="-3576.23" gradientUnits="userSpaceOnUse">
<stop stop-color="white"/>
<stop offset="0.21" stop-color="#76FFFF"/>
<stop offset="1" stop-color="#FEED58"/>
</linearGradient>
<linearGradient id="paint7_linear" x1="-6342.31" y1="-3474.11" x2="-6331.51" y2="-3474.11" gradientUnits="userSpaceOnUse">
<stop stop-color="white"/>
<stop offset="0.21" stop-color="#76FFFF"/>
<stop offset="1" stop-color="#FEED58"/>
</linearGradient>
</defs>
</svg>
