<svg width="354" height="754" viewBox="0 0 354 754" fill="none" xmlns="http://www.w3.org/2000/svg">
<g filter="url(#filter0_f)">
<path d="M221.043 195.284C221.249 187.034 214.217 180.677 205.351 180.677C196.484 180.677 188.738 187.034 188.943 195.284C189.145 203.357 196.674 209.226 205.351 209.226C214.027 209.226 220.842 203.357 221.043 195.284Z" fill="#273CB0"/>
<path d="M221.043 195.284C221.249 187.034 214.217 180.677 205.351 180.677C196.484 180.677 188.738 187.034 188.943 195.284C189.145 203.357 196.674 209.226 205.351 209.226C214.027 209.226 220.842 203.357 221.043 195.284Z" stroke="#142792"/>
</g>
<g filter="url(#filter1_f)">
<path d="M271.214 499.645C271.362 493.633 266.278 489 259.867 489C253.455 489 247.854 493.633 248.003 499.645C248.148 505.529 253.593 509.806 259.867 509.806C266.14 509.806 271.068 505.529 271.214 499.645Z" fill="#273CB0"/>
<path d="M271.214 499.645C271.362 493.633 266.278 489 259.867 489C253.455 489 247.854 493.633 248.003 499.645C248.148 505.529 253.593 509.806 259.867 509.806C266.14 509.806 271.068 505.529 271.214 499.645Z" stroke="#142792"/>
</g>
<g filter="url(#filter2_f)">
<path d="M67.7441 244.655C67.8771 239.202 63.3335 235 57.6042 235C51.875 235 46.8697 239.202 47.0026 244.655C47.1327 249.991 51.9979 253.871 57.6042 253.871C63.2106 253.871 67.6141 249.991 67.7441 244.655Z" fill="#273CB0"/>
<path d="M67.7441 244.655C67.8771 239.202 63.3335 235 57.6042 235C51.875 235 46.8697 239.202 47.0026 244.655C47.1327 249.991 51.9979 253.871 57.6042 253.871C63.2106 253.871 67.6141 249.991 67.7441 244.655Z" stroke="#142792"/>
</g>
<g filter="url(#filter3_f)">
<path d="M210.181 193.832C210.241 191.595 208.186 189.871 205.594 189.871C203.002 189.871 200.738 191.595 200.798 193.832C200.857 196.021 203.058 197.613 205.594 197.613C208.13 197.613 210.122 196.021 210.181 193.832Z" fill="#2C5CDA"/>
<path d="M210.181 193.832C210.241 191.595 208.186 189.871 205.594 189.871C203.002 189.871 200.738 191.595 200.798 193.832C200.857 196.021 203.058 197.613 205.594 197.613C208.13 197.613 210.122 196.021 210.181 193.832Z" stroke="#183CB6"/>
</g>
<g filter="url(#filter4_f)">
<path d="M142.012 311.131C142.04 309.873 141.066 308.903 139.839 308.903C138.611 308.903 137.538 309.873 137.567 311.131C137.595 312.363 138.637 313.258 139.839 313.258C141.04 313.258 141.984 312.363 142.012 311.131Z" fill="#2C5CDA"/>
<path d="M142.012 311.131C142.04 309.873 141.066 308.903 139.839 308.903C138.611 308.903 137.538 309.873 137.567 311.131C137.595 312.363 138.637 313.258 139.839 313.258C141.04 313.258 141.984 312.363 142.012 311.131Z" stroke="#183CB6"/>
</g>
<g filter="url(#filter5_f)">
<path d="M284.104 388.606C284.31 380.356 277.278 374 268.411 374C259.545 374 251.798 380.356 252.004 388.606C252.205 396.679 259.735 402.548 268.411 402.548C277.088 402.548 283.903 396.679 284.104 388.606Z" fill="#273CB0"/>
<path d="M284.104 388.606C284.31 380.356 277.278 374 268.411 374C259.545 374 251.798 380.356 252.004 388.606C252.205 396.679 259.735 402.548 268.411 402.548C277.088 402.548 283.903 396.679 284.104 388.606Z" stroke="#142792"/>
</g>
<g filter="url(#filter6_f)">
<path d="M139.541 426.81C139.598 424.713 137.65 423.097 135.195 423.097C132.74 423.097 130.595 424.713 130.652 426.81C130.707 428.863 132.792 430.355 135.195 430.355C137.598 430.355 139.485 428.863 139.541 426.81Z" fill="#2C5CDA"/>
<path d="M139.541 426.81C139.598 424.713 137.65 423.097 135.195 423.097C132.74 423.097 130.595 424.713 130.652 426.81C130.707 428.863 132.792 430.355 135.195 430.355C137.598 430.355 139.485 428.863 139.541 426.81Z" stroke="#183CB6"/>
</g>
<g filter="url(#filter7_f)">
<path d="M176.89 581.713C176.947 579.616 175 578 172.545 578C170.089 578 167.944 579.616 168.001 581.713C168.057 583.766 170.142 585.258 172.545 585.258C174.947 585.258 176.835 583.766 176.89 581.713Z" fill="#2C5CDA"/>
<path d="M176.89 581.713C176.947 579.616 175 578 172.545 578C170.089 578 167.944 579.616 168.001 581.713C168.057 583.766 170.142 585.258 172.545 585.258C174.947 585.258 176.835 583.766 176.89 581.713Z" stroke="#183CB6"/>
</g>
<g filter="url(#filter8_f)">
<path d="M108.89 717.713C108.947 715.616 107 714 104.545 714C102.089 714 99.9441 715.616 100.001 717.713C100.057 719.766 102.142 721.258 104.545 721.258C106.947 721.258 108.835 719.766 108.89 717.713Z" fill="#2C5CDA"/>
<path d="M108.89 717.713C108.947 715.616 107 714 104.545 714C102.089 714 99.9441 715.616 100.001 717.713C100.057 719.766 102.142 721.258 104.545 721.258C106.947 721.258 108.835 719.766 108.89 717.713Z" stroke="#183CB6"/>
</g>
<g filter="url(#filter9_f)">
<path d="M292.89 605.713C292.947 603.616 291 602 288.545 602C286.089 602 283.944 603.616 284.001 605.713C284.057 607.766 286.142 609.258 288.545 609.258C290.947 609.258 292.835 607.766 292.89 605.713Z" fill="#2C5CDA"/>
<path d="M292.89 605.713C292.947 603.616 291 602 288.545 602C286.089 602 283.944 603.616 284.001 605.713C284.057 607.766 286.142 609.258 288.545 609.258C290.947 609.258 292.835 607.766 292.89 605.713Z" stroke="#183CB6"/>
</g>
<g filter="url(#filter10_f)">
<path d="M224.214 712.645C224.362 706.633 219.278 702 212.867 702C206.455 702 200.854 706.633 201.003 712.645C201.148 718.529 206.593 722.806 212.867 722.806C219.14 722.806 224.068 718.529 224.214 712.645Z" fill="#273CB0"/>
<path d="M224.214 712.645C224.362 706.633 219.278 702 212.867 702C206.455 702 200.854 706.633 201.003 712.645C201.148 718.529 206.593 722.806 212.867 722.806C219.14 722.806 224.068 718.529 224.214 712.645Z" stroke="#142792"/>
</g>
<g filter="url(#filter11_f)">
<path d="M89.104 559.606C89.3098 551.356 82.278 545 73.4113 545C64.5446 545 56.7983 551.356 57.004 559.606C57.2053 567.679 64.7348 573.548 73.4113 573.548C82.0878 573.548 88.9027 567.679 89.104 559.606Z" fill="#273CB0"/>
<path d="M89.104 559.606C89.3098 551.356 82.278 545 73.4113 545C64.5446 545 56.7983 551.356 57.004 559.606C57.2053 567.679 64.7348 573.548 73.4113 573.548C82.0878 573.548 88.9027 567.679 89.104 559.606Z" stroke="#142792"/>
</g>
<g filter="url(#filter12_f)">
<path d="M42.8903 642.939C42.9473 640.842 41.0001 639.226 38.5447 639.226C36.0893 639.226 33.9441 640.842 34.0011 642.939C34.0569 644.992 36.142 646.484 38.5447 646.484C40.9474 646.484 42.8346 644.992 42.8903 642.939Z" fill="#2C5CDA"/>
<path d="M42.8903 642.939C42.9473 640.842 41.0001 639.226 38.5447 639.226C36.0893 639.226 33.9441 640.842 34.0011 642.939C34.0569 644.992 36.142 646.484 38.5447 646.484C40.9474 646.484 42.8346 644.992 42.8903 642.939Z" stroke="#183CB6"/>
</g>
<g filter="url(#filter13_f)">
<path d="M348 263.464C348.028 262.346 347.055 261.484 345.827 261.484C344.599 261.484 343.527 262.346 343.555 263.464C343.583 264.559 344.626 265.355 345.827 265.355C347.028 265.355 347.972 264.559 348 263.464Z" fill="#2C5CDA"/>
<path d="M348 263.464C348.028 262.346 347.055 261.484 345.827 261.484C344.599 261.484 343.527 262.346 343.555 263.464C343.583 264.559 344.626 265.355 345.827 265.355C347.028 265.355 347.972 264.559 348 263.464Z" stroke="#183CB6"/>
</g>
<g filter="url(#filter14_f)">
<path d="M230.433 86.8515C230.462 85.7328 229.488 84.871 228.261 84.871C227.033 84.871 225.96 85.7328 225.989 86.8515C226.017 87.9461 227.059 88.7419 228.261 88.7419C229.462 88.7419 230.406 87.9461 230.433 86.8515Z" fill="#2C5CDA"/>
<path d="M230.433 86.8515C230.462 85.7328 229.488 84.871 228.261 84.871C227.033 84.871 225.96 85.7328 225.989 86.8515C226.017 87.9461 227.059 88.7419 228.261 88.7419C229.462 88.7419 230.406 87.9461 230.433 86.8515Z" stroke="#183CB6"/>
</g>
<g filter="url(#filter15_f)">
<path d="M24.4452 456.776C24.4737 455.518 23.5 454.548 22.2723 454.548C21.0446 454.548 19.9721 455.518 20.0006 456.776C20.0284 458.008 21.071 458.903 22.2723 458.903C23.4737 458.903 24.4173 458.008 24.4452 456.776Z" fill="#2C5CDA"/>
<path d="M24.4452 456.776C24.4737 455.518 23.5 454.548 22.2723 454.548C21.0446 454.548 19.9721 455.518 20.0006 456.776C20.0284 458.008 21.071 458.903 22.2723 458.903C23.4737 458.903 24.4173 458.008 24.4452 456.776Z" stroke="#183CB6"/>
</g>
<g filter="url(#filter16_f)">
<path d="M323.939 20.2281C323.971 18.9696 322.889 18 321.525 18C320.161 18 318.969 18.9696 319.001 20.2281C319.032 21.4595 320.19 22.3548 321.525 22.3548C322.86 22.3548 323.908 21.4595 323.939 20.2281Z" fill="#2C5CDA"/>
<path d="M323.939 20.2281C323.971 18.9696 322.889 18 321.525 18C320.161 18 318.969 18.9696 319.001 20.2281C319.032 21.4595 320.19 22.3548 321.525 22.3548C322.86 22.3548 323.908 21.4595 323.939 20.2281Z" stroke="#183CB6"/>
</g>
<g filter="url(#filter17_f)">
<path d="M260.445 269.98C260.474 268.862 259.5 268 258.272 268C257.045 268 255.972 268.862 256.001 269.98C256.028 271.075 257.071 271.871 258.272 271.871C259.474 271.871 260.417 271.075 260.445 269.98Z" fill="#2C5CDA"/>
<path d="M260.445 269.98C260.474 268.862 259.5 268 258.272 268C257.045 268 255.972 268.862 256.001 269.98C256.028 271.075 257.071 271.871 258.272 271.871C259.474 271.871 260.417 271.075 260.445 269.98Z" stroke="#183CB6"/>
</g>
<g filter="url(#filter18_f)">
<path d="M59.5174 7.9805C59.5459 6.86186 58.5723 6 57.3446 6C56.1169 6 55.0443 6.86186 55.0728 7.9805C55.1007 9.07513 56.1432 9.87097 57.3446 9.87097C58.546 9.87097 59.4896 9.07513 59.5174 7.9805Z" fill="#08236A"/>
<path d="M59.5174 7.9805C59.5459 6.86186 58.5723 6 57.3446 6C56.1169 6 55.0443 6.86186 55.0728 7.9805C55.1007 9.07513 56.1432 9.87097 57.3446 9.87097C58.546 9.87097 59.4896 9.07513 59.5174 7.9805Z" stroke="#183CB6"/>
</g>
<g filter="url(#filter19_f)">
<path d="M62.9712 83.2731C63.1769 74.8834 56.1452 68.4194 47.2785 68.4194C38.4118 68.4194 30.6655 74.8834 30.8712 83.2731C31.0725 91.4828 38.602 97.4516 47.2785 97.4516C55.955 97.4516 62.7699 91.4828 62.9712 83.2731Z" fill="#0D1480"/>
<path d="M62.9712 83.2731C63.1769 74.8834 56.1452 68.4194 47.2785 68.4194C38.4118 68.4194 30.6655 74.8834 30.8712 83.2731C31.0725 91.4828 38.602 97.4516 47.2785 97.4516C55.955 97.4516 62.7699 91.4828 62.9712 83.2731Z" stroke="#142792"/>
</g>
<g filter="url(#filter20_f)">
<path d="M61.3843 82.2086C61.4444 79.8315 59.389 78 56.7972 78C54.2053 78 51.941 79.8315 52.0012 82.2086C52.06 84.5346 54.261 86.2258 56.7972 86.2258C59.3334 86.2258 61.3254 84.5346 61.3843 82.2086Z" fill="#1722CC"/>
<path d="M61.3843 82.2086C61.4444 79.8315 59.389 78 56.7972 78C54.2053 78 51.941 79.8315 52.0012 82.2086C52.06 84.5346 54.261 86.2258 56.7972 86.2258C59.3334 86.2258 61.3254 84.5346 61.3843 82.2086Z" stroke="#183CB6"/>
</g>
<defs>
<filter id="filter0_f" x="158.439" y="150.177" width="93.1085" height="89.5484" filterUnits="userSpaceOnUse" color-interpolation-filters="sRGB">
<feFlood flood-opacity="0" result="BackgroundImageFix"/>
<feBlend mode="normal" in="SourceGraphic" in2="BackgroundImageFix" result="shape"/>
<feGaussianBlur stdDeviation="15" result="effect1_foregroundBlur"/>
</filter>
<filter id="filter1_f" x="217.5" y="458.5" width="84.2169" height="81.8065" filterUnits="userSpaceOnUse" color-interpolation-filters="sRGB">
<feFlood flood-opacity="0" result="BackgroundImageFix"/>
<feBlend mode="normal" in="SourceGraphic" in2="BackgroundImageFix" result="shape"/>
<feGaussianBlur stdDeviation="15" result="effect1_foregroundBlur"/>
</filter>
<filter id="filter2_f" x="16.5" y="204.5" width="81.747" height="79.871" filterUnits="userSpaceOnUse" color-interpolation-filters="sRGB">
<feFlood flood-opacity="0" result="BackgroundImageFix"/>
<feBlend mode="normal" in="SourceGraphic" in2="BackgroundImageFix" result="shape"/>
<feGaussianBlur stdDeviation="15" result="effect1_foregroundBlur"/>
</filter>
<filter id="filter3_f" x="195.297" y="184.371" width="20.3856" height="18.7419" filterUnits="userSpaceOnUse" color-interpolation-filters="sRGB">
<feFlood flood-opacity="0" result="BackgroundImageFix"/>
<feBlend mode="normal" in="SourceGraphic" in2="BackgroundImageFix" result="shape"/>
<feGaussianBlur stdDeviation="2.5" result="effect1_foregroundBlur"/>
</filter>
<filter id="filter4_f" x="132.066" y="303.403" width="15.4458" height="15.3548" filterUnits="userSpaceOnUse" color-interpolation-filters="sRGB">
<feFlood flood-opacity="0" result="BackgroundImageFix"/>
<feBlend mode="normal" in="SourceGraphic" in2="BackgroundImageFix" result="shape"/>
<feGaussianBlur stdDeviation="2.5" result="effect1_foregroundBlur"/>
</filter>
<filter id="filter5_f" x="221.5" y="343.5" width="93.1085" height="89.5484" filterUnits="userSpaceOnUse" color-interpolation-filters="sRGB">
<feFlood flood-opacity="0" result="BackgroundImageFix"/>
<feBlend mode="normal" in="SourceGraphic" in2="BackgroundImageFix" result="shape"/>
<feGaussianBlur stdDeviation="15" result="effect1_foregroundBlur"/>
</filter>
<filter id="filter6_f" x="125.15" y="417.597" width="19.8916" height="18.2581" filterUnits="userSpaceOnUse" color-interpolation-filters="sRGB">
<feFlood flood-opacity="0" result="BackgroundImageFix"/>
<feBlend mode="normal" in="SourceGraphic" in2="BackgroundImageFix" result="shape"/>
<feGaussianBlur stdDeviation="2.5" result="effect1_foregroundBlur"/>
</filter>
<filter id="filter7_f" x="162.5" y="572.5" width="19.8916" height="18.2581" filterUnits="userSpaceOnUse" color-interpolation-filters="sRGB">
<feFlood flood-opacity="0" result="BackgroundImageFix"/>
<feBlend mode="normal" in="SourceGraphic" in2="BackgroundImageFix" result="shape"/>
<feGaussianBlur stdDeviation="2.5" result="effect1_foregroundBlur"/>
</filter>
<filter id="filter8_f" x="94.5" y="708.5" width="19.8916" height="18.2581" filterUnits="userSpaceOnUse" color-interpolation-filters="sRGB">
<feFlood flood-opacity="0" result="BackgroundImageFix"/>
<feBlend mode="normal" in="SourceGraphic" in2="BackgroundImageFix" result="shape"/>
<feGaussianBlur stdDeviation="2.5" result="effect1_foregroundBlur"/>
</filter>
<filter id="filter9_f" x="278.5" y="596.5" width="19.8916" height="18.2581" filterUnits="userSpaceOnUse" color-interpolation-filters="sRGB">
<feFlood flood-opacity="0" result="BackgroundImageFix"/>
<feBlend mode="normal" in="SourceGraphic" in2="BackgroundImageFix" result="shape"/>
<feGaussianBlur stdDeviation="2.5" result="effect1_foregroundBlur"/>
</filter>
<filter id="filter10_f" x="170.5" y="671.5" width="84.2169" height="81.8065" filterUnits="userSpaceOnUse" color-interpolation-filters="sRGB">
<feFlood flood-opacity="0" result="BackgroundImageFix"/>
<feBlend mode="normal" in="SourceGraphic" in2="BackgroundImageFix" result="shape"/>
<feGaussianBlur stdDeviation="15" result="effect1_foregroundBlur"/>
</filter>
<filter id="filter11_f" x="26.5" y="514.5" width="93.1085" height="89.5484" filterUnits="userSpaceOnUse" color-interpolation-filters="sRGB">
<feFlood flood-opacity="0" result="BackgroundImageFix"/>
<feBlend mode="normal" in="SourceGraphic" in2="BackgroundImageFix" result="shape"/>
<feGaussianBlur stdDeviation="15" result="effect1_foregroundBlur"/>
</filter>
<filter id="filter12_f" x="28.5" y="633.726" width="19.8916" height="18.2581" filterUnits="userSpaceOnUse" color-interpolation-filters="sRGB">
<feFlood flood-opacity="0" result="BackgroundImageFix"/>
<feBlend mode="normal" in="SourceGraphic" in2="BackgroundImageFix" result="shape"/>
<feGaussianBlur stdDeviation="2.5" result="effect1_foregroundBlur"/>
</filter>
<filter id="filter13_f" x="338.055" y="255.984" width="15.4458" height="14.871" filterUnits="userSpaceOnUse" color-interpolation-filters="sRGB">
<feFlood flood-opacity="0" result="BackgroundImageFix"/>
<feBlend mode="normal" in="SourceGraphic" in2="BackgroundImageFix" result="shape"/>
<feGaussianBlur stdDeviation="2.5" result="effect1_foregroundBlur"/>
</filter>
<filter id="filter14_f" x="220.488" y="79.371" width="15.4458" height="14.871" filterUnits="userSpaceOnUse" color-interpolation-filters="sRGB">
<feFlood flood-opacity="0" result="BackgroundImageFix"/>
<feBlend mode="normal" in="SourceGraphic" in2="BackgroundImageFix" result="shape"/>
<feGaussianBlur stdDeviation="2.5" result="effect1_foregroundBlur"/>
</filter>
<filter id="filter15_f" x="14.5" y="449.048" width="15.4458" height="15.3548" filterUnits="userSpaceOnUse" color-interpolation-filters="sRGB">
<feFlood flood-opacity="0" result="BackgroundImageFix"/>
<feBlend mode="normal" in="SourceGraphic" in2="BackgroundImageFix" result="shape"/>
<feGaussianBlur stdDeviation="2.5" result="effect1_foregroundBlur"/>
</filter>
<filter id="filter16_f" x="313.5" y="12.5" width="15.9398" height="15.3548" filterUnits="userSpaceOnUse" color-interpolation-filters="sRGB">
<feFlood flood-opacity="0" result="BackgroundImageFix"/>
<feBlend mode="normal" in="SourceGraphic" in2="BackgroundImageFix" result="shape"/>
<feGaussianBlur stdDeviation="2.5" result="effect1_foregroundBlur"/>
</filter>
<filter id="filter17_f" x="250.5" y="262.5" width="15.4458" height="14.871" filterUnits="userSpaceOnUse" color-interpolation-filters="sRGB">
<feFlood flood-opacity="0" result="BackgroundImageFix"/>
<feBlend mode="normal" in="SourceGraphic" in2="BackgroundImageFix" result="shape"/>
<feGaussianBlur stdDeviation="2.5" result="effect1_foregroundBlur"/>
</filter>
<filter id="filter18_f" x="49.5723" y="0.5" width="15.4458" height="14.871" filterUnits="userSpaceOnUse" color-interpolation-filters="sRGB">
<feFlood flood-opacity="0" result="BackgroundImageFix"/>
<feBlend mode="normal" in="SourceGraphic" in2="BackgroundImageFix" result="shape"/>
<feGaussianBlur stdDeviation="2.5" result="effect1_foregroundBlur"/>
</filter>
<filter id="filter19_f" x="0.367188" y="37.9194" width="93.1085" height="90.0323" filterUnits="userSpaceOnUse" color-interpolation-filters="sRGB">
<feFlood flood-opacity="0" result="BackgroundImageFix"/>
<feBlend mode="normal" in="SourceGraphic" in2="BackgroundImageFix" result="shape"/>
<feGaussianBlur stdDeviation="15" result="effect1_foregroundBlur"/>
</filter>
<filter id="filter20_f" x="46.5" y="72.5" width="20.3856" height="19.2258" filterUnits="userSpaceOnUse" color-interpolation-filters="sRGB">
<feFlood flood-opacity="0" result="BackgroundImageFix"/>
<feBlend mode="normal" in="SourceGraphic" in2="BackgroundImageFix" result="shape"/>
<feGaussianBlur stdDeviation="2.5" result="effect1_foregroundBlur"/>
</filter>
</defs>
</svg>
