<svg width="679" height="1007" viewBox="0 0 679 1007" fill="none" xmlns="http://www.w3.org/2000/svg">
<g filter="url(#filter0_f)">
<path d="M415.991 375.186C416.408 358.136 402.173 345 384.223 345C366.273 345 350.592 358.136 351.008 375.186C351.416 391.87 366.658 404 384.223 404C401.787 404 415.584 391.87 415.991 375.186Z" fill="#273CB0"/>
<path d="M415.991 375.186C416.408 358.136 402.173 345 384.223 345C366.273 345 350.592 358.136 351.008 375.186C351.416 391.87 366.658 404 384.223 404C401.787 404 415.584 391.87 415.991 375.186Z" stroke="#142792"/>
</g>
<g filter="url(#filter1_f)">
<path d="M490.994 955C491.295 942.574 481.002 933 468.023 933C455.044 933 443.705 942.574 444.006 955C444.301 967.16 455.322 976 468.023 976C480.723 976 490.699 967.16 490.994 955Z" fill="#273CB0"/>
<path d="M490.994 955C491.295 942.574 481.002 933 468.023 933C455.044 933 443.705 942.574 444.006 955C444.301 967.16 455.322 976 468.023 976C480.723 976 490.699 967.16 490.994 955Z" stroke="#142792"/>
</g>
<g filter="url(#filter2_f)">
<path d="M72.9942 465.953C73.2634 454.683 64.0653 446 52.4671 446C40.8689 446 30.7361 454.683 31.0052 465.953C31.2686 476.982 41.1177 485 52.4671 485C63.8165 485 72.7309 476.982 72.9942 465.953Z" fill="#273CB0"/>
<path d="M72.9942 465.953C73.2634 454.683 64.0653 446 52.4671 446C40.8689 446 30.7361 454.683 31.0052 465.953C31.2686 476.982 41.1177 485 52.4671 485C63.8165 485 72.7309 476.982 72.9942 465.953Z" stroke="#142792"/>
</g>
<g filter="url(#filter3_f)">
<path d="M393.997 372.186C394.119 367.562 389.958 364 384.711 364C379.464 364 374.881 367.562 375.002 372.186C375.121 376.711 379.577 380 384.711 380C389.846 380 393.878 376.711 393.997 372.186Z" fill="#2C5CDA"/>
<path d="M393.997 372.186C394.119 367.562 389.958 364 384.711 364C379.464 364 374.881 367.562 375.002 372.186C375.121 376.711 379.577 380 384.711 380C389.846 380 393.878 376.711 393.997 372.186Z" stroke="#183CB6"/>
</g>
<g filter="url(#filter4_f)">
<path d="M255.999 614.605C256.056 612.004 254.085 610 251.6 610C249.115 610 246.943 612.004 247.001 614.605C247.058 617.15 249.168 619 251.6 619C254.032 619 255.942 617.15 255.999 614.605Z" fill="#2C5CDA"/>
<path d="M255.999 614.605C256.056 612.004 254.085 610 251.6 610C249.115 610 246.943 612.004 247.001 614.605C247.058 617.15 249.168 619 251.6 619C254.032 619 255.942 617.15 255.999 614.605Z" stroke="#183CB6"/>
</g>
<g filter="url(#filter5_f)">
<path d="M543.991 735.186C544.408 718.136 530.173 705 512.223 705C494.273 705 478.592 718.136 479.008 735.186C479.416 751.87 494.658 764 512.223 764C529.787 764 543.584 751.87 543.991 735.186Z" fill="#273CB0"/>
<path d="M543.991 735.186C544.408 718.136 530.173 705 512.223 705C494.273 705 478.592 718.136 479.008 735.186C479.416 751.87 494.658 764 512.223 764C529.787 764 543.584 751.87 543.991 735.186Z" stroke="#142792"/>
</g>
<g filter="url(#filter6_f)">
<path d="M250.998 853.674C251.113 849.34 247.171 846 242.2 846C237.23 846 232.887 849.34 233.002 853.674C233.115 857.916 237.336 861 242.2 861C247.064 861 250.885 857.916 250.998 853.674Z" fill="#2C5CDA"/>
<path d="M250.998 853.674C251.113 849.34 247.171 846 242.2 846C237.23 846 232.887 849.34 233.002 853.674C233.115 857.916 237.336 861 242.2 861C247.064 861 250.885 857.916 250.998 853.674Z" stroke="#183CB6"/>
</g>
<g filter="url(#filter7_f)">
<path d="M672.999 516.093C673.056 513.781 671.085 512 668.6 512C666.115 512 663.943 513.781 664.001 516.093C664.058 518.355 666.168 520 668.6 520C671.032 520 672.942 518.355 672.999 516.093Z" fill="#2C5CDA"/>
<path d="M672.999 516.093C673.056 513.781 671.085 512 668.6 512C666.115 512 663.943 513.781 664.001 516.093C664.058 518.355 666.168 520 668.6 520C671.032 520 672.942 518.355 672.999 516.093Z" stroke="#183CB6"/>
</g>
<g filter="url(#filter8_f)">
<path d="M434.999 151.093C435.056 148.781 433.085 147 430.6 147C428.115 147 425.943 148.781 426.001 151.093C426.058 153.355 428.168 155 430.6 155C433.032 155 434.942 153.355 434.999 151.093Z" fill="#2C5CDA"/>
<path d="M434.999 151.093C435.056 148.781 433.085 147 430.6 147C428.115 147 425.943 148.781 426.001 151.093C426.058 153.355 428.168 155 430.6 155C433.032 155 434.942 153.355 434.999 151.093Z" stroke="#183CB6"/>
</g>
<g filter="url(#filter9_f)">
<path d="M17.9988 915.605C18.0564 913.004 16.0854 911 13.6001 911C11.1148 911 8.94346 913.004 9.00112 915.605C9.05755 918.15 11.1681 920 13.6001 920C16.0321 920 17.9423 918.15 17.9988 915.605Z" fill="#2C5CDA"/>
<path d="M17.9988 915.605C18.0564 913.004 16.0854 911 13.6001 911C11.1148 911 8.94346 913.004 9.00112 915.605C9.05755 918.15 11.1681 920 13.6001 920C16.0321 920 17.9423 918.15 17.9988 915.605Z" stroke="#183CB6"/>
</g>
<g filter="url(#filter10_f)">
<path d="M663.999 58.6047C664.063 56.0038 661.873 54 659.111 54C656.35 54 653.937 56.0038 654.001 58.6047C654.064 61.1497 656.409 63 659.111 63C661.813 63 663.936 61.1497 663.999 58.6047Z" fill="#2C5CDA"/>
<path d="M663.999 58.6047C664.063 56.0038 661.873 54 659.111 54C656.35 54 653.937 56.0038 654.001 58.6047C654.064 61.1497 656.409 63 659.111 63C661.813 63 663.936 61.1497 663.999 58.6047Z" stroke="#183CB6"/>
</g>
<g filter="url(#filter11_f)">
<path d="M672.999 516.093C673.056 513.781 671.085 512 668.6 512C666.115 512 663.943 513.781 664.001 516.093C664.058 518.355 666.168 520 668.6 520C671.032 520 672.942 518.355 672.999 516.093Z" fill="#2C5CDA"/>
<path d="M672.999 516.093C673.056 513.781 671.085 512 668.6 512C666.115 512 663.943 513.781 664.001 516.093C664.058 518.355 666.168 520 668.6 520C671.032 520 672.942 518.355 672.999 516.093Z" stroke="#183CB6"/>
</g>
<g filter="url(#filter12_f)">
<path d="M95.9911 143.698C96.4076 126.359 82.1726 113 64.2229 113C46.2732 113 30.5916 126.359 31.0081 143.698C31.4157 160.664 46.6583 173 64.2229 173C81.7875 173 95.5835 160.664 95.9911 143.698Z" fill="#0D1480"/>
<path d="M95.9911 143.698C96.4076 126.359 82.1726 113 64.2229 113C46.2732 113 30.5916 126.359 31.0081 143.698C31.4157 160.664 46.6583 173 64.2229 173C81.7875 173 95.5835 160.664 95.9911 143.698Z" stroke="#142792"/>
</g>
<g filter="url(#filter13_f)">
<path d="M72.9974 140.698C73.1191 135.785 68.9581 132 63.7113 132C58.4645 132 53.8806 135.785 54.0024 140.698C54.1215 145.505 58.577 149 63.7113 149C68.8456 149 72.8783 145.505 72.9974 140.698Z" fill="#1722CC"/>
<path d="M72.9974 140.698C73.1191 135.785 68.9581 132 63.7113 132C58.4645 132 53.8806 135.785 54.0024 140.698C54.1215 145.505 58.577 149 63.7113 149C68.8456 149 72.8783 145.505 72.9974 140.698Z" stroke="#183CB6"/>
</g>
<defs>
<filter id="filter0_f" x="320.5" y="314.5" width="126" height="120" filterUnits="userSpaceOnUse" color-interpolation-filters="sRGB">
<feFlood flood-opacity="0" result="BackgroundImageFix"/>
<feBlend mode="normal" in="SourceGraphic" in2="BackgroundImageFix" result="shape"/>
<feGaussianBlur stdDeviation="15" result="effect1_foregroundBlur"/>
</filter>
<filter id="filter1_f" x="413.5" y="902.5" width="108" height="104" filterUnits="userSpaceOnUse" color-interpolation-filters="sRGB">
<feFlood flood-opacity="0" result="BackgroundImageFix"/>
<feBlend mode="normal" in="SourceGraphic" in2="BackgroundImageFix" result="shape"/>
<feGaussianBlur stdDeviation="15" result="effect1_foregroundBlur"/>
</filter>
<filter id="filter2_f" x="0.5" y="415.5" width="103" height="100" filterUnits="userSpaceOnUse" color-interpolation-filters="sRGB">
<feFlood flood-opacity="0" result="BackgroundImageFix"/>
<feBlend mode="normal" in="SourceGraphic" in2="BackgroundImageFix" result="shape"/>
<feGaussianBlur stdDeviation="15" result="effect1_foregroundBlur"/>
</filter>
<filter id="filter3_f" x="369.5" y="358.5" width="30.0001" height="27" filterUnits="userSpaceOnUse" color-interpolation-filters="sRGB">
<feFlood flood-opacity="0" result="BackgroundImageFix"/>
<feBlend mode="normal" in="SourceGraphic" in2="BackgroundImageFix" result="shape"/>
<feGaussianBlur stdDeviation="2.5" result="effect1_foregroundBlur"/>
</filter>
<filter id="filter4_f" x="241.5" y="604.5" width="20" height="20" filterUnits="userSpaceOnUse" color-interpolation-filters="sRGB">
<feFlood flood-opacity="0" result="BackgroundImageFix"/>
<feBlend mode="normal" in="SourceGraphic" in2="BackgroundImageFix" result="shape"/>
<feGaussianBlur stdDeviation="2.5" result="effect1_foregroundBlur"/>
</filter>
<filter id="filter5_f" x="448.5" y="674.5" width="126" height="120" filterUnits="userSpaceOnUse" color-interpolation-filters="sRGB">
<feFlood flood-opacity="0" result="BackgroundImageFix"/>
<feBlend mode="normal" in="SourceGraphic" in2="BackgroundImageFix" result="shape"/>
<feGaussianBlur stdDeviation="15" result="effect1_foregroundBlur"/>
</filter>
<filter id="filter6_f" x="227.5" y="840.5" width="29.0001" height="26" filterUnits="userSpaceOnUse" color-interpolation-filters="sRGB">
<feFlood flood-opacity="0" result="BackgroundImageFix"/>
<feBlend mode="normal" in="SourceGraphic" in2="BackgroundImageFix" result="shape"/>
<feGaussianBlur stdDeviation="2.5" result="effect1_foregroundBlur"/>
</filter>
<filter id="filter7_f" x="658.5" y="506.5" width="20.0001" height="19" filterUnits="userSpaceOnUse" color-interpolation-filters="sRGB">
<feFlood flood-opacity="0" result="BackgroundImageFix"/>
<feBlend mode="normal" in="SourceGraphic" in2="BackgroundImageFix" result="shape"/>
<feGaussianBlur stdDeviation="2.5" result="effect1_foregroundBlur"/>
</filter>
<filter id="filter8_f" x="420.5" y="141.5" width="20.0001" height="19" filterUnits="userSpaceOnUse" color-interpolation-filters="sRGB">
<feFlood flood-opacity="0" result="BackgroundImageFix"/>
<feBlend mode="normal" in="SourceGraphic" in2="BackgroundImageFix" result="shape"/>
<feGaussianBlur stdDeviation="2.5" result="effect1_foregroundBlur"/>
</filter>
<filter id="filter9_f" x="3.5" y="905.5" width="20" height="20" filterUnits="userSpaceOnUse" color-interpolation-filters="sRGB">
<feFlood flood-opacity="0" result="BackgroundImageFix"/>
<feBlend mode="normal" in="SourceGraphic" in2="BackgroundImageFix" result="shape"/>
<feGaussianBlur stdDeviation="2.5" result="effect1_foregroundBlur"/>
</filter>
<filter id="filter10_f" x="648.5" y="48.5" width="21" height="20" filterUnits="userSpaceOnUse" color-interpolation-filters="sRGB">
<feFlood flood-opacity="0" result="BackgroundImageFix"/>
<feBlend mode="normal" in="SourceGraphic" in2="BackgroundImageFix" result="shape"/>
<feGaussianBlur stdDeviation="2.5" result="effect1_foregroundBlur"/>
</filter>
<filter id="filter11_f" x="658.5" y="506.5" width="20.0001" height="19" filterUnits="userSpaceOnUse" color-interpolation-filters="sRGB">
<feFlood flood-opacity="0" result="BackgroundImageFix"/>
<feBlend mode="normal" in="SourceGraphic" in2="BackgroundImageFix" result="shape"/>
<feGaussianBlur stdDeviation="2.5" result="effect1_foregroundBlur"/>
</filter>
<filter id="filter12_f" x="0.5" y="82.5" width="126" height="121" filterUnits="userSpaceOnUse" color-interpolation-filters="sRGB">
<feFlood flood-opacity="0" result="BackgroundImageFix"/>
<feBlend mode="normal" in="SourceGraphic" in2="BackgroundImageFix" result="shape"/>
<feGaussianBlur stdDeviation="15" result="effect1_foregroundBlur"/>
</filter>
<filter id="filter13_f" x="48.5" y="126.5" width="30" height="28" filterUnits="userSpaceOnUse" color-interpolation-filters="sRGB">
<feFlood flood-opacity="0" result="BackgroundImageFix"/>
<feBlend mode="normal" in="SourceGraphic" in2="BackgroundImageFix" result="shape"/>
<feGaussianBlur stdDeviation="2.5" result="effect1_foregroundBlur"/>
</filter>
</defs>
</svg>
