<svg width="385" height="814" viewBox="0 0 385 814" fill="none" xmlns="http://www.w3.org/2000/svg">
<g clip-path="url(#clip0)">
<path d="M2.63238 716.92C2.86031 716.669 2.98 716.338 2.96545 715.999C2.9509 715.66 2.80331 715.341 2.55469 715.11C2.78535 715.359 3.10475 715.507 3.44358 715.521C3.78241 715.536 4.11329 715.416 4.36442 715.188C4.13649 715.439 4.01683 715.77 4.03138 716.109C4.04593 716.448 4.19352 716.767 4.44215 716.998C4.21148 716.749 3.89209 716.602 3.55326 716.587C3.21443 716.572 2.88351 716.692 2.63238 716.92Z" fill="white"/>
<g style="mix-blend-mode:overlay">
<path d="M29.1285 735.393C29.3564 735.142 29.4761 734.811 29.4616 734.472C29.447 734.133 29.2994 733.814 29.0508 733.583C29.2844 733.829 29.6055 733.972 29.9443 733.983C30.2831 733.993 30.6123 733.87 30.8605 733.639C30.6326 733.89 30.5129 734.221 30.5275 734.56C30.542 734.899 30.6897 735.218 30.9383 735.449C30.7046 735.203 30.3836 735.06 30.0448 735.049C29.706 735.039 29.3768 735.162 29.1285 735.393Z" fill="white"/>
</g>
<g style="mix-blend-mode:overlay">
<path d="M47.8451 793.75C47.6065 793.99 47.3018 794.154 46.9698 794.221C46.6378 794.288 46.2934 794.255 45.9802 794.126C45.6671 793.997 45.3993 793.778 45.2109 793.496C45.0225 793.215 44.9219 792.884 44.9219 792.545C44.9219 792.206 45.0225 791.875 45.2109 791.594C45.3993 791.312 45.6671 791.093 45.9802 790.964C46.2934 790.835 46.6378 790.802 46.9698 790.869C47.3018 790.936 47.6065 791.1 47.8451 791.34C48.1604 791.662 48.3371 792.094 48.3371 792.545C48.3371 792.995 48.1604 793.428 47.8451 793.75Z" fill="white"/>
</g>
<g style="mix-blend-mode:overlay">
<path d="M29.7504 677.137C29.7504 677.137 19.5025 677.137 16.7268 677.137C14.2953 677.192 14.1176 677.858 16.7268 677.803C20.3241 677.758 29.7504 677.137 29.7504 677.137Z" fill="white"/>
</g>
<g style="mix-blend-mode:overlay">
<path d="M42.1832 687.007C42.1832 687.007 31.9353 687.007 29.1485 687.007C26.7281 687.063 26.5393 687.729 29.1485 687.662C32.7125 687.629 42.1832 687.007 42.1832 687.007Z" fill="white"/>
</g>
<g style="mix-blend-mode:overlay">
<path d="M33.4446 661.027C33.4446 661.027 25.8835 661.027 23.8406 661.027C22.0531 661.027 21.9087 661.56 23.8406 661.515C26.4165 661.471 33.4446 661.027 33.4446 661.027Z" fill="white"/>
</g>
<g style="mix-blend-mode:overlay">
<path d="M76.0571 661.537C76.0571 661.537 60.5132 661.537 56.2608 661.593C52.5747 661.682 52.2971 662.703 56.3163 662.603C61.6679 662.481 76.0571 661.537 76.0571 661.537Z" fill="white"/>
</g>
<path d="M14.3668 726.546C14.5947 726.295 14.7144 725.964 14.6999 725.625C14.6853 725.287 14.5377 724.967 14.2891 724.736C14.5197 724.985 14.8392 725.133 15.178 725.147C15.5168 725.162 15.8477 725.042 16.0988 724.814C15.8709 725.065 15.7512 725.396 15.7658 725.735C15.7803 726.074 15.9279 726.393 16.1766 726.624C15.9459 726.375 15.6265 726.228 15.2876 726.213C14.9488 726.199 14.6179 726.318 14.3668 726.546Z" fill="white"/>
<path d="M48.4511 680.347C48.3314 680.467 48.1791 680.548 48.0133 680.581C47.8475 680.614 47.6757 680.597 47.5196 680.532C47.3635 680.467 47.23 680.358 47.1362 680.217C47.0423 680.076 46.9922 679.911 46.9922 679.742C46.9922 679.573 47.0423 679.408 47.1362 679.267C47.23 679.127 47.3635 679.017 47.5196 678.953C47.6757 678.888 47.8475 678.871 48.0133 678.904C48.1791 678.936 48.3314 679.018 48.4511 679.137C48.5306 679.217 48.5937 679.311 48.6368 679.415C48.6799 679.519 48.702 679.63 48.702 679.742C48.702 679.855 48.6799 679.966 48.6368 680.07C48.5937 680.174 48.5306 680.268 48.4511 680.347Z" fill="white"/>
<path d="M82.5361 129.256C82.5295 129.58 82.4273 129.895 82.2423 130.161C82.0573 130.427 81.7978 130.632 81.4963 130.751C81.1949 130.87 80.8651 130.897 80.5483 130.829C80.2315 130.761 79.9418 130.601 79.7158 130.369C79.4897 130.137 79.3374 129.843 79.2779 129.524C79.2184 129.206 79.2544 128.877 79.3814 128.579C79.5084 128.281 79.7207 128.027 79.9917 127.849C80.2626 127.671 80.58 127.577 80.904 127.58C81.1221 127.579 81.3381 127.623 81.539 127.708C81.74 127.793 81.9219 127.917 82.074 128.073C82.2262 128.229 82.3455 128.415 82.4249 128.618C82.5042 128.821 82.542 129.038 82.5361 129.256Z" fill="white"/>
<path d="M74.2861 271.677C74.2795 272.001 74.1773 272.315 73.9923 272.581C73.8073 272.847 73.5478 273.053 73.2463 273.172C72.9449 273.291 72.6151 273.318 72.2983 273.25C71.9815 273.182 71.6918 273.022 71.4658 272.789C71.2397 272.557 71.0874 272.263 71.0279 271.945C70.9684 271.626 71.0044 271.297 71.1314 270.999C71.2584 270.701 71.4707 270.447 71.7417 270.269C72.0126 270.092 72.33 269.998 72.654 270C72.8721 270 73.0881 270.044 73.289 270.128C73.49 270.213 73.6719 270.337 73.824 270.494C73.9762 270.65 74.0955 270.835 74.1749 271.038C74.2542 271.242 74.292 271.459 74.2861 271.677Z" fill="white"/>
<path d="M47.5055 110.691C47.6653 110.517 47.7892 110.313 47.87 110.091C47.9509 109.869 47.9873 109.633 47.977 109.397C47.9667 109.161 47.9099 108.929 47.81 108.715C47.7101 108.501 47.5689 108.308 47.3945 108.149C47.7184 108.498 48.167 108.706 48.643 108.727C49.119 108.747 49.584 108.58 49.9371 108.26C49.6171 108.613 49.4494 109.078 49.4701 109.554C49.4909 110.03 49.6986 110.478 50.0481 110.802C49.8885 110.628 49.6961 110.487 49.4819 110.387C49.2677 110.287 49.0359 110.23 48.7998 110.22C48.5637 110.209 48.3278 110.246 48.1057 110.327C47.8837 110.408 47.6797 110.531 47.5055 110.691Z" fill="white"/>
<path d="M31.6207 181.668C31.8493 181.415 31.9693 181.082 31.9547 180.742C31.9402 180.401 31.7923 180.08 31.543 179.847C31.7721 180.097 32.0907 180.247 32.4296 180.264C32.7684 180.28 33.1002 180.162 33.3527 179.936C33.1248 180.187 33.0051 180.518 33.0197 180.857C33.0342 181.196 33.1818 181.515 33.4304 181.746C33.1997 181.497 32.8803 181.349 32.5415 181.335C32.2027 181.32 31.8718 181.44 31.6207 181.668Z" fill="url(#paint0_linear)"/>
<path d="M47.9744 171.897C47.8844 171.988 47.7696 172.049 47.6447 172.074C47.5198 172.099 47.3903 172.086 47.2726 172.037C47.1549 171.988 47.0543 171.906 46.9836 171.8C46.9128 171.694 46.875 171.57 46.875 171.442C46.875 171.315 46.9128 171.19 46.9836 171.084C47.0543 170.978 47.1549 170.896 47.2726 170.847C47.3903 170.798 47.5198 170.786 47.6447 170.811C47.7696 170.835 47.8844 170.897 47.9744 170.987C48.0925 171.109 48.1584 171.272 48.1584 171.442C48.1584 171.612 48.0925 171.775 47.9744 171.897Z" fill="white"/>
<path d="M71.0994 237.099C71.0094 237.189 70.8946 237.251 70.7697 237.276C70.6448 237.3 70.5153 237.288 70.3976 237.239C70.2799 237.19 70.1793 237.108 70.1086 237.002C70.0378 236.896 70 236.771 70 236.644C70 236.517 70.0378 236.392 70.1086 236.286C70.1793 236.18 70.2799 236.098 70.3976 236.049C70.5153 236 70.6448 235.988 70.7697 236.012C70.8946 236.037 71.0094 236.099 71.0994 236.189C71.2175 236.311 71.2834 236.474 71.2834 236.644C71.2834 236.814 71.2175 236.977 71.0994 237.099Z" fill="white"/>
<g style="mix-blend-mode:overlay">
<path d="M22.148 181.515C22.148 181.515 11.889 181.515 9.11332 181.515C6.6929 181.515 6.50416 182.237 9.11332 182.181C12.6662 182.126 22.148 181.515 22.148 181.515Z" fill="white"/>
</g>
<g style="mix-blend-mode:overlay">
<path d="M11.9231 297.473C11.9231 297.473 1.67518 297.473 -1.11162 297.473C-3.53204 297.529 -3.70968 298.195 -1.11162 298.139C2.45238 298.084 11.9231 297.473 11.9231 297.473Z" fill="white"/>
</g>
<g style="mix-blend-mode:overlay">
<path d="M59.9428 263.854C59.9428 263.854 43.8993 263.854 39.547 263.909C35.7609 263.998 35.4722 265.02 39.6025 264.953C45.1206 264.798 59.9428 263.854 59.9428 263.854Z" fill="white"/>
</g>
<g style="mix-blend-mode:overlay">
<path d="M20.7844 133.074C20.7844 133.074 13.2234 133.074 11.1805 133.074C9.39292 133.074 9.24858 133.607 11.1805 133.562C13.8007 133.529 20.7844 133.074 20.7844 133.074Z" fill="white"/>
</g>
<g style="mix-blend-mode:overlay">
<path d="M55.6752 205.591C55.6752 205.591 71.7187 205.591 76.0599 205.524C79.8571 205.435 80.1458 204.414 76.0044 204.492C70.4974 204.636 55.6752 205.591 55.6752 205.591Z" fill="white"/>
</g>
<path d="M113.311 401.107C113.305 401.431 113.203 401.746 113.018 402.012C112.833 402.278 112.573 402.484 112.272 402.603C111.97 402.721 111.64 402.749 111.324 402.681C111.007 402.613 110.717 402.452 110.491 402.22C110.265 401.988 110.113 401.694 110.053 401.376C109.994 401.057 110.03 400.728 110.157 400.43C110.284 400.132 110.496 399.878 110.767 399.7C111.038 399.522 111.355 399.429 111.679 399.431C111.898 399.431 112.113 399.474 112.314 399.559C112.515 399.644 112.697 399.768 112.849 399.924C113.002 400.081 113.121 400.266 113.2 400.469C113.28 400.672 113.317 400.889 113.311 401.107Z" fill="white"/>
<path d="M78.2809 382.543C78.4407 382.368 78.5645 382.164 78.6454 381.942C78.7263 381.72 78.7627 381.484 78.7524 381.248C78.7421 381.012 78.6853 380.78 78.5854 380.566C78.4855 380.352 78.3443 380.16 78.1699 380C78.4938 380.349 78.9424 380.557 79.4184 380.578C79.8944 380.599 80.3594 380.431 80.7124 380.111C80.3925 380.464 80.2247 380.929 80.2455 381.405C80.2663 381.881 80.474 382.33 80.8234 382.654C80.6639 382.479 80.4715 382.338 80.2573 382.238C80.0431 382.138 79.8113 382.081 79.5752 382.071C79.3391 382.061 79.1032 382.097 78.8811 382.178C78.659 382.259 78.4551 382.383 78.2809 382.543Z" fill="white"/>
<path d="M57.0777 523.821C57.3063 523.568 57.4263 523.235 57.4117 522.895C57.3972 522.554 57.2493 522.233 57 522C57.2291 522.25 57.5477 522.4 57.8866 522.416C58.2254 522.433 58.5572 522.315 58.8098 522.089C58.5818 522.34 58.4621 522.671 58.4767 523.01C58.4912 523.348 58.6388 523.668 58.8874 523.899C58.6568 523.65 58.3374 523.502 57.9985 523.488C57.6597 523.473 57.3289 523.593 57.0777 523.821Z" fill="url(#paint1_linear)"/>
<path d="M9.07773 564.821C9.30633 564.568 9.42629 564.235 9.41175 563.895C9.39721 563.554 9.24933 563.233 9 563C9.22915 563.25 9.54773 563.4 9.88659 563.416C10.2254 563.433 10.5572 563.315 10.8098 563.089C10.5818 563.34 10.4621 563.671 10.4767 564.01C10.4912 564.348 10.6388 564.668 10.8874 564.899C10.6568 564.65 10.3374 564.502 9.99854 564.488C9.65971 564.473 9.32885 564.593 9.07773 564.821Z" fill="url(#paint2_linear)"/>
<path d="M78.7498 443.749C78.6598 443.839 78.545 443.9 78.4201 443.925C78.2952 443.95 78.1657 443.937 78.048 443.888C77.9303 443.84 77.8297 443.757 77.759 443.651C77.6882 443.545 77.6504 443.421 77.6504 443.294C77.6504 443.166 77.6882 443.042 77.759 442.936C77.8297 442.83 77.9303 442.747 78.048 442.699C78.1657 442.65 78.2952 442.637 78.4201 442.662C78.545 442.687 78.6598 442.748 78.7498 442.838C78.8679 442.96 78.9338 443.124 78.9338 443.294C78.9338 443.463 78.8679 443.627 78.7498 443.749Z" fill="white"/>
<g style="mix-blend-mode:overlay">
<path d="M40.5347 443.485C40.5347 443.485 30.2868 443.485 27.5 443.485C25.0796 443.54 24.8909 444.207 27.5 444.151C31.064 444.107 40.5347 443.485 40.5347 443.485Z" fill="white"/>
</g>
<g style="mix-blend-mode:overlay">
<path d="M42.6985 569.324C42.6985 569.324 32.4506 569.324 29.6638 569.324C27.2434 569.38 27.0657 570.046 29.6638 569.991C33.2278 569.935 42.6985 569.324 42.6985 569.324Z" fill="white"/>
</g>
<g style="mix-blend-mode:overlay">
<path d="M90.7182 535.705C90.7182 535.705 74.6747 535.705 70.3224 535.761C66.5363 535.849 66.2476 536.871 70.3779 536.804C75.896 536.649 90.7182 535.705 90.7182 535.705Z" fill="white"/>
</g>
<g style="mix-blend-mode:overlay">
<path d="M44.1858 427.386C44.1858 427.386 36.6248 427.386 34.5708 427.386C32.7832 427.386 32.65 427.919 34.5708 427.875C37.2021 427.841 44.1858 427.386 44.1858 427.386Z" fill="white"/>
</g>
<g style="mix-blend-mode:overlay">
<path d="M51.5579 404.925C51.5579 404.925 43.9968 404.925 41.9539 404.925C40.1664 404.925 40.022 405.458 41.9539 405.414C44.5742 405.38 51.5579 404.925 51.5579 404.925Z" fill="white"/>
</g>
<g style="mix-blend-mode:overlay">
<path d="M86.7988 427.897C86.7988 427.897 71.2548 427.897 67.0024 427.897C63.3163 427.985 63.0387 429.007 67.0024 428.896C72.4095 428.829 86.7988 427.897 86.7988 427.897Z" fill="white"/>
</g>
<g style="mix-blend-mode:overlay">
<path d="M86.4506 477.442C86.4506 477.442 102.494 477.442 106.835 477.376C110.632 477.287 110.921 476.265 106.78 476.343C101.273 476.487 86.4506 477.442 86.4506 477.442Z" fill="white"/>
</g>
<path d="M249.178 590.852C248.999 591.03 248.771 591.151 248.524 591.2C248.276 591.249 248.02 591.223 247.787 591.126C247.554 591.03 247.355 590.866 247.215 590.656C247.075 590.446 247 590.2 247 589.947C247 589.695 247.075 589.448 247.215 589.239C247.355 589.029 247.554 588.865 247.787 588.768C248.02 588.671 248.276 588.646 248.524 588.695C248.771 588.743 248.999 588.864 249.178 589.042C249.297 589.161 249.391 589.302 249.456 589.457C249.52 589.613 249.554 589.779 249.554 589.947C249.554 590.115 249.52 590.282 249.456 590.437C249.391 590.593 249.297 590.734 249.178 590.852Z" fill="white"/>
<path d="M276.775 356.182C276.597 356.36 276.369 356.481 276.121 356.53C275.874 356.578 275.618 356.553 275.385 356.456C275.152 356.359 274.952 356.195 274.812 355.986C274.672 355.776 274.598 355.529 274.598 355.277C274.598 355.025 274.672 354.778 274.812 354.568C274.952 354.358 275.152 354.195 275.385 354.098C275.618 354.001 275.874 353.975 276.121 354.024C276.369 354.073 276.597 354.194 276.775 354.372C276.894 354.491 276.989 354.632 277.054 354.787C277.118 354.942 277.151 355.109 277.151 355.277C277.151 355.445 277.118 355.611 277.054 355.767C276.989 355.922 276.894 356.063 276.775 356.182Z" fill="white"/>
<path d="M230.125 148.388C230.353 148.137 230.472 147.806 230.458 147.467C230.443 147.129 230.295 146.809 230.047 146.578V146.578C230.278 146.827 230.597 146.975 230.936 146.989C231.275 147.004 231.606 146.884 231.857 146.656V146.656C231.629 146.907 231.509 147.238 231.524 147.577C231.538 147.916 231.686 148.235 231.934 148.466V148.466C231.704 148.217 231.384 148.07 231.045 148.055C230.707 148.041 230.376 148.16 230.125 148.388V148.388Z" fill="white"/>
<path d="M228.824 226.041C229.052 225.788 229.172 225.456 229.158 225.115C229.143 224.774 228.995 224.453 228.746 224.221V224.221C228.975 224.471 229.294 224.62 229.633 224.637C229.972 224.654 230.303 224.536 230.556 224.309V224.309C230.328 224.561 230.208 224.891 230.223 225.23C230.237 225.569 230.385 225.889 230.634 226.119V226.119C230.52 225.995 230.383 225.894 230.231 225.823C230.078 225.751 229.913 225.711 229.745 225.704C229.577 225.697 229.409 225.723 229.251 225.781C229.093 225.839 228.948 225.927 228.824 226.041V226.041Z" fill="white"/>
<path d="M271.072 117.112C271.3 116.861 271.419 116.53 271.405 116.191C271.39 115.852 271.243 115.533 270.994 115.302V115.302C271.225 115.551 271.544 115.698 271.883 115.713C272.222 115.727 272.553 115.608 272.804 115.38V115.38C272.576 115.631 272.456 115.962 272.471 116.3C272.485 116.639 272.633 116.959 272.882 117.189C272.651 116.941 272.332 116.793 271.993 116.779C271.654 116.764 271.323 116.884 271.072 117.112V117.112Z" fill="white"/>
<path d="M280.711 126.371C280.938 126.12 281.058 125.789 281.044 125.451C281.029 125.112 280.881 124.792 280.633 124.562C280.863 124.81 281.183 124.958 281.522 124.972C281.861 124.987 282.191 124.867 282.443 124.639C282.215 124.89 282.095 125.221 282.11 125.56C282.124 125.899 282.272 126.218 282.52 126.449C282.29 126.2 281.97 126.053 281.631 126.038C281.293 126.024 280.962 126.143 280.711 126.371V126.371Z" fill="white"/>
<path d="M155.48 171.971C155.709 171.718 155.829 171.385 155.814 171.044C155.8 170.704 155.652 170.382 155.402 170.15V170.15C155.515 170.278 155.653 170.382 155.806 170.456C155.96 170.531 156.127 170.574 156.297 170.583C156.468 170.592 156.638 170.568 156.799 170.51C156.96 170.453 157.108 170.365 157.234 170.25V170.25C157.006 170.501 156.887 170.832 156.901 171.171C156.916 171.509 157.063 171.829 157.312 172.059C157.198 171.932 157.06 171.829 156.906 171.756C156.752 171.682 156.585 171.64 156.415 171.632C156.244 171.624 156.074 171.649 155.913 171.707C155.753 171.766 155.606 171.855 155.48 171.971V171.971Z" fill="white"/>
<path d="M214.637 136.364C214.458 136.542 214.23 136.663 213.983 136.712C213.735 136.761 213.479 136.735 213.246 136.638C213.013 136.541 212.814 136.378 212.674 136.168C212.534 135.958 212.459 135.711 212.459 135.459C212.459 135.207 212.534 134.96 212.674 134.75C212.814 134.54 213.013 134.377 213.246 134.28C213.479 134.183 213.735 134.158 213.983 134.206C214.23 134.255 214.458 134.376 214.637 134.554C214.756 134.673 214.85 134.814 214.915 134.969C214.979 135.124 215.013 135.291 215.013 135.459C215.013 135.627 214.979 135.794 214.915 135.949C214.85 136.104 214.756 136.245 214.637 136.364Z" fill="white"/>
<path d="M122.461 220.376C122.221 220.615 121.917 220.777 121.585 220.843C121.254 220.908 120.91 220.874 120.598 220.745C120.285 220.615 120.019 220.396 119.831 220.115C119.643 219.834 119.543 219.504 119.543 219.166C119.543 218.827 119.643 218.497 119.831 218.216C120.019 217.935 120.285 217.716 120.598 217.586C120.91 217.457 121.254 217.423 121.585 217.488C121.917 217.554 122.221 217.717 122.461 217.955C122.621 218.113 122.749 218.302 122.836 218.51C122.923 218.717 122.967 218.94 122.967 219.166C122.967 219.391 122.923 219.614 122.836 219.821C122.749 220.029 122.621 220.218 122.461 220.376Z" fill="white"/>
<g style="mix-blend-mode:overlay">
<path d="M257.599 164.752C257.713 164.628 257.802 164.483 257.86 164.325C257.918 164.167 257.944 163.999 257.937 163.831C257.93 163.663 257.889 163.497 257.818 163.345C257.747 163.192 257.646 163.055 257.521 162.942V162.942C257.752 163.191 258.072 163.338 258.41 163.353C258.749 163.367 259.08 163.248 259.331 163.02V163.02C259.105 163.272 258.987 163.604 259.004 163.943C259.02 164.282 259.17 164.6 259.42 164.829C259.187 164.58 258.866 164.432 258.526 164.418C258.185 164.403 257.852 164.523 257.599 164.752Z" fill="white"/>
</g>
<g style="mix-blend-mode:overlay">
<path d="M307.207 144.845C307.435 144.593 307.554 144.263 307.54 143.924C307.525 143.585 307.378 143.265 307.129 143.035C307.363 143.28 307.684 143.424 308.022 143.434C308.361 143.445 308.69 143.321 308.939 143.09C308.711 143.341 308.591 143.672 308.606 144.011C308.62 144.35 308.768 144.669 309.016 144.9C308.783 144.655 308.462 144.511 308.123 144.501C307.784 144.49 307.455 144.614 307.207 144.845V144.845Z" fill="white"/>
</g>
<g style="mix-blend-mode:overlay">
<path d="M325.923 203.201C325.685 203.441 325.38 203.605 325.048 203.672C324.716 203.739 324.372 203.706 324.058 203.577C323.745 203.448 323.477 203.229 323.289 202.947C323.101 202.666 323 202.335 323 201.996C323 201.657 323.101 201.326 323.289 201.045C323.477 200.763 323.745 200.544 324.058 200.415C324.372 200.286 324.716 200.253 325.048 200.32C325.38 200.387 325.685 200.551 325.923 200.791C326.239 201.113 326.415 201.546 326.415 201.996C326.415 202.447 326.239 202.879 325.923 203.201V203.201Z" fill="white"/>
</g>
<g style="mix-blend-mode:overlay">
<path d="M307.829 86.588C307.829 86.588 297.581 86.588 294.805 86.588C292.373 86.6435 292.196 87.3097 294.805 87.2542C298.402 87.2098 307.829 86.588 307.829 86.588Z" fill="white"/>
</g>
<g style="mix-blend-mode:overlay">
<path d="M320.261 96.4585C320.261 96.4585 310.013 96.4585 307.227 96.4585C304.806 96.514 304.617 97.1802 307.227 97.1136C310.791 97.0802 320.261 96.4585 320.261 96.4585Z" fill="white"/>
</g>
<g style="mix-blend-mode:overlay">
<path d="M273.851 149.652C273.851 149.652 252.756 149.652 247.004 149.741C242.019 149.852 241.642 151.229 247.082 151.095C254.332 150.929 273.851 149.652 273.851 149.652Z" fill="white"/>
</g>
<g style="mix-blend-mode:overlay">
<path d="M226.055 131.588C226.055 131.588 204.959 131.588 199.219 131.677C194.234 131.788 193.845 133.164 199.286 133.031C206.547 132.865 226.055 131.588 226.055 131.588Z" fill="white"/>
</g>
<g style="mix-blend-mode:overlay">
<path d="M311.523 70.4779C311.523 70.4779 303.962 70.4779 301.919 70.4779C300.131 70.4779 299.987 71.0108 301.919 70.9664C304.495 70.922 311.523 70.4779 311.523 70.4779Z" fill="white"/>
</g>
<g style="mix-blend-mode:overlay">
<path d="M354.135 70.9886C354.135 70.9886 338.591 70.9887 334.339 71.0442C330.653 71.133 330.375 72.1545 334.394 72.0545C339.746 71.9324 354.135 70.9886 354.135 70.9886Z" fill="white"/>
</g>
<path d="M292.445 135.997C292.673 135.746 292.793 135.415 292.778 135.077C292.763 134.738 292.616 134.418 292.367 134.188V134.188C292.598 134.436 292.917 134.584 293.256 134.598C293.595 134.613 293.926 134.493 294.177 134.265V134.265C293.949 134.516 293.829 134.847 293.844 135.186C293.858 135.525 294.006 135.844 294.255 136.075C294.024 135.826 293.705 135.679 293.366 135.664C293.027 135.65 292.696 135.769 292.445 135.997V135.997Z" fill="white"/>
<path d="M217.8 159.58C218.028 159.329 218.148 158.998 218.133 158.659C218.119 158.32 217.971 158.001 217.723 157.77C217.953 158.019 218.273 158.166 218.612 158.181C218.95 158.195 219.281 158.076 219.532 157.848V157.848C219.304 158.099 219.185 158.43 219.199 158.769C219.214 159.108 219.361 159.427 219.61 159.658C219.379 159.409 219.06 159.261 218.721 159.247C218.382 159.232 218.051 159.352 217.8 159.58V159.58Z" fill="white"/>
<path d="M276.955 123.984C276.776 124.162 276.549 124.283 276.301 124.332C276.054 124.381 275.797 124.355 275.564 124.259C275.331 124.162 275.132 123.998 274.992 123.788C274.852 123.578 274.777 123.332 274.777 123.079C274.777 122.827 274.852 122.581 274.992 122.371C275.132 122.161 275.331 121.997 275.564 121.9C275.797 121.804 276.054 121.778 276.301 121.827C276.549 121.876 276.776 121.997 276.955 122.175C277.074 122.293 277.169 122.434 277.233 122.589C277.298 122.745 277.331 122.911 277.331 123.079C277.331 123.248 277.298 123.414 277.233 123.569C277.169 123.725 277.074 123.866 276.955 123.984V123.984Z" fill="white"/>
<g style="mix-blend-mode:overlay">
<path d="M115.923 182.201C115.685 182.441 115.38 182.605 115.048 182.672C114.716 182.739 114.372 182.706 114.058 182.577C113.745 182.448 113.477 182.229 113.289 181.947C113.101 181.666 113 181.335 113 180.996C113 180.657 113.101 180.326 113.289 180.045C113.477 179.763 113.745 179.544 114.058 179.415C114.372 179.286 114.716 179.253 115.048 179.32C115.38 179.387 115.685 179.551 115.923 179.791C116.239 180.113 116.415 180.546 116.415 180.996C116.415 181.447 116.239 181.879 115.923 182.201V182.201Z" fill="white"/>
</g>
<path d="M257.959 67.5818C257.839 67.7012 257.687 67.7825 257.521 67.8153C257.355 67.8482 257.183 67.8312 257.027 67.7664C256.871 67.7017 256.738 67.5921 256.644 67.4515C256.55 67.311 256.5 67.1458 256.5 66.9767C256.5 66.8077 256.55 66.6425 256.644 66.502C256.738 66.3614 256.871 66.2518 257.027 66.1871C257.183 66.1223 257.355 66.1053 257.521 66.1381C257.687 66.171 257.839 66.2522 257.959 66.3716C258.038 66.451 258.102 66.5454 258.145 66.6492C258.188 66.753 258.21 66.8643 258.21 66.9767C258.21 67.0891 258.188 67.2005 258.145 67.3043C258.102 67.4081 258.038 67.5024 257.959 67.5818Z" fill="white"/>
<path d="M326.529 89.7986C326.41 89.918 326.257 89.9993 326.091 90.0322C325.926 90.065 325.754 90.048 325.598 89.9832C325.442 89.9185 325.308 89.8089 325.214 89.6683C325.12 89.5278 325.07 89.3626 325.07 89.1935C325.07 89.0245 325.12 88.8593 325.214 88.7187C325.308 88.5782 325.442 88.4686 325.598 88.4039C325.754 88.3391 325.926 88.3221 326.091 88.3549C326.257 88.3878 326.41 88.469 326.529 88.5884C326.609 88.6678 326.672 88.7622 326.715 88.866C326.758 88.9698 326.78 89.0811 326.78 89.1935C326.78 89.3059 326.758 89.4173 326.715 89.5211C326.672 89.6249 326.609 89.7192 326.529 89.7986Z" fill="white"/>
<g style="mix-blend-mode:overlay">
<path d="M151.801 36.0115C151.801 36.0115 130.705 35.956 124.954 36.0892C119.969 36.2113 119.58 37.577 125.032 37.4548C132.282 37.2883 151.801 36.0115 151.801 36.0115Z" fill="white"/>
</g>
<path d="M273.619 116.594C273.847 116.341 273.967 116.008 273.953 115.668C273.938 115.327 273.79 115.006 273.541 114.773V114.773C273.77 115.024 274.089 115.173 274.428 115.19C274.766 115.206 275.098 115.089 275.351 114.862V114.862C275.123 115.113 275.003 115.444 275.018 115.783C275.032 116.122 275.18 116.441 275.428 116.672V116.672C275.198 116.423 274.878 116.276 274.54 116.261C274.201 116.247 273.87 116.366 273.619 116.594V116.594Z" fill="url(#paint3_linear)"/>
<path d="M289.972 106.824C289.882 106.914 289.768 106.975 289.643 107C289.518 107.025 289.388 107.012 289.271 106.963C289.153 106.915 289.052 106.832 288.982 106.726C288.911 106.62 288.873 106.496 288.873 106.368C288.873 106.241 288.911 106.117 288.982 106.011C289.052 105.905 289.153 105.822 289.271 105.773C289.388 105.725 289.518 105.712 289.643 105.737C289.768 105.762 289.882 105.823 289.972 105.913C290.091 106.035 290.156 106.199 290.156 106.368C290.156 106.538 290.091 106.702 289.972 106.824V106.824Z" fill="white"/>
<path d="M359.992 113.811C360.22 113.558 360.34 113.225 360.326 112.885C360.311 112.544 360.163 112.223 359.914 111.99V111.99C360.027 112.115 360.163 112.217 360.315 112.289C360.467 112.361 360.632 112.403 360.801 112.411C360.969 112.419 361.137 112.394 361.295 112.337C361.454 112.28 361.599 112.192 361.724 112.079C361.496 112.33 361.376 112.661 361.391 113C361.405 113.338 361.553 113.658 361.802 113.889V113.889C361.571 113.64 361.251 113.492 360.913 113.478C360.574 113.463 360.243 113.583 359.992 113.811Z" fill="url(#paint4_linear)"/>
<g style="mix-blend-mode:overlay">
<path d="M297.761 86.6743C297.761 86.6743 287.515 86.5174 284.728 86.4747C282.307 86.4931 282.108 87.1563 284.718 87.1408C288.282 87.1509 297.761 86.6743 297.761 86.6743Z" fill="white"/>
</g>
<g style="mix-blend-mode:overlay">
<path d="M360.146 106.442C360.146 106.442 349.887 106.442 347.111 106.442C344.691 106.442 344.502 107.163 347.111 107.108C350.664 107.052 360.146 106.442 360.146 106.442Z" fill="white"/>
</g>
<g style="mix-blend-mode:overlay">
<path d="M349.921 222.399C349.921 222.399 339.673 222.399 336.886 222.399C334.466 222.455 334.288 223.121 336.886 223.066C340.45 223.01 349.921 222.399 349.921 222.399Z" fill="white"/>
</g>
<g style="mix-blend-mode:overlay">
<path d="M313.736 159.635C313.736 159.635 292.641 159.58 286.889 159.713C281.904 159.835 281.516 161.201 286.967 161.078C294.217 160.912 313.736 159.635 313.736 159.635Z" fill="white"/>
</g>
<g style="mix-blend-mode:overlay">
<path d="M351.41 80.4609C351.41 80.4609 343.849 80.4609 341.795 80.4609C340.008 80.4609 339.875 80.9939 341.795 80.9495C344.427 80.9162 351.41 80.4609 351.41 80.4609Z" fill="white"/>
</g>
<g style="mix-blend-mode:overlay">
<path d="M358.782 58C358.782 58 351.221 58 349.179 58C347.391 58 347.247 58.5329 349.179 58.4885C351.799 58.4552 358.782 58 358.782 58Z" fill="white"/>
</g>
<path d="M368.284 548.603C368.278 548.927 368.175 549.242 367.99 549.508C367.805 549.774 367.546 549.979 367.244 550.098C366.943 550.217 366.613 550.244 366.296 550.176C365.98 550.108 365.69 549.948 365.464 549.716C365.238 549.484 365.085 549.19 365.026 548.871C364.966 548.553 365.002 548.224 365.129 547.926C365.256 547.627 365.469 547.373 365.74 547.196C366.011 547.018 366.328 546.924 366.652 546.926C366.87 546.926 367.086 546.97 367.287 547.055C367.488 547.139 367.67 547.264 367.822 547.42C367.974 547.576 368.094 547.761 368.173 547.965C368.252 548.168 368.29 548.385 368.284 548.603V548.603Z" fill="white"/>
<path d="M322.113 519.143C321.875 519.38 321.573 519.541 321.243 519.606C320.914 519.67 320.573 519.636 320.263 519.507C319.953 519.378 319.689 519.161 319.502 518.881C319.316 518.602 319.217 518.274 319.217 517.939C319.217 517.603 319.316 517.275 319.502 516.996C319.689 516.717 319.953 516.499 320.263 516.37C320.573 516.241 320.914 516.207 321.243 516.272C321.573 516.337 321.875 516.497 322.113 516.734C322.272 516.892 322.398 517.08 322.484 517.286C322.57 517.493 322.614 517.715 322.614 517.939C322.614 518.163 322.57 518.384 322.484 518.591C322.398 518.798 322.272 518.986 322.113 519.143V519.143Z" fill="white"/>
<path d="M359.972 396.824C359.882 396.914 359.768 396.975 359.643 397C359.518 397.025 359.388 397.012 359.271 396.963C359.153 396.915 359.052 396.832 358.982 396.726C358.911 396.62 358.873 396.496 358.873 396.368C358.873 396.241 358.911 396.117 358.982 396.011C359.052 395.905 359.153 395.822 359.271 395.773C359.388 395.725 359.518 395.712 359.643 395.737C359.768 395.762 359.882 395.823 359.972 395.913C360.091 396.035 360.156 396.199 360.156 396.368C360.156 396.538 360.091 396.702 359.972 396.824V396.824Z" fill="white"/>
<g style="mix-blend-mode:overlay">
<path d="M277.919 290.926C277.919 290.926 267.672 290.926 264.885 290.926C262.464 290.982 262.276 291.648 264.885 291.592C268.449 291.548 277.919 290.926 277.919 290.926Z" fill="white"/>
</g>
<g style="mix-blend-mode:overlay">
<path d="M313.736 159.635C313.736 159.635 292.641 159.58 286.889 159.713C281.904 159.835 281.516 161.201 286.967 161.078C294.217 160.912 313.736 159.635 313.736 159.635Z" fill="white"/>
</g>
<g style="mix-blend-mode:overlay">
<path d="M321.004 366.926C321.004 366.926 313.443 366.926 311.389 366.926C309.602 366.926 309.468 367.459 311.389 367.415C314.02 367.381 321.004 366.926 321.004 366.926Z" fill="white"/>
</g>
<path d="M352.889 790.995C352.651 791.231 352.348 791.392 352.019 791.457C351.689 791.522 351.348 791.487 351.039 791.359C350.729 791.23 350.464 791.012 350.278 790.733C350.092 790.454 349.992 790.126 349.992 789.79C349.992 789.454 350.092 789.126 350.278 788.847C350.464 788.568 350.729 788.35 351.039 788.222C351.348 788.093 351.689 788.058 352.019 788.123C352.348 788.188 352.651 788.349 352.889 788.585C353.047 788.743 353.173 788.931 353.259 789.138C353.345 789.344 353.39 789.566 353.39 789.79C353.39 790.014 353.345 790.236 353.259 790.442C353.173 790.649 353.047 790.837 352.889 790.995V790.995Z" fill="white"/>
<g style="mix-blend-mode:overlay">
<path d="M270.921 668.293C270.921 668.293 260.662 668.293 257.887 668.293C255.466 668.293 255.278 669.015 257.887 668.959C261.44 668.904 270.921 668.293 270.921 668.293Z" fill="white"/>
</g>
<g style="mix-blend-mode:overlay">
<path d="M366.715 703.422C366.715 703.422 345.619 703.422 339.879 703.5C334.883 703.622 334.506 704.988 339.946 704.865C347.252 704.699 366.715 703.422 366.715 703.422Z" fill="white"/>
</g>
<g style="mix-blend-mode:overlay">
<path d="M336.664 612.926C336.664 612.926 321.12 612.926 316.868 612.926C313.182 613.015 312.904 614.037 316.868 613.926C322.275 613.859 336.664 612.926 336.664 612.926Z" fill="white"/>
</g>
<path d="M131.078 605.348C131.306 605.095 131.426 604.762 131.412 604.421C131.397 604.081 131.249 603.759 131 603.527V603.527C131.229 603.777 131.548 603.927 131.887 603.943C132.225 603.96 132.557 603.842 132.81 603.616V603.616C132.582 603.867 132.462 604.198 132.477 604.537C132.491 604.875 132.639 605.195 132.887 605.425V605.425C132.657 605.177 132.337 605.029 131.999 605.015C131.66 605 131.329 605.12 131.078 605.348V605.348Z" fill="url(#paint5_linear)"/>
<path d="M83.0777 646.348C83.3063 646.095 83.4263 645.762 83.4117 645.421C83.3972 645.081 83.2493 644.759 83 644.527V644.527C83.2291 644.777 83.5477 644.927 83.8866 644.943C84.2254 644.96 84.5572 644.842 84.8098 644.616V644.616C84.5818 644.867 84.4621 645.198 84.4767 645.537C84.4912 645.875 84.6388 646.195 84.8874 646.425V646.425C84.6568 646.177 84.3374 646.029 83.9985 646.015C83.6597 646 83.3289 646.12 83.0777 646.348V646.348Z" fill="url(#paint6_linear)"/>
<g style="mix-blend-mode:overlay">
<path d="M116.698 650.851C116.698 650.851 106.451 650.851 103.664 650.851C101.243 650.907 101.066 651.573 103.664 651.517C107.228 651.462 116.698 650.851 116.698 650.851Z" fill="white"/>
</g>
<g style="mix-blend-mode:overlay">
<path d="M164.718 617.232C164.718 617.232 148.675 617.232 144.322 617.287C140.536 617.376 140.248 618.398 144.378 618.331C149.896 618.176 164.718 617.232 164.718 617.232Z" fill="white"/>
</g>
<path d="M323.178 672.379C322.999 672.557 322.771 672.678 322.524 672.727C322.276 672.776 322.02 672.75 321.787 672.653C321.554 672.556 321.355 672.393 321.215 672.183C321.075 671.973 321 671.726 321 671.474C321 671.222 321.075 670.975 321.215 670.765C321.355 670.556 321.554 670.392 321.787 670.295C322.02 670.198 322.276 670.173 322.524 670.222C322.771 670.27 322.999 670.391 323.178 670.569C323.297 670.688 323.391 670.829 323.456 670.984C323.52 671.14 323.554 671.306 323.554 671.474C323.554 671.642 323.52 671.809 323.456 671.964C323.391 672.119 323.297 672.26 323.178 672.379V672.379Z" fill="white"/>
<path d="M98.1151 603.744C97.8772 603.981 97.5745 604.141 97.2452 604.206C96.916 604.271 96.575 604.237 96.2651 604.108C95.9553 603.979 95.6905 603.761 95.5043 603.482C95.3181 603.203 95.2188 602.875 95.2188 602.539C95.2188 602.204 95.3181 601.876 95.5043 601.597C95.6905 601.317 95.9553 601.1 96.2651 600.971C96.575 600.842 96.916 600.808 97.2452 600.873C97.5745 600.937 97.8772 601.098 98.1151 601.335C98.2739 601.493 98.4 601.68 98.486 601.887C98.5719 602.094 98.6162 602.315 98.6162 602.539C98.6162 602.763 98.5719 602.985 98.486 603.192C98.4 603.398 98.2739 603.586 98.1151 603.744Z" fill="white"/>
<g style="mix-blend-mode:overlay">
<path d="M195.923 597C195.923 597 185.675 597 182.888 597C180.468 597.056 180.29 597.722 182.888 597.666C186.452 597.611 195.923 597 195.923 597Z" fill="white"/>
</g>
<circle cx="213" cy="537.686" r="1" fill="white"/>
<path d="M290.115 196.903C289.877 197.14 289.574 197.301 289.245 197.366C288.916 197.43 288.575 197.396 288.265 197.267C287.955 197.138 287.691 196.921 287.504 196.641C287.318 196.362 287.219 196.034 287.219 195.699C287.219 195.363 287.318 195.035 287.504 194.756C287.691 194.477 287.955 194.259 288.265 194.13C288.575 194.001 288.916 193.967 289.245 194.032C289.574 194.097 289.877 194.257 290.115 194.494C290.274 194.652 290.4 194.84 290.486 195.046C290.572 195.253 290.616 195.475 290.616 195.699C290.616 195.923 290.572 196.144 290.486 196.351C290.4 196.558 290.274 196.746 290.115 196.903V196.903Z" fill="white"/>
<path d="M214.296 426.426C214.525 426.173 214.645 425.84 214.63 425.499C214.616 425.159 214.468 424.837 214.219 424.605V424.605C214.448 424.855 214.767 425.005 215.105 425.021C215.444 425.038 215.776 424.92 216.029 424.694V424.694C215.801 424.945 215.681 425.276 215.695 425.614C215.71 425.953 215.858 426.273 216.106 426.503V426.503C215.993 426.379 215.856 426.278 215.703 426.207C215.551 426.136 215.386 426.095 215.218 426.088C215.049 426.081 214.881 426.107 214.723 426.165C214.565 426.223 214.42 426.311 214.296 426.426V426.426Z" fill="white"/>
<path d="M262.428 324.368C262.249 324.546 262.021 324.668 261.774 324.716C261.526 324.765 261.27 324.739 261.037 324.643C260.804 324.546 260.605 324.382 260.465 324.172C260.325 323.963 260.25 323.716 260.25 323.464C260.25 323.211 260.325 322.965 260.465 322.755C260.605 322.545 260.804 322.381 261.037 322.285C261.27 322.188 261.526 322.162 261.774 322.211C262.021 322.26 262.249 322.381 262.428 322.559C262.547 322.677 262.641 322.818 262.706 322.974C262.77 323.129 262.804 323.295 262.804 323.464C262.804 323.632 262.77 323.798 262.706 323.954C262.641 324.109 262.547 324.25 262.428 324.368V324.368Z" fill="white"/>
<path d="M322.451 218.228C322.272 218.406 322.045 218.527 321.797 218.576C321.55 218.624 321.293 218.599 321.06 218.502C320.827 218.405 320.628 218.241 320.488 218.032C320.348 217.822 320.273 217.575 320.273 217.323C320.273 217.071 320.348 216.824 320.488 216.614C320.628 216.404 320.827 216.241 321.06 216.144C321.293 216.047 321.55 216.021 321.797 216.07C322.045 216.119 322.272 216.24 322.451 216.418C322.57 216.537 322.665 216.678 322.729 216.833C322.794 216.988 322.827 217.155 322.827 217.323C322.827 217.491 322.794 217.657 322.729 217.813C322.665 217.968 322.57 218.109 322.451 218.228Z" fill="white"/>
<path d="M336.226 307.786C336.454 307.535 336.574 307.204 336.559 306.865C336.545 306.527 336.397 306.207 336.148 305.977C336.379 306.225 336.699 306.373 337.037 306.387C337.376 306.402 337.707 306.282 337.958 306.054V306.054C337.73 306.307 337.61 306.64 337.624 306.981C337.639 307.321 337.787 307.643 338.036 307.875C337.807 307.625 337.488 307.475 337.149 307.459C336.81 307.442 336.479 307.56 336.226 307.786V307.786Z" fill="white"/>
<path d="M321.268 253.571C321.495 253.319 321.613 252.987 321.596 252.648C321.58 252.309 321.43 251.991 321.18 251.761V251.761C321.412 252.011 321.734 252.159 322.074 252.173C322.415 252.188 322.748 252.068 323.001 251.839V251.839C322.773 252.09 322.653 252.421 322.667 252.76C322.682 253.099 322.83 253.418 323.078 253.649V253.649C322.848 253.4 322.528 253.253 322.189 253.238C321.851 253.224 321.52 253.343 321.268 253.571Z" fill="white"/>
<path d="M256.894 230.755C257.123 230.502 257.243 230.169 257.228 229.829C257.214 229.488 257.066 229.167 256.816 228.934V228.934C257.046 229.184 257.364 229.334 257.703 229.351C258.042 229.367 258.374 229.25 258.626 229.023V229.023C258.398 229.274 258.279 229.605 258.293 229.944C258.308 230.283 258.455 230.602 258.704 230.833V230.833C258.59 230.708 258.454 230.608 258.301 230.536C258.148 230.465 257.983 230.425 257.815 230.417C257.647 230.41 257.479 230.436 257.321 230.494C257.163 230.552 257.018 230.641 256.894 230.755V230.755Z" fill="white"/>
<path d="M318.228 301.147C318.456 300.896 318.576 300.565 318.561 300.226C318.547 299.887 318.399 299.568 318.15 299.337V299.337C318.381 299.586 318.7 299.733 319.039 299.748C319.378 299.762 319.709 299.643 319.96 299.415C319.732 299.666 319.613 299.997 319.627 300.335C319.642 300.674 319.789 300.994 320.038 301.224C319.807 300.976 319.488 300.828 319.149 300.814C318.81 300.799 318.479 300.919 318.228 301.147V301.147Z" fill="white"/>
<path d="M302.728 284.948C302.55 285.126 302.322 285.247 302.075 285.296C301.827 285.344 301.571 285.319 301.338 285.222C301.105 285.125 300.906 284.962 300.766 284.752C300.626 284.542 300.551 284.295 300.551 284.043C300.551 283.791 300.626 283.544 300.766 283.334C300.906 283.124 301.105 282.961 301.338 282.864C301.571 282.767 301.827 282.741 302.075 282.79C302.322 282.839 302.55 282.96 302.728 283.138C302.848 283.257 302.942 283.398 303.007 283.553C303.071 283.708 303.104 283.875 303.104 284.043C303.104 284.211 303.071 284.378 303.007 284.533C302.942 284.688 302.848 284.829 302.728 284.948V284.948Z" fill="white"/>
<g style="mix-blend-mode:overlay">
<path d="M276.132 252.548C276.36 252.297 276.48 251.966 276.465 251.627C276.451 251.288 276.303 250.969 276.055 250.738V250.738C276.285 250.987 276.605 251.135 276.944 251.149C277.282 251.164 277.613 251.044 277.864 250.816V250.816C277.751 250.94 277.663 251.086 277.606 251.244C277.549 251.403 277.524 251.571 277.532 251.739C277.54 251.908 277.582 252.073 277.654 252.225C277.726 252.377 277.828 252.513 277.953 252.626V252.626C277.721 252.376 277.399 252.229 277.059 252.214C276.718 252.199 276.385 252.319 276.132 252.548V252.548Z" fill="white"/>
</g>
<g style="mix-blend-mode:overlay">
<path d="M233.675 306.163C233.903 305.912 234.023 305.581 234.008 305.242C233.994 304.904 233.846 304.584 233.598 304.354C233.828 304.602 234.148 304.75 234.487 304.764C234.825 304.779 235.156 304.659 235.407 304.431V304.431C235.179 304.684 235.059 305.017 235.073 305.358C235.088 305.698 235.236 306.02 235.485 306.252C235.256 306.002 234.937 305.852 234.599 305.836C234.26 305.819 233.928 305.937 233.675 306.163V306.163Z" fill="white"/>
</g>
<g style="mix-blend-mode:overlay">
<path d="M218.718 251.948C218.944 251.696 219.062 251.364 219.045 251.025C219.029 250.686 218.879 250.368 218.629 250.139V250.139C218.861 250.388 219.183 250.536 219.523 250.55C219.864 250.565 220.197 250.445 220.45 250.216V250.216C220.222 250.467 220.102 250.798 220.117 251.137C220.131 251.476 220.279 251.795 220.527 252.026V252.026C220.297 251.778 219.977 251.63 219.639 251.615C219.3 251.601 218.969 251.72 218.718 251.948Z" fill="white"/>
</g>
<g style="mix-blend-mode:overlay">
<path d="M215.677 299.524C215.905 299.273 216.025 298.942 216.01 298.603C215.996 298.264 215.848 297.945 215.6 297.714V297.714C215.83 297.963 216.15 298.11 216.489 298.125C216.827 298.139 217.158 298.02 217.409 297.792C217.181 298.043 217.062 298.374 217.076 298.713C217.091 299.052 217.238 299.371 217.487 299.602C217.256 299.353 216.937 299.205 216.598 299.191C216.259 299.176 215.928 299.296 215.677 299.524V299.524Z" fill="white"/>
</g>
<g style="mix-blend-mode:overlay">
<path d="M353.994 207.915C353.755 208.155 353.45 208.319 353.118 208.386C352.786 208.453 352.442 208.42 352.129 208.291C351.816 208.162 351.548 207.943 351.359 207.661C351.171 207.38 351.07 207.049 351.07 206.71C351.07 206.371 351.171 206.04 351.359 205.759C351.548 205.477 351.816 205.258 352.129 205.129C352.442 205 352.786 204.967 353.118 205.034C353.45 205.101 353.755 205.265 353.994 205.505C354.309 205.827 354.485 206.259 354.485 206.71C354.485 207.16 354.309 207.593 353.994 207.915V207.915Z" fill="white"/>
</g>
<g style="mix-blend-mode:overlay">
<path d="M239.98 272.466C239.741 272.705 239.436 272.868 239.105 272.933C238.773 272.999 238.429 272.965 238.117 272.836C237.805 272.706 237.538 272.487 237.35 272.206C237.163 271.925 237.062 271.594 237.062 271.256C237.062 270.918 237.163 270.588 237.35 270.307C237.538 270.026 237.805 269.806 238.117 269.677C238.429 269.547 238.773 269.513 239.105 269.579C239.436 269.645 239.741 269.807 239.98 270.046C240.141 270.204 240.268 270.392 240.355 270.6C240.442 270.808 240.487 271.031 240.487 271.256C240.487 271.481 240.442 271.704 240.355 271.912C240.268 272.12 240.141 272.308 239.98 272.466Z" fill="white"/>
</g>
<g style="mix-blend-mode:overlay">
<path d="M200.178 283.325C199.999 283.503 199.771 283.624 199.524 283.673C199.276 283.722 199.02 283.696 198.787 283.599C198.554 283.502 198.355 283.339 198.215 283.129C198.075 282.919 198 282.672 198 282.42C198 282.168 198.075 281.921 198.215 281.711C198.355 281.502 198.554 281.338 198.787 281.241C199.02 281.144 199.276 281.119 199.524 281.167C199.771 281.216 199.999 281.337 200.178 281.515C200.297 281.634 200.391 281.775 200.456 281.93C200.52 282.085 200.554 282.252 200.554 282.42C200.554 282.588 200.52 282.755 200.456 282.91C200.391 283.065 200.297 283.206 200.178 283.325V283.325Z" fill="white"/>
</g>
<path d="M153.918 273.92C153.678 274.159 153.374 274.321 153.042 274.387C152.711 274.453 152.367 274.419 152.055 274.289C151.743 274.16 151.476 273.941 151.288 273.659C151.1 273.378 151 273.048 151 272.71C151 272.372 151.1 272.041 151.288 271.76C151.476 271.479 151.743 271.26 152.055 271.13C152.367 271.001 152.711 270.967 153.042 271.033C153.374 271.098 153.678 271.261 153.918 271.5C154.078 271.658 154.206 271.846 154.293 272.054C154.38 272.262 154.424 272.485 154.424 272.71C154.424 272.935 154.38 273.158 154.293 273.366C154.206 273.574 154.078 273.762 153.918 273.92Z" fill="white"/>
<path d="M258.769 384.821C258.998 384.568 259.118 384.235 259.103 383.895C259.089 383.554 258.941 383.233 258.691 383V383C258.804 383.125 258.94 383.227 259.093 383.299C259.245 383.371 259.41 383.413 259.578 383.421C259.746 383.429 259.914 383.404 260.073 383.347C260.231 383.29 260.377 383.202 260.501 383.089C260.273 383.34 260.154 383.671 260.168 384.01C260.183 384.348 260.33 384.668 260.579 384.899V384.899C260.348 384.65 260.029 384.502 259.69 384.488C259.351 384.473 259.02 384.593 258.769 384.821Z" fill="url(#paint7_linear)"/>
<g style="mix-blend-mode:overlay">
<path d="M260.717 402.581C260.717 402.581 239.621 402.581 233.881 402.659C228.885 402.781 228.508 404.146 233.948 404.024C241.254 403.858 260.717 402.581 260.717 402.581Z" fill="white"/>
</g>
<path d="M123.178 90.1817C122.999 90.3597 122.771 90.4807 122.524 90.5295C122.276 90.5783 122.02 90.5527 121.787 90.4559C121.554 90.3591 121.355 90.1954 121.215 89.9856C121.075 89.7757 121 89.5291 121 89.2768C121 89.0245 121.075 88.7779 121.215 88.568C121.355 88.3582 121.554 88.1946 121.787 88.0977C122.02 88.0009 122.276 87.9753 122.524 88.0241C122.771 88.0729 122.999 88.1939 123.178 88.3719C123.297 88.4906 123.391 88.6316 123.456 88.7869C123.52 88.9421 123.554 89.1087 123.554 89.2768C123.554 89.445 123.52 89.6115 123.456 89.7668C123.391 89.922 123.297 90.0631 123.178 90.1817V90.1817Z" fill="white"/>
<g style="mix-blend-mode:overlay">
<path d="M70.5835 141.808C70.5835 141.808 54.5399 141.808 50.1876 141.864C46.4015 141.953 46.1129 142.974 50.2431 142.908C55.7612 142.752 70.5835 141.808 70.5835 141.808Z" fill="white"/>
</g>
<g style="mix-blend-mode:overlay">
<path d="M66.666 34C66.666 34 51.122 34 46.8696 34C43.1835 34.0888 42.9059 35.1103 46.8696 34.9993C52.2767 34.9326 66.666 34 66.666 34Z" fill="white"/>
</g>
<g style="mix-blend-mode:overlay">
<path d="M180.923 140.93C180.685 141.171 180.38 141.335 180.048 141.402C179.716 141.469 179.372 141.436 179.058 141.307C178.745 141.178 178.477 140.958 178.289 140.677C178.101 140.395 178 140.064 178 139.726C178 139.387 178.101 139.056 178.289 138.774C178.477 138.493 178.745 138.274 179.058 138.145C179.372 138.016 179.716 137.983 180.048 138.05C180.38 138.117 180.685 138.281 180.923 138.521C181.239 138.843 181.415 139.275 181.415 139.726C181.415 140.176 181.239 140.609 180.923 140.93Z" fill="white"/>
</g>
<path d="M182.986 23.5425C183.146 23.3684 183.27 23.1644 183.351 22.9423C183.431 22.7202 183.468 22.4844 183.457 22.2483C183.447 22.0121 183.39 21.7803 183.29 21.5662C183.191 21.352 183.049 21.1596 182.875 21C183.199 21.3495 183.647 21.5571 184.123 21.5779C184.599 21.5987 185.064 21.4309 185.418 21.111V21.111C185.098 21.4641 184.93 21.9291 184.951 22.4051C184.971 22.8811 185.179 23.3297 185.529 23.6536V23.6536C185.369 23.4792 185.177 23.3381 184.962 23.2381C184.748 23.1382 184.516 23.0814 184.28 23.0711C184.044 23.0608 183.808 23.0971 183.586 23.178C183.364 23.2589 183.16 23.3828 182.986 23.5425V23.5425Z" fill="white"/>
<path d="M179.082 532.918C179.325 532.652 179.452 532.301 179.436 531.942C179.421 531.583 179.264 531.245 179 531V531C179.119 531.132 179.264 531.239 179.425 531.315C179.586 531.391 179.761 531.435 179.939 531.444C180.118 531.452 180.296 531.426 180.464 531.366C180.632 531.306 180.786 531.213 180.918 531.094C180.676 531.358 180.549 531.707 180.565 532.064C180.58 532.421 180.737 532.757 181 533V533C180.756 532.738 180.417 532.583 180.058 532.567C179.699 532.552 179.348 532.678 179.082 532.918Z" fill="url(#paint8_linear)"/>
</g>
<path d="M73.7457 489.59C73.9743 489.337 74.0943 489.004 74.0797 488.664C74.0652 488.323 73.9173 488.002 73.668 487.769C73.8971 488.019 74.2157 488.169 74.5546 488.186C74.8934 488.202 75.2252 488.085 75.4777 487.858C75.2498 488.109 75.1301 488.44 75.1447 488.779C75.1592 489.118 75.3068 489.437 75.5554 489.668C75.442 489.543 75.3051 489.443 75.1526 489.371C75 489.3 74.8349 489.26 74.6667 489.253C74.4985 489.245 74.3306 489.271 74.1725 489.329C74.0144 489.387 73.8694 489.476 73.7457 489.59Z" fill="white"/>
<path d="M159.383 532.924C159.143 533.163 158.839 533.326 158.507 533.391C158.175 533.457 157.832 533.423 157.52 533.293C157.207 533.164 156.941 532.945 156.753 532.664C156.565 532.383 156.465 532.052 156.465 531.714C156.465 531.376 156.565 531.046 156.753 530.765C156.941 530.483 157.207 530.264 157.52 530.135C157.832 530.005 158.175 529.971 158.507 530.037C158.839 530.103 159.143 530.265 159.383 530.504C159.543 530.662 159.67 530.85 159.757 531.058C159.844 531.266 159.889 531.489 159.889 531.714C159.889 531.939 159.844 532.162 159.757 532.37C159.67 532.578 159.543 532.766 159.383 532.924Z" fill="white"/>
<path d="M121.877 387.533C121.698 387.711 121.471 387.832 121.223 387.881C120.976 387.93 120.719 387.904 120.486 387.807C120.253 387.71 120.054 387.547 119.914 387.337C119.774 387.127 119.699 386.88 119.699 386.628C119.699 386.376 119.774 386.129 119.914 385.919C120.054 385.71 120.253 385.546 120.486 385.449C120.719 385.352 120.976 385.327 121.223 385.375C121.471 385.424 121.698 385.545 121.877 385.723C121.996 385.842 122.091 385.983 122.155 386.138C122.22 386.293 122.253 386.46 122.253 386.628C122.253 386.796 122.22 386.963 122.155 387.118C122.091 387.273 121.996 387.414 121.877 387.533Z" fill="white"/>
<path d="M181.9 281.392C181.722 281.57 181.494 281.691 181.246 281.74C180.999 281.789 180.743 281.763 180.51 281.666C180.277 281.57 180.077 281.406 179.937 281.196C179.797 280.986 179.723 280.74 179.723 280.487C179.723 280.235 179.797 279.988 179.937 279.779C180.077 279.569 180.277 279.405 180.51 279.308C180.743 279.212 180.999 279.186 181.246 279.235C181.494 279.283 181.722 279.405 181.9 279.582C182.019 279.701 182.114 279.842 182.179 279.997C182.243 280.153 182.276 280.319 182.276 280.487C182.276 280.656 182.243 280.822 182.179 280.977C182.114 281.133 182.019 281.274 181.9 281.392Z" fill="white"/>
<path d="M238.132 317.335C238.36 317.084 238.48 316.753 238.465 316.415C238.451 316.076 238.303 315.756 238.055 315.526C238.285 315.774 238.605 315.922 238.944 315.936C239.282 315.951 239.613 315.831 239.864 315.603C239.751 315.728 239.663 315.873 239.606 316.032C239.549 316.19 239.524 316.359 239.532 316.527C239.54 316.695 239.582 316.86 239.654 317.012C239.726 317.164 239.828 317.3 239.953 317.413C239.721 317.164 239.399 317.016 239.059 317.001C238.718 316.987 238.385 317.107 238.132 317.335Z" fill="white"/>
<path d="M195.675 370.951C195.903 370.7 196.023 370.369 196.008 370.03C195.994 369.691 195.846 369.372 195.598 369.141C195.828 369.39 196.148 369.537 196.487 369.552C196.825 369.566 197.156 369.447 197.407 369.219C197.179 369.472 197.059 369.805 197.073 370.145C197.088 370.486 197.236 370.807 197.485 371.04C197.256 370.79 196.937 370.64 196.599 370.623C196.26 370.607 195.928 370.724 195.675 370.951Z" fill="white"/>
<path d="M117.644 216.266C117.872 216.015 117.992 215.684 117.977 215.346C117.963 215.007 117.815 214.687 117.566 214.457C117.797 214.705 118.116 214.853 118.455 214.867C118.794 214.882 119.125 214.762 119.376 214.534C119.148 214.786 119.029 215.116 119.043 215.455C119.058 215.794 119.205 216.113 119.454 216.344C119.223 216.096 118.904 215.948 118.565 215.933C118.226 215.919 117.895 216.038 117.644 216.266Z" fill="white"/>
<path d="M180.718 316.736C180.944 316.483 181.062 316.152 181.045 315.813C181.029 315.474 180.879 315.155 180.629 314.926C180.861 315.175 181.183 315.323 181.523 315.338C181.864 315.352 182.197 315.232 182.45 315.004C182.222 315.255 182.102 315.586 182.117 315.925C182.131 316.263 182.279 316.583 182.527 316.813C182.297 316.565 181.977 316.417 181.639 316.403C181.3 316.388 180.969 316.508 180.718 316.736Z" fill="white"/>
<path d="M116.343 293.92C116.572 293.667 116.692 293.334 116.677 292.993C116.663 292.653 116.515 292.331 116.266 292.099C116.495 292.349 116.813 292.499 117.152 292.515C117.491 292.532 117.823 292.414 118.075 292.188C117.847 292.439 117.728 292.77 117.742 293.108C117.757 293.447 117.904 293.767 118.153 293.997C118.04 293.873 117.903 293.772 117.75 293.701C117.598 293.63 117.433 293.589 117.264 293.582C117.096 293.575 116.928 293.601 116.77 293.659C116.612 293.717 116.467 293.805 116.343 293.92Z" fill="white"/>
<path d="M158.591 184.99C158.819 184.739 158.939 184.408 158.924 184.069C158.91 183.73 158.762 183.411 158.514 183.18C158.744 183.429 159.064 183.576 159.403 183.591C159.741 183.605 160.072 183.486 160.323 183.258C160.096 183.509 159.976 183.84 159.99 184.179C160.005 184.517 160.153 184.837 160.401 185.068C160.171 184.819 159.851 184.671 159.512 184.657C159.173 184.642 158.843 184.762 158.591 184.99Z" fill="white"/>
<path d="M177.677 364.311C177.905 364.06 178.025 363.729 178.01 363.39C177.996 363.052 177.848 362.732 177.6 362.501C177.83 362.75 178.15 362.898 178.489 362.912C178.827 362.927 179.158 362.807 179.409 362.579C179.181 362.83 179.062 363.161 179.076 363.5C179.091 363.839 179.238 364.158 179.487 364.389C179.256 364.14 178.937 363.993 178.598 363.978C178.259 363.964 177.928 364.083 177.677 364.311Z" fill="white"/>
<path d="M168.23 194.25C168.458 193.998 168.578 193.668 168.563 193.329C168.549 192.99 168.401 192.67 168.152 192.44C168.383 192.688 168.702 192.836 169.041 192.851C169.38 192.865 169.711 192.745 169.962 192.518C169.734 192.769 169.614 193.1 169.629 193.438C169.644 193.777 169.791 194.097 170.04 194.327C169.809 194.079 169.49 193.931 169.151 193.917C168.812 193.902 168.481 194.022 168.23 194.25Z" fill="white"/>
<path d="M42.9996 239.849C43.2282 239.596 43.3482 239.263 43.3336 238.922C43.3191 238.582 43.1712 238.261 42.9219 238.028C43.0349 238.156 43.1722 238.26 43.3259 238.334C43.4796 238.409 43.6465 238.452 43.8169 238.461C43.9874 238.471 44.158 238.446 44.3189 238.389C44.4797 238.331 44.6276 238.243 44.7538 238.128C44.5259 238.379 44.4062 238.71 44.4208 239.049C44.4353 239.388 44.5829 239.707 44.8316 239.938C44.7178 239.81 44.5798 239.707 44.4258 239.634C44.2717 239.56 44.1046 239.518 43.9341 239.51C43.7637 239.502 43.5933 239.527 43.4329 239.586C43.2724 239.644 43.1252 239.733 42.9996 239.849Z" fill="white"/>
<path d="M102.156 204.242C101.977 204.42 101.75 204.541 101.502 204.59C101.255 204.639 100.998 204.613 100.765 204.516C100.532 204.419 100.333 204.256 100.193 204.046C100.053 203.836 99.9785 203.589 99.9785 203.337C99.9785 203.085 100.053 202.838 100.193 202.628C100.333 202.419 100.532 202.255 100.765 202.158C100.998 202.061 101.255 202.036 101.502 202.084C101.75 202.133 101.977 202.254 102.156 202.432C102.275 202.551 102.37 202.692 102.434 202.847C102.499 203.002 102.532 203.169 102.532 203.337C102.532 203.505 102.499 203.672 102.434 203.827C102.37 203.982 102.275 204.123 102.156 204.242Z" fill="white"/>
<path d="M162.178 348.112C161.999 348.29 161.771 348.411 161.524 348.46C161.276 348.509 161.02 348.483 160.787 348.387C160.554 348.29 160.355 348.126 160.215 347.916C160.075 347.706 160 347.46 160 347.207C160 346.955 160.075 346.709 160.215 346.499C160.355 346.289 160.554 346.125 160.787 346.028C161.02 345.932 161.276 345.906 161.524 345.955C161.771 346.004 161.999 346.125 162.178 346.303C162.297 346.421 162.391 346.562 162.456 346.718C162.52 346.873 162.554 347.039 162.554 347.207C162.554 347.376 162.52 347.542 162.456 347.697C162.391 347.853 162.297 347.994 162.178 348.112Z" fill="white"/>
<path d="M9.98017 288.254C9.74092 288.493 9.43625 288.655 9.10467 288.721C8.77308 288.786 8.42949 288.752 8.11725 288.623C7.80501 288.493 7.53817 288.274 7.35044 287.993C7.16271 287.712 7.0625 287.382 7.0625 287.044C7.0625 286.706 7.16271 286.375 7.35044 286.094C7.53817 285.813 7.80501 285.594 8.11725 285.464C8.42949 285.335 8.77308 285.301 9.10467 285.366C9.43625 285.432 9.74092 285.595 9.98017 285.833C10.1406 285.991 10.2681 286.18 10.3551 286.388C10.442 286.595 10.4868 286.818 10.4868 287.044C10.4868 287.269 10.442 287.492 10.3551 287.7C10.2681 287.907 10.1406 288.096 9.98017 288.254Z" fill="white"/>
<g style="mix-blend-mode:overlay">
<path d="M145.119 232.63C145.233 232.506 145.322 232.361 145.38 232.203C145.437 232.045 145.464 231.877 145.456 231.709C145.449 231.541 145.409 231.376 145.337 231.223C145.266 231.071 145.165 230.934 145.041 230.82C145.272 231.069 145.591 231.217 145.93 231.231C146.269 231.246 146.6 231.126 146.851 230.898C146.624 231.151 146.506 231.482 146.523 231.821C146.54 232.16 146.689 232.479 146.94 232.708C146.707 232.458 146.386 232.311 146.045 232.296C145.704 232.281 145.372 232.401 145.119 232.63Z" fill="white"/>
</g>
<g style="mix-blend-mode:overlay">
<path d="M135.582 315.713C135.81 315.461 135.929 315.131 135.915 314.792C135.9 314.453 135.753 314.133 135.504 313.903C135.735 314.151 136.054 314.299 136.393 314.314C136.732 314.328 137.063 314.208 137.314 313.981C137.2 314.105 137.112 314.251 137.055 314.409C136.998 314.568 136.973 314.736 136.981 314.904C136.99 315.072 137.031 315.237 137.103 315.389C137.176 315.541 137.277 315.678 137.402 315.79C137.17 315.541 136.849 315.393 136.508 315.379C136.167 315.364 135.835 315.484 135.582 315.713Z" fill="white"/>
</g>
<g style="mix-blend-mode:overlay">
<path d="M93.1246 369.328C93.3525 369.077 93.4722 368.746 93.4577 368.407C93.4431 368.068 93.2955 367.749 93.0469 367.518C93.2775 367.767 93.597 367.914 93.9358 367.929C94.2746 367.943 94.6055 367.824 94.8566 367.596C94.628 367.849 94.5081 368.181 94.5226 368.522C94.5372 368.863 94.685 369.184 94.9344 369.417C94.7052 369.166 94.3866 369.017 94.0477 369C93.7089 368.984 93.3771 369.101 93.1246 369.328Z" fill="white"/>
</g>
<g style="mix-blend-mode:overlay">
<path d="M194.726 212.723C194.954 212.471 195.074 212.141 195.059 211.802C195.045 211.463 194.897 211.144 194.648 210.913C194.882 211.158 195.203 211.302 195.542 211.312C195.881 211.323 196.21 211.199 196.458 210.968C196.23 211.219 196.111 211.55 196.125 211.889C196.14 212.228 196.287 212.547 196.536 212.778C196.302 212.533 195.981 212.389 195.642 212.379C195.304 212.368 194.974 212.492 194.726 212.723Z" fill="white"/>
</g>
<g style="mix-blend-mode:overlay">
<path d="M78.1669 315.113C78.3935 314.86 78.5112 314.529 78.4946 314.19C78.478 313.851 78.3283 313.532 78.0781 313.303C78.3107 313.553 78.632 313.7 78.9726 313.715C79.3133 313.73 79.646 313.61 79.899 313.381C79.671 313.632 79.5514 313.963 79.5659 314.302C79.5805 314.641 79.7281 314.96 79.9767 315.191C79.746 314.942 79.4266 314.794 79.0878 314.78C78.749 314.765 78.4181 314.885 78.1669 315.113Z" fill="white"/>
</g>
<g style="mix-blend-mode:overlay">
<path d="M75.1266 362.688C75.3545 362.437 75.4742 362.106 75.4596 361.768C75.4451 361.429 75.2974 361.109 75.0488 360.879C75.2795 361.127 75.5989 361.275 75.9378 361.289C76.2766 361.304 76.6075 361.184 76.8586 360.956C76.6307 361.208 76.511 361.538 76.5255 361.877C76.5401 362.216 76.6877 362.535 76.9363 362.766C76.7057 362.518 76.3862 362.37 76.0474 362.355C75.7086 362.341 75.3777 362.46 75.1266 362.688Z" fill="white"/>
</g>
<g style="mix-blend-mode:overlay">
<path d="M213.443 271.079C213.204 271.319 212.9 271.483 212.567 271.55C212.235 271.617 211.891 271.584 211.578 271.455C211.265 271.326 210.997 271.107 210.809 270.826C210.62 270.544 210.52 270.213 210.52 269.874C210.52 269.536 210.62 269.205 210.809 268.923C210.997 268.642 211.265 268.423 211.578 268.294C211.891 268.164 212.235 268.131 212.567 268.198C212.9 268.265 213.204 268.429 213.443 268.67C213.758 268.991 213.935 269.424 213.935 269.874C213.935 270.325 213.758 270.757 213.443 271.079Z" fill="white"/>
</g>
<g style="mix-blend-mode:overlay">
<path d="M99.4294 335.631C99.1901 335.87 98.8855 336.032 98.5539 336.098C98.2223 336.164 97.8787 336.13 97.5665 336C97.2542 335.871 96.9874 335.651 96.7997 335.37C96.6119 335.089 96.5117 334.759 96.5117 334.421C96.5117 334.083 96.6119 333.752 96.7997 333.471C96.9874 333.19 97.2542 332.971 97.5665 332.841C97.8787 332.712 98.2223 332.678 98.5539 332.744C98.8855 332.809 99.1901 332.972 99.4294 333.211C99.5899 333.369 99.7173 333.557 99.8043 333.765C99.8913 333.973 99.936 334.196 99.936 334.421C99.936 334.646 99.8913 334.869 99.8043 335.077C99.7173 335.285 99.5899 335.473 99.4294 335.631Z" fill="white"/>
</g>
<g style="mix-blend-mode:overlay">
<path d="M59.6269 346.49C59.4481 346.668 59.2206 346.789 58.973 346.837C58.7255 346.886 58.4691 346.861 58.2361 346.764C58.0031 346.667 57.804 346.503 57.664 346.293C57.524 346.084 57.4492 345.837 57.4492 345.585C57.4492 345.332 57.524 345.086 57.664 344.876C57.804 344.666 58.0031 344.502 58.2361 344.406C58.4691 344.309 58.7255 344.283 58.973 344.332C59.2206 344.381 59.4481 344.502 59.6269 344.68C59.7461 344.798 59.8406 344.939 59.9051 345.095C59.9697 345.25 60.0029 345.417 60.0029 345.585C60.0029 345.753 59.9697 345.919 59.9051 346.075C59.8406 346.23 59.7461 346.371 59.6269 346.49Z" fill="white"/>
</g>
<g style="mix-blend-mode:overlay">
<path d="M195.348 154.466C195.348 154.466 185.1 154.466 182.324 154.466C179.893 154.522 179.715 155.188 182.324 155.132C185.922 155.088 195.348 154.466 195.348 154.466Z" fill="white"/>
</g>
<g style="mix-blend-mode:overlay">
<path d="M207.781 164.337C207.781 164.337 197.533 164.337 194.746 164.337C192.326 164.392 192.137 165.058 194.746 164.992C198.31 164.958 207.781 164.337 207.781 164.337Z" fill="white"/>
</g>
<g style="mix-blend-mode:overlay">
<path d="M161.37 217.53C161.37 217.53 140.275 217.53 134.524 217.619C129.539 217.73 129.161 219.107 134.602 218.974C141.852 218.807 161.37 217.53 161.37 217.53Z" fill="white"/>
</g>
<g style="mix-blend-mode:overlay">
<path d="M113.574 199.466C113.574 199.466 92.4787 199.466 86.7385 199.555C81.7534 199.666 81.3648 201.043 86.8051 200.909C94.0664 200.743 113.574 199.466 113.574 199.466Z" fill="white"/>
</g>
<g style="mix-blend-mode:overlay">
<path d="M199.042 138.356C199.042 138.356 191.481 138.356 189.438 138.356C187.651 138.356 187.506 138.889 189.438 138.845C192.014 138.8 199.042 138.356 199.042 138.356Z" fill="white"/>
</g>
<g style="mix-blend-mode:overlay">
<path d="M241.655 138.867C241.655 138.867 226.111 138.867 221.858 138.922C218.172 139.011 217.895 140.033 221.914 139.933C227.266 139.811 241.655 138.867 241.655 138.867Z" fill="white"/>
</g>
<path d="M179.964 203.876C180.192 203.625 180.312 203.294 180.298 202.955C180.283 202.616 180.135 202.297 179.887 202.066C180.117 202.315 180.437 202.462 180.776 202.477C181.114 202.491 181.445 202.372 181.696 202.144C181.469 202.395 181.349 202.726 181.363 203.064C181.378 203.403 181.526 203.723 181.774 203.953C181.544 203.705 181.224 203.557 180.885 203.543C180.546 203.528 180.216 203.648 179.964 203.876Z" fill="white"/>
<path d="M105.32 227.458C105.548 227.207 105.668 226.876 105.653 226.537C105.638 226.198 105.491 225.879 105.242 225.648C105.473 225.897 105.792 226.045 106.131 226.059C106.47 226.074 106.801 225.954 107.052 225.726C106.824 225.977 106.704 226.308 106.719 226.647C106.733 226.986 106.881 227.305 107.13 227.536C106.899 227.287 106.58 227.14 106.241 227.125C105.902 227.11 105.571 227.23 105.32 227.458Z" fill="white"/>
<path d="M164.475 191.862C164.296 192.04 164.068 192.162 163.821 192.21C163.573 192.259 163.317 192.234 163.084 192.137C162.851 192.04 162.652 191.876 162.512 191.666C162.372 191.457 162.297 191.21 162.297 190.958C162.297 190.705 162.372 190.459 162.512 190.249C162.652 190.039 162.851 189.875 163.084 189.779C163.317 189.682 163.573 189.656 163.821 189.705C164.068 189.754 164.296 189.875 164.475 190.053C164.594 190.171 164.688 190.312 164.753 190.468C164.817 190.623 164.851 190.789 164.851 190.958C164.851 191.126 164.817 191.292 164.753 191.448C164.688 191.603 164.594 191.744 164.475 191.862Z" fill="white"/>
<path d="M145.478 135.46C145.359 135.579 145.206 135.661 145.041 135.694C144.875 135.726 144.703 135.709 144.547 135.645C144.391 135.58 144.257 135.47 144.163 135.33C144.07 135.189 144.02 135.024 144.02 134.855C144.02 134.686 144.07 134.521 144.163 134.38C144.257 134.24 144.391 134.13 144.547 134.065C144.703 134 144.875 133.983 145.041 134.016C145.206 134.049 145.359 134.13 145.478 134.25C145.558 134.329 145.621 134.424 145.664 134.527C145.707 134.631 145.729 134.743 145.729 134.855C145.729 134.967 145.707 135.079 145.664 135.182C145.621 135.286 145.558 135.381 145.478 135.46Z" fill="white"/>
<path d="M224.498 335.722C224.319 335.9 224.092 336.021 223.844 336.07C223.597 336.118 223.34 336.093 223.107 335.996C222.874 335.899 222.675 335.735 222.535 335.526C222.395 335.316 222.32 335.069 222.32 334.817C222.32 334.565 222.395 334.318 222.535 334.108C222.675 333.898 222.874 333.735 223.107 333.638C223.34 333.541 223.597 333.515 223.844 333.564C224.092 333.613 224.319 333.734 224.498 333.912C224.617 334.031 224.712 334.172 224.776 334.327C224.841 334.482 224.874 334.649 224.874 334.817C224.874 334.985 224.841 335.152 224.776 335.307C224.712 335.462 224.617 335.603 224.498 335.722Z" fill="white"/>
<path d="M214.049 157.677C213.929 157.796 213.777 157.877 213.611 157.91C213.445 157.943 213.273 157.926 213.117 157.861C212.961 157.797 212.828 157.687 212.734 157.547C212.64 157.406 212.59 157.241 212.59 157.072C212.59 156.903 212.64 156.737 212.734 156.597C212.828 156.456 212.961 156.347 213.117 156.282C213.273 156.217 213.445 156.2 213.611 156.233C213.777 156.266 213.929 156.347 214.049 156.467C214.128 156.546 214.191 156.64 214.234 156.744C214.278 156.848 214.3 156.959 214.3 157.072C214.3 157.184 214.278 157.295 214.234 157.399C214.191 157.503 214.128 157.597 214.049 157.677Z" fill="white"/>
<path d="M40.5361 151.256C40.5295 151.58 40.4273 151.895 40.2423 152.161C40.0573 152.427 39.7978 152.632 39.4963 152.751C39.1949 152.87 38.8651 152.897 38.5483 152.829C38.2315 152.761 37.9418 152.601 37.7158 152.369C37.4897 152.137 37.3374 151.843 37.2779 151.524C37.2184 151.206 37.2544 150.877 37.3814 150.579C37.5084 150.281 37.7207 150.027 37.9917 149.849C38.2626 149.671 38.58 149.577 38.904 149.58C39.1221 149.579 39.3381 149.623 39.539 149.708C39.74 149.793 39.9219 149.917 40.074 150.073C40.2262 150.229 40.3455 150.415 40.4249 150.618C40.5042 150.821 40.542 151.038 40.5361 151.256V151.256Z" fill="white"/>
<path d="M82.0777 161.821C82.3063 161.568 82.4263 161.235 82.4117 160.895C82.3972 160.554 82.2493 160.233 82 160V160C82.2291 160.25 82.5477 160.4 82.8866 160.416C83.2254 160.433 83.5572 160.315 83.8098 160.089V160.089C83.5818 160.34 83.4621 160.671 83.4767 161.01C83.4912 161.348 83.6388 161.668 83.8874 161.899V161.899C83.6568 161.65 83.3374 161.502 82.9985 161.488C82.6597 161.473 82.3289 161.593 82.0777 161.821V161.821Z" fill="url(#paint9_linear)"/>
<path d="M69.0994 205.099C69.0094 205.189 68.8946 205.251 68.7697 205.276C68.6448 205.3 68.5153 205.288 68.3976 205.239C68.2799 205.19 68.1793 205.108 68.1086 205.002C68.0378 204.896 68 204.771 68 204.644C68 204.517 68.0378 204.392 68.1086 204.286C68.1793 204.18 68.2799 204.098 68.3976 204.049C68.5153 204 68.6448 203.988 68.7697 204.012C68.8946 204.037 69.0094 204.099 69.0994 204.189C69.2175 204.311 69.2834 204.474 69.2834 204.644C69.2834 204.814 69.2175 204.977 69.0994 205.099V205.099Z" fill="white"/>
<g style="mix-blend-mode:overlay">
<path d="M108.666 223C108.666 223 93.122 223 88.8696 223C85.1835 223.089 84.9059 224.11 88.8696 223.999C94.2767 223.933 108.666 223 108.666 223Z" fill="white"/>
</g>
<g style="mix-blend-mode:overlay">
<path d="M13.6752 227.591C13.6752 227.591 29.7187 227.591 34.0599 227.524C37.8571 227.435 38.1458 226.414 34.0044 226.492C28.4974 226.636 13.6752 227.591 13.6752 227.591Z" fill="white"/>
</g>
<path d="M110.536 441.256C110.529 441.58 110.427 441.895 110.242 442.161C110.057 442.427 109.798 442.632 109.496 442.751C109.195 442.87 108.865 442.897 108.548 442.829C108.231 442.761 107.942 442.601 107.716 442.369C107.49 442.137 107.337 441.843 107.278 441.524C107.218 441.206 107.254 440.877 107.381 440.579C107.508 440.281 107.721 440.027 107.992 439.849C108.263 439.671 108.58 439.577 108.904 439.58C109.122 439.579 109.338 439.623 109.539 439.708C109.74 439.793 109.922 439.917 110.074 440.073C110.226 440.229 110.346 440.415 110.425 440.618C110.504 440.821 110.542 441.038 110.536 441.256V441.256Z" fill="white"/>
<path d="M52.2861 277.677C52.2795 278.001 52.1773 278.315 51.9923 278.581C51.8073 278.847 51.5478 279.053 51.2463 279.172C50.9449 279.291 50.6151 279.318 50.2983 279.25C49.9815 279.182 49.6918 279.022 49.4658 278.789C49.2397 278.557 49.0874 278.263 49.0279 277.945C48.9684 277.626 49.0044 277.297 49.1314 276.999C49.2584 276.701 49.4707 276.447 49.7417 276.269C50.0126 276.092 50.33 275.998 50.654 276C50.8721 276 51.0881 276.044 51.289 276.128C51.49 276.213 51.6719 276.337 51.824 276.494C51.9762 276.65 52.0955 276.835 52.1749 277.038C52.2542 277.242 52.292 277.459 52.2861 277.677V277.677Z" fill="white"/>
<path d="M102.286 583.677C102.279 584.001 102.177 584.315 101.992 584.581C101.807 584.847 101.548 585.053 101.246 585.172C100.945 585.291 100.615 585.318 100.298 585.25C99.9815 585.182 99.6918 585.022 99.4658 584.789C99.2397 584.557 99.0874 584.263 99.0279 583.945C98.9684 583.626 99.0044 583.297 99.1314 582.999C99.2584 582.701 99.4707 582.447 99.7417 582.269C100.013 582.092 100.33 581.998 100.654 582C100.872 582 101.088 582.044 101.289 582.128C101.49 582.213 101.672 582.337 101.824 582.494C101.976 582.65 102.096 582.835 102.175 583.038C102.254 583.242 102.292 583.459 102.286 583.677V583.677Z" fill="white"/>
<path d="M75.5055 422.691C75.6653 422.517 75.7892 422.313 75.87 422.091C75.9509 421.869 75.9873 421.633 75.977 421.397C75.9667 421.161 75.9099 420.929 75.81 420.715C75.7101 420.501 75.5689 420.308 75.3945 420.149C75.7184 420.498 76.167 420.706 76.643 420.727C77.119 420.747 77.584 420.58 77.9371 420.26V420.26C77.6171 420.613 77.4494 421.078 77.4701 421.554C77.4909 422.03 77.6986 422.478 78.0481 422.802V422.802C77.8885 422.628 77.6961 422.487 77.4819 422.387C77.2677 422.287 77.0359 422.23 76.7998 422.22C76.5637 422.209 76.3278 422.246 76.1057 422.327C75.8837 422.408 75.6797 422.531 75.5055 422.691V422.691Z" fill="white"/>
<path d="M59.6207 493.668C59.8493 493.415 59.9693 493.082 59.9547 492.742C59.9402 492.401 59.7923 492.08 59.543 491.847V491.847C59.7721 492.097 60.0907 492.247 60.4296 492.264C60.7684 492.28 61.1002 492.162 61.3527 491.936V491.936C61.1248 492.187 61.0051 492.518 61.0197 492.857C61.0342 493.196 61.1818 493.515 61.4304 493.746V493.746C61.1997 493.497 60.8803 493.349 60.5415 493.335C60.2027 493.32 59.8718 493.44 59.6207 493.668V493.668Z" fill="url(#paint10_linear)"/>
<path d="M21.0777 476.821C21.3063 476.568 21.4264 476.235 21.4118 475.895C21.3973 475.554 21.2493 475.233 21 475V475C21.1127 475.125 21.249 475.227 21.4012 475.299C21.5533 475.371 21.7182 475.413 21.8865 475.421C22.0547 475.429 22.2228 475.404 22.3813 475.347C22.5398 475.29 22.6854 475.202 22.8098 475.089C22.5818 475.34 22.4621 475.671 22.4767 476.01C22.4912 476.348 22.6389 476.668 22.8875 476.899V476.899C22.6568 476.65 22.3374 476.502 21.9986 476.488C21.6598 476.473 21.3289 476.593 21.0777 476.821Z" fill="url(#paint11_linear)"/>
<path d="M75.9744 483.897C75.8844 483.988 75.7696 484.049 75.6447 484.074C75.5198 484.099 75.3903 484.086 75.2726 484.037C75.1549 483.988 75.0543 483.906 74.9836 483.8C74.9128 483.694 74.875 483.57 74.875 483.442C74.875 483.315 74.9128 483.19 74.9836 483.084C75.0543 482.978 75.1549 482.896 75.2726 482.847C75.3903 482.798 75.5198 482.786 75.6447 482.811C75.7696 482.835 75.8844 482.897 75.9744 482.987C76.0925 483.109 76.1584 483.272 76.1584 483.442C76.1584 483.612 76.0925 483.775 75.9744 483.897V483.897Z" fill="white"/>
<path d="M99.0994 549.099C99.0094 549.189 98.8946 549.251 98.7697 549.276C98.6448 549.3 98.5153 549.288 98.3976 549.239C98.2799 549.19 98.1793 549.108 98.1086 549.002C98.0378 548.896 98 548.771 98 548.644C98 548.517 98.0378 548.392 98.1086 548.286C98.1793 548.18 98.2799 548.098 98.3976 548.049C98.5153 548 98.6448 547.988 98.7697 548.012C98.8946 548.037 99.0094 548.099 99.0994 548.189C99.2175 548.311 99.2834 548.474 99.2834 548.644C99.2834 548.814 99.2175 548.977 99.0994 549.099V549.099Z" fill="white"/>
<g style="mix-blend-mode:overlay">
<path d="M50.148 493.515C50.148 493.515 39.889 493.515 37.1133 493.515C34.6929 493.515 34.5042 494.237 37.1133 494.181C40.6662 494.126 50.148 493.515 50.148 493.515Z" fill="white"/>
</g>
<g style="mix-blend-mode:overlay">
<path d="M39.9231 609.473C39.9231 609.473 29.6752 609.473 26.8884 609.473C24.468 609.529 24.2903 610.195 26.8884 610.139C30.4524 610.084 39.9231 609.473 39.9231 609.473Z" fill="white"/>
</g>
<g style="mix-blend-mode:overlay">
<path d="M87.9428 575.854C87.9428 575.854 71.8993 575.854 67.547 575.909C63.7609 575.998 63.4722 577.02 67.6025 576.953C73.1206 576.798 87.9428 575.854 87.9428 575.854Z" fill="white"/>
</g>
<g style="mix-blend-mode:overlay">
<path d="M48.7844 445.074C48.7844 445.074 41.2234 445.074 39.1805 445.074C37.3929 445.074 37.2486 445.607 39.1805 445.562C41.8007 445.529 48.7844 445.074 48.7844 445.074Z" fill="white"/>
</g>
<g style="mix-blend-mode:overlay">
<path d="M23 530C23 530 7.22697 530 2.91192 530C-0.828534 530.088 -1.11019 531.102 2.91192 530.992C8.39868 530.926 23 530 23 530Z" fill="white"/>
</g>
<g style="mix-blend-mode:overlay">
<path d="M83.6752 517.591C83.6752 517.591 99.7187 517.591 104.06 517.524C107.857 517.435 108.146 516.414 104.004 516.492C98.4974 516.636 83.6752 517.591 83.6752 517.591Z" fill="white"/>
</g>
<path d="M141.311 713.107C141.305 713.431 141.203 713.746 141.018 714.012C140.833 714.278 140.573 714.484 140.272 714.603C139.97 714.721 139.64 714.749 139.324 714.681C139.007 714.613 138.717 714.452 138.491 714.22C138.265 713.988 138.113 713.694 138.053 713.376C137.994 713.057 138.03 712.728 138.157 712.43C138.284 712.132 138.496 711.878 138.767 711.7C139.038 711.522 139.355 711.429 139.679 711.431C139.898 711.431 140.113 711.474 140.314 711.559C140.515 711.644 140.697 711.768 140.849 711.924C141.002 712.081 141.121 712.266 141.2 712.469C141.28 712.672 141.317 712.889 141.311 713.107V713.107Z" fill="white"/>
<path d="M106.281 694.543C106.441 694.368 106.565 694.164 106.645 693.942C106.726 693.72 106.763 693.484 106.752 693.248C106.742 693.012 106.685 692.78 106.585 692.566C106.485 692.352 106.344 692.16 106.17 692C106.494 692.349 106.942 692.557 107.418 692.578C107.894 692.599 108.359 692.431 108.712 692.111V692.111C108.393 692.464 108.225 692.929 108.246 693.405C108.266 693.881 108.474 694.33 108.823 694.654V694.654C108.664 694.479 108.472 694.338 108.257 694.238C108.043 694.138 107.811 694.081 107.575 694.071C107.339 694.061 107.103 694.097 106.881 694.178C106.659 694.259 106.455 694.383 106.281 694.543V694.543Z" fill="white"/>
<path d="M3.85664 765.853C3.78649 765.923 3.69705 765.971 3.59971 765.99C3.50238 766.01 3.40148 766 3.30978 765.962C3.21808 765.924 3.13973 765.86 3.08459 765.778C3.02944 765.696 3 765.599 3 765.5C3 765.401 3.02944 765.304 3.08459 765.222C3.13973 765.14 3.21808 765.076 3.30978 765.038C3.40148 765 3.50238 764.99 3.59971 765.01C3.69705 765.029 3.78649 765.077 3.85664 765.147C3.94861 765.241 4 765.368 4 765.5C4 765.632 3.94861 765.759 3.85664 765.853V765.853Z" fill="white"/>
<path d="M17.0777 813.821C17.3063 813.568 17.4264 813.235 17.4118 812.895C17.3973 812.554 17.2493 812.233 17 812V812C17.1127 812.125 17.249 812.227 17.4012 812.299C17.5533 812.371 17.7182 812.413 17.8865 812.421C18.0547 812.429 18.2228 812.404 18.3813 812.347C18.5398 812.29 18.6854 812.202 18.8098 812.089C18.5818 812.34 18.4621 812.671 18.4767 813.01C18.4912 813.348 18.6389 813.668 18.8875 813.899V813.899C18.6568 813.65 18.3374 813.502 17.9986 813.488C17.6598 813.473 17.3289 813.593 17.0777 813.821Z" fill="url(#paint12_linear)"/>
<path d="M106.75 755.749C106.66 755.839 106.545 755.9 106.42 755.925C106.295 755.95 106.166 755.937 106.048 755.888C105.93 755.84 105.83 755.757 105.759 755.651C105.688 755.545 105.65 755.421 105.65 755.294C105.65 755.166 105.688 755.042 105.759 754.936C105.83 754.83 105.93 754.747 106.048 754.699C106.166 754.65 106.295 754.637 106.42 754.662C106.545 754.687 106.66 754.748 106.75 754.838C106.868 754.96 106.934 755.124 106.934 755.294C106.934 755.463 106.868 755.627 106.75 755.749V755.749Z" fill="white"/>
<g style="mix-blend-mode:overlay">
<path d="M68.5347 755.485C68.5347 755.485 58.2868 755.485 55.5 755.485C53.0796 755.54 52.8909 756.207 55.5 756.151C59.064 756.107 68.5347 755.485 68.5347 755.485Z" fill="white"/>
</g>
<g style="mix-blend-mode:overlay">
<path d="M72.1858 739.386C72.1858 739.386 64.6248 739.386 62.5708 739.386C60.7832 739.386 60.65 739.919 62.5708 739.875C65.2021 739.841 72.1858 739.386 72.1858 739.386Z" fill="white"/>
</g>
<g style="mix-blend-mode:overlay">
<path d="M79.5579 716.925C79.5579 716.925 71.9968 716.925 69.9539 716.925C68.1664 716.925 68.022 717.458 69.9539 717.414C72.5742 717.38 79.5579 716.925 79.5579 716.925Z" fill="white"/>
</g>
<g style="mix-blend-mode:overlay">
<path d="M114.799 739.897C114.799 739.897 99.2548 739.897 95.0024 739.897C91.3163 739.985 91.0387 741.007 95.0024 740.896C100.41 740.829 114.799 739.897 114.799 739.897Z" fill="white"/>
</g>
<g style="mix-blend-mode:overlay">
<path d="M114.451 789.442C114.451 789.442 130.494 789.442 134.835 789.376C138.632 789.287 138.921 788.265 134.78 788.343C129.273 788.487 114.451 789.442 114.451 789.442Z" fill="white"/>
</g>
<path d="M304.775 668.182C304.597 668.36 304.369 668.481 304.121 668.53C303.874 668.578 303.618 668.553 303.385 668.456C303.152 668.359 302.952 668.195 302.812 667.986C302.672 667.776 302.598 667.529 302.598 667.277C302.598 667.025 302.672 666.778 302.812 666.568C302.952 666.358 303.152 666.195 303.385 666.098C303.618 666.001 303.874 665.975 304.121 666.024C304.369 666.073 304.597 666.194 304.775 666.372C304.894 666.491 304.989 666.632 305.054 666.787C305.118 666.942 305.151 667.109 305.151 667.277C305.151 667.445 305.118 667.611 305.054 667.767C304.989 667.922 304.894 668.063 304.775 668.182V668.182Z" fill="white"/>
<path d="M246.9 601.392C246.722 601.57 246.494 601.691 246.246 601.74C245.999 601.789 245.743 601.763 245.51 601.666C245.277 601.57 245.077 601.406 244.937 601.196C244.797 600.986 244.723 600.74 244.723 600.487C244.723 600.235 244.797 599.988 244.937 599.779C245.077 599.569 245.277 599.405 245.51 599.308C245.743 599.212 245.999 599.186 246.246 599.235C246.494 599.283 246.722 599.405 246.9 599.582C247.019 599.701 247.114 599.842 247.179 599.997C247.243 600.153 247.276 600.319 247.276 600.487C247.276 600.656 247.243 600.822 247.179 600.977C247.114 601.133 247.019 601.274 246.9 601.392Z" fill="white"/>
<path d="M182.644 536.266C182.872 536.015 182.992 535.684 182.977 535.346C182.963 535.007 182.815 534.687 182.566 534.457V534.457C182.797 534.705 183.116 534.853 183.455 534.867C183.794 534.882 184.125 534.762 184.376 534.534V534.534C184.148 534.786 184.029 535.116 184.043 535.455C184.058 535.794 184.205 536.113 184.454 536.344V536.344C184.223 536.096 183.904 535.948 183.565 535.933C183.226 535.919 182.895 536.038 182.644 536.266V536.266Z" fill="white"/>
<path d="M181.343 613.92C181.572 613.667 181.692 613.334 181.677 612.993C181.663 612.653 181.515 612.331 181.266 612.099V612.099C181.495 612.349 181.813 612.499 182.152 612.515C182.491 612.532 182.823 612.414 183.075 612.188V612.188C182.847 612.439 182.728 612.77 182.742 613.108C182.757 613.447 182.904 613.767 183.153 613.997V613.997C183.04 613.873 182.903 613.772 182.75 613.701C182.598 613.63 182.433 613.589 182.264 613.582C182.096 613.575 181.928 613.601 181.77 613.659C181.612 613.717 181.467 613.805 181.343 613.92V613.92Z" fill="white"/>
<path d="M223.591 504.99C223.819 504.739 223.939 504.408 223.924 504.069C223.91 503.73 223.762 503.411 223.514 503.18V503.18C223.744 503.429 224.064 503.576 224.403 503.591C224.741 503.605 225.072 503.486 225.323 503.258V503.258C225.096 503.509 224.976 503.84 224.99 504.179C225.005 504.517 225.153 504.837 225.401 505.068C225.171 504.819 224.851 504.671 224.512 504.657C224.173 504.642 223.843 504.762 223.591 504.99V504.99Z" fill="white"/>
<path d="M233.23 514.25C233.458 513.998 233.578 513.668 233.563 513.329C233.549 512.99 233.401 512.67 233.152 512.44C233.383 512.688 233.702 512.836 234.041 512.851C234.38 512.865 234.711 512.745 234.962 512.518C234.734 512.769 234.614 513.1 234.629 513.438C234.644 513.777 234.791 514.097 235.04 514.327C234.809 514.079 234.49 513.931 234.151 513.917C233.812 513.902 233.481 514.022 233.23 514.25V514.25Z" fill="white"/>
<path d="M108 559.849C108.228 559.596 108.348 559.263 108.334 558.922C108.319 558.582 108.171 558.261 107.922 558.028V558.028C108.035 558.156 108.172 558.26 108.326 558.334C108.48 558.409 108.646 558.452 108.817 558.461C108.987 558.471 109.158 558.446 109.319 558.389C109.48 558.331 109.628 558.243 109.754 558.128V558.128C109.526 558.379 109.406 558.71 109.421 559.049C109.435 559.388 109.583 559.707 109.832 559.938C109.718 559.81 109.58 559.707 109.426 559.634C109.272 559.56 109.105 559.518 108.934 559.51C108.764 559.502 108.593 559.527 108.433 559.586C108.272 559.644 108.125 559.733 108 559.849V559.849Z" fill="white"/>
<path d="M167.156 524.242C166.977 524.42 166.75 524.541 166.502 524.59C166.255 524.639 165.998 524.613 165.765 524.516C165.532 524.419 165.333 524.256 165.193 524.046C165.053 523.836 164.979 523.589 164.979 523.337C164.979 523.085 165.053 522.838 165.193 522.628C165.333 522.419 165.532 522.255 165.765 522.158C165.998 522.061 166.255 522.036 166.502 522.084C166.75 522.133 166.977 522.254 167.156 522.432C167.275 522.551 167.37 522.692 167.434 522.847C167.499 523.002 167.532 523.169 167.532 523.337C167.532 523.505 167.499 523.672 167.434 523.827C167.37 523.982 167.275 524.123 167.156 524.242Z" fill="white"/>
<g style="mix-blend-mode:overlay">
<path d="M210.119 552.63C210.233 552.506 210.322 552.361 210.38 552.203C210.437 552.045 210.464 551.877 210.456 551.709C210.449 551.541 210.409 551.376 210.337 551.223C210.266 551.071 210.165 550.934 210.041 550.82V550.82C210.272 551.069 210.591 551.217 210.93 551.231C211.269 551.246 211.6 551.126 211.851 550.898V550.898C211.624 551.151 211.506 551.482 211.523 551.821C211.54 552.16 211.689 552.479 211.94 552.708C211.707 552.458 211.386 552.311 211.045 552.296C210.704 552.281 210.372 552.401 210.119 552.63Z" fill="white"/>
</g>
<g style="mix-blend-mode:overlay">
<path d="M259.726 532.723C259.954 532.471 260.074 532.141 260.059 531.802C260.045 531.463 259.897 531.144 259.648 530.913C259.882 531.158 260.203 531.302 260.542 531.312C260.881 531.323 261.21 531.199 261.458 530.968C261.23 531.219 261.111 531.55 261.125 531.889C261.14 532.228 261.287 532.547 261.536 532.778C261.302 532.533 260.981 532.389 260.642 532.379C260.304 532.368 259.974 532.492 259.726 532.723V532.723Z" fill="white"/>
</g>
<g style="mix-blend-mode:overlay">
<path d="M278.443 591.079C278.204 591.319 277.9 591.483 277.567 591.55C277.235 591.617 276.891 591.584 276.578 591.455C276.265 591.326 275.997 591.107 275.809 590.826C275.62 590.544 275.52 590.213 275.52 589.874C275.52 589.536 275.62 589.205 275.809 588.923C275.997 588.642 276.265 588.423 276.578 588.294C276.891 588.164 277.235 588.131 277.567 588.198C277.9 588.265 278.204 588.429 278.443 588.67C278.758 588.991 278.935 589.424 278.935 589.874C278.935 590.325 278.758 590.757 278.443 591.079V591.079Z" fill="white"/>
</g>
<g style="mix-blend-mode:overlay">
<path d="M260.348 474.466C260.348 474.466 250.1 474.466 247.324 474.466C244.893 474.522 244.715 475.188 247.324 475.132C250.922 475.088 260.348 474.466 260.348 474.466Z" fill="white"/>
</g>
<g style="mix-blend-mode:overlay">
<path d="M272.781 484.337C272.781 484.337 262.533 484.337 259.746 484.337C257.326 484.392 257.137 485.058 259.746 484.992C263.31 484.958 272.781 484.337 272.781 484.337Z" fill="white"/>
</g>
<g style="mix-blend-mode:overlay">
<path d="M226.37 537.53C226.37 537.53 205.275 537.53 199.524 537.619C194.539 537.73 194.161 539.107 199.602 538.974C206.852 538.807 226.37 537.53 226.37 537.53Z" fill="white"/>
</g>
<g style="mix-blend-mode:overlay">
<path d="M178.574 519.466C178.574 519.466 157.479 519.466 151.739 519.555C146.753 519.666 146.365 521.043 151.805 520.909C159.066 520.743 178.574 519.466 178.574 519.466Z" fill="white"/>
</g>
<g style="mix-blend-mode:overlay">
<path d="M264.042 458.356C264.042 458.356 256.481 458.356 254.438 458.356C252.651 458.356 252.506 458.889 254.438 458.845C257.014 458.8 264.042 458.356 264.042 458.356Z" fill="white"/>
</g>
<g style="mix-blend-mode:overlay">
<path d="M306.655 458.867C306.655 458.867 291.111 458.867 286.858 458.922C283.172 459.011 282.895 460.033 286.914 459.933C292.266 459.811 306.655 458.867 306.655 458.867Z" fill="white"/>
</g>
<path d="M244.964 523.876C245.192 523.625 245.312 523.294 245.298 522.955C245.283 522.616 245.135 522.297 244.887 522.066V522.066C245.117 522.315 245.437 522.462 245.776 522.477C246.114 522.491 246.445 522.372 246.696 522.144V522.144C246.469 522.395 246.349 522.726 246.363 523.064C246.378 523.403 246.526 523.723 246.774 523.953C246.544 523.705 246.224 523.557 245.885 523.543C245.546 523.528 245.216 523.648 244.964 523.876V523.876Z" fill="white"/>
<path d="M170.32 547.458C170.548 547.207 170.668 546.876 170.653 546.537C170.638 546.198 170.491 545.879 170.242 545.648C170.473 545.897 170.792 546.045 171.131 546.059C171.47 546.074 171.801 545.954 172.052 545.726V545.726C171.824 545.977 171.704 546.308 171.719 546.647C171.733 546.986 171.881 547.305 172.13 547.536C171.899 547.287 171.58 547.14 171.241 547.125C170.902 547.11 170.571 547.23 170.32 547.458V547.458Z" fill="white"/>
<path d="M229.475 511.862C229.296 512.04 229.068 512.162 228.821 512.21C228.573 512.259 228.317 512.234 228.084 512.137C227.851 512.04 227.652 511.876 227.512 511.666C227.372 511.457 227.297 511.21 227.297 510.958C227.297 510.705 227.372 510.459 227.512 510.249C227.652 510.039 227.851 509.875 228.084 509.779C228.317 509.682 228.573 509.656 228.821 509.705C229.068 509.754 229.296 509.875 229.475 510.053C229.594 510.171 229.688 510.312 229.753 510.468C229.817 510.623 229.851 510.789 229.851 510.958C229.851 511.126 229.817 511.292 229.753 511.448C229.688 511.603 229.594 511.744 229.475 511.862V511.862Z" fill="white"/>
<path d="M210.478 455.46C210.359 455.579 210.206 455.661 210.041 455.694C209.875 455.726 209.703 455.709 209.547 455.645C209.391 455.58 209.257 455.47 209.163 455.33C209.07 455.189 209.02 455.024 209.02 454.855C209.02 454.686 209.07 454.521 209.163 454.38C209.257 454.24 209.391 454.13 209.547 454.065C209.703 454 209.875 453.983 210.041 454.016C210.206 454.049 210.359 454.13 210.478 454.25C210.558 454.329 210.621 454.424 210.664 454.527C210.707 454.631 210.729 454.743 210.729 454.855C210.729 454.967 210.707 455.079 210.664 455.182C210.621 455.286 210.558 455.381 210.478 455.46Z" fill="white"/>
<path d="M279.049 477.677C278.929 477.796 278.777 477.877 278.611 477.91C278.445 477.943 278.273 477.926 278.117 477.861C277.961 477.797 277.828 477.687 277.734 477.547C277.64 477.406 277.59 477.241 277.59 477.072C277.59 476.903 277.64 476.737 277.734 476.597C277.828 476.456 277.961 476.347 278.117 476.282C278.273 476.217 278.445 476.2 278.611 476.233C278.777 476.266 278.929 476.347 279.049 476.467C279.128 476.546 279.191 476.64 279.234 476.744C279.278 476.848 279.3 476.959 279.3 477.072C279.3 477.184 279.278 477.295 279.234 477.399C279.191 477.503 279.128 477.597 279.049 477.677Z" fill="white"/>
<path d="M73.6207 721.668C73.8493 721.415 73.9693 721.082 73.9547 720.742C73.9402 720.401 73.7923 720.08 73.543 719.847C73.7721 720.097 74.0907 720.247 74.4296 720.264C74.7684 720.28 75.1002 720.162 75.3527 719.936C75.1248 720.187 75.0051 720.518 75.0197 720.857C75.0342 721.196 75.1818 721.515 75.4304 721.746C75.1997 721.497 74.8803 721.349 74.5415 721.335C74.2027 721.32 73.8718 721.44 73.6207 721.668Z" fill="url(#paint13_linear)"/>
<path d="M63.9937 728.885C64.2223 728.632 64.3424 728.299 64.3278 727.958C64.3133 727.618 64.1653 727.296 63.916 727.064C64.0287 727.189 64.1651 727.291 64.3172 727.363C64.4693 727.435 64.6342 727.477 64.8025 727.485C64.9707 727.493 65.1388 727.468 65.2973 727.411C65.4558 727.354 65.6014 727.266 65.7258 727.153C65.4978 727.404 65.3782 727.735 65.3927 728.073C65.4073 728.412 65.5549 728.732 65.8035 728.962C65.5728 728.714 65.2534 728.566 64.9146 728.552C64.5758 728.537 64.2449 728.657 63.9937 728.885Z" fill="url(#paint14_linear)"/>
<path d="M220.536 659.256C220.529 659.58 220.427 659.895 220.242 660.161C220.057 660.427 219.798 660.632 219.496 660.751C219.195 660.87 218.865 660.897 218.548 660.829C218.231 660.761 217.942 660.601 217.716 660.369C217.49 660.137 217.337 659.843 217.278 659.524C217.218 659.206 217.254 658.877 217.381 658.579C217.508 658.281 217.721 658.027 217.992 657.849C218.263 657.671 218.58 657.577 218.904 657.58C219.122 657.579 219.338 657.623 219.539 657.708C219.74 657.793 219.922 657.917 220.074 658.073C220.226 658.229 220.346 658.415 220.425 658.618C220.504 658.821 220.542 659.038 220.536 659.256Z" fill="white"/>
<path d="M185.506 640.691C185.665 640.517 185.789 640.313 185.87 640.091C185.951 639.869 185.987 639.633 185.977 639.397C185.967 639.161 185.91 638.929 185.81 638.715C185.71 638.501 185.569 638.308 185.395 638.149C185.718 638.498 186.167 638.706 186.643 638.727C187.119 638.747 187.584 638.58 187.937 638.26C187.617 638.613 187.449 639.078 187.47 639.554C187.491 640.03 187.699 640.478 188.048 640.802C187.888 640.628 187.696 640.487 187.482 640.387C187.268 640.287 187.036 640.23 186.8 640.22C186.564 640.209 186.328 640.246 186.106 640.327C185.884 640.408 185.68 640.531 185.506 640.691Z" fill="white"/>
<path d="M89.9744 711.897C89.8844 711.988 89.7696 712.049 89.6447 712.074C89.5198 712.099 89.3903 712.086 89.2726 712.037C89.1549 711.988 89.0543 711.906 88.9836 711.8C88.9128 711.694 88.875 711.57 88.875 711.442C88.875 711.315 88.9128 711.19 88.9836 711.084C89.0543 710.978 89.1549 710.896 89.2726 710.847C89.3903 710.798 89.5198 710.786 89.6447 710.811C89.7696 710.835 89.8844 710.897 89.9744 710.987C90.0925 711.109 90.1584 711.272 90.1584 711.442C90.1584 711.612 90.0925 711.775 89.9744 711.897Z" fill="white"/>
<path d="M262.078 669.821C262.306 669.568 262.426 669.235 262.412 668.895C262.397 668.554 262.249 668.233 262 668C262.229 668.25 262.548 668.4 262.887 668.416C263.225 668.433 263.557 668.315 263.81 668.089C263.582 668.34 263.462 668.671 263.477 669.01C263.491 669.348 263.639 669.668 263.887 669.899C263.657 669.65 263.337 669.502 262.999 669.488C262.66 669.473 262.329 669.593 262.078 669.821Z" fill="url(#paint15_linear)"/>
<path d="M159.994 718.885C160.222 718.632 160.342 718.299 160.328 717.958C160.313 717.618 160.165 717.296 159.916 717.064C160.029 717.189 160.165 717.291 160.317 717.363C160.469 717.435 160.634 717.477 160.802 717.485C160.971 717.493 161.139 717.468 161.297 717.411C161.456 717.354 161.601 717.266 161.726 717.153C161.498 717.404 161.378 717.735 161.393 718.073C161.407 718.412 161.555 718.732 161.804 718.962C161.573 718.714 161.253 718.566 160.915 718.552C160.576 718.537 160.245 718.657 159.994 718.885Z" fill="url(#paint16_linear)"/>
<path d="M249.099 713.099C249.009 713.189 248.895 713.251 248.77 713.276C248.645 713.3 248.515 713.288 248.398 713.239C248.28 713.19 248.179 713.108 248.109 713.002C248.038 712.896 248 712.771 248 712.644C248 712.517 248.038 712.392 248.109 712.286C248.179 712.18 248.28 712.098 248.398 712.049C248.515 712 248.645 711.988 248.77 712.012C248.895 712.037 249.009 712.099 249.099 712.189C249.217 712.311 249.283 712.474 249.283 712.644C249.283 712.814 249.217 712.977 249.099 713.099Z" fill="white"/>
<g style="mix-blend-mode:overlay">
<path d="M97.7635 691.748C97.7635 691.748 87.5168 691.591 84.7303 691.548C82.3093 691.567 82.1104 692.23 84.7201 692.215C88.2843 692.225 97.7635 691.748 97.7635 691.748Z" fill="white"/>
</g>
<g style="mix-blend-mode:overlay">
<path d="M160.148 711.515C160.148 711.515 149.889 711.515 147.113 711.515C144.693 711.515 144.504 712.237 147.113 712.181C150.666 712.126 160.148 711.515 160.148 711.515Z" fill="white"/>
</g>
<g style="mix-blend-mode:overlay">
<path d="M197.943 793.854C197.943 793.854 181.899 793.854 177.547 793.909C173.761 793.998 173.472 795.02 177.602 794.953C183.121 794.798 197.943 793.854 197.943 793.854Z" fill="white"/>
</g>
<g style="mix-blend-mode:overlay">
<path d="M113.738 764.709C113.738 764.709 92.6427 764.653 86.8914 764.787C81.9062 764.909 81.5176 766.274 86.9691 766.152C94.2192 765.986 113.738 764.709 113.738 764.709Z" fill="white"/>
</g>
<g style="mix-blend-mode:overlay">
<path d="M65.9415 746.645C65.9415 746.645 44.8461 746.645 39.1059 746.722C34.1096 746.844 33.7322 748.21 39.1725 748.088C46.4782 747.921 65.9415 746.645 65.9415 746.645Z" fill="white"/>
</g>
<g style="mix-blend-mode:overlay">
<path d="M151.412 685.535C151.412 685.535 143.851 685.535 141.797 685.535C140.01 685.535 139.877 686.068 141.797 686.023C144.429 685.99 151.412 685.535 151.412 685.535Z" fill="white"/>
</g>
<g style="mix-blend-mode:overlay">
<path d="M158.784 663.074C158.784 663.074 151.223 663.074 149.18 663.074C147.393 663.074 147.249 663.607 149.18 663.562C151.801 663.529 158.784 663.074 158.784 663.074Z" fill="white"/>
</g>
<g style="mix-blend-mode:overlay">
<path d="M194.025 686.045C194.025 686.045 178.481 686.045 174.229 686.045C170.543 686.134 170.265 687.156 174.229 687.045C179.636 686.978 194.025 686.045 194.025 686.045Z" fill="white"/>
</g>
<g style="mix-blend-mode:overlay">
<path d="M288.666 731C288.666 731 273.122 731 268.87 731C265.183 731.089 264.906 732.11 268.87 731.999C274.277 731.933 288.666 731 288.666 731Z" fill="white"/>
</g>
<g style="mix-blend-mode:overlay">
<path d="M193.675 735.591C193.675 735.591 209.719 735.591 214.06 735.524C217.857 735.435 218.146 734.414 214.004 734.492C208.497 734.636 193.675 735.591 193.675 735.591Z" fill="white"/>
</g>
<path d="M232.286 785.677C232.279 786.001 232.177 786.315 231.992 786.581C231.807 786.847 231.548 787.053 231.246 787.172C230.945 787.291 230.615 787.318 230.298 787.25C229.981 787.182 229.692 787.022 229.466 786.789C229.24 786.557 229.087 786.263 229.028 785.945C228.968 785.626 229.004 785.297 229.131 784.999C229.258 784.701 229.471 784.447 229.742 784.269C230.013 784.092 230.33 783.998 230.654 784C230.872 784 231.088 784.044 231.289 784.128C231.49 784.213 231.672 784.337 231.824 784.494C231.976 784.65 232.096 784.835 232.175 785.038C232.254 785.242 232.292 785.459 232.286 785.677Z" fill="white"/>
<g style="mix-blend-mode:overlay">
<path d="M113.738 764.709C113.738 764.709 92.6427 764.653 86.8914 764.787C81.9062 764.909 81.5176 766.274 86.9691 766.152C94.2192 765.986 113.738 764.709 113.738 764.709Z" fill="white"/>
</g>
<defs>
<linearGradient id="paint0_linear" x1="-2796.93" y1="-2785.63" x2="-2792.38" y2="-2785.63" gradientUnits="userSpaceOnUse">
<stop stop-color="white"/>
<stop offset="0.21" stop-color="#76FFFF"/>
<stop offset="1" stop-color="#FEED58"/>
</linearGradient>
<linearGradient id="paint1_linear" x1="-2771.48" y1="-2443.48" x2="-2766.93" y2="-2443.48" gradientUnits="userSpaceOnUse">
<stop stop-color="white"/>
<stop offset="0.21" stop-color="#76FFFF"/>
<stop offset="1" stop-color="#FEED58"/>
</linearGradient>
<linearGradient id="paint2_linear" x1="-2819.48" y1="-2402.48" x2="-2814.93" y2="-2402.48" gradientUnits="userSpaceOnUse">
<stop stop-color="white"/>
<stop offset="0.21" stop-color="#76FFFF"/>
<stop offset="1" stop-color="#FEED58"/>
</linearGradient>
<linearGradient id="paint3_linear" x1="-2554.94" y1="-2850.7" x2="-2550.39" y2="-2850.7" gradientUnits="userSpaceOnUse">
<stop stop-color="white"/>
<stop offset="0.21" stop-color="#76FFFF"/>
<stop offset="1" stop-color="#FEED58"/>
</linearGradient>
<linearGradient id="paint4_linear" x1="-2471.55" y1="-2833.11" x2="-2467" y2="-2833.11" gradientUnits="userSpaceOnUse">
<stop stop-color="white"/>
<stop offset="0.21" stop-color="#76FFFF"/>
<stop offset="1" stop-color="#FEED58"/>
</linearGradient>
<linearGradient id="paint5_linear" x1="-2697.48" y1="-2361.95" x2="-2692.93" y2="-2361.95" gradientUnits="userSpaceOnUse">
<stop stop-color="white"/>
<stop offset="0.21" stop-color="#76FFFF"/>
<stop offset="1" stop-color="#FEED58"/>
</linearGradient>
<linearGradient id="paint6_linear" x1="-2745.48" y1="-2320.95" x2="-2740.93" y2="-2320.95" gradientUnits="userSpaceOnUse">
<stop stop-color="white"/>
<stop offset="0.21" stop-color="#76FFFF"/>
<stop offset="1" stop-color="#FEED58"/>
</linearGradient>
<linearGradient id="paint7_linear" x1="-2572.77" y1="-2562.1" x2="-2568.23" y2="-2562.1" gradientUnits="userSpaceOnUse">
<stop stop-color="white"/>
<stop offset="0.21" stop-color="#76FFFF"/>
<stop offset="1" stop-color="#FEED58"/>
</linearGradient>
<linearGradient id="paint8_linear" x1="-2821.24" y1="-2571.44" x2="-2816.42" y2="-2571.44" gradientUnits="userSpaceOnUse">
<stop stop-color="white"/>
<stop offset="0.21" stop-color="#76FFFF"/>
<stop offset="1" stop-color="#FEED58"/>
</linearGradient>
<linearGradient id="paint9_linear" x1="-2746.48" y1="-2805.48" x2="-2741.93" y2="-2805.48" gradientUnits="userSpaceOnUse">
<stop stop-color="white"/>
<stop offset="0.21" stop-color="#76FFFF"/>
<stop offset="1" stop-color="#FEED58"/>
</linearGradient>
<linearGradient id="paint10_linear" x1="-2768.93" y1="-2473.63" x2="-2764.38" y2="-2473.63" gradientUnits="userSpaceOnUse">
<stop stop-color="white"/>
<stop offset="0.21" stop-color="#76FFFF"/>
<stop offset="1" stop-color="#FEED58"/>
</linearGradient>
<linearGradient id="paint11_linear" x1="-2810.47" y1="-2470.1" x2="-2805.92" y2="-2470.1" gradientUnits="userSpaceOnUse">
<stop stop-color="white"/>
<stop offset="0.21" stop-color="#76FFFF"/>
<stop offset="1" stop-color="#FEED58"/>
</linearGradient>
<linearGradient id="paint12_linear" x1="-2814.47" y1="-2133.1" x2="-2809.92" y2="-2133.1" gradientUnits="userSpaceOnUse">
<stop stop-color="white"/>
<stop offset="0.21" stop-color="#76FFFF"/>
<stop offset="1" stop-color="#FEED58"/>
</linearGradient>
<linearGradient id="paint13_linear" x1="-2754.93" y1="-2245.63" x2="-2750.38" y2="-2245.63" gradientUnits="userSpaceOnUse">
<stop stop-color="white"/>
<stop offset="0.21" stop-color="#76FFFF"/>
<stop offset="1" stop-color="#FEED58"/>
</linearGradient>
<linearGradient id="paint14_linear" x1="-2767.55" y1="-2218.04" x2="-2763" y2="-2218.04" gradientUnits="userSpaceOnUse">
<stop stop-color="white"/>
<stop offset="0.21" stop-color="#76FFFF"/>
<stop offset="1" stop-color="#FEED58"/>
</linearGradient>
<linearGradient id="paint15_linear" x1="-2566.48" y1="-2297.48" x2="-2561.93" y2="-2297.48" gradientUnits="userSpaceOnUse">
<stop stop-color="white"/>
<stop offset="0.21" stop-color="#76FFFF"/>
<stop offset="1" stop-color="#FEED58"/>
</linearGradient>
<linearGradient id="paint16_linear" x1="-2671.55" y1="-2228.04" x2="-2667" y2="-2228.04" gradientUnits="userSpaceOnUse">
<stop stop-color="white"/>
<stop offset="0.21" stop-color="#76FFFF"/>
<stop offset="1" stop-color="#FEED58"/>
</linearGradient>
<clipPath id="clip0">
<rect width="382" height="812" fill="white" transform="translate(3)"/>
</clipPath>
</defs>
</svg>
