<svg width="20" height="16" viewBox="0 0 20 16" fill="none" xmlns="http://www.w3.org/2000/svg">
<path d="M11.1793 11.1789C11.0733 11.1789 11.0203 11.1259 10.9674 11.0729L8.63623 8.74182C8.58325 8.68883 8.53027 8.58287 8.53027 8.52989V5.24513C8.53027 5.08619 8.68921 4.92725 8.84815 4.92725C8.95411 4.92725 9.00709 4.98023 9.06007 5.03321C9.11305 5.08619 9.16603 5.19215 9.16603 5.24513V8.37095L11.3912 10.5961C11.4972 10.7021 11.4972 10.914 11.3912 11.0729C11.3382 11.1259 11.2852 11.1789 11.1793 11.1789Z" fill="white" stroke="white" stroke-width="0.1"/>
<path d="M9.37717 15.3642C7.25796 15.3642 5.2977 14.5165 3.86723 12.9271C3.81425 12.8742 3.81425 12.7682 3.81425 12.7152C3.81425 12.6093 3.86723 12.5563 3.92021 12.5033C3.97319 12.4503 4.02617 12.4503 4.13213 12.4503C4.23809 12.4503 4.34405 12.5033 4.39703 12.5563C5.66856 13.9338 7.46988 14.7285 9.37717 14.7285C13.0858 14.7285 16.1586 11.7086 16.1586 7.947C16.1586 4.23839 13.1388 1.16555 9.37717 1.16555C6.6222 1.16555 4.13213 2.86091 3.12551 5.45694L2.38379 5.50992C3.39041 2.59601 6.25134 0.529785 9.37717 0.529785C13.4566 0.529785 16.7944 3.86753 16.7944 7.947C16.7944 12.0265 13.4566 15.3642 9.37717 15.3642Z" fill="white" stroke="white" stroke-width="0.1"/>
<path d="M5.48871 4.5455L2.95495 6.2254C2.79946 6.32848 2.58985 6.28601 2.48676 6.13052L0.806864 3.59676C0.703778 3.44128 0.746254 3.23166 0.901738 3.12858C1.05722 3.02549 1.26684 3.06796 1.36992 3.22345L2.59919 5.07754L3.26131 5.21171L5.1154 3.98244C5.27088 3.87935 5.4805 3.92183 5.58358 4.07732C5.68667 4.2328 5.64419 4.44241 5.48871 4.5455Z" fill="white" stroke="white" stroke-width="0.1"/>
</svg>
