<svg width="16" height="16" viewBox="0 0 16 16" fill="none" xmlns="http://www.w3.org/2000/svg">
<g clip-path="url(#clip0)">
<path d="M15.8299 6.50198L8.24561 0.948949C8.09936 0.841887 7.90067 0.841887 7.75449 0.948949L0.170174 6.50198C-0.0150757 6.63764 -0.0553257 6.89776 0.0803306 7.08301C0.215987 7.26826 0.476143 7.30845 0.661362 7.17286L8.00002 1.79961L15.3387 7.17282C15.4127 7.22704 15.4987 7.25314 15.5839 7.25314C15.7119 7.25314 15.8382 7.19423 15.9197 7.08298C16.0554 6.89776 16.0151 6.63764 15.8299 6.50198Z" fill="#76FFFF"/>
<path d="M13.8197 5.17407C13.5902 5.17407 13.404 5.3602 13.404 5.58979V14.2999H10.0783V10.6878C10.0783 9.54159 9.14577 8.60908 7.99958 8.60908C6.85339 8.60908 5.92083 9.54165 5.92083 10.6878V14.2999H2.59511V5.74518C2.59511 5.51559 2.40895 5.32946 2.17939 5.32946C1.94983 5.32946 1.76367 5.51559 1.76367 5.74518V14.7157C1.76367 14.9453 1.94983 15.1314 2.17939 15.1314H6.33655C6.55517 15.1314 6.73408 14.9625 6.75064 14.748C6.75164 14.7383 6.75227 14.7277 6.75227 14.7157V10.6879C6.75227 10.0001 7.3118 9.44055 7.99958 9.44055C8.68736 9.44055 9.24689 10.0001 9.24689 10.6879V14.7157C9.24689 14.7276 9.24752 14.7381 9.24852 14.7477C9.26489 14.9623 9.44386 15.1314 9.66261 15.1314H13.8198C14.0494 15.1314 14.2355 14.9453 14.2355 14.7157V5.58982C14.2354 5.3602 14.0493 5.17407 13.8197 5.17407Z" fill="#76FFFF"/>
</g>
<defs>
<clipPath id="clip0">
<rect width="16" height="16" fill="white"/>
</clipPath>
</defs>
</svg>
