<svg width="31" height="28" viewBox="0 0 31 28" fill="none" xmlns="http://www.w3.org/2000/svg">
<path d="M6.16198 20.942L6.08475 20.8135L5.25248 19.4286L6.16198 20.942ZM6.16198 20.942L6.29053 20.8649M6.16198 20.942L6.29053 20.8649M6.29053 20.8649L7.20465 20.3161L7.33329 20.2389L7.25602 20.1102L6.42401 18.7252L6.42398 18.7251C6.32092 18.5537 6.29117 18.3554 6.33892 18.1655C6.38684 17.9756 6.50619 17.8148 6.67654 17.7127L6.67654 17.7127L6.67706 17.7124C7.02436 17.5023 7.47938 17.6157 7.68929 17.9644C7.6893 17.9644 7.68931 17.9644 7.68932 17.9644L9.33528 20.7042L9.4125 20.8328L9.54106 20.7556L10.4558 20.2065L10.5844 20.1293L10.5072 20.0007L8.86084 17.2605C8.86084 17.2605 8.86084 17.2605 8.86084 17.2605C8.26289 16.2651 6.96694 15.9439 5.97283 16.5407L5.97278 16.5407C5.49087 16.8302 5.14969 17.2893 5.01331 17.8329L5.01331 17.8329M6.29053 20.8649L5.01331 17.8329M5.01331 17.8329C4.87661 18.3781 4.96156 18.9452 5.25243 19.4285L5.01331 17.8329Z" fill="#76FFFF" stroke="#76FFFF" stroke-width="0.3"/>
<path d="M11.7374 19.513L11.2253 19.835L6.12674 19.9279L3.8859 18.7452L11.7374 19.513ZM11.7374 19.513C11.2861 19.2421 10.7672 18.8944 10.3164 18.4987C9.79694 18.0427 9.34584 17.504 9.21614 16.9278L11.7374 19.513ZM1.1876 19.3747C1.79321 18.5357 2.94683 18.2489 3.88582 18.7452L1.1876 19.3747ZM1.1876 19.3747L1.17107 19.3651L1.09771 19.5025L1.03789 19.6145L0.969827 19.7419L0.985027 19.7508C0.6169 20.7228 1.02058 21.8458 1.96196 22.3523L2.03211 22.222L1.96197 22.3523L5.42982 24.2184L5.45401 24.2314L5.48125 24.235L11.6064 25.0443C12.0103 25.2411 13.1206 25.6272 15.6038 25.6272C17.6065 25.6272 20.5068 25.3755 24.6552 24.5678L24.8025 24.5391L24.7738 24.3918L24.5696 23.3446L24.5409 23.1974L24.3937 23.2261C19.4889 24.1825 16.4267 24.323 14.594 24.2259C13.6779 24.1774 13.0701 24.0695 12.6936 23.975C12.5054 23.9277 12.3751 23.8838 12.293 23.8524C12.2519 23.8367 12.223 23.8241 12.2048 23.8157C12.1976 23.8124 12.1921 23.8098 12.1883 23.8079C12.1873 23.8074 12.1864 23.8069 12.1856 23.8065L12.1853 23.8064L12.0904 23.7448L12.062 23.7263L12.0283 23.7218L5.88107 22.909L2.60958 21.149C2.26724 20.9648 2.1269 20.5513 2.27536 20.2049C2.4815 19.8869 2.90453 19.7731 3.24794 19.9545L3.24798 19.9545L5.7657 21.2834L5.79984 21.3015L5.83845 21.3008L11.5893 21.1961L11.6311 21.1953L11.6665 21.173L14.2684 19.5353L14.4976 19.391L14.2538 19.2732L13.387 18.8545L13.3217 18.9896L13.387 18.8545C12.8367 18.5887 12.1553 18.1889 11.5936 17.7692C11.3126 17.5593 11.0652 17.347 10.8797 17.1465C10.6907 16.9423 10.5806 16.7656 10.5496 16.6276L10.5496 16.6275C10.5412 16.5902 10.5425 16.5685 10.5464 16.5528C10.5503 16.537 10.5596 16.5157 10.5849 16.4838C10.587 16.4825 10.5919 16.4798 10.601 16.4762C10.6206 16.4686 10.6518 16.4605 10.6977 16.4549C10.7896 16.4435 10.9227 16.4437 11.1002 16.4622C11.4542 16.499 11.9636 16.606 12.6306 16.8126C13.9635 17.2255 15.911 18.0319 18.4781 19.4499L18.4782 19.4499L18.5981 19.5161L18.6318 19.5347L18.6703 19.5348L24.7572 19.5488L24.9072 19.5492L24.9075 19.3992L24.9099 18.3325L24.9103 18.1825L24.7603 18.1821L18.9848 18.1691C17.7434 17.4885 15.7424 16.4562 13.888 15.7825C12.9534 15.4429 12.0471 15.1911 11.2898 15.1245C10.5421 15.0588 9.88802 15.1697 9.52373 15.6217L9.5237 15.6217C9.21777 16.0016 9.10977 16.4557 9.21613 16.9278L1.1876 19.3747Z" fill="#76FFFF" stroke="#76FFFF" stroke-width="0.3"/>
<path d="M9.3832 6.86745C9.3832 10.1856 12.0822 12.8849 15.4007 12.8849C18.7188 12.8849 21.4181 10.1856 21.4181 6.86745C21.4181 3.54933 18.7188 0.85 15.4007 0.85C12.0822 0.85 9.3832 3.54933 9.3832 6.86745ZM10.7499 6.86745C10.7499 4.30287 12.8364 2.21673 15.4007 2.21673C17.9646 2.21673 20.0511 4.30286 20.0511 6.86745C20.0511 9.43174 17.9646 11.5182 15.4007 11.5182C12.8364 11.5182 10.7499 9.43174 10.7499 6.86745Z" fill="#76FFFF" stroke="#76FFFF" stroke-width="0.3"/>
<path d="M24.5003 26.9132H29.2983C29.6756 26.9132 29.9815 26.6077 29.9815 26.23V17.1529C29.9815 16.7753 29.6757 16.4694 29.2983 16.4694H24.5003C24.123 16.4694 23.8168 16.7752 23.8168 17.1529V26.23C23.8168 26.6079 24.1231 26.9132 24.5003 26.9132ZM28.6148 17.8361V25.5465H25.1838V17.8361H28.6148Z" fill="#76FFFF" stroke="#76FFFF" stroke-width="0.3"/>
</svg>
