<svg width="24" height="24" viewBox="0 0 24 24" fill="none" xmlns="http://www.w3.org/2000/svg">
<path d="M7.25 3.5C5.18775 3.5 3.5 5.18775 3.5 7.25V16.25C3.5 18.3123 5.18775 20 7.25 20H16.25C18.3123 20 20 18.3123 20 16.25V7.25C20 5.18775 18.3123 3.5 16.25 3.5H7.25ZM7.25 5H16.25C17.5017 5 18.5 5.99825 18.5 7.25V16.25C18.5 16.5985 18.4161 16.9236 18.2773 17.2168L13.1367 12.0771C12.7568 11.6972 12.2536 11.5068 11.75 11.5068C11.2464 11.5068 10.7422 11.6972 10.3623 12.0771L5.22266 17.2168C5.08394 16.9236 5 16.5985 5 16.25V7.25C5 5.99825 5.99825 5 7.25 5ZM14.75 7.5C14.4185 7.5 14.1005 7.6317 13.8661 7.86612C13.6317 8.10054 13.5 8.41848 13.5 8.75C13.5 9.08152 13.6317 9.39946 13.8661 9.63388C14.1005 9.8683 14.4185 10 14.75 10C15.0815 10 15.3995 9.8683 15.6339 9.63388C15.8683 9.39946 16 9.08152 16 8.75C16 8.41848 15.8683 8.10054 15.6339 7.86612C15.3995 7.6317 15.0815 7.5 14.75 7.5ZM11.75 12.998C11.8668 12.998 11.9831 13.0446 12.0762 13.1377L17.2168 18.2773C16.9236 18.4161 16.5985 18.5 16.25 18.5H7.25C6.90145 18.5 6.57636 18.4161 6.2832 18.2773L11.4229 13.1377C11.5159 13.0446 11.6332 12.998 11.75 12.998Z" fill="#9CA5FF"/>
</svg>
