<svg width="24" height="24" viewBox="0 0 24 24" fill="none" xmlns="http://www.w3.org/2000/svg">
<path d="M12.0306 1.6001C11.3226 1.6001 10.6404 1.83754 10.0884 2.27354C9.92598 2.24794 9.76096 2.23604 9.59776 2.23604C8.30416 2.23604 7.15653 3.02144 6.68213 4.21104C5.30693 4.73584 4.48576 6.13628 4.69776 7.59228C3.77136 8.73468 3.76156 10.3566 4.67276 11.511C4.44156 12.963 5.24229 14.3748 6.60869 14.9188C6.87563 15.6166 7.37646 16.1705 7.99932 16.522V21.6001C7.99932 21.8123 8.0836 22.0158 8.23363 22.1658C8.38366 22.3158 8.58715 22.4001 8.79932 22.4001C9.00463 22.4002 9.20211 22.3213 9.35088 22.1798C9.35298 22.1777 9.35506 22.1756 9.35713 22.1735L11.9993 20.0001L14.6478 22.1798C14.6483 22.1798 14.6488 22.1798 14.6493 22.1798C14.7977 22.3209 14.9945 22.3998 15.1993 22.4001C15.4115 22.4001 15.615 22.3158 15.765 22.1658C15.915 22.0158 15.9993 21.8123 15.9993 21.6001V16.5188C16.5831 16.1725 17.0546 15.6456 17.3165 14.9892C18.6909 14.4636 19.5129 13.0631 19.3009 11.6079C20.2273 10.4655 20.2371 8.84356 19.3259 7.68916C19.5571 6.23716 18.7548 4.82535 17.3884 4.28135C16.9244 3.06855 15.7699 2.26572 14.4571 2.26572C14.3067 2.26572 14.1567 2.27694 14.0071 2.29854C13.4495 1.84654 12.7538 1.6001 12.0306 1.6001ZM12.0306 3.2001C12.4042 3.2001 12.7784 3.33519 13.0728 3.60478L13.5321 4.0251L14.1415 3.89854C14.2471 3.87694 14.3531 3.86572 14.4571 3.86572C15.1171 3.86572 15.7203 4.29261 15.9259 4.94541L16.1134 5.53916L16.7056 5.73447C17.4576 5.98247 17.8986 6.75855 17.7274 7.53135L17.5931 8.14072L18.0087 8.60478C18.5359 9.19518 18.529 10.0895 17.9946 10.6735L17.5743 11.1313L17.7024 11.7423C17.864 12.5175 17.4108 13.2875 16.6556 13.5251L16.0603 13.7126L15.8649 14.3048C15.6529 14.9472 15.0544 15.3642 14.4024 15.3642C14.292 15.3642 14.1809 15.3515 14.0681 15.3267L13.4587 15.1923L12.9946 15.6079C12.701 15.8703 12.3345 16.0001 11.9681 16.0001C11.5945 16.0001 11.2203 15.865 10.9259 15.5954L10.4665 15.1751L9.85713 15.3017C9.75153 15.3233 9.64551 15.3345 9.54151 15.3345C8.88151 15.3345 8.27836 14.9076 8.07276 14.2548L7.88526 13.661L7.29307 13.4657C6.54107 13.2177 6.09999 12.4416 6.27119 11.6688L6.40557 11.0595L5.99151 10.5938C5.46431 10.0034 5.46961 9.11066 6.00401 8.52666L6.42432 8.06728L6.29776 7.45635C6.13616 6.68115 6.58943 5.91113 7.34463 5.67353L7.93994 5.48603L8.13526 4.89385C8.34726 4.25145 8.94576 3.83447 9.59776 3.83447C9.70816 3.83447 9.82089 3.84717 9.93369 3.87197L10.5415 4.00635L11.0056 3.59072C11.2976 3.32992 11.6642 3.2001 12.0306 3.2001ZM11.9993 5.6001C10.9385 5.6001 9.92104 6.02152 9.17089 6.77167C8.42075 7.52182 7.99932 8.53923 7.99932 9.6001C7.99932 10.661 8.42075 11.6784 9.17089 12.4285C9.92104 13.1787 10.9385 13.6001 11.9993 13.6001C13.0602 13.6001 14.0776 13.1787 14.8277 12.4285C15.5779 11.6784 15.9993 10.661 15.9993 9.6001C15.9993 8.53923 15.5779 7.52182 14.8277 6.77167C14.0776 6.02152 13.0602 5.6001 11.9993 5.6001Z" fill="white"/>
</svg>
