<svg width="24" height="24" viewBox="0 0 24 24" fill="none" xmlns="http://www.w3.org/2000/svg">
<path d="M1 4.5V12V19.5H23V12V4.5H1Z" fill="#FF3D00"/>
<path d="M5 6.74504L5.5905 8.62004H7.5L5.955 9.68354L6.545 11.5L5 10.3775L3.455 11.5L4.045 9.68354L2.5 8.62004H4.4095L5 6.74504ZM8.737 5.48804L8.914 6.05054H9.487L9.0235 6.36854L9.2005 6.91404L8.737 6.57704L8.2735 6.91404L8.4505 6.36854L7.987 6.05054H8.56L8.737 5.48804ZM8.75 12L8.927 12.5625H9.5L9.0365 12.881L9.2135 13.4265L8.75 13.0895L8.2865 13.4265L8.4635 12.881L8 12.5625H8.573L8.75 12ZM10.75 7.50004L10.927 8.06254H11.5L11.0365 8.38104L11.2135 8.92654L10.75 8.58954L10.2865 8.92654L10.4635 8.38104L10 8.06254H10.573L10.75 7.50004ZM10.75 10L10.927 10.5625H11.5L11.0365 10.881L11.2135 11.4265L10.75 11.0895L10.2865 11.4265L10.4635 10.881L10 10.5625H10.573L10.75 10Z" fill="#FFEB3B"/>
</svg>
