<svg width="16" height="16" viewBox="0 0 16 16" fill="none" xmlns="http://www.w3.org/2000/svg">
<path d="M7.99075 0.000732422C7.70395 0.000732422 7.41736 0.0161502 7.13219 0.0468856C6.87083 0.073583 6.61266 0.117367 6.35797 0.170495C6.30868 0.180807 6.25936 0.191686 6.21007 0.203066C4.70944 0.544726 3.33919 1.31198 2.26365 2.41281C2.16364 2.51533 2.06572 2.62088 1.96998 2.72944C-0.935366 6.06489 -0.586698 11.124 2.74878 14.0294C5.94206 16.8109 10.7488 16.6258 13.7187 13.607C13.8189 13.5045 13.9168 13.399 14.0124 13.2904C15.2946 11.8303 16.0011 9.95313 16 8.00993C16 3.58653 12.4141 0.00069905 7.99075 0.000732422ZM2.61953 2.81327C2.66171 2.76949 2.7055 2.72757 2.74848 2.68512C2.79814 2.63627 2.84753 2.58715 2.89825 2.53989C2.94284 2.49824 2.98875 2.4582 3.03441 2.41762C3.08593 2.37196 3.13719 2.32631 3.19005 2.28226C3.23651 2.24302 3.2843 2.20537 3.33182 2.16746C3.38521 2.12475 3.43861 2.08203 3.4936 2.04092C3.54219 2.00434 3.59158 1.96883 3.64124 1.93413C3.6965 1.89461 3.75203 1.85403 3.80837 1.81719C3.85882 1.78302 3.90982 1.74991 3.96108 1.71708C4.01821 1.6805 4.07561 1.64446 4.13354 1.61029C4.1857 1.57915 4.23819 1.54852 4.29106 1.51845C4.35016 1.48481 4.40949 1.45197 4.46913 1.41993C4.52252 1.39147 4.57592 1.3636 4.62931 1.33637C4.69018 1.30567 4.75159 1.27604 4.81326 1.24693C4.86665 1.22157 4.92218 1.19621 4.97718 1.17218C5.03992 1.14548 5.10346 1.11879 5.167 1.09209C5.22226 1.0694 5.27726 1.04724 5.33306 1.02588C5.39766 1.00132 5.46307 0.978359 5.52848 0.955399C5.58428 0.93591 5.64008 0.916421 5.69667 0.898C5.76315 0.876642 5.83016 0.856885 5.89744 0.837396C5.95377 0.821111 6.00957 0.804292 6.06617 0.789074C6.08779 0.783468 6.10942 0.778929 6.13104 0.773323C5.3408 1.54064 4.75436 2.49294 4.42481 3.54398C3.79115 3.37686 3.17771 3.14078 2.5955 2.83997C2.60431 2.83063 2.61179 2.82128 2.61953 2.81327ZM2.23562 3.2431C2.87693 3.59057 3.55698 3.86121 4.26169 4.04936C3.91622 5.25061 3.73488 6.49308 3.72267 7.74295H0.521646C0.579813 6.09475 1.18254 4.51233 2.23562 3.2431ZM2.23562 12.7768C1.18261 11.5075 0.57988 9.92507 0.521646 8.2769H3.72267C3.73488 9.52677 3.91619 10.7692 4.26169 11.9705C3.55701 12.1587 2.87696 12.4293 2.23562 12.7768ZM6.06457 15.2318C6.01064 15.2182 5.95484 15.2006 5.89931 15.1843C5.83176 15.1646 5.76395 15.1448 5.69721 15.1232C5.64088 15.105 5.58535 15.0855 5.52982 15.0661C5.46414 15.0434 5.39846 15.0201 5.33359 14.9953C5.27806 14.9742 5.22333 14.9521 5.16833 14.9296C5.10453 14.9029 5.04072 14.8762 4.97745 14.8495C4.92298 14.8255 4.86879 14.8008 4.81486 14.7753C4.75265 14.746 4.69072 14.7161 4.62798 14.6851C4.57458 14.6584 4.52119 14.6317 4.46779 14.6026C4.40746 14.5703 4.34765 14.5372 4.28785 14.503C4.23446 14.4734 4.18373 14.4429 4.13221 14.412C4.07347 14.3767 4.0158 14.3404 3.95814 14.3033C3.90741 14.271 3.85669 14.2382 3.80676 14.2045C3.7499 14.1661 3.69357 14.126 3.63777 14.086C3.58891 14.051 3.54006 14.016 3.492 13.9792C3.43674 13.9376 3.38254 13.8946 3.32861 13.8513C3.28136 13.8137 3.23437 13.7763 3.18818 13.7376C3.13479 13.6933 3.08326 13.6471 3.03147 13.6012C2.98609 13.5609 2.94043 13.5211 2.89611 13.48C2.84512 13.4324 2.79573 13.383 2.74608 13.3342C2.70309 13.2917 2.65931 13.2498 2.61713 13.2063C2.60938 13.198 2.60191 13.1895 2.59417 13.1815C3.17634 12.8805 3.78978 12.6444 4.42347 12.4772C4.75309 13.5282 5.3395 14.4805 6.12971 15.2479C6.10808 15.2423 6.08619 15.2377 6.06457 15.2318ZM7.72381 15.4641C6.58143 15.3018 5.58001 14.1095 4.94995 12.3488C5.86086 12.1448 6.79043 12.0354 7.72381 12.0223V15.4641ZM7.72381 11.4883C6.73367 11.5013 5.7477 11.619 4.78229 11.8391C4.44707 10.6809 4.27023 9.48259 4.25662 8.2769H7.72381V11.4883ZM7.72381 7.74295H4.25662C4.2702 6.53726 4.44703 5.33895 4.78229 4.18071C5.7477 4.40087 6.7337 4.51847 7.72381 4.53152V7.74295ZM7.72381 3.99757C6.7904 3.98456 5.86086 3.87513 4.94995 3.67106C5.58001 1.91037 6.58143 0.718059 7.72381 0.555739V3.99757ZM13.7459 3.2431C14.799 4.51236 15.4017 6.09479 15.4599 7.74295H12.2589C12.2467 6.49308 12.0654 5.25061 11.7199 4.04936C12.4246 3.86111 13.1046 3.5905 13.7459 3.2431ZM9.91487 0.787739C9.97093 0.801622 10.0267 0.819242 10.0823 0.835528C10.1498 0.855284 10.2176 0.87504 10.2844 0.896665C10.3407 0.914819 10.3962 0.934308 10.4518 0.953797C10.5174 0.97649 10.5831 0.999717 10.648 1.02455C10.7035 1.04564 10.7582 1.0678 10.8132 1.09022C10.877 1.11692 10.9409 1.14362 11.0041 1.17031C11.0586 1.19434 11.1128 1.21907 11.1667 1.24453C11.2289 1.2739 11.2909 1.3038 11.3536 1.33477C11.407 1.36147 11.4604 1.38816 11.5138 1.41726C11.5741 1.44957 11.6339 1.48267 11.6937 1.51685C11.7471 1.54648 11.7978 1.57692 11.8494 1.60788C11.9081 1.64312 11.9658 1.67943 12.0234 1.71654C12.0742 1.74885 12.1249 1.78168 12.1748 1.81532C12.2317 1.85377 12.2877 1.89355 12.3435 1.93359C12.3927 1.96857 12.4415 2.00381 12.4898 2.04038C12.5448 2.08176 12.5988 2.12475 12.653 2.168C12.6999 2.20537 12.7472 2.24275 12.7934 2.28173C12.8468 2.32604 12.8983 2.37223 12.9501 2.41815C12.9955 2.45846 13.0411 2.49824 13.0855 2.53936C13.1364 2.58688 13.1858 2.63627 13.2355 2.68512C13.2785 2.72757 13.3223 2.76949 13.3644 2.81301C13.3722 2.82128 13.3797 2.82983 13.3874 2.83783C12.8052 3.13878 12.1918 3.37495 11.5581 3.54211C11.2278 2.49097 10.6407 1.53877 9.84973 0.771721C9.87135 0.777327 9.89324 0.781866 9.91487 0.787739ZM8.25776 0.555739C9.40014 0.718059 10.4016 1.91037 11.0316 3.67106C10.1207 3.87503 9.19113 3.98446 8.25776 3.99757V0.555739ZM8.25776 4.53152C9.2479 4.5185 10.2339 4.4009 11.1993 4.18071C11.5345 5.33895 11.7113 6.53726 11.725 7.74295H8.25776V4.53152ZM8.25776 8.2769H11.725C11.7114 9.48259 11.5345 10.6809 11.1993 11.8391C10.2339 11.619 9.2479 11.5014 8.25776 11.4883V8.2769ZM8.25776 15.4641V12.0223C9.19117 12.0353 10.1207 12.1447 11.0316 12.3488C10.4016 14.1095 9.40014 15.3018 8.25776 15.4641ZM13.362 13.2066C13.3199 13.2501 13.2763 13.292 13.2334 13.3345C13.1837 13.3833 13.134 13.4327 13.0831 13.4802C13.0387 13.5216 12.9931 13.5603 12.9477 13.6017C12.8959 13.6476 12.8444 13.6935 12.7915 13.7379C12.7448 13.7768 12.6973 13.8145 12.6498 13.8524C12.5964 13.8951 12.543 13.9378 12.488 13.9789C12.4394 14.0155 12.39 14.051 12.3403 14.0857C12.2851 14.1252 12.2295 14.1658 12.1732 14.2027C12.1227 14.2368 12.0718 14.2699 12.0205 14.3025C11.9634 14.3394 11.9058 14.375 11.8478 14.4093C11.7944 14.4405 11.7434 14.471 11.6908 14.5011C11.6317 14.5348 11.5722 14.5676 11.5124 14.5997C11.459 14.6281 11.4057 14.656 11.3523 14.6832C11.2914 14.7139 11.23 14.7436 11.1683 14.7727C11.1149 14.798 11.0594 14.8234 11.0044 14.8474C10.9417 14.8741 10.8781 14.9008 10.8146 14.9275C10.7593 14.9499 10.7043 14.9723 10.6488 14.9934C10.5836 15.0183 10.5182 15.0415 10.4526 15.0642C10.397 15.0837 10.3415 15.1032 10.2852 15.1213C10.2184 15.1429 10.1517 15.1627 10.0836 15.1822C10.0278 15.1987 9.97173 15.2153 9.9154 15.2305C9.89378 15.2361 9.87215 15.2407 9.85053 15.2463C10.6408 14.4789 11.2272 13.5266 11.5568 12.4756C12.1904 12.6427 12.8039 12.8788 13.3861 13.1796C13.3773 13.1892 13.3698 13.1986 13.362 13.2066ZM13.7459 12.7768C13.1046 12.4293 12.4246 12.1586 11.7199 11.9705C12.0653 10.7692 12.2467 9.52677 12.2589 8.2769H15.4599C15.4018 9.92507 14.799 11.5075 13.7459 12.7768Z" fill="#76FFFF"/>
</svg>
