<svg width="14" height="16" viewBox="0 0 14 16" fill="none" xmlns="http://www.w3.org/2000/svg">
<path d="M7.88692 6.82891C7.88692 6.91165 7.92087 6.991 7.9813 7.04951C8.04173 7.10801 8.1237 7.14088 8.20916 7.14088C8.29462 7.14088 8.37658 7.10801 8.43701 7.04951C8.49744 6.991 8.5314 6.91165 8.5314 6.82891C8.53103 6.4899 8.41085 6.16123 8.19084 5.8975C7.97083 5.63377 7.66423 5.45088 7.32199 5.3792V5.03121C7.32199 4.94847 7.28804 4.86912 7.22761 4.81061C7.16718 4.75211 7.08522 4.71924 6.99976 4.71924C6.91429 4.71924 6.83233 4.75211 6.7719 4.81061C6.71147 4.86912 6.67752 4.94847 6.67752 5.03121V5.3792C6.33507 5.45033 6.02817 5.633 5.80802 5.89672C5.58787 6.16045 5.46777 6.48928 5.46777 6.82837C5.46777 7.16746 5.58787 7.49629 5.80802 7.76002C6.02817 8.02374 6.33507 8.20641 6.67752 8.27754V9.96827C6.51139 9.90565 6.36862 9.79599 6.26784 9.65361C6.16706 9.51123 6.11296 9.34275 6.11259 9.17015C6.11259 9.08741 6.07864 9.00805 6.01821 8.94955C5.95778 8.89104 5.87582 8.85817 5.79036 8.85817C5.70489 8.85817 5.62293 8.89104 5.5625 8.94955C5.50207 9.00805 5.46812 9.08741 5.46812 9.17015C5.46836 9.50924 5.58848 9.83804 5.8085 10.1019C6.02852 10.3657 6.33519 10.5487 6.67752 10.6204V10.9689C6.67752 11.0516 6.71147 11.131 6.7719 11.1895C6.83233 11.248 6.91429 11.2809 6.99976 11.2809C7.08522 11.2809 7.16718 11.248 7.22761 11.1895C7.28804 11.131 7.32199 11.0516 7.32199 10.9689V10.6204C7.66444 10.5493 7.97134 10.3666 8.19149 10.1029C8.41165 9.83914 8.53174 9.5103 8.53174 9.17122C8.53174 8.83213 8.41165 8.50329 8.19149 8.23957C7.97134 7.97585 7.66444 7.79318 7.32199 7.72205V6.03078C7.48812 6.09341 7.6309 6.20306 7.73167 6.34544C7.83245 6.48782 7.88656 6.6563 7.88692 6.82891ZM6.11259 6.82891C6.11296 6.6563 6.16706 6.48782 6.26784 6.34544C6.36862 6.20306 6.51139 6.09341 6.67752 6.03078V7.62703C6.51139 7.5644 6.36862 7.45475 6.26784 7.31237C6.16706 7.16999 6.11296 7.00151 6.11259 6.82891ZM7.88692 9.17068C7.88656 9.34328 7.83245 9.51177 7.73167 9.65415C7.6309 9.79652 7.48812 9.90618 7.32199 9.9688V8.37256C7.48812 8.43518 7.6309 8.54484 7.73167 8.68722C7.83245 8.8296 7.88656 8.99808 7.88692 9.17068Z" fill="white"/>
<path d="M7.47636 1.24065L8.29373 0.546636C8.358 0.492074 8.39724 0.41503 8.40284 0.332452C8.40843 0.249874 8.37991 0.168526 8.32356 0.106305C8.2672 0.0440839 8.18763 0.0060856 8.10233 0.00066954C8.01704 -0.00474652 7.93301 0.0228632 7.86875 0.077425L6.42808 1.30073C6.39361 1.33001 6.36599 1.36607 6.34707 1.40651C6.32815 1.44696 6.31836 1.49084 6.31836 1.53524C6.31836 1.57964 6.32815 1.62353 6.34707 1.66397C6.36599 1.70441 6.39361 1.74048 6.42808 1.76976L7.86875 2.99342C7.90049 3.02086 7.93753 3.04195 7.97774 3.05546C8.01794 3.06897 8.06051 3.07464 8.10299 3.07213C8.14547 3.06963 8.18702 3.059 8.22523 3.04086C8.26345 3.02273 8.29757 2.99744 8.32564 2.96647C8.3537 2.93549 8.37515 2.89944 8.38875 2.8604C8.40234 2.82135 8.40782 2.78009 8.40485 2.73899C8.40188 2.69788 8.39054 2.65776 8.37146 2.62092C8.35239 2.58409 8.32597 2.55128 8.29373 2.52438L7.52313 1.86977C8.80464 1.97191 10.024 2.44807 11.0201 3.23533C12.0162 4.0226 12.7421 5.08392 13.102 6.27908C13.4618 7.47424 13.4387 8.74698 13.0357 9.92915C12.6326 11.1113 11.8686 12.1473 10.8445 12.9002C10.7782 12.9508 10.735 13.0247 10.7244 13.1058C10.7137 13.187 10.7364 13.2689 10.7876 13.3341C10.8388 13.3992 10.9143 13.4422 10.9979 13.4539C11.0816 13.4656 11.1666 13.4451 11.2347 13.3966C12.3693 12.5623 13.2138 11.4127 13.6555 10.1013C14.0972 8.78987 14.1149 7.37919 13.7063 6.05776C13.2978 4.73634 12.4824 3.56711 11.3691 2.70632C10.2559 1.84553 8.89779 1.3342 7.47636 1.24065Z" fill="white"/>
<path d="M6.13155 13.0065C6.09981 12.979 6.06277 12.9579 6.02256 12.9444C5.98236 12.9309 5.93978 12.9253 5.89731 12.9278C5.85483 12.9303 5.81328 12.9409 5.77506 12.959C5.73685 12.9772 5.70273 13.0024 5.67466 13.0334C5.6466 13.0644 5.62515 13.1004 5.61155 13.1395C5.59795 13.1785 5.59248 13.2198 5.59545 13.2609C5.59841 13.302 5.60976 13.3421 5.62883 13.379C5.64791 13.4158 5.67433 13.4486 5.70657 13.4755L6.47717 14.1301C5.18268 14.0269 3.95195 13.5421 2.95075 12.741C1.94955 11.9399 1.22597 10.8609 0.877471 9.64953C0.528973 8.43811 0.572294 7.15239 1.0016 5.96554C1.43091 4.77869 2.22558 3.74772 3.27858 3.01149C3.31317 2.9876 3.34253 2.95732 3.36499 2.9224C3.38744 2.88747 3.40254 2.84859 3.40941 2.808C3.41629 2.7674 3.4148 2.72589 3.40504 2.68585C3.39527 2.64582 3.37743 2.60804 3.35253 2.57471C3.32763 2.54138 3.29617 2.51314 3.25995 2.49162C3.22373 2.47011 3.18348 2.45574 3.14151 2.44935C3.09953 2.44295 3.05667 2.44466 3.01538 2.45437C2.97409 2.46408 2.93519 2.48159 2.90092 2.50591C1.73429 3.3217 0.85576 4.46583 0.38502 5.78247C-0.0857207 7.09911 -0.125793 8.52424 0.270261 9.86372C0.666315 11.2032 1.47925 12.3919 2.59831 13.2679C3.71737 14.144 5.08815 14.6647 6.52394 14.7592L5.70657 15.4533C5.6423 15.5078 5.60305 15.5849 5.59746 15.6674C5.59187 15.75 5.62038 15.8314 5.67674 15.8936C5.7331 15.9558 5.81267 15.9938 5.89797 15.9992C5.98326 16.0046 6.06728 15.977 6.13155 15.9225L7.57221 14.6992C7.60669 14.6699 7.63431 14.6338 7.65323 14.5934C7.67215 14.5529 7.68194 14.509 7.68194 14.4646C7.68194 14.4202 7.67215 14.3764 7.65323 14.3359C7.63431 14.2955 7.60669 14.2594 7.57221 14.2301L6.13155 13.0065Z" fill="white"/>
</svg>
