<svg width="20" height="20" viewBox="0 0 20 20" fill="none" xmlns="http://www.w3.org/2000/svg">
<path d="M18.9027 2.87584C18.1994 2.17205 17.2452 1.77677 16.2503 1.77711C15.2557 1.77476 14.3015 2.16991 13.5998 2.87462L8.75782 7.71663C7.79981 8.67614 7.43357 10.0776 7.79973 11.3832C7.90694 11.7632 8.30196 11.9844 8.68203 11.8772C9.0621 11.77 9.2833 11.375 9.17609 10.9949C8.95036 10.1876 9.17685 9.32123 9.76882 8.72767L14.6108 3.88637C15.516 2.98091 16.9839 2.98074 17.8894 3.88604C18.7949 4.7913 18.795 6.2592 17.8898 7.16467L13.0478 12.0066C12.7305 12.3244 12.3275 12.5428 11.8881 12.6351C11.5015 12.7156 11.2533 13.0943 11.3338 13.4809C11.403 13.8133 11.6965 14.0512 12.0361 14.0501C12.086 14.0502 12.1359 14.0449 12.1848 14.0344C12.8949 13.8846 13.5461 13.5314 14.0588 13.0177L18.9008 8.17642C20.365 6.71321 20.3659 4.34009 18.9027 2.87584Z" fill="white"/>
<path d="M12.1789 8.63627C12.0717 8.25621 11.6766 8.035 11.2966 8.14221C10.9165 8.24942 10.6953 8.64444 10.8025 9.02451C11.0282 9.83186 10.8017 10.6982 10.2098 11.2918L5.36777 16.1338C4.46251 17.0392 2.99461 17.0394 2.08915 16.1341C1.18368 15.2288 1.18351 13.7609 2.08877 12.8555L6.93077 8.01276C7.24758 7.69511 7.6501 7.47672 8.08908 7.38426C8.47631 7.30679 8.72742 6.93012 8.64996 6.54293C8.5725 6.15574 8.19582 5.90458 7.80863 5.98205C7.8039 5.98301 7.79921 5.98397 7.79451 5.98502C7.08423 6.13496 6.43286 6.48822 5.91978 7.00176L1.07777 11.8438C-0.374966 13.3189 -0.356784 15.6924 1.11837 17.1451C2.57743 18.582 4.9195 18.5822 6.37877 17.1455L11.2207 12.3028C12.1788 11.3432 12.545 9.94175 12.1789 8.63627Z" fill="white"/>
</svg>
