<svg width="79" height="79" viewBox="0 0 79 79" fill="none" xmlns="http://www.w3.org/2000/svg">
<g filter="url(#filter0_d)">
<path fill-rule="evenodd" clip-rule="evenodd" d="M39.5 15C53.0114 15 64 25.9942 64 39.5C64 53.0731 53.0058 64 39.5 64C25.9269 64.0056 15 53.0787 15 39.5C15 25.9942 25.9269 15 39.5 15Z" fill="#00D7D7"/>
<path fill-rule="evenodd" clip-rule="evenodd" d="M39.5005 15.8635C52.5466 15.8635 63.1427 26.4596 63.1427 39.5057C63.1427 52.6191 52.5466 63.2152 39.5005 63.2152C26.3871 63.2152 15.791 52.6191 15.791 39.5057C15.7966 26.454 26.3927 15.8635 39.5005 15.8635Z" fill="#1BE6E6"/>
<path fill-rule="evenodd" clip-rule="evenodd" d="M39.5008 15.8635C44.1373 15.8635 48.443 17.1866 52.0815 19.5077C44.6026 18.9078 31.4219 20.5617 20.4334 36.2596C17.7871 40.1 17.1873 44.6692 18.1179 49.7038C16.6547 46.6539 15.7969 43.1443 15.7969 39.5001C15.7969 26.454 26.393 15.8635 39.5008 15.8635Z" fill="#26EDED"/>
<path fill-rule="evenodd" clip-rule="evenodd" d="M39.5006 20.2308C50.1639 20.2308 58.7698 28.8423 58.7698 39.5001C58.7698 50.1578 50.1639 58.8422 39.5006 58.8422C28.8428 58.8422 20.1641 50.1634 20.1641 39.5001C20.1641 28.8367 28.8428 20.2308 39.5006 20.2308Z" fill="#76FFFF"/>
<path fill-rule="evenodd" clip-rule="evenodd" d="M39.5011 22.1538C49.1049 22.1538 56.853 29.9019 56.853 39.5056C56.853 49.1767 49.1049 56.9247 39.5011 56.9247C29.8974 56.9247 22.082 49.1767 22.082 39.5056C22.0876 29.9019 29.903 22.1538 39.5011 22.1538Z" fill="#1BE6E6"/>
<path fill-rule="evenodd" clip-rule="evenodd" d="M50.2968 25.8596C54.339 29.0385 56.8506 34.0057 56.8506 39.5C56.8506 49.1711 49.1026 56.9191 39.4988 56.9191C35.0641 56.9191 31.0892 55.3325 28.0449 52.6134C57.5795 51.8846 50.9583 28.0461 50.2968 25.8596Z" fill="#26EDED"/>
<path fill-rule="evenodd" clip-rule="evenodd" d="M39.5009 20.5615C49.9625 20.5615 58.4394 29.0384 58.4394 39.5C58.4394 49.9615 49.9681 58.5057 39.5009 58.5057C29.0394 58.5057 20.5625 49.9615 20.5625 39.5C20.5625 29.0384 29.0394 20.5615 39.5009 20.5615ZM39.7028 22.35C49.6373 22.35 57.6489 30.3615 57.6489 40.2961C57.6489 50.2306 49.6373 58.2422 39.7028 58.2422C29.7682 58.2422 21.7567 50.2306 21.7567 40.2961C21.7567 30.3615 29.7682 22.35 39.7028 22.35Z" fill="#07B4B4"/>
<path fill-rule="evenodd" clip-rule="evenodd" d="M31.0922 29.9019C30.0998 44.0749 29.1692 49.1711 43.544 53.9422C44.3401 51.3576 44.9344 47.7807 44.1383 44.0076C42.5517 36.7866 36.3902 33.5461 36.3902 33.5461C46.7228 38.2498 48.1805 47.2537 47.9787 52.8826C49.6998 51.4249 51.7518 48.9076 52.3517 44.6692C53.6075 36.7193 45.1306 29.1058 31.0922 29.9019Z" fill="#1BE6E6"/>
<path fill-rule="evenodd" clip-rule="evenodd" d="M31.0783 50.1959H48.9719L50.0465 45.2698H39.4214L40.7737 38.9973L44.8366 38.0012V35.4295L41.3412 36.2867L43.4119 26.3076H36.0649L33.5716 38.1401L30.0762 38.9973V41.5631L32.9981 40.8507L31.0783 50.1959Z" fill="white"/>
</g>
<defs>
<filter id="filter0_d" x="0" y="0" width="79" height="79" filterUnits="userSpaceOnUse" color-interpolation-filters="sRGB">
<feFlood flood-opacity="0" result="BackgroundImageFix"/>
<feColorMatrix in="SourceAlpha" type="matrix" values="0 0 0 0 0 0 0 0 0 0 0 0 0 0 0 0 0 0 127 0"/>
<feOffset/>
<feGaussianBlur stdDeviation="7.5"/>
<feColorMatrix type="matrix" values="0 0 0 0 0.462745 0 0 0 0 1 0 0 0 0 1 0 0 0 1 0"/>
<feBlend mode="normal" in2="BackgroundImageFix" result="effect1_dropShadow"/>
<feBlend mode="normal" in="SourceGraphic" in2="effect1_dropShadow" result="shape"/>
</filter>
</defs>
</svg>
