<svg width="16" height="16" viewBox="0 0 16 16" fill="none" xmlns="http://www.w3.org/2000/svg">
<g clip-path="url(#clip0)">
<path d="M14.3333 2.66675H1.66666C0.748 2.66675 0 3.41475 0 4.33344V11.6668C0 12.5854 0.748 13.3334 1.66666 13.3334H14.3333C15.252 13.3334 16 12.5854 16 11.6668V4.33344C16 3.41475 15.252 2.66675 14.3333 2.66675ZM15.3333 11.6667C15.3333 12.2181 14.8847 12.6667 14.3333 12.6667H1.66666C1.11531 12.6667 0.666656 12.2181 0.666656 11.6667V4.33344C0.666656 3.78209 1.11531 3.33344 1.66666 3.33344H14.3333C14.8847 3.33344 15.3333 3.78209 15.3333 4.33344V11.6667H15.3333Z" fill="white"/>
<path d="M15.6667 4.66675H0.333344C0.149344 4.66675 0 4.81609 0 5.00009V7.00009C0 7.18409 0.149344 7.33344 0.333344 7.33344H15.6667C15.8507 7.33344 16 7.18409 16 7.00009V5.00009C16 4.81609 15.8507 4.66675 15.6667 4.66675ZM15.3333 6.66675H0.666656V5.3334H15.3333V6.66675H15.3333Z" fill="white"/>
<path d="M6.33334 9.33325H2.33334C2.14934 9.33325 2 9.4826 2 9.6666C2 9.8506 2.14934 9.99991 2.33334 9.99991H6.33334C6.51734 9.99991 6.66669 9.85056 6.66669 9.66656C6.66669 9.48256 6.51734 9.33325 6.33334 9.33325Z" fill="white"/>
<path d="M6.33334 10.6667H2.33334C2.14934 10.6667 2 10.8161 2 11.0001C2 11.1841 2.14934 11.3334 2.33334 11.3334H6.33334C6.51734 11.3334 6.66669 11.1841 6.66669 11.0001C6.66666 10.8161 6.51734 10.6667 6.33334 10.6667Z" fill="white"/>
<path d="M12.9987 8.66675H12.332C11.7807 8.66675 11.332 9.1154 11.332 9.66675V10.3334C11.332 10.8847 11.7807 11.3334 12.332 11.3334H12.9987C13.55 11.3334 13.9987 10.8847 13.9987 10.3334V9.66675C13.9987 9.11544 13.55 8.66675 12.9987 8.66675ZM13.332 10.3334C13.332 10.5174 13.1827 10.6668 12.9987 10.6668H12.332C12.148 10.6668 11.9987 10.5174 11.9987 10.3334V9.66678C11.9987 9.48278 12.148 9.33344 12.332 9.33344H12.9987C13.1827 9.33344 13.332 9.48278 13.332 9.66678V10.3334Z" fill="white"/>
</g>
<defs>
<clipPath id="clip0">
<rect width="16" height="16" fill="white"/>
</clipPath>
</defs>
</svg>
