<svg width="212" height="212" viewBox="0 0 212 212" fill="none" xmlns="http://www.w3.org/2000/svg">
<path d="M105.712 193.425C154.154 193.425 193.425 154.154 193.425 105.712C193.425 57.2701 154.154 18 105.712 18C57.2701 18 18 57.2701 18 105.712C18 154.154 57.2701 193.425 105.712 193.425Z" fill="url(#paint0_radial)"/>
<g filter="url(#filter0_d)">
<path d="M181.581 108.659C183.271 66.866 150.817 31.9834 109.445 30.1534C66.2788 28.244 28.9434 65.0536 30.7044 108.659C32.3987 150.612 67.915 182.843 109.445 181.008C149.107 179.255 179.962 148.725 181.581 108.659Z" fill="#C4C4C4"/>
<path d="M109.357 32.1514C149.636 33.9331 181.228 67.8933 179.583 108.578C178.006 147.597 147.989 177.302 109.357 179.01C68.9259 180.796 34.3521 149.417 32.7028 108.578C30.9892 66.1485 67.3551 30.2936 109.357 32.1514Z" stroke="black" stroke-width="4"/>
</g>
<path d="M109.357 32.1514C149.636 33.9331 181.228 67.8933 179.583 108.578C178.006 147.597 147.989 177.302 109.357 179.01C68.9259 180.796 34.3521 149.417 32.7028 108.578C30.9892 66.1485 67.3551 30.2936 109.357 32.1514Z" fill="url(#paint1_linear)" stroke="black" stroke-width="4"/>
<path d="M143.3 98.4729L129.046 139.357C128.49 140.678 127.586 141.582 126.265 142.069L125.5 142.208C125.291 142.277 125.083 142.277 124.804 142.277H124.596C124.387 142.277 124.109 142.277 123.901 142.208C122.788 141.929 121.954 141.512 121.397 140.887C120.702 140.191 119.868 138.244 118.964 135.116L107.769 103.549C107.213 102.784 106.657 102.436 106.101 102.436H105.614C104.432 102.436 103.528 103.896 102.833 106.747C102.694 107.095 98.8 118.081 91.2212 139.705C90.7345 140.747 89.8306 141.582 88.6486 142.069C88.5095 142.138 88.3705 142.138 88.1619 142.208C88.0923 142.208 88.0228 142.208 87.9532 142.277C87.7447 142.347 87.4665 142.347 87.1884 142.347H86.7017C85.5892 142.347 84.4767 141.721 83.4338 140.469C83.0166 139.844 82.3213 137.966 81.3478 134.976C69.8058 102.228 63.9652 85.6097 63.8957 85.0535C63.8262 84.7059 63.8262 84.3582 63.8262 84.1496C63.8262 82.2723 64.7996 80.8817 66.7464 79.9778C67.3027 79.7692 67.8589 79.6997 68.4152 79.6997C70.7097 79.6997 72.2393 81.1598 73.1432 84.0801C80.8611 106.191 84.8939 117.594 85.2416 118.428C85.7978 119.193 86.354 119.61 86.9103 119.61H87.4666C88.5791 119.61 89.4134 118.359 89.9696 115.925L101.859 82.3418C102.902 80.534 104.154 79.6301 105.753 79.6301H106.24C107.769 79.6301 109.021 80.4645 110.064 82.2027C110.342 82.8285 114.236 93.9534 121.815 115.716C122.579 118.15 123.275 119.402 123.97 119.402C123.97 119.541 124.179 119.61 124.526 119.61H125.083C126.195 119.61 127.029 118.359 127.586 115.925L134.608 96.0393L143.3 98.4729ZM143.439 97.43C143.439 99.9331 141.422 101.949 138.919 101.949C136.416 101.949 134.4 99.9331 134.4 97.43C134.4 94.9269 136.416 92.9105 138.919 92.9105C141.422 92.9105 143.439 94.8573 143.439 97.43ZM147.402 84.1496C147.402 86.6527 145.385 88.6691 142.882 88.6691C140.379 88.6691 138.363 86.6527 138.363 84.1496C138.363 81.6465 140.379 79.6301 142.882 79.6301C145.385 79.6301 147.402 81.6465 147.402 84.1496Z" fill="white"/>
<defs>
<filter id="filter0_d" x="0.644531" y="0.0822754" width="211" height="211" filterUnits="userSpaceOnUse" color-interpolation-filters="sRGB">
<feFlood flood-opacity="0" result="BackgroundImageFix"/>
<feColorMatrix in="SourceAlpha" type="matrix" values="0 0 0 0 0 0 0 0 0 0 0 0 0 0 0 0 0 0 127 0"/>
<feOffset/>
<feGaussianBlur stdDeviation="15"/>
<feColorMatrix type="matrix" values="0 0 0 0 0 0 0 0 0 0 0 0 0 0 0 0 0 0 0.71 0"/>
<feBlend mode="normal" in2="BackgroundImageFix" result="effect1_dropShadow"/>
<feBlend mode="normal" in="SourceGraphic" in2="effect1_dropShadow" result="shape"/>
</filter>
<radialGradient id="paint0_radial" cx="0" cy="0" r="1" gradientUnits="userSpaceOnUse" gradientTransform="translate(105.645 18.0823) rotate(89.9779) scale(175.342)">
<stop stop-color="#135DDA"/>
<stop offset="1" stop-color="#606EFF"/>
</radialGradient>
<linearGradient id="paint1_linear" x1="38.1445" y1="106.082" x2="191.645" y2="108.082" gradientUnits="userSpaceOnUse">
<stop stop-color="#0A9EDC"/>
<stop offset="0.40625" stop-color="#02D5E1"/>
<stop offset="1" stop-color="#05F2FF"/>
</linearGradient>
</defs>
</svg>
