<svg width="130" height="130" viewBox="0 0 130 130" fill="none" xmlns="http://www.w3.org/2000/svg">
<g style="mix-blend-mode:overlay">
<path d="M65 120C95.3757 120 120 95.3757 120 65C120 34.6243 95.3757 10 65 10C34.6243 10 10 34.6243 10 65C10 95.3757 34.6243 120 65 120Z" fill="white"/>
</g>
<g filter="url(#filter0_d)">
<path d="M65.0152 114.489C92.3418 114.489 114.494 92.3369 114.494 65.0104C114.494 37.6838 92.3418 15.5312 65.0152 15.5312C37.6887 15.5312 15.5361 37.6838 15.5361 65.0104C15.5361 92.3369 37.6887 114.489 65.0152 114.489Z" fill="url(#paint0_radial)"/>
</g>
<path d="M65.2078 112.134C91.3194 112.134 112.487 90.9669 112.487 64.8553C112.487 38.7438 91.3194 17.5762 65.2078 17.5762C39.0963 17.5762 17.9287 38.7438 17.9287 64.8553C17.9287 90.9669 39.0963 112.134 65.2078 112.134Z" fill="#76FFFF"/>
<mask id="mask0" mask-type="alpha" maskUnits="userSpaceOnUse" x="17" y="17" width="96" height="96">
<path d="M65.2078 112.134C91.3194 112.134 112.487 90.9669 112.487 64.8553C112.487 38.7438 91.3194 17.5762 65.2078 17.5762C39.0963 17.5762 17.9287 38.7438 17.9287 64.8553C17.9287 90.9669 39.0963 112.134 65.2078 112.134Z" fill="#76FFFF"/>
</mask>
<g mask="url(#mask0)">
<path d="M123.676 74.5772L75.5413 122.692C70.2179 128.013 61.5394 128.013 56.216 122.692L8.12635 74.5772C2.80294 69.256 2.80294 60.581 8.12635 55.2598L56.216 7.14499C61.5394 1.82374 70.2179 1.82374 75.5413 7.14499L123.631 55.2151C128.999 60.581 128.999 69.256 123.676 74.5772Z" fill="url(#paint1_linear)"/>
<path d="M88.5682 60.4606L79.6304 86.0969C79.2816 86.9253 78.7148 87.4921 77.8864 87.7973L77.4068 87.8844C77.276 87.928 77.1452 87.9281 76.9708 87.9281H76.84C76.7092 87.9281 76.5348 87.928 76.404 87.8844C75.7064 87.71 75.1833 87.4485 74.8345 87.0561C74.3985 86.6201 73.8753 85.3993 73.3085 83.4373L66.289 63.6433C65.9402 63.1637 65.5915 62.9457 65.2427 62.9457H64.9375C64.1963 62.9457 63.6295 63.8613 63.1935 65.6489C63.1063 65.8669 60.6647 72.7555 55.9124 86.3149C55.6072 86.9689 55.0404 87.4921 54.2993 87.7973C54.2121 87.8409 54.1249 87.8408 53.9941 87.8844C53.9505 87.8844 53.9069 87.8844 53.8633 87.9281C53.7325 87.9716 53.5581 87.9716 53.3837 87.9716H53.0785C52.3809 87.9716 51.6833 87.5792 51.0293 86.7945C50.7677 86.4021 50.3317 85.2249 49.7213 83.3501C42.4839 62.8149 38.8216 52.3947 38.778 52.0459C38.7344 51.8279 38.7344 51.6099 38.7344 51.4791C38.7344 50.302 39.3447 49.43 40.5655 48.8632C40.9143 48.7324 41.2631 48.6888 41.6119 48.6888C43.0507 48.6888 44.0099 49.6044 44.5766 51.4355C49.4162 65.3001 51.9449 72.4504 52.1629 72.9735C52.5117 73.4531 52.8605 73.7147 53.2093 73.7147H53.5581C54.2557 73.7147 54.7789 72.9299 55.1276 71.404L62.5831 50.3456C63.2371 49.212 64.0219 48.6452 65.0247 48.6452H65.3299C66.289 48.6452 67.0738 49.1684 67.7278 50.2584C67.9022 50.6508 70.3438 57.6266 75.0961 71.2732C75.5756 72.7991 76.0117 73.5839 76.4477 73.5839C76.4477 73.6711 76.5784 73.7147 76.7964 73.7147H77.1452C77.8428 73.7147 78.366 72.9299 78.7148 71.404L83.1183 58.9346L88.5682 60.4606ZM88.6554 59.8066C88.6554 61.3762 87.391 62.6405 85.8215 62.6405C84.2519 62.6405 82.9875 61.3762 82.9875 59.8066C82.9875 58.237 84.2519 56.9726 85.8215 56.9726C87.391 56.9726 88.6554 58.1934 88.6554 59.8066ZM91.1405 51.4791C91.1405 53.0487 89.8762 54.3131 88.3066 54.3131C86.737 54.3131 85.4727 53.0487 85.4727 51.4791C85.4727 49.9096 86.737 48.6452 88.3066 48.6452C89.8762 48.6452 91.1405 49.9096 91.1405 51.4791Z" fill="white"/>
</g>
<defs>
<filter id="filter0_d" x="0.536133" y="0.53125" width="128.958" height="128.958" filterUnits="userSpaceOnUse" color-interpolation-filters="sRGB">
<feFlood flood-opacity="0" result="BackgroundImageFix"/>
<feColorMatrix in="SourceAlpha" type="matrix" values="0 0 0 0 0 0 0 0 0 0 0 0 0 0 0 0 0 0 127 0"/>
<feOffset/>
<feGaussianBlur stdDeviation="7.5"/>
<feColorMatrix type="matrix" values="0 0 0 0 0 0 0 0 0 0 0 0 0 0 0 0 0 0 1 0"/>
<feBlend mode="normal" in2="BackgroundImageFix" result="effect1_dropShadow"/>
<feBlend mode="normal" in="SourceGraphic" in2="effect1_dropShadow" result="shape"/>
</filter>
<radialGradient id="paint0_radial" cx="0" cy="0" r="1" gradientUnits="userSpaceOnUse" gradientTransform="translate(-17462.9 51070) rotate(80.78) scale(13345.5)">
<stop stop-color="#00F8FF"/>
<stop offset="0.07" stop-color="#03C4E5"/>
<stop offset="0.17" stop-color="#0786C6"/>
<stop offset="0.25" stop-color="#0A55AD"/>
<stop offset="0.33" stop-color="#0C329B"/>
<stop offset="0.39" stop-color="#0E1C90"/>
<stop offset="0.43" stop-color="#0E148C"/>
<stop offset="0.45" stop-color="#0D1384"/>
<stop offset="0.54" stop-color="#080C55"/>
<stop offset="0.63" stop-color="#050730"/>
<stop offset="0.71" stop-color="#020316"/>
<stop offset="0.78" stop-color="#010106"/>
<stop offset="0.84"/>
</radialGradient>
<linearGradient id="paint1_linear" x1="-3.07729" y1="81.8489" x2="78.4392" y2="68.994" gradientUnits="userSpaceOnUse">
<stop stop-color="#00629E"/>
<stop offset="1" stop-color="#00CBD6"/>
</linearGradient>
</defs>
</svg>
