<svg width="184" height="52" viewBox="0 0 184 52" fill="none" xmlns="http://www.w3.org/2000/svg">
<path d="M66.7307 18.822C67.3516 18.822 67.7656 19.2172 68.0103 20.0075C70.099 25.9914 71.1904 29.0775 71.2845 29.3033C71.435 29.5103 71.5856 29.6232 71.7361 29.6232H71.8866C72.1877 29.6232 72.4135 29.2845 72.564 28.6259L75.7818 19.5371C76.0641 19.0478 76.4028 18.8032 76.8356 18.8032H76.9673C77.3813 18.8032 77.72 19.029 78.0023 19.4995C78.0775 19.6688 79.1313 22.6796 81.1824 28.5694C81.3894 29.228 81.5776 29.5667 81.7657 29.5667C81.7657 29.6044 81.8222 29.6232 81.9163 29.6232H82.0668C82.3679 29.6232 82.5937 29.2845 82.7442 28.6259L85.962 19.5371C86.2066 19.0478 86.6018 18.8032 87.1099 18.8032C87.6179 18.8032 87.9943 19.0667 88.2389 19.5936C88.2954 19.7441 88.3142 19.8946 88.3142 20.0452C88.3142 20.2522 88.1072 20.9108 87.6932 22.021L83.1206 34.9861C82.97 35.3437 82.7254 35.5883 82.3679 35.72L82.0668 35.7953H81.841C81.4835 35.72 81.2388 35.6071 81.0883 35.4189C80.9001 35.2308 80.6743 34.7039 80.4297 33.8571L77.4001 25.314C77.2496 25.107 77.099 25.0129 76.9485 25.0129H76.8168C76.4969 25.0129 76.2523 25.4081 76.0641 26.1796C76.0264 26.2737 74.9727 29.2468 72.9216 35.099C72.771 35.4001 72.5264 35.6259 72.1501 35.7576C72.1313 35.7576 72.0748 35.7765 71.9431 35.8141H71.7173C71.4162 35.8141 71.1151 35.6447 70.8329 35.306C70.72 35.1367 70.5318 34.6286 70.2683 33.8195C67.1447 24.9565 65.564 20.4591 65.5452 20.3086C65.5264 20.2145 65.5264 20.1204 65.5264 20.064C65.5264 19.5559 65.7898 19.1796 66.3167 18.9349C66.4108 18.8409 66.5613 18.822 66.7307 18.822Z" fill="white"/>
<path d="M98.3053 12.0667H98.4182C98.9075 12.0667 99.3214 12.3301 99.6602 12.8758C99.7542 13.1016 99.7919 13.2898 99.7919 13.4215V19.0667C99.7919 19.4054 99.9612 19.6312 100.3 19.7629C100.356 19.7818 100.413 19.7818 100.45 19.7818H100.488C100.657 19.7818 100.996 19.65 101.523 19.3866C102.445 19.0291 103.367 18.8597 104.252 18.8597C106.096 18.8597 107.733 19.4995 109.201 20.7603C109.878 21.4377 110.311 21.9269 110.461 22.2468C110.969 23.0183 111.308 23.8463 111.477 24.7119C111.59 25.1447 111.666 25.8598 111.666 26.8383V34.1394C111.666 34.9109 111.365 35.419 110.781 35.6824C110.574 35.7577 110.405 35.7953 110.273 35.7953H110.179C109.652 35.7953 109.238 35.5131 108.918 34.9297C108.824 34.7604 108.787 34.4969 108.787 34.1394V26.2926C108.787 25.0318 108.354 23.9404 107.488 23.056C106.566 22.1716 105.494 21.7199 104.27 21.7199C102.972 21.7199 101.862 22.2468 100.902 23.2818C100.168 24.1286 99.8107 25.1447 99.8107 26.3114V34.4216C99.8107 34.8356 99.6037 35.1932 99.1897 35.5319C98.9451 35.7012 98.6817 35.7765 98.437 35.7765H98.3241C97.8537 35.7765 97.4585 35.5319 97.1386 35.0426C97.0069 34.8356 96.9316 34.4969 96.9316 34.0453V13.7602C96.9316 12.9699 97.2139 12.4618 97.7972 12.1984C97.9854 12.1043 98.1548 12.0667 98.3053 12.0667Z" fill="white"/>
<path d="M129.053 18.822H129.335C131.085 18.822 132.779 19.4242 134.416 20.6097C135.169 21.2306 135.696 21.7763 135.978 22.228C137.107 23.771 137.671 25.4645 137.671 27.3086C137.671 29.5291 136.862 31.5237 135.244 33.2549C134.378 34.0829 133.55 34.6474 132.76 34.9673C131.575 35.4942 130.446 35.7576 129.335 35.7576H129.053C127.284 35.7576 125.591 35.1555 123.954 33.9512C123.351 33.4619 122.881 32.9727 122.524 32.521C121.319 30.9592 120.698 29.2092 120.698 27.271C120.698 25.1823 121.432 23.2817 122.881 21.607C123.634 20.8543 124.179 20.3839 124.499 20.2145C125.986 19.2925 127.51 18.822 129.053 18.822ZM123.596 27.3086V27.4215C123.596 28.8517 124.161 30.1501 125.29 31.3355C126.456 32.3705 127.717 32.8974 129.091 32.8974H129.298C130.822 32.8974 132.177 32.2764 133.381 31.0533C134.322 29.9242 134.792 28.7011 134.792 27.4404V27.3275C134.792 25.7468 134.209 24.392 133.061 23.2441C132.421 22.6796 131.763 22.2656 131.085 22.0398C130.446 21.8328 129.862 21.7199 129.354 21.7199H129.034C128.112 21.7199 127.153 22.0022 126.193 22.5855C125.854 22.7925 125.44 23.1312 124.951 23.6393C124.368 24.3731 124.01 25.0317 123.86 25.6151C123.671 26.0667 123.596 26.65 123.596 27.3086Z" fill="white"/>
<path d="M148.173 12.0667C148.718 12.0667 149.132 12.3677 149.415 12.9511C149.452 13.1392 149.49 13.365 149.49 13.6097V34.2335C149.49 34.9674 149.226 35.4378 148.718 35.6636C148.605 35.72 148.436 35.7577 148.191 35.7765C147.646 35.7765 147.213 35.4754 146.931 34.8921C146.893 34.7227 146.855 34.4969 146.855 34.2335V13.6285C146.855 12.8946 147.119 12.4242 147.646 12.1984C147.74 12.1419 147.909 12.0855 148.173 12.0667Z" fill="white"/>
<path d="M159.896 18.8599H160.121C160.498 18.8599 160.836 19.048 161.156 19.4244C161.326 19.7066 161.42 19.9513 161.42 20.1959V34.403C161.42 34.9299 161.138 35.3439 160.573 35.6637C160.347 35.739 160.178 35.7767 160.065 35.7767H159.933C159.463 35.7767 159.086 35.532 158.767 35.0428C158.635 34.8358 158.56 34.5159 158.56 34.0643V20.5534C158.56 19.8007 158.785 19.3115 159.237 19.0669C159.463 18.9351 159.689 18.8599 159.896 18.8599Z" fill="white"/>
<path d="M171.937 18.8408H172.012C172.483 18.8408 172.897 19.0666 173.217 19.5371C175.512 22.6231 176.698 24.2038 176.754 24.2414C176.905 24.3731 177.093 24.4484 177.281 24.4484C177.564 24.4484 177.846 24.2038 178.128 23.7333C178.147 23.7333 179.238 22.2844 181.421 19.3677C181.741 19.0102 182.099 18.8408 182.512 18.8408H182.588C183.077 18.8408 183.491 19.0854 183.811 19.5935C183.924 19.8193 183.98 20.0451 183.98 20.2521V20.2709C183.98 20.6473 183.792 21.0424 183.416 21.4752L179.37 26.8758C179.276 27.0075 179.238 27.1581 179.238 27.3086C179.238 27.5156 179.445 27.8543 179.859 28.3248C182.4 31.7119 183.717 33.4995 183.849 33.6689C183.943 33.8947 183.999 34.1017 183.999 34.3087C183.999 34.8732 183.717 35.306 183.171 35.6071C182.945 35.7012 182.738 35.7388 182.569 35.7388C182.004 35.7388 181.496 35.4001 181.064 34.7038L177.789 30.357C177.639 30.2065 177.488 30.15 177.319 30.15H177.262C176.961 30.15 176.679 30.3759 176.416 30.8275L173.066 35.2684C172.746 35.6071 172.389 35.7576 171.994 35.7576C171.542 35.7576 171.147 35.5506 170.827 35.1366C170.658 34.892 170.563 34.6098 170.563 34.3087C170.563 33.8947 170.77 33.4807 171.184 33.0291C171.203 32.9915 172.539 31.2038 175.174 27.685C175.268 27.5532 175.305 27.4027 175.305 27.2522C175.305 27.0452 175.098 26.7065 174.684 26.236C172.107 22.7925 170.827 21.0613 170.827 21.0613C170.658 20.8166 170.563 20.5344 170.563 20.2521V20.2333C170.563 19.6688 170.846 19.236 171.41 18.9349C171.617 18.8785 171.805 18.8408 171.937 18.8408Z" fill="white"/>
<path d="M133.231 31.5803L137.653 27.384V33.8948C137.653 34.9298 136.806 35.7766 135.771 35.7766H128.79L133.231 31.5803Z" fill="white"/>
<path d="M50.2846 30.056L30.0372 50.3035C27.7979 52.5427 24.1474 52.5427 21.9081 50.3035L1.67945 30.056C-0.559816 27.8167 -0.559816 24.1662 1.67945 21.9269L21.9081 1.67945C24.1474 -0.559816 27.7979 -0.559816 30.0372 1.67945L50.2658 21.9081C52.5239 24.1662 52.5239 27.8167 50.2846 30.056Z" fill="url(#paint0_linear)"/>
<path d="M36.1713 23.9215L32.3137 34.9861C32.1632 35.3436 31.9186 35.5883 31.5611 35.72L31.3541 35.7576C31.2976 35.7764 31.2412 35.7764 31.1659 35.7764H31.1094C31.053 35.7764 30.9777 35.7764 30.9213 35.7576C30.6202 35.6824 30.3944 35.5695 30.2438 35.4001C30.0557 35.2119 29.8299 34.685 29.5852 33.8383L26.5556 25.2952C26.4051 25.0882 26.2546 24.9941 26.104 24.9941H25.9723C25.6524 24.9941 25.4078 25.3893 25.2196 26.1608C25.182 26.2549 24.1282 29.228 22.0771 35.0802C21.9454 35.3625 21.7008 35.5883 21.3809 35.72C21.3432 35.7388 21.3056 35.7388 21.2492 35.7576C21.2303 35.7576 21.2115 35.7576 21.1927 35.7764C21.1362 35.7953 21.061 35.7953 20.9857 35.7953H20.854C20.5529 35.7953 20.2518 35.6259 19.9696 35.2872C19.8567 35.1178 19.6685 34.6098 19.405 33.8006C16.2814 24.9377 14.7007 20.4403 14.6819 20.2898C14.6631 20.1957 14.6631 20.1016 14.6631 20.0451C14.6631 19.5371 14.9265 19.1607 15.4534 18.9161C15.6039 18.8597 15.7545 18.8408 15.905 18.8408C16.526 18.8408 16.94 19.236 17.1846 20.0263C19.2733 26.0102 20.3647 29.0963 20.4588 29.3221C20.6094 29.5291 20.7599 29.642 20.9104 29.642H21.061C21.3621 29.642 21.5879 29.3033 21.7384 28.6447L24.9562 19.5559C25.2384 19.0666 25.5771 18.822 26.0099 18.822H26.1417C26.5556 18.822 26.8944 19.0478 27.1766 19.5183C27.2519 19.6876 28.3057 22.6984 30.3567 28.5882C30.5637 29.2468 30.7519 29.5855 30.9401 29.5855C30.9401 29.6232 30.9965 29.642 31.0906 29.642H31.2412C31.5422 29.642 31.768 29.3033 31.9186 28.6447L33.8191 23.2629L36.1713 23.9215ZM36.2089 23.6393C36.2089 24.3167 35.6632 24.8624 34.9858 24.8624C34.3084 24.8624 33.7627 24.3167 33.7627 23.6393C33.7627 22.9618 34.3084 22.4161 34.9858 22.4161C35.6632 22.4161 36.2089 22.943 36.2089 23.6393ZM37.2815 20.0451C37.2815 20.7226 36.7358 21.2683 36.0584 21.2683C35.381 21.2683 34.8353 20.7226 34.8353 20.0451C34.8353 19.3677 35.381 18.822 36.0584 18.822C36.7358 18.822 37.2815 19.3677 37.2815 20.0451Z" fill="white"/>
<defs>
<linearGradient id="paint0_linear" x1="-0.0130969" y1="26.1288" x2="51.9615" y2="25.8518" gradientUnits="userSpaceOnUse">
<stop stop-color="#00629E"/>
<stop offset="1" stop-color="#00CBD6"/>
</linearGradient>
</defs>
</svg>
