<svg width="188" height="189" viewBox="0 0 188 189" fill="none" xmlns="http://www.w3.org/2000/svg">
<g style="mix-blend-mode:overlay">
<path d="M94.0677 182.342C142.51 182.342 181.78 143.072 181.78 94.63C181.78 46.1878 142.51 6.91772 94.0677 6.91772C45.6256 6.91772 6.35547 46.1878 6.35547 94.63C6.35547 143.072 45.6256 182.342 94.0677 182.342Z" fill="white"/>
</g>
<g filter="url(#filter0_d)">
<path d="M94.0913 173.554C137.671 173.554 172.999 138.226 172.999 94.6465C172.999 51.067 137.671 15.7388 94.0913 15.7388C50.5118 15.7388 15.1836 51.067 15.1836 94.6465C15.1836 138.226 50.5118 173.554 94.0913 173.554Z" fill="url(#paint0_radial)"/>
</g>
<path d="M94.3992 169.798C136.041 169.798 169.799 136.041 169.799 94.3992C169.799 52.7574 136.041 19 94.3992 19C52.7574 19 19 52.7574 19 94.3992C19 136.041 52.7574 169.798 94.3992 169.798Z" fill="#76FFFF"/>
<mask id="mask0" mask-type="alpha" maskUnits="userSpaceOnUse" x="19" y="19" width="151" height="151">
<path d="M94.3992 169.798C136.041 169.798 169.799 136.041 169.799 94.3992C169.799 52.7574 136.041 19 94.3992 19C52.7574 19 19 52.7574 19 94.3992C19 136.041 52.7574 169.798 94.3992 169.798Z" fill="#76FFFF"/>
</mask>
<g mask="url(#mask0)">
<path d="M187.642 109.903L110.878 186.635C102.389 195.122 88.5487 195.122 80.0591 186.635L3.36721 109.903C-5.1224 101.417 -5.1224 87.5827 3.36721 79.0966L80.0591 2.36461C88.5487 -6.12154 102.389 -6.12154 110.878 2.36461L187.57 79.0252C196.131 87.5827 196.131 101.417 187.642 109.903Z" fill="url(#paint1_linear)"/>
<path d="M131.655 87.3906L117.401 128.275C116.845 129.596 115.941 130.5 114.62 130.986L113.855 131.125C113.647 131.195 113.438 131.195 113.16 131.195H112.951C112.743 131.195 112.465 131.195 112.256 131.125C111.144 130.847 110.309 130.43 109.753 129.804C109.058 129.109 108.223 127.162 107.319 124.033L96.1249 92.4664C95.5687 91.7015 95.0125 91.3539 94.4562 91.3539H93.9695C92.7875 91.3539 91.8836 92.814 91.1883 95.6648C91.0492 96.0124 87.1555 106.998 79.5767 128.622C79.0899 129.665 78.186 130.5 77.004 130.986C76.865 131.056 76.7259 131.056 76.5173 131.125C76.4478 131.125 76.3782 131.125 76.3087 131.195C76.1001 131.264 75.822 131.264 75.5439 131.264H75.0572C73.9447 131.264 72.8322 130.639 71.7892 129.387C71.372 128.761 70.6767 126.884 69.7033 123.894C58.1612 91.1453 52.3207 74.5275 52.2512 73.9712C52.1816 73.6236 52.1816 73.2759 52.1816 73.0673C52.1816 71.19 53.155 69.7994 55.1019 68.8955C55.6581 68.6869 56.2144 68.6174 56.7706 68.6174C59.0651 68.6174 60.5948 70.0775 61.4987 72.9978C69.2166 95.1085 73.2494 106.512 73.597 107.346C74.1533 108.111 74.7095 108.528 75.2658 108.528H75.822C76.9345 108.528 77.7689 107.276 78.3251 104.843L90.2148 71.2595C91.2578 69.4517 92.5094 68.5479 94.1086 68.5479H94.5953C96.125 68.5479 97.3765 69.3822 98.4195 71.1205C98.6976 71.7462 102.591 82.8711 110.17 104.634C110.935 107.068 111.63 108.319 112.326 108.319C112.326 108.458 112.534 108.528 112.882 108.528H113.438C114.551 108.528 115.385 107.276 115.941 104.843L122.964 84.9571L131.655 87.3906ZM131.794 86.3477C131.794 88.8508 129.778 90.8672 127.275 90.8672C124.772 90.8672 122.755 88.8508 122.755 86.3477C122.755 83.8446 124.772 81.8282 127.275 81.8282C129.778 81.8282 131.794 83.7751 131.794 86.3477ZM135.757 73.0673C135.757 75.5704 133.741 77.5868 131.238 77.5868C128.735 77.5868 126.718 75.5704 126.718 73.0673C126.718 70.5642 128.735 68.5479 131.238 68.5479C133.741 68.5479 135.757 70.5642 135.757 73.0673Z" fill="white"/>
</g>
<defs>
<filter id="filter0_d" x="0.183594" y="0.73877" width="187.815" height="187.815" filterUnits="userSpaceOnUse" color-interpolation-filters="sRGB">
<feFlood flood-opacity="0" result="BackgroundImageFix"/>
<feColorMatrix in="SourceAlpha" type="matrix" values="0 0 0 0 0 0 0 0 0 0 0 0 0 0 0 0 0 0 127 0"/>
<feOffset/>
<feGaussianBlur stdDeviation="7.5"/>
<feColorMatrix type="matrix" values="0 0 0 0 0 0 0 0 0 0 0 0 0 0 0 0 0 0 1 0"/>
<feBlend mode="normal" in2="BackgroundImageFix" result="effect1_dropShadow"/>
<feBlend mode="normal" in="SourceGraphic" in2="effect1_dropShadow" result="shape"/>
</filter>
<radialGradient id="paint0_radial" cx="0" cy="0" r="1" gradientUnits="userSpaceOnUse" gradientTransform="translate(-27858.9 81435.8) rotate(80.78) scale(21283)">
<stop stop-color="#00F8FF"/>
<stop offset="0.07" stop-color="#03C4E5"/>
<stop offset="0.17" stop-color="#0786C6"/>
<stop offset="0.25" stop-color="#0A55AD"/>
<stop offset="0.33" stop-color="#0C329B"/>
<stop offset="0.39" stop-color="#0E1C90"/>
<stop offset="0.43" stop-color="#0E148C"/>
<stop offset="0.45" stop-color="#0D1384"/>
<stop offset="0.54" stop-color="#080C55"/>
<stop offset="0.63" stop-color="#050730"/>
<stop offset="0.71" stop-color="#020316"/>
<stop offset="0.78" stop-color="#010106"/>
<stop offset="0.84"/>
</radialGradient>
<linearGradient id="paint1_linear" x1="-14.5" y1="121.5" x2="115.5" y2="100.999" gradientUnits="userSpaceOnUse">
<stop stop-color="#00629E"/>
<stop offset="1" stop-color="#00CBD6"/>
</linearGradient>
</defs>
</svg>
