<svg width="1220" height="457" viewBox="0 0 1220 457" fill="none" xmlns="http://www.w3.org/2000/svg">
<g filter="url(#filter0_f)">
<path d="M931.992 64.6279C932.357 49.023 919.874 37 904.134 37C888.393 37 874.642 49.023 875.007 64.6279C875.364 79.898 888.731 91 904.134 91C919.537 91 931.635 79.898 931.992 64.6279Z" fill="#142AA8"/>
<path d="M931.992 64.6279C932.357 49.023 919.874 37 904.134 37C888.393 37 874.642 49.023 875.007 64.6279C875.364 79.898 888.731 91 904.134 91C919.537 91 931.635 79.898 931.992 64.6279Z" stroke="#041782"/>
</g>
<g filter="url(#filter1_f)">
<path d="M914.502 63C914.646 56.7869 909.718 52 903.503 52C897.288 52 891.859 56.7869 892.003 63C892.144 69.0798 897.421 73.5 903.503 73.5C909.584 73.5 914.361 69.0798 914.502 63Z" fill="#1936E0"/>
<path d="M914.502 63C914.646 56.7869 909.718 52 903.503 52C897.288 52 891.859 56.7869 892.003 63C892.144 69.0798 897.421 73.5 903.503 73.5C909.584 73.5 914.361 69.0798 914.502 63Z" stroke="#1936E0"/>
</g>
<g filter="url(#filter2_f)">
<path d="M956.992 387.628C957.357 372.023 944.874 360 929.134 360C913.393 360 899.642 372.023 900.007 387.628C900.364 402.898 913.731 414 929.134 414C944.537 414 956.635 402.898 956.992 387.628Z" fill="#1650B4"/>
<path d="M956.992 387.628C957.357 372.023 944.874 360 929.134 360C913.393 360 899.642 372.023 900.007 387.628C900.364 402.898 913.731 414 929.134 414C944.537 414 956.635 402.898 956.992 387.628Z" stroke="#041782"/>
</g>
<g filter="url(#filter3_f)">
<path d="M937.839 386.209C937.96 381.008 933.833 377 928.63 377C923.427 377 918.882 381.008 919.002 386.209C919.12 391.299 923.539 395 928.63 395C933.722 395 937.721 391.299 937.839 386.209Z" fill="#2D64DB"/>
<path d="M937.839 386.209C937.96 381.008 933.833 377 928.63 377C923.427 377 918.882 381.008 919.002 386.209C919.12 391.299 923.539 395 928.63 395C933.722 395 937.721 391.299 937.839 386.209Z" stroke="#1936E0"/>
</g>
<g filter="url(#filter4_f)">
<path d="M663.992 69.6279C664.357 54.023 651.874 42 636.134 42C620.393 42 606.642 54.023 607.007 69.6279C607.364 84.898 620.731 96 636.134 96C651.537 96 663.635 84.898 663.992 69.6279Z" fill="#273CB0"/>
<path d="M663.992 69.6279C664.357 54.023 651.874 42 636.134 42C620.393 42 606.642 54.023 607.007 69.6279C607.364 84.898 620.731 96 636.134 96C651.537 96 663.635 84.898 663.992 69.6279Z" stroke="#142792"/>
</g>
<g filter="url(#filter5_f)">
<path d="M643.699 66.6744C643.8 62.3397 640.361 59 636.025 59C631.689 59 627.901 62.3397 628.002 66.6744C628.1 70.9161 631.782 74 636.025 74C640.268 74 643.601 70.9161 643.699 66.6744Z" fill="#2C5CDA"/>
<path d="M643.699 66.6744C643.8 62.3397 640.361 59 636.025 59C631.689 59 627.901 62.3397 628.002 66.6744C628.1 70.9161 631.782 74 636.025 74C640.268 74 643.601 70.9161 643.699 66.6744Z" stroke="#183CB6"/>
</g>
<g filter="url(#filter6_f)">
<path d="M371.992 399.628C372.357 384.023 359.874 372 344.134 372C328.393 372 314.642 384.023 315.007 399.628C315.364 414.898 328.731 426 344.134 426C359.537 426 371.635 414.898 371.992 399.628Z" fill="#273CB0"/>
<path d="M371.992 399.628C372.357 384.023 359.874 372 344.134 372C328.393 372 314.642 384.023 315.007 399.628C315.364 414.898 328.731 426 344.134 426C359.537 426 371.635 414.898 371.992 399.628Z" stroke="#142792"/>
</g>
<g filter="url(#filter7_f)">
<path d="M573.993 384.07C574.326 369.91 562.938 359 548.578 359C534.219 359 521.673 369.91 522.006 384.07C522.333 397.926 534.527 408 548.578 408C562.63 408 573.667 397.926 573.993 384.07Z" fill="#273CB0"/>
<path d="M573.993 384.07C574.326 369.91 562.938 359 548.578 359C534.219 359 521.673 369.91 522.006 384.07C522.333 397.926 534.527 408 548.578 408C562.63 408 573.667 397.926 573.993 384.07Z" stroke="#142792"/>
</g>
<g filter="url(#filter8_f)">
<path d="M351.699 396.674C351.8 392.34 348.361 389 344.025 389C339.689 389 335.901 392.34 336.002 396.674C336.1 400.916 339.782 404 344.025 404C348.268 404 351.601 400.916 351.699 396.674Z" fill="#2C5CDA"/>
<path d="M351.699 396.674C351.8 392.34 348.361 389 344.025 389C339.689 389 335.901 392.34 336.002 396.674C336.1 400.916 339.782 404 344.025 404C348.268 404 351.601 400.916 351.699 396.674Z" stroke="#183CB6"/>
</g>
<g filter="url(#filter9_f)">
<path d="M563.398 195.349C563.599 186.679 556.722 180 548.05 180C539.379 180 531.803 186.679 532.004 195.349C532.201 203.832 539.565 210 548.05 210C556.536 210 563.201 203.832 563.398 195.349Z" fill="#204EC2"/>
<path d="M563.398 195.349C563.599 186.679 556.722 180 548.05 180C539.379 180 531.803 186.679 532.004 195.349C532.201 203.832 539.565 210 548.05 210C556.536 210 563.201 203.832 563.398 195.349Z" stroke="#183CB6"/>
</g>
<g filter="url(#filter10_f)">
<path d="M480.992 156.628C481.357 141.023 468.874 129 453.134 129C437.393 129 423.642 141.023 424.007 156.628C424.364 171.898 437.731 183 453.134 183C468.537 183 480.635 171.898 480.992 156.628Z" fill="#1C2F9A"/>
<path d="M480.992 156.628C481.357 141.023 468.874 129 453.134 129C437.393 129 423.642 141.023 424.007 156.628C424.364 171.898 437.731 183 453.134 183C468.537 183 480.635 171.898 480.992 156.628Z" stroke="#142792"/>
</g>
<g filter="url(#filter11_f)">
<path d="M460.699 153.674C460.8 149.34 457.361 146 453.025 146C448.689 146 444.901 149.34 445.002 153.674C445.1 157.916 448.782 161 453.025 161C457.268 161 460.601 157.916 460.699 153.674Z" fill="#2C5CDA"/>
<path d="M460.699 153.674C460.8 149.34 457.361 146 453.025 146C448.689 146 444.901 149.34 445.002 153.674C445.1 157.916 448.782 161 453.025 161C457.268 161 460.601 157.916 460.699 153.674Z" stroke="#183CB6"/>
</g>
<g filter="url(#filter12_f)">
<path d="M502.998 268.628C503.069 265.449 500.66 263 497.622 263C494.585 263 491.931 265.449 492.001 268.628C492.07 271.738 494.65 274 497.622 274C500.595 274 502.93 271.738 502.998 268.628Z" fill="#185ADE"/>
<path d="M502.998 268.628C503.069 265.449 500.66 263 497.622 263C494.585 263 491.931 265.449 492.001 268.628C492.07 271.738 494.65 274 497.622 274C500.595 274 502.93 271.738 502.998 268.628Z" stroke="#183CB6"/>
</g>
<g filter="url(#filter13_f)">
<path d="M509.999 347.093C510.05 344.781 508.298 343 506.089 343C503.88 343 501.95 344.781 502.001 347.093C502.051 349.355 503.927 351 506.089 351C508.251 351 509.949 349.355 509.999 347.093Z" fill="#185ADE"/>
<path d="M509.999 347.093C510.05 344.781 508.298 343 506.089 343C503.88 343 501.95 344.781 502.001 347.093C502.051 349.355 503.927 351 506.089 351C508.251 351 509.949 349.355 509.999 347.093Z" stroke="#183CB6"/>
</g>
<g filter="url(#filter14_f)">
<path d="M851.999 153.093C852.05 150.781 850.298 149 848.089 149C845.88 149 843.95 150.781 844.001 153.093C844.051 155.355 845.927 157 848.089 157C850.251 157 851.949 155.355 851.999 153.093Z" fill="#185ADE"/>
<path d="M851.999 153.093C852.05 150.781 850.298 149 848.089 149C845.88 149 843.95 150.781 844.001 153.093C844.051 155.355 845.927 157 848.089 157C850.251 157 851.949 155.355 851.999 153.093Z" stroke="#183CB6"/>
</g>
<g filter="url(#filter15_f)">
<path d="M751.999 197.093C752.05 194.781 750.298 193 748.089 193C745.88 193 743.95 194.781 744.001 197.093C744.051 199.355 745.927 201 748.089 201C750.251 201 751.949 199.355 751.999 197.093Z" fill="#185ADE"/>
<path d="M751.999 197.093C752.05 194.781 750.298 193 748.089 193C745.88 193 743.95 194.781 744.001 197.093C744.051 199.355 745.927 201 748.089 201C750.251 201 751.949 199.355 751.999 197.093Z" stroke="#183CB6"/>
</g>
<g filter="url(#filter16_f)">
<path d="M815.999 241.093C816.05 238.781 814.298 237 812.089 237C809.88 237 807.95 238.781 808.001 241.093C808.051 243.355 809.927 245 812.089 245C814.251 245 815.949 243.355 815.999 241.093Z" fill="#1959E0"/>
<path d="M815.999 241.093C816.05 238.781 814.298 237 812.089 237C809.88 237 807.95 238.781 808.001 241.093C808.051 243.355 809.927 245 812.089 245C814.251 245 815.949 243.355 815.999 241.093Z" stroke="#3B73E5"/>
</g>
<g filter="url(#filter17_f)">
<path d="M834.999 299.093C835.05 296.781 833.298 295 831.089 295C828.88 295 826.95 296.781 827.001 299.093C827.051 301.355 828.927 303 831.089 303C833.251 303 834.949 301.355 834.999 299.093Z" fill="#1959E0"/>
<path d="M834.999 299.093C835.05 296.781 833.298 295 831.089 295C828.88 295 826.95 296.781 827.001 299.093C827.051 301.355 828.927 303 831.089 303C833.251 303 834.949 301.355 834.999 299.093Z" stroke="#3B73E5"/>
</g>
<defs>
<filter id="filter0_f" x="844.5" y="6.5" width="118" height="115" filterUnits="userSpaceOnUse" color-interpolation-filters="sRGB">
<feFlood flood-opacity="0" result="BackgroundImageFix"/>
<feBlend mode="normal" in="SourceGraphic" in2="BackgroundImageFix" result="shape"/>
<feGaussianBlur stdDeviation="15" result="effect1_foregroundBlur"/>
</filter>
<filter id="filter1_f" x="881.5" y="41.5" width="43.5051" height="42.5" filterUnits="userSpaceOnUse" color-interpolation-filters="sRGB">
<feFlood flood-opacity="0" result="BackgroundImageFix"/>
<feBlend mode="normal" in="SourceGraphic" in2="BackgroundImageFix" result="shape"/>
<feGaussianBlur stdDeviation="5" result="effect1_foregroundBlur"/>
</filter>
<filter id="filter2_f" x="869.5" y="329.5" width="118" height="115" filterUnits="userSpaceOnUse" color-interpolation-filters="sRGB">
<feFlood flood-opacity="0" result="BackgroundImageFix"/>
<feBlend mode="normal" in="SourceGraphic" in2="BackgroundImageFix" result="shape"/>
<feGaussianBlur stdDeviation="15" result="effect1_foregroundBlur"/>
</filter>
<filter id="filter3_f" x="908.5" y="366.5" width="39.8415" height="39" filterUnits="userSpaceOnUse" color-interpolation-filters="sRGB">
<feFlood flood-opacity="0" result="BackgroundImageFix"/>
<feBlend mode="normal" in="SourceGraphic" in2="BackgroundImageFix" result="shape"/>
<feGaussianBlur stdDeviation="5" result="effect1_foregroundBlur"/>
</filter>
<filter id="filter4_f" x="576.5" y="11.5" width="118" height="115" filterUnits="userSpaceOnUse" color-interpolation-filters="sRGB">
<feFlood flood-opacity="0" result="BackgroundImageFix"/>
<feBlend mode="normal" in="SourceGraphic" in2="BackgroundImageFix" result="shape"/>
<feGaussianBlur stdDeviation="15" result="effect1_foregroundBlur"/>
</filter>
<filter id="filter5_f" x="622.5" y="53.5" width="26.7012" height="26" filterUnits="userSpaceOnUse" color-interpolation-filters="sRGB">
<feFlood flood-opacity="0" result="BackgroundImageFix"/>
<feBlend mode="normal" in="SourceGraphic" in2="BackgroundImageFix" result="shape"/>
<feGaussianBlur stdDeviation="2.5" result="effect1_foregroundBlur"/>
</filter>
<filter id="filter6_f" x="284.5" y="341.5" width="118" height="115" filterUnits="userSpaceOnUse" color-interpolation-filters="sRGB">
<feFlood flood-opacity="0" result="BackgroundImageFix"/>
<feBlend mode="normal" in="SourceGraphic" in2="BackgroundImageFix" result="shape"/>
<feGaussianBlur stdDeviation="15" result="effect1_foregroundBlur"/>
</filter>
<filter id="filter7_f" x="491.5" y="328.5" width="113" height="110" filterUnits="userSpaceOnUse" color-interpolation-filters="sRGB">
<feFlood flood-opacity="0" result="BackgroundImageFix"/>
<feBlend mode="normal" in="SourceGraphic" in2="BackgroundImageFix" result="shape"/>
<feGaussianBlur stdDeviation="15" result="effect1_foregroundBlur"/>
</filter>
<filter id="filter8_f" x="330.5" y="383.5" width="26.7012" height="26" filterUnits="userSpaceOnUse" color-interpolation-filters="sRGB">
<feFlood flood-opacity="0" result="BackgroundImageFix"/>
<feBlend mode="normal" in="SourceGraphic" in2="BackgroundImageFix" result="shape"/>
<feGaussianBlur stdDeviation="2.5" result="effect1_foregroundBlur"/>
</filter>
<filter id="filter9_f" x="511.5" y="159.5" width="72.4024" height="71" filterUnits="userSpaceOnUse" color-interpolation-filters="sRGB">
<feFlood flood-opacity="0" result="BackgroundImageFix"/>
<feBlend mode="normal" in="SourceGraphic" in2="BackgroundImageFix" result="shape"/>
<feGaussianBlur stdDeviation="10" result="effect1_foregroundBlur"/>
</filter>
<filter id="filter10_f" x="393.5" y="98.5" width="118" height="115" filterUnits="userSpaceOnUse" color-interpolation-filters="sRGB">
<feFlood flood-opacity="0" result="BackgroundImageFix"/>
<feBlend mode="normal" in="SourceGraphic" in2="BackgroundImageFix" result="shape"/>
<feGaussianBlur stdDeviation="15" result="effect1_foregroundBlur"/>
</filter>
<filter id="filter11_f" x="439.5" y="140.5" width="26.7012" height="26" filterUnits="userSpaceOnUse" color-interpolation-filters="sRGB">
<feFlood flood-opacity="0" result="BackgroundImageFix"/>
<feBlend mode="normal" in="SourceGraphic" in2="BackgroundImageFix" result="shape"/>
<feGaussianBlur stdDeviation="2.5" result="effect1_foregroundBlur"/>
</filter>
<filter id="filter12_f" x="486.5" y="257.5" width="22" height="22" filterUnits="userSpaceOnUse" color-interpolation-filters="sRGB">
<feFlood flood-opacity="0" result="BackgroundImageFix"/>
<feBlend mode="normal" in="SourceGraphic" in2="BackgroundImageFix" result="shape"/>
<feGaussianBlur stdDeviation="2.5" result="effect1_foregroundBlur"/>
</filter>
<filter id="filter13_f" x="496.5" y="337.5" width="19" height="19" filterUnits="userSpaceOnUse" color-interpolation-filters="sRGB">
<feFlood flood-opacity="0" result="BackgroundImageFix"/>
<feBlend mode="normal" in="SourceGraphic" in2="BackgroundImageFix" result="shape"/>
<feGaussianBlur stdDeviation="2.5" result="effect1_foregroundBlur"/>
</filter>
<filter id="filter14_f" x="833.5" y="138.5" width="29" height="29" filterUnits="userSpaceOnUse" color-interpolation-filters="sRGB">
<feFlood flood-opacity="0" result="BackgroundImageFix"/>
<feBlend mode="normal" in="SourceGraphic" in2="BackgroundImageFix" result="shape"/>
<feGaussianBlur stdDeviation="5" result="effect1_foregroundBlur"/>
</filter>
<filter id="filter15_f" x="733.5" y="182.5" width="29" height="29" filterUnits="userSpaceOnUse" color-interpolation-filters="sRGB">
<feFlood flood-opacity="0" result="BackgroundImageFix"/>
<feBlend mode="normal" in="SourceGraphic" in2="BackgroundImageFix" result="shape"/>
<feGaussianBlur stdDeviation="5" result="effect1_foregroundBlur"/>
</filter>
<filter id="filter16_f" x="799.5" y="228.5" width="25" height="25" filterUnits="userSpaceOnUse" color-interpolation-filters="sRGB">
<feFlood flood-opacity="0" result="BackgroundImageFix"/>
<feBlend mode="normal" in="SourceGraphic" in2="BackgroundImageFix" result="shape"/>
<feGaussianBlur stdDeviation="4" result="effect1_foregroundBlur"/>
</filter>
<filter id="filter17_f" x="818.5" y="286.5" width="25" height="25" filterUnits="userSpaceOnUse" color-interpolation-filters="sRGB">
<feFlood flood-opacity="0" result="BackgroundImageFix"/>
<feBlend mode="normal" in="SourceGraphic" in2="BackgroundImageFix" result="shape"/>
<feGaussianBlur stdDeviation="4" result="effect1_foregroundBlur"/>
</filter>
</defs>
</svg>
