<svg width="24" height="24" viewBox="0 0 24 24" fill="none" xmlns="http://www.w3.org/2000/svg">
<path d="M23.2969 11.2969H21.1875C20.7992 11.2969 20.4844 11.6117 20.4844 12C20.4844 12.3883 20.7992 12.7031 21.1875 12.7031H23.2969C23.6852 12.7031 24 12.3883 24 12C24 11.6117 23.6852 11.2969 23.2969 11.2969Z" fill="#76FFFF"/>
<path d="M22.3878 15.7215L20.9816 14.3153C20.707 14.0407 20.2618 14.0407 19.9872 14.3153C19.7126 14.5898 19.7126 15.035 19.9872 15.3096L21.3935 16.7159C21.668 16.9905 22.1133 16.9905 22.3878 16.7159C22.6624 16.4413 22.6624 15.9961 22.3878 15.7215Z" fill="#76FFFF"/>
<path d="M22.3878 7.28404C22.1133 7.00949 21.668 7.00949 21.3935 7.28404L19.9872 8.69029C19.7126 8.96488 19.7126 9.41005 19.9872 9.68464C20.2618 9.95924 20.707 9.95919 20.9816 9.68464L22.3878 8.27839C22.6624 8.0038 22.6624 7.55863 22.3878 7.28404Z" fill="#76FFFF"/>
<path d="M16.2656 2.85938C15.2095 2.85938 14.3323 3.63961 14.1798 4.65394L13.5384 5.29533C12.4221 6.41166 10.7781 7.07812 9.14062 7.07812H4.92188C4.00523 7.07812 3.22369 7.66598 2.93344 8.48438H2.8125C1.26169 8.48438 0 9.74606 0 11.2969C0 12.8477 1.26169 14.1094 2.8125 14.1094H2.93344C3.14564 14.7077 3.62044 15.1825 4.21875 15.3947V19.0312C4.21875 20.1944 5.16506 21.1406 6.32817 21.1406C7.49123 21.1406 8.4375 20.1944 8.4375 19.0312V15.5156H9.14062C10.7781 15.5156 12.4221 16.1821 13.5384 17.2984L14.1798 17.9398C14.3323 18.9541 15.2095 19.7344 16.2657 19.7344C17.4287 19.7344 18.375 18.7881 18.375 17.625V4.96875C18.375 3.80564 17.4287 2.85938 16.2656 2.85938ZM2.8125 12.7031C2.03709 12.7031 1.40625 12.0723 1.40625 11.2969C1.40625 10.5215 2.03709 9.89062 2.8125 9.89062V12.7031ZM7.03125 19.0312C7.03125 19.419 6.71583 19.7344 6.32812 19.7344C5.94042 19.7344 5.625 19.419 5.625 19.0312V15.5156H7.03125V19.0312ZM8.4375 14.1094H4.92188C4.53417 14.1094 4.21875 13.794 4.21875 13.4062V9.1875C4.21875 8.7998 4.53417 8.48438 4.92188 8.48438H8.4375V14.1094ZM14.1562 15.9537C12.9684 14.9257 11.4412 14.2869 9.83906 14.1412L9.83911 8.45245C11.4412 8.30686 12.9684 7.66809 14.1562 6.63998V15.9537ZM16.9688 17.625C16.9688 18.0127 16.6533 18.3281 16.2657 18.3281H16.2656C15.8779 18.3281 15.5625 18.0127 15.5625 17.625V4.96875C15.5625 4.58105 15.8779 4.26562 16.2657 4.26562C16.6533 4.26562 16.9688 4.58105 16.9688 4.96875V17.625Z" fill="#76FFFF"/>
</svg>
