<svg width="301" height="766" viewBox="0 0 301 766" fill="none" xmlns="http://www.w3.org/2000/svg">
<path d="M126.343 358.59C126.572 358.337 126.692 358.004 126.677 357.664C126.663 357.323 126.515 357.002 126.266 356.769C126.495 357.019 126.813 357.169 127.152 357.186C127.491 357.202 127.823 357.085 128.075 356.858C127.847 357.109 127.728 357.44 127.742 357.779C127.757 358.118 127.904 358.437 128.153 358.668C128.04 358.543 127.903 358.443 127.75 358.371C127.598 358.3 127.433 358.26 127.264 358.253C127.096 358.245 126.928 358.271 126.77 358.329C126.612 358.387 126.467 358.476 126.343 358.59Z" fill="white"/>
<path d="M211.98 401.924C211.741 402.163 211.436 402.326 211.105 402.391C210.773 402.457 210.429 402.423 210.117 402.293C209.805 402.164 209.538 401.945 209.35 401.664C209.163 401.383 209.062 401.052 209.062 400.714C209.062 400.376 209.163 400.046 209.35 399.765C209.538 399.483 209.805 399.264 210.117 399.135C210.429 399.005 210.773 398.971 211.105 399.037C211.436 399.103 211.741 399.265 211.98 399.504C212.141 399.662 212.268 399.85 212.355 400.058C212.442 400.266 212.487 400.489 212.487 400.714C212.487 400.939 212.442 401.162 212.355 401.37C212.268 401.578 212.141 401.766 211.98 401.924Z" fill="white"/>
<path d="M2.17767 402.783C1.99887 402.961 1.77135 403.082 1.52383 403.131C1.2763 403.18 1.01988 403.154 0.786901 403.057C0.553927 402.96 0.35483 402.797 0.214785 402.587C0.0747397 402.377 0 402.13 0 401.878C0 401.626 0.0747397 401.379 0.214785 401.169C0.35483 400.959 0.553927 400.796 0.786901 400.699C1.01988 400.602 1.2763 400.577 1.52383 400.625C1.77135 400.674 1.99887 400.795 2.17767 400.973C2.29684 401.092 2.39139 401.233 2.45592 401.388C2.52044 401.543 2.55367 401.71 2.55367 401.878C2.55367 402.046 2.52044 402.213 2.45592 402.368C2.39139 402.523 2.29684 402.664 2.17767 402.783Z" fill="white"/>
<path d="M174.475 256.533C174.296 256.711 174.068 256.832 173.821 256.881C173.573 256.93 173.317 256.904 173.084 256.807C172.851 256.71 172.652 256.547 172.512 256.337C172.372 256.127 172.297 255.88 172.297 255.628C172.297 255.376 172.372 255.129 172.512 254.919C172.652 254.71 172.851 254.546 173.084 254.449C173.317 254.352 173.573 254.327 173.821 254.375C174.068 254.424 174.296 254.545 174.475 254.723C174.594 254.842 174.688 254.983 174.753 255.138C174.817 255.293 174.851 255.46 174.851 255.628C174.851 255.796 174.817 255.963 174.753 256.118C174.688 256.273 174.594 256.414 174.475 256.533Z" fill="white"/>
<path d="M231.498 147.392C231.319 147.57 231.092 147.691 230.844 147.74C230.597 147.789 230.34 147.763 230.107 147.666C229.874 147.57 229.675 147.406 229.535 147.196C229.395 146.986 229.32 146.74 229.32 146.487C229.32 146.235 229.395 145.988 229.535 145.779C229.675 145.569 229.874 145.405 230.107 145.308C230.34 145.212 230.597 145.186 230.844 145.235C231.092 145.283 231.319 145.405 231.498 145.582C231.617 145.701 231.712 145.842 231.776 145.997C231.841 146.153 231.874 146.319 231.874 146.487C231.874 146.656 231.841 146.822 231.776 146.977C231.712 147.133 231.617 147.274 231.498 147.392Z" fill="white"/>
<path d="M287.73 183.335C287.958 183.084 288.078 182.753 288.063 182.415C288.049 182.076 287.901 181.756 287.652 181.526C287.883 181.774 288.202 181.922 288.541 181.936C288.88 181.951 289.211 181.831 289.462 181.603C289.349 181.728 289.261 181.873 289.204 182.032C289.147 182.19 289.122 182.359 289.13 182.527C289.138 182.695 289.18 182.86 289.252 183.012C289.324 183.164 289.426 183.3 289.551 183.413C289.318 183.164 288.997 183.016 288.656 183.001C288.316 182.987 287.983 183.107 287.73 183.335Z" fill="white"/>
<path d="M245.273 236.951C245.501 236.7 245.621 236.369 245.606 236.03C245.592 235.691 245.444 235.372 245.195 235.141C245.426 235.39 245.745 235.537 246.084 235.552C246.423 235.566 246.754 235.447 247.005 235.219C246.776 235.472 246.657 235.805 246.671 236.145C246.686 236.486 246.833 236.807 247.083 237.04C246.854 236.79 246.535 236.64 246.196 236.623C245.857 236.607 245.526 236.724 245.273 236.951Z" fill="white"/>
<path d="M167.242 82.2664C167.47 82.0153 167.589 81.6844 167.575 81.3456C167.56 81.0068 167.413 80.6873 167.164 80.4567C167.395 80.7053 167.714 80.8529 168.053 80.8674C168.392 80.882 168.723 80.7623 168.974 80.5344C168.746 80.7855 168.626 81.1164 168.641 81.4553C168.655 81.7941 168.803 82.1135 169.052 82.3442C168.821 82.0955 168.501 81.9479 168.163 81.9334C167.824 81.9188 167.493 82.0385 167.242 82.2664Z" fill="white"/>
<path d="M230.315 182.736C230.542 182.483 230.66 182.152 230.643 181.813C230.626 181.474 230.477 181.155 230.227 180.926C230.459 181.175 230.78 181.323 231.121 181.338C231.462 181.352 231.794 181.232 232.047 181.004C231.819 181.255 231.7 181.586 231.714 181.925C231.729 182.263 231.877 182.583 232.125 182.813C231.894 182.565 231.575 182.417 231.236 182.403C230.897 182.388 230.566 182.508 230.315 182.736Z" fill="white"/>
<path d="M165.941 159.92C166.17 159.667 166.29 159.334 166.275 158.993C166.26 158.653 166.113 158.331 165.863 158.099C166.092 158.349 166.411 158.499 166.75 158.515C167.089 158.532 167.42 158.414 167.673 158.188C167.445 158.439 167.325 158.77 167.34 159.108C167.355 159.447 167.502 159.767 167.751 159.997C167.637 159.873 167.5 159.772 167.348 159.701C167.195 159.63 167.03 159.589 166.862 159.582C166.694 159.575 166.526 159.601 166.368 159.659C166.21 159.717 166.065 159.805 165.941 159.92Z" fill="white"/>
<path d="M208.189 50.9898C208.417 50.7387 208.537 50.4078 208.522 50.069C208.508 49.7301 208.36 49.4107 208.111 49.1801C208.342 49.4287 208.661 49.5763 209 49.5908C209.339 49.6054 209.67 49.4857 209.921 49.2578C209.693 49.5089 209.573 49.8398 209.588 50.1786C209.603 50.5175 209.75 50.8369 209.999 51.0675C209.768 50.8189 209.449 50.6713 209.11 50.6568C208.771 50.6422 208.44 50.7619 208.189 50.9898Z" fill="white"/>
<path d="M227.275 230.311C227.503 230.06 227.623 229.729 227.608 229.39C227.594 229.052 227.446 228.732 227.197 228.501C227.428 228.75 227.747 228.898 228.086 228.912C228.425 228.927 228.756 228.807 229.007 228.579C228.779 228.83 228.659 229.161 228.674 229.5C228.689 229.839 228.836 230.158 229.085 230.389C228.854 230.14 228.535 229.993 228.196 229.978C227.857 229.964 227.526 230.083 227.275 230.311Z" fill="white"/>
<path d="M217.828 60.2496C218.056 59.9984 218.175 59.6676 218.161 59.3287C218.146 58.9899 217.999 58.6705 217.75 58.4398C217.981 58.6884 218.3 58.8361 218.639 58.8506C218.978 58.8652 219.309 58.7455 219.56 58.5175C219.332 58.7687 219.212 59.0996 219.227 59.4384C219.241 59.7772 219.389 60.0966 219.637 60.3273C219.407 60.0787 219.087 59.9311 218.749 59.9165C218.41 59.902 218.079 60.0216 217.828 60.2496Z" fill="white"/>
<path d="M92.5972 105.849C92.8258 105.596 92.9458 105.263 92.9313 104.922C92.9167 104.582 92.7689 104.261 92.5195 104.028C92.6326 104.156 92.7699 104.26 92.9236 104.334C93.0772 104.409 93.2441 104.452 93.4146 104.461C93.5851 104.471 93.7557 104.446 93.9165 104.389C94.0774 104.331 94.2252 104.243 94.3515 104.128C94.1236 104.379 94.0039 104.71 94.0184 105.049C94.033 105.388 94.1806 105.707 94.4292 105.938C94.3154 105.81 94.1775 105.707 94.0234 105.634C93.8694 105.56 93.7023 105.518 93.5318 105.51C93.3614 105.502 93.191 105.527 93.0305 105.586C92.8701 105.644 92.7228 105.733 92.5972 105.849Z" fill="white"/>
<path d="M151.754 70.242C151.575 70.42 151.348 70.541 151.1 70.5898C150.852 70.6386 150.596 70.613 150.363 70.5162C150.13 70.4194 149.931 70.2558 149.791 70.0459C149.651 69.8361 149.576 69.5894 149.576 69.3371C149.576 69.0848 149.651 68.8382 149.791 68.6284C149.931 68.4185 150.13 68.2549 150.363 68.158C150.596 68.0612 150.852 68.0356 151.1 68.0844C151.348 68.1332 151.575 68.2543 151.754 68.4323C151.873 68.5509 151.968 68.6919 152.032 68.8472C152.097 69.0025 152.13 69.169 152.13 69.3371C152.13 69.5053 152.097 69.6718 152.032 69.8271C151.968 69.9824 151.873 70.1234 151.754 70.242Z" fill="white"/>
<path d="M211.775 214.112C211.597 214.29 211.369 214.411 211.121 214.46C210.874 214.509 210.618 214.483 210.385 214.387C210.152 214.29 209.952 214.126 209.812 213.916C209.672 213.706 209.598 213.46 209.598 213.207C209.598 212.955 209.672 212.709 209.812 212.499C209.952 212.289 210.152 212.125 210.385 212.028C210.618 211.932 210.874 211.906 211.121 211.955C211.369 212.004 211.597 212.125 211.775 212.303C211.894 212.421 211.989 212.562 212.054 212.718C212.118 212.873 212.151 213.039 212.151 213.207C212.151 213.376 212.118 213.542 212.054 213.697C211.989 213.853 211.894 213.994 211.775 214.112Z" fill="white"/>
<path d="M59.5778 154.254C59.3386 154.493 59.0339 154.655 58.7023 154.721C58.3707 154.786 58.0271 154.752 57.7149 154.623C57.4027 154.493 57.1358 154.274 56.9481 153.993C56.7604 153.712 56.6602 153.382 56.6602 153.044C56.6602 152.706 56.7604 152.375 56.9481 152.094C57.1358 151.813 57.4027 151.594 57.7149 151.464C58.0271 151.335 58.3707 151.301 58.7023 151.366C59.0339 151.432 59.3386 151.595 59.5778 151.833C59.7383 151.991 59.8657 152.18 59.9527 152.388C60.0397 152.595 60.0845 152.818 60.0845 153.044C60.0845 153.269 60.0397 153.492 59.9527 153.7C59.8657 153.907 59.7383 154.096 59.5778 154.254Z" fill="white"/>
<path d="M19.7753 165.112C19.5965 165.29 19.369 165.411 19.1215 165.46C18.874 165.509 18.6175 165.483 18.3846 165.387C18.1516 165.29 17.9525 165.126 17.8124 164.916C17.6724 164.706 17.5977 164.46 17.5977 164.207C17.5977 163.955 17.6724 163.709 17.8124 163.499C17.9525 163.289 18.1516 163.125 18.3846 163.028C18.6175 162.932 18.874 162.906 19.1215 162.955C19.369 163.004 19.5965 163.125 19.7753 163.303C19.8945 163.421 19.989 163.562 20.0536 163.718C20.1181 163.873 20.1513 164.039 20.1513 164.207C20.1513 164.376 20.1181 164.542 20.0536 164.697C19.989 164.853 19.8945 164.994 19.7753 165.112Z" fill="white"/>
<g style="mix-blend-mode:overlay">
<path d="M194.716 98.6301C194.831 98.5064 194.919 98.3613 194.977 98.2033C195.035 98.0452 195.061 97.8772 195.054 97.709C195.047 97.5408 195.006 97.3757 194.935 97.2232C194.864 97.0707 194.763 96.9337 194.639 96.8203C194.869 97.0689 195.189 97.2165 195.528 97.2311C195.866 97.2456 196.197 97.126 196.448 96.898C196.222 97.1506 196.104 97.4823 196.121 97.8212C196.137 98.16 196.287 98.4786 196.537 98.7078C196.305 98.4585 195.983 98.3106 195.643 98.296C195.302 98.2815 194.969 98.4015 194.716 98.6301Z" fill="white"/>
</g>
<g style="mix-blend-mode:overlay">
<path d="M185.179 181.713C185.407 181.461 185.527 181.131 185.512 180.792C185.498 180.453 185.35 180.133 185.102 179.903C185.332 180.151 185.652 180.299 185.99 180.314C186.329 180.328 186.66 180.208 186.911 179.981C186.798 180.105 186.71 180.251 186.653 180.409C186.596 180.568 186.571 180.736 186.579 180.904C186.587 181.072 186.629 181.237 186.701 181.389C186.773 181.541 186.875 181.678 187 181.79C186.768 181.541 186.446 181.393 186.106 181.379C185.765 181.364 185.432 181.484 185.179 181.713Z" fill="white"/>
</g>
<g style="mix-blend-mode:overlay">
<path d="M142.722 235.328C142.95 235.077 143.07 234.746 143.055 234.407C143.041 234.068 142.893 233.749 142.645 233.518C142.875 233.767 143.195 233.914 143.533 233.929C143.872 233.943 144.203 233.824 144.454 233.596C144.226 233.849 144.106 234.181 144.12 234.522C144.135 234.863 144.283 235.184 144.532 235.417C144.303 235.166 143.984 235.017 143.645 235C143.307 234.984 142.975 235.101 142.722 235.328Z" fill="white"/>
</g>
<g style="mix-blend-mode:overlay">
<path d="M244.324 78.7226C244.552 78.4715 244.671 78.1406 244.657 77.8017C244.642 77.4629 244.495 77.1435 244.246 76.9128C244.48 77.1584 244.801 77.3019 245.14 77.3123C245.478 77.3227 245.808 77.1991 246.056 76.9684C245.828 77.2195 245.708 77.5504 245.723 77.8892C245.737 78.228 245.885 78.5475 246.134 78.7781C245.9 78.5326 245.579 78.3891 245.24 78.3787C244.901 78.3683 244.572 78.4919 244.324 78.7226Z" fill="white"/>
</g>
<g style="mix-blend-mode:overlay">
<path d="M127.765 181.113C127.991 180.86 128.109 180.529 128.092 180.19C128.076 179.851 127.926 179.532 127.676 179.303C127.908 179.553 128.23 179.7 128.57 179.715C128.911 179.73 129.244 179.61 129.497 179.381C129.269 179.632 129.149 179.963 129.164 180.302C129.178 180.641 129.326 180.96 129.574 181.191C129.344 180.942 129.024 180.794 128.685 180.78C128.347 180.765 128.016 180.885 127.765 181.113Z" fill="white"/>
</g>
<g style="mix-blend-mode:overlay">
<path d="M124.724 228.688C124.952 228.437 125.072 228.106 125.057 227.768C125.043 227.429 124.895 227.109 124.646 226.879C124.877 227.127 125.197 227.275 125.535 227.289C125.874 227.304 126.205 227.184 126.456 226.956C126.228 227.208 126.109 227.538 126.123 227.877C126.138 228.216 126.285 228.535 126.534 228.766C126.303 228.518 125.984 228.37 125.645 228.355C125.306 228.341 124.975 228.46 124.724 228.688Z" fill="white"/>
</g>
<g style="mix-blend-mode:overlay">
<path d="M263.04 137.079C262.802 137.319 262.497 137.483 262.165 137.55C261.833 137.617 261.489 137.584 261.176 137.455C260.862 137.326 260.595 137.107 260.406 136.826C260.218 136.544 260.117 136.213 260.117 135.874C260.117 135.536 260.218 135.205 260.406 134.923C260.595 134.642 260.862 134.423 261.176 134.294C261.489 134.164 261.833 134.131 262.165 134.198C262.497 134.265 262.802 134.429 263.04 134.67C263.356 134.991 263.532 135.424 263.532 135.874C263.532 136.325 263.356 136.757 263.04 137.079Z" fill="white"/>
</g>
<g style="mix-blend-mode:overlay">
<path d="M149.027 201.631C148.788 201.87 148.483 202.032 148.152 202.098C147.82 202.164 147.476 202.13 147.164 202C146.852 201.871 146.585 201.651 146.397 201.37C146.21 201.089 146.109 200.759 146.109 200.421C146.109 200.083 146.21 199.752 146.397 199.471C146.585 199.19 146.852 198.971 147.164 198.841C147.476 198.712 147.82 198.678 148.152 198.744C148.483 198.809 148.788 198.972 149.027 199.211C149.188 199.369 149.315 199.557 149.402 199.765C149.489 199.973 149.534 200.196 149.534 200.421C149.534 200.646 149.489 200.869 149.402 201.077C149.315 201.285 149.188 201.473 149.027 201.631Z" fill="white"/>
</g>
<g style="mix-blend-mode:overlay">
<path d="M109.225 212.49C109.046 212.668 108.818 212.789 108.571 212.837C108.323 212.886 108.067 212.861 107.834 212.764C107.601 212.667 107.402 212.503 107.262 212.293C107.122 212.084 107.047 211.837 107.047 211.585C107.047 211.332 107.122 211.086 107.262 210.876C107.402 210.666 107.601 210.502 107.834 210.406C108.067 210.309 108.323 210.283 108.571 210.332C108.818 210.381 109.046 210.502 109.225 210.68C109.344 210.798 109.438 210.939 109.503 211.095C109.567 211.25 109.601 211.417 109.601 211.585C109.601 211.753 109.567 211.919 109.503 212.075C109.438 212.23 109.344 212.371 109.225 212.49Z" fill="white"/>
</g>
<g style="mix-blend-mode:overlay">
<path d="M244.946 20.4662C244.946 20.4662 234.698 20.4662 231.922 20.4662C229.491 20.5217 229.313 21.1879 231.922 21.1324C235.519 21.088 244.946 20.4662 244.946 20.4662Z" fill="white"/>
</g>
<g style="mix-blend-mode:overlay">
<path d="M257.379 30.3367C257.379 30.3367 247.131 30.3367 244.344 30.3367C241.923 30.3922 241.735 31.0583 244.344 30.9917C247.908 30.9584 257.379 30.3367 257.379 30.3367Z" fill="white"/>
</g>
<g style="mix-blend-mode:overlay">
<path d="M210.968 83.5302C210.968 83.5302 189.873 83.5302 184.122 83.619C179.136 83.73 178.759 85.1068 184.199 84.9735C191.449 84.807 210.968 83.5302 210.968 83.5302Z" fill="white"/>
</g>
<g style="mix-blend-mode:overlay">
<path d="M163.172 65.4659C163.172 65.4659 142.076 65.4659 136.336 65.5548C131.351 65.6658 130.962 67.0425 136.403 66.9093C143.664 66.7428 163.172 65.4659 163.172 65.4659Z" fill="white"/>
</g>
<g style="mix-blend-mode:overlay">
<path d="M248.64 4.35608C248.64 4.35608 241.079 4.35608 239.036 4.35608C237.248 4.35608 237.104 4.889 239.036 4.84459C241.612 4.80018 248.64 4.35608 248.64 4.35608Z" fill="white"/>
</g>
<g style="mix-blend-mode:overlay">
<path d="M291.252 4.86682C291.252 4.86682 275.708 4.86682 271.456 4.92234C267.77 5.01116 267.492 6.03262 271.512 5.9327C276.863 5.81057 291.252 4.86682 291.252 4.86682Z" fill="white"/>
</g>
<path d="M229.562 69.8757C229.79 69.6245 229.91 69.2937 229.895 68.9548C229.881 68.616 229.733 68.2966 229.484 68.0659C229.715 68.3145 230.034 68.4621 230.373 68.4767C230.712 68.4913 231.043 68.3716 231.294 68.1436C231.066 68.3948 230.947 68.7257 230.961 69.0645C230.976 69.4033 231.123 69.7227 231.372 69.9534C231.141 69.7048 230.822 69.5572 230.483 69.5426C230.144 69.5281 229.813 69.6477 229.562 69.8757Z" fill="white"/>
<path d="M154.918 93.4581C155.145 93.207 155.265 92.8761 155.251 92.5372C155.236 92.1984 155.088 91.879 154.84 91.6483C155.071 91.8969 155.39 92.0445 155.729 92.0591C156.068 92.0736 156.398 91.954 156.65 91.726C156.422 91.9772 156.302 92.3081 156.317 92.6469C156.331 92.9857 156.479 93.3051 156.727 93.5358C156.497 93.2872 156.177 93.1396 155.838 93.125C155.5 93.1105 155.169 93.2301 154.918 93.4581Z" fill="white"/>
<path d="M214.072 57.8625C213.893 58.0405 213.666 58.1615 213.418 58.2103C213.171 58.2591 212.914 58.2335 212.681 58.1367C212.448 58.0399 212.249 57.8762 212.109 57.6664C211.969 57.4565 211.895 57.2099 211.895 56.9576C211.895 56.7053 211.969 56.4587 212.109 56.2488C212.249 56.039 212.448 55.8753 212.681 55.7785C212.914 55.6817 213.171 55.6561 213.418 55.7049C213.666 55.7537 213.893 55.8747 214.072 56.0527C214.191 56.1714 214.286 56.3124 214.35 56.4677C214.415 56.6229 214.448 56.7895 214.448 56.9576C214.448 57.1258 214.415 57.2923 214.35 57.4476C214.286 57.6028 214.191 57.7439 214.072 57.8625Z" fill="white"/>
<g style="mix-blend-mode:overlay">
<path d="M53.0404 116.079C52.8018 116.319 52.4972 116.483 52.1652 116.55C51.8331 116.617 51.4887 116.584 51.1756 116.455C50.8624 116.326 50.5946 116.107 50.4062 115.826C50.2178 115.544 50.1172 115.213 50.1172 114.874C50.1172 114.536 50.2178 114.205 50.4062 113.923C50.5946 113.642 50.8624 113.423 51.1756 113.294C51.4887 113.164 51.8331 113.131 52.1652 113.198C52.4972 113.265 52.8018 113.429 53.0404 113.67C53.3557 113.991 53.5324 114.424 53.5324 114.874C53.5324 115.325 53.3557 115.757 53.0404 116.079Z" fill="white"/>
</g>
<path d="M195.076 1.46002C194.956 1.57941 194.804 1.66067 194.638 1.69352C194.472 1.72637 194.301 1.70935 194.145 1.64459C193.988 1.57984 193.855 1.47026 193.761 1.3297C193.667 1.18915 193.617 1.02393 193.617 0.854914C193.617 0.685898 193.667 0.520681 193.761 0.380127C193.855 0.239572 193.988 0.129989 194.145 0.0652341C194.301 0.00047876 194.472 -0.0165459 194.638 0.0163069C194.804 0.0491597 194.956 0.130416 195.076 0.249812C195.156 0.32922 195.219 0.423535 195.262 0.527366C195.305 0.631197 195.327 0.742505 195.327 0.854914C195.327 0.967323 195.305 1.07863 195.262 1.18246C195.219 1.28629 195.156 1.38061 195.076 1.46002Z" fill="white"/>
<path d="M274.096 201.722C273.917 201.9 273.689 202.021 273.442 202.07C273.194 202.118 272.938 202.093 272.705 201.996C272.472 201.899 272.273 201.735 272.133 201.526C271.993 201.316 271.918 201.069 271.918 200.817C271.918 200.565 271.993 200.318 272.133 200.108C272.273 199.898 272.472 199.735 272.705 199.638C272.938 199.541 273.194 199.515 273.442 199.564C273.689 199.613 273.917 199.734 274.096 199.912C274.215 200.031 274.309 200.172 274.374 200.327C274.438 200.482 274.472 200.649 274.472 200.817C274.472 200.985 274.438 201.152 274.374 201.307C274.309 201.462 274.215 201.603 274.096 201.722Z" fill="white"/>
<path d="M263.646 23.6768C263.527 23.7962 263.374 23.8775 263.209 23.9103C263.043 23.9432 262.871 23.9261 262.715 23.8614C262.559 23.7966 262.425 23.6871 262.331 23.5465C262.238 23.406 262.188 23.2407 262.188 23.0717C262.188 22.9027 262.238 22.7375 262.331 22.5969C262.425 22.4564 262.559 22.3468 262.715 22.282C262.871 22.2173 263.043 22.2003 263.209 22.2331C263.374 22.266 263.527 22.3472 263.646 22.4666C263.726 22.546 263.789 22.6403 263.832 22.7442C263.875 22.848 263.897 22.9593 263.897 23.0717C263.897 23.1841 263.875 23.2954 263.832 23.3993C263.789 23.5031 263.726 23.5974 263.646 23.6768Z" fill="white"/>
<path d="M84.9937 590.519C85.2223 590.266 85.3423 589.934 85.3278 589.593C85.3132 589.252 85.1653 588.931 84.916 588.698C85.1452 588.949 85.4637 589.098 85.8026 589.115C86.1415 589.131 86.4732 589.014 86.7258 588.787C86.4978 589.038 86.3782 589.369 86.3927 589.708C86.4073 590.047 86.5548 590.366 86.8034 590.597C86.5728 590.348 86.2534 590.201 85.9146 590.186C85.5757 590.172 85.2449 590.291 84.9937 590.519Z" fill="url(#paint0_linear)"/>
<path d="M75.3668 597.736C75.5954 597.483 75.7154 597.15 75.7009 596.81C75.6863 596.469 75.5384 596.148 75.2891 595.915C75.4017 596.04 75.5381 596.142 75.6902 596.214C75.8424 596.286 76.0073 596.328 76.1755 596.336C76.3437 596.344 76.5119 596.319 76.6703 596.262C76.8288 596.205 76.9744 596.117 77.0988 596.004C76.8709 596.255 76.7512 596.586 76.7658 596.925C76.7803 597.264 76.9279 597.583 77.1766 597.814C76.9459 597.565 76.6265 597.417 76.2877 597.403C75.9488 597.388 75.6179 597.508 75.3668 597.736Z" fill="url(#paint1_linear)"/>
<path d="M231.909 528.107C231.903 528.431 231.8 528.746 231.615 529.012C231.43 529.278 231.171 529.484 230.869 529.603C230.568 529.721 230.238 529.749 229.921 529.681C229.605 529.613 229.315 529.452 229.089 529.22C228.863 528.988 228.71 528.694 228.651 528.376C228.591 528.057 228.627 527.728 228.754 527.43C228.881 527.132 229.094 526.878 229.365 526.7C229.636 526.522 229.953 526.429 230.277 526.431C230.495 526.431 230.711 526.474 230.912 526.559C231.113 526.644 231.295 526.768 231.447 526.924C231.599 527.081 231.719 527.266 231.798 527.469C231.877 527.672 231.915 527.889 231.909 528.107Z" fill="white"/>
<path d="M196.879 509.543C197.038 509.368 197.162 509.164 197.243 508.942C197.324 508.72 197.36 508.484 197.35 508.248C197.34 508.012 197.283 507.78 197.183 507.566C197.083 507.352 196.942 507.16 196.768 507C197.091 507.349 197.54 507.557 198.016 507.578C198.492 507.599 198.957 507.431 199.31 507.111C198.99 507.464 198.822 507.929 198.843 508.405C198.864 508.881 199.072 509.33 199.421 509.654C199.262 509.479 199.069 509.338 198.855 509.238C198.641 509.138 198.409 509.081 198.173 509.071C197.937 509.061 197.701 509.097 197.479 509.178C197.257 509.259 197.053 509.383 196.879 509.543Z" fill="white"/>
<path d="M63.4882 703.068C63.2502 703.305 62.9475 703.466 62.6183 703.531C62.289 703.595 61.948 703.561 61.6382 703.432C61.3283 703.303 61.0636 703.086 60.8774 702.807C60.6911 702.527 60.5918 702.199 60.5918 701.864C60.5918 701.528 60.6911 701.2 60.8774 700.921C61.0636 700.642 61.3283 700.424 61.6382 700.295C61.948 700.166 62.289 700.132 62.6183 700.197C62.9475 700.262 63.2502 700.423 63.4882 700.659C63.647 700.817 63.773 701.005 63.859 701.211C63.945 701.418 63.9893 701.64 63.9893 701.864C63.9893 702.088 63.945 702.309 63.859 702.516C63.773 702.723 63.647 702.911 63.4882 703.068Z" fill="white"/>
<path d="M101.347 580.749C101.257 580.839 101.143 580.9 101.018 580.925C100.893 580.95 100.763 580.937 100.646 580.888C100.528 580.84 100.427 580.757 100.357 580.651C100.286 580.545 100.248 580.421 100.248 580.294C100.248 580.166 100.286 580.042 100.357 579.936C100.427 579.83 100.528 579.747 100.646 579.699C100.763 579.65 100.893 579.637 101.018 579.662C101.143 579.687 101.257 579.748 101.347 579.838C101.466 579.96 101.531 580.124 101.531 580.294C101.531 580.463 101.466 580.627 101.347 580.749Z" fill="white"/>
<path d="M273.451 538.672C273.679 538.419 273.799 538.086 273.785 537.746C273.77 537.405 273.622 537.084 273.373 536.851C273.602 537.102 273.921 537.251 274.26 537.268C274.598 537.284 274.93 537.167 275.183 536.94C274.955 537.191 274.835 537.522 274.85 537.861C274.864 538.2 275.012 538.519 275.26 538.75C275.03 538.501 274.71 538.354 274.372 538.339C274.033 538.325 273.702 538.444 273.451 538.672Z" fill="url(#paint2_linear)"/>
<path d="M171.367 587.736C171.595 587.483 171.715 587.15 171.701 586.81C171.686 586.469 171.538 586.148 171.289 585.915C171.402 586.04 171.538 586.142 171.69 586.214C171.842 586.286 172.007 586.328 172.176 586.336C172.344 586.344 172.512 586.319 172.67 586.262C172.829 586.205 172.974 586.117 173.099 586.004C172.871 586.255 172.751 586.586 172.766 586.925C172.78 587.264 172.928 587.583 173.177 587.814C172.946 587.565 172.626 587.417 172.288 587.403C171.949 587.388 171.618 587.508 171.367 587.736Z" fill="url(#paint3_linear)"/>
<path d="M260.472 581.951C260.382 582.041 260.268 582.102 260.143 582.127C260.018 582.152 259.888 582.139 259.771 582.09C259.653 582.042 259.552 581.959 259.482 581.853C259.411 581.747 259.373 581.623 259.373 581.495C259.373 581.368 259.411 581.243 259.482 581.137C259.552 581.032 259.653 580.949 259.771 580.9C259.888 580.852 260.018 580.839 260.143 580.864C260.268 580.889 260.382 580.95 260.472 581.04C260.591 581.162 260.656 581.325 260.656 581.495C260.656 581.665 260.591 581.828 260.472 581.951Z" fill="white"/>
<g style="mix-blend-mode:overlay">
<path d="M109.135 560.599C109.135 560.599 98.8879 560.442 96.1014 560.4C93.6804 560.418 93.4815 561.081 96.0912 561.066C99.6554 561.076 109.135 560.599 109.135 560.599Z" fill="white"/>
</g>
<g style="mix-blend-mode:overlay">
<path d="M171.521 580.367C171.521 580.367 161.262 580.367 158.486 580.367C156.066 580.367 155.877 581.088 158.486 581.033C162.039 580.977 171.521 580.367 171.521 580.367Z" fill="white"/>
</g>
<g style="mix-blend-mode:overlay">
<path d="M161.296 696.324C161.296 696.324 151.048 696.324 148.261 696.324C145.841 696.38 145.663 697.046 148.261 696.991C151.825 696.935 161.296 696.324 161.296 696.324Z" fill="white"/>
</g>
<g style="mix-blend-mode:overlay">
<path d="M209.316 662.705C209.316 662.705 193.272 662.705 188.92 662.761C185.134 662.849 184.845 663.871 188.976 663.804C194.494 663.649 209.316 662.705 209.316 662.705Z" fill="white"/>
</g>
<g style="mix-blend-mode:overlay">
<path d="M125.113 633.56C125.113 633.56 104.018 633.505 98.2664 633.638C93.2812 633.76 92.8926 635.126 98.3441 635.004C105.594 634.837 125.113 633.56 125.113 633.56Z" fill="white"/>
</g>
<g style="mix-blend-mode:overlay">
<path d="M77.3145 615.496C77.3145 615.496 56.2191 615.496 50.4789 615.574C45.4827 615.696 45.1052 617.061 50.5456 616.939C57.8512 616.773 77.3145 615.496 77.3145 615.496Z" fill="white"/>
</g>
<g style="mix-blend-mode:overlay">
<path d="M162.783 554.386C162.783 554.386 155.222 554.386 153.168 554.386C151.381 554.386 151.248 554.919 153.168 554.875C155.8 554.841 162.783 554.386 162.783 554.386Z" fill="white"/>
</g>
<g style="mix-blend-mode:overlay">
<path d="M170.156 531.925C170.156 531.925 162.594 531.925 160.552 531.925C158.764 531.925 158.62 532.458 160.552 532.414C163.172 532.38 170.156 531.925 170.156 531.925Z" fill="white"/>
</g>
<g style="mix-blend-mode:overlay">
<path d="M205.396 554.897C205.396 554.897 189.852 554.897 185.6 554.897C181.914 554.985 181.636 556.007 185.6 555.896C191.007 555.829 205.396 554.897 205.396 554.897Z" fill="white"/>
</g>
<g style="mix-blend-mode:overlay">
<path d="M300.039 599.851C300.039 599.851 284.495 599.851 280.243 599.851C276.557 599.94 276.279 600.962 280.243 600.851C285.65 600.784 300.039 599.851 300.039 599.851Z" fill="white"/>
</g>
<g style="mix-blend-mode:overlay">
<path d="M205.048 604.442C205.048 604.442 221.092 604.442 225.433 604.376C229.23 604.287 229.519 603.265 225.377 603.343C219.87 603.487 205.048 604.442 205.048 604.442Z" fill="white"/>
</g>
<path d="M243.659 654.528C243.653 654.852 243.55 655.167 243.365 655.433C243.18 655.699 242.921 655.904 242.619 656.023C242.318 656.142 241.988 656.169 241.671 656.101C241.355 656.033 241.065 655.873 240.839 655.641C240.613 655.409 240.46 655.115 240.401 654.796C240.341 654.478 240.377 654.149 240.504 653.851C240.631 653.552 240.844 653.299 241.115 653.121C241.386 652.943 241.703 652.849 242.027 652.851C242.245 652.851 242.461 652.895 242.662 652.98C242.863 653.064 243.045 653.189 243.197 653.345C243.349 653.501 243.469 653.686 243.548 653.89C243.627 654.093 243.665 654.31 243.659 654.528Z" fill="white"/>
<g style="mix-blend-mode:overlay">
<path d="M89.2945 764.851C89.2945 764.851 79.0466 764.851 76.2598 764.851C73.8394 764.907 73.6506 765.573 76.2598 765.517C79.8238 765.473 89.2945 764.851 89.2945 764.851Z" fill="white"/>
</g>
<g style="mix-blend-mode:overlay">
<path d="M125.113 633.56C125.113 633.56 104.018 633.505 98.2664 633.638C93.2812 633.76 92.8926 635.126 98.3441 635.004C105.594 634.837 125.113 633.56 125.113 633.56Z" fill="white"/>
</g>
<defs>
<linearGradient id="paint0_linear" x1="-2743.56" y1="-2376.78" x2="-2739.01" y2="-2376.78" gradientUnits="userSpaceOnUse">
<stop stop-color="white"/>
<stop offset="0.21" stop-color="#76FFFF"/>
<stop offset="1" stop-color="#FEED58"/>
</linearGradient>
<linearGradient id="paint1_linear" x1="-2756.18" y1="-2349.19" x2="-2751.63" y2="-2349.19" gradientUnits="userSpaceOnUse">
<stop stop-color="white"/>
<stop offset="0.21" stop-color="#76FFFF"/>
<stop offset="1" stop-color="#FEED58"/>
</linearGradient>
<linearGradient id="paint2_linear" x1="-2555.1" y1="-2428.62" x2="-2550.55" y2="-2428.62" gradientUnits="userSpaceOnUse">
<stop stop-color="white"/>
<stop offset="0.21" stop-color="#76FFFF"/>
<stop offset="1" stop-color="#FEED58"/>
</linearGradient>
<linearGradient id="paint3_linear" x1="-2660.18" y1="-2359.19" x2="-2655.63" y2="-2359.19" gradientUnits="userSpaceOnUse">
<stop stop-color="white"/>
<stop offset="0.21" stop-color="#76FFFF"/>
<stop offset="1" stop-color="#FEED58"/>
</linearGradient>
</defs>
</svg>
