<svg width="32" height="32" viewBox="0 0 32 32" fill="none" xmlns="http://www.w3.org/2000/svg">
<g clip-path="url(#clip0)">
<path d="M0.726953 8.02161C0.726953 12.2787 4.19015 15.7416 8.44699 15.7416C12.7041 15.7416 16.1673 12.2787 16.1673 8.02161C16.1673 3.76419 12.7041 0.301294 8.44699 0.301294C4.19014 0.301294 0.726953 3.76419 0.726953 8.02161ZM2.03623 8.02161C2.03623 4.48693 4.91202 1.61086 8.44699 1.61086C11.982 1.61086 14.8577 4.48693 14.8577 8.02161C14.8577 11.5563 11.982 14.4324 8.44699 14.4324C4.91202 14.4324 2.03623 11.5563 2.03623 8.02161Z" fill="#76FFFF" stroke="#76FFFF" stroke-width="0.3"/>
<path d="M7.05954 5.44827C7.0051 5.44827 6.94765 5.46686 6.90339 5.51099C6.85905 5.5552 6.84023 5.61277 6.84023 5.66757V10.2467C6.84023 10.3015 6.85905 10.3591 6.90339 10.4033C6.94765 10.4474 7.0051 10.466 7.05954 10.466H8.74572C9.28125 10.466 9.72706 10.3497 10.041 10.0889C10.3599 9.82397 10.5192 9.42985 10.5192 8.92817C10.5192 8.42549 10.2839 8.05047 10.0117 7.84908C10.2579 7.64445 10.4361 7.32402 10.4361 6.85388C10.4361 6.44364 10.3072 6.08514 10.0258 5.83102C9.74653 5.57885 9.33788 5.44827 8.81502 5.44827H7.05954ZM9.31709 6.94397C9.31709 7.09169 9.26654 7.20452 9.18446 7.28114C9.10148 7.3586 8.97255 7.41167 8.79423 7.41167H7.95892V6.46964H8.79423C8.97254 6.46964 9.10121 6.52269 9.18404 6.60061C9.26603 6.67773 9.31709 6.79219 9.31709 6.94397ZM8.83582 9.44467H7.95892V8.43304H8.83582C9.03634 8.43304 9.17482 8.49035 9.26204 8.57257C9.34845 8.65402 9.40054 8.77487 9.40054 8.9351C9.40054 9.09987 9.34794 9.22257 9.2616 9.30462C9.17452 9.38738 9.03633 9.44467 8.83582 9.44467Z" fill="#76FFFF" stroke="#76FFFF" stroke-width="0.3"/>
<path d="M7.79141 5.75042C7.79141 5.97263 7.97136 6.15281 8.19351 6.15281C8.41583 6.15281 8.5959 5.97274 8.5959 5.75042V5.24592C8.5959 5.0236 8.41583 4.84353 8.19351 4.84353C7.97136 4.84353 7.79141 5.02371 7.79141 5.24592V5.75042Z" fill="#76FFFF" stroke="#76FFFF" stroke-width="0.3"/>
<path d="M7.79141 10.7973C7.79141 11.0194 7.97148 11.1994 8.19351 11.1994C8.41572 11.1994 8.5959 11.0195 8.5959 10.7973V10.2926C8.5959 10.0702 8.41583 9.89016 8.19351 9.89016C7.97136 9.89016 7.79141 10.0703 7.79141 10.2926V10.7973Z" fill="#76FFFF" stroke="#76FFFF" stroke-width="0.3"/>
<path d="M15.8656 22.6574C15.8656 26.9145 19.3285 30.3774 23.5857 30.3774C27.8428 30.3774 31.3057 26.9145 31.3057 22.6574C31.3057 18.3999 27.8428 14.937 23.5857 14.937C19.3285 14.937 15.8656 18.3999 15.8656 22.6574ZM17.1749 22.6574C17.1749 19.1227 20.0507 16.2466 23.5857 16.2466C27.1206 16.2466 29.9964 19.1227 29.9964 22.6574C29.9964 26.192 27.1206 29.0681 23.5857 29.0681C20.0507 29.0681 17.1749 26.192 17.1749 22.6574Z" fill="#76FFFF" stroke="#76FFFF" stroke-width="0.3"/>
<path d="M23.1704 25.8316V25.9816H23.3204H23.7975H23.9475V25.8316V25.1675C24.7169 24.9892 25.1436 24.3983 25.1436 23.757C25.1436 23.3871 25.0341 23.0841 24.8118 22.8319C24.5939 22.5846 24.2762 22.396 23.877 22.2332C23.548 22.0971 23.3343 21.9875 23.2024 21.8727C23.081 21.7672 23.0315 21.66 23.0315 21.5091C23.0315 21.393 23.0734 21.2706 23.1689 21.1773C23.2631 21.0853 23.4231 21.0082 23.684 21.0082C24.1306 21.0082 24.4144 21.1604 24.5634 21.2455L24.7159 21.3325L24.7781 21.1683L24.9672 20.6687L25.0121 20.5503L24.9029 20.4863C24.6882 20.3603 24.3971 20.2434 23.9928 20.2093V19.6165V19.4665H23.8428H23.3735H23.2235V19.6165V20.2579C22.537 20.417 22.0803 20.9258 22.0803 21.5998C22.0803 21.9718 22.2175 22.262 22.4613 22.4962C22.6986 22.7241 23.033 22.8955 23.4239 23.0487C23.6967 23.1595 23.8882 23.2713 24.0108 23.3946C24.128 23.5126 24.1849 23.6435 24.1849 23.8104C24.1849 23.9806 24.1144 24.124 23.99 24.2275C23.8637 24.3326 23.6744 24.402 23.4339 24.402C23.0421 24.402 22.6771 24.2684 22.4268 24.1019L22.2672 23.9957L22.2025 24.1762L22.0209 24.6833L21.9827 24.79L22.0749 24.8559C22.3391 25.0448 22.7555 25.1781 23.1704 25.2101V25.8316Z" fill="#76FFFF" stroke="#76FFFF" stroke-width="0.3"/>
<path d="M29.642 15.7417H29.792V15.5917C29.792 8.29565 24.3302 2.19291 17.0876 1.39704L16.9385 1.38066L16.9221 1.52975L16.8118 2.53326L16.7954 2.68237L16.9446 2.69875C23.5223 3.42127 28.4825 8.96377 28.4825 15.5917V15.7417H28.6325H29.642Z" fill="#76FFFF" stroke="#76FFFF" stroke-width="0.3"/>
<path d="M15.5116 29.8727H15.6616V29.7227V28.7132V28.5632H15.5116C8.35914 28.5632 2.54014 22.7445 2.54014 15.5917V15.4417H2.39014H1.38086H1.23086V15.5917C1.23086 23.4666 7.63698 29.8727 15.5116 29.8727Z" fill="#76FFFF" stroke="#76FFFF" stroke-width="0.3"/>
<path d="M17.9963 5.35658L18.0795 5.4814L18.2043 5.39818L19.0441 4.83824L19.1688 4.75503L19.0857 4.63024L17.4784 2.21912L19.8431 1.03718L19.9773 0.970101L19.9102 0.83591L19.4586 -0.0670991L19.3915 -0.201238L19.2573 -0.134164L15.7181 1.63547L15.5661 1.71146L15.6604 1.85284L17.9963 5.35658Z" fill="#76FFFF" stroke="#76FFFF" stroke-width="0.3"/>
<path d="M14.0684 32.116L14.1843 32.2113L14.2796 32.0954L16.9534 28.842L17.0613 28.7107L16.9176 28.62L13.5724 26.5055L13.4456 26.4253L13.3654 26.5522L12.8263 27.4062L12.7462 27.5329L12.873 27.613L15.108 29.0254L13.2684 31.2641L13.1732 31.38L13.289 31.4752L14.0684 32.116Z" fill="#76FFFF" stroke="#76FFFF" stroke-width="0.3"/>
</g>
<defs>
<clipPath id="clip0">
<rect width="32" height="32" fill="white"/>
</clipPath>
</defs>
</svg>
