<svg width="16" height="16" viewBox="0 0 16 16" fill="none" xmlns="http://www.w3.org/2000/svg">
<path d="M14.6704 12.1038L12.1229 10.8302C11.8827 10.7099 11.7333 10.4683 11.7333 10.1995V9.29795C11.7944 9.22328 11.8587 9.13821 11.9251 9.04435C12.2555 8.57768 12.5203 8.05821 12.7128 7.49795C13.0891 7.32541 13.3333 6.95341 13.3333 6.53341V5.46675C13.3333 5.20995 13.2373 4.96115 13.0667 4.76675V3.34835C13.0816 3.20168 13.1403 2.32861 12.5088 1.60835C11.9611 0.983548 11.0723 0.666748 9.86667 0.666748C8.66107 0.666748 7.77227 0.983548 7.22453 1.60808C6.84187 2.04461 6.71307 2.53635 6.67413 2.88941C6.21707 2.65315 5.6784 2.53341 5.06667 2.53341C2.29627 2.53341 2.13493 4.89475 2.13333 4.93341V6.15448C1.96053 6.34275 1.86667 6.56008 1.86667 6.77581V7.69688C1.86667 7.98461 1.99547 8.25288 2.21627 8.43421C2.43627 9.26355 2.97733 9.89021 3.188 10.1102V10.8417C3.188 11.0515 3.07387 11.2441 2.87573 11.3523L1.1016 12.4651C0.422133 12.8358 0 13.547 0 14.3209V15.3334H3.73333H4.26667H16V14.2553C16 13.3385 15.4904 12.5139 14.6704 12.1038ZM3.73333 14.2033V14.8001H0.533333V14.3209C0.533333 13.7422 0.849067 13.2105 1.37093 12.9254L3.1448 11.8126C3.50027 11.6187 3.72107 11.247 3.72107 10.8417V9.88408L3.63627 9.80488C3.62933 9.79848 2.9208 9.12915 2.71147 8.21688L2.6872 8.11128L2.596 8.05261C2.47333 7.97315 2.4 7.84008 2.4 7.69688V6.77581C2.4 6.67981 2.46533 6.56568 2.57893 6.46275L2.66667 6.38355L2.66613 4.94888C2.67093 4.87235 2.80987 3.06675 5.06667 3.06675C5.7048 3.06675 6.24213 3.21421 6.66667 3.50515V4.76675C6.496 4.96115 6.4 5.20995 6.4 5.46675V6.53341C6.4 6.61448 6.40933 6.69421 6.42693 6.77155C6.43413 6.80248 6.44853 6.83075 6.4584 6.86061C6.47307 6.90541 6.4848 6.95155 6.50533 6.99395C6.5056 6.99448 6.50587 6.99475 6.50613 6.99528C6.5744 7.13608 6.67387 7.26195 6.7992 7.36248C6.80053 7.36755 6.80213 7.37208 6.80347 7.37688C6.81947 7.43795 6.83627 7.49875 6.8544 7.55821L6.876 7.62781C6.87973 7.64008 6.88427 7.65261 6.88827 7.66488C6.8976 7.69368 6.90667 7.72221 6.91627 7.75048C6.93227 7.79715 6.94907 7.84541 6.96853 7.89795C6.9768 7.91981 6.98587 7.93955 6.9944 7.96115C7.01627 8.01688 7.03813 8.07075 7.06107 8.12408C7.06667 8.13688 7.07147 8.15075 7.07707 8.16328L7.092 8.19688C7.09893 8.21235 7.10613 8.22621 7.11307 8.24141C7.1392 8.29848 7.1648 8.35368 7.19147 8.40701C7.19573 8.41555 7.19973 8.42488 7.204 8.43341C7.2208 8.46675 7.2376 8.49821 7.2544 8.53021C7.2832 8.58515 7.31147 8.63688 7.33973 8.68701C7.3536 8.71155 7.3672 8.73555 7.3808 8.75875C7.4192 8.82435 7.45573 8.88461 7.4912 8.94061C7.49893 8.95261 7.5064 8.96515 7.51387 8.97661C7.5784 9.07661 7.6344 9.15768 7.6808 9.22088C7.69307 9.23768 7.70373 9.25208 7.71413 9.26621C7.72 9.27395 7.728 9.28515 7.73307 9.29208V10.1745C7.73307 10.4326 7.59227 10.6694 7.36587 10.7931L6.66027 11.1779L6.53733 11.167L6.4872 11.2723L4.98693 12.0907C4.2136 12.5131 3.73333 13.3222 3.73333 14.2033ZM15.4667 14.8001H4.26667V14.2033C4.26667 13.5177 4.64053 12.8875 5.2424 12.5595L7.62133 11.2619C8.01947 11.0446 8.26667 10.6278 8.26667 10.1747V9.10328V9.10301L8.21493 9.04115L8.2048 9.02915C8.20427 9.02835 8.18773 9.00835 8.1608 8.97315C8.1592 8.97101 8.1576 8.96888 8.15573 8.96675C8.1416 8.94835 8.12507 8.92621 8.10613 8.89981C8.10587 8.89928 8.1056 8.89901 8.10533 8.89848C8.0656 8.84328 8.01573 8.77155 7.96027 8.68515C7.95893 8.68328 7.95787 8.68115 7.95653 8.67928C7.9304 8.63848 7.90267 8.59395 7.8744 8.54675C7.87227 8.54328 7.87013 8.53981 7.868 8.53608C7.80773 8.43501 7.74373 8.32061 7.68 8.19395C7.68 8.19395 7.67973 8.19368 7.67973 8.19341C7.64587 8.12541 7.612 8.05395 7.57893 7.97955C7.5744 7.96915 7.5696 7.95901 7.56507 7.94861C7.5504 7.91528 7.53573 7.88035 7.5208 7.84435C7.51547 7.83128 7.51013 7.81768 7.5048 7.80435C7.49093 7.76941 7.4768 7.73421 7.46187 7.69395C7.43467 7.62141 7.40907 7.54568 7.38453 7.46755L7.36987 7.42008C7.36827 7.41475 7.3664 7.40941 7.3648 7.40381C7.33973 7.31955 7.31573 7.23341 7.29547 7.14488L7.2712 7.03928L7.18027 6.98061C7.0256 6.88088 6.93333 6.71368 6.93333 6.53341V5.46675C6.93333 5.31715 6.9968 5.17768 7.112 5.07341L7.2 4.99421V3.33341V3.23901L7.1928 3.23341C7.18373 3.04088 7.1952 2.45075 7.6256 1.95981C8.06747 1.45555 8.8216 1.20008 9.86667 1.20008C10.908 1.20008 11.6605 1.45368 12.1029 1.95421C12.6221 2.54115 12.5363 3.29208 12.5357 3.29848L12.5333 4.99421L12.6213 5.07368C12.7365 5.17768 12.8 5.31715 12.8 5.46675V6.53341C12.8 6.76621 12.6475 6.96995 12.4208 7.03981L12.288 7.08061L12.2453 7.21261C12.0669 7.76755 11.8128 8.28008 11.4896 8.73608C11.4104 8.84835 11.3333 8.94781 11.2664 9.02381L11.2 9.09955V10.1995C11.2 10.6715 11.4621 11.0958 11.8843 11.307L14.4317 12.5806C15.0701 12.8998 15.4667 13.5414 15.4667 14.2553V14.8001Z" fill="#76FFFF"/>
</svg>
