<svg width="24" height="24" viewBox="0 0 24 24" fill="none" xmlns="http://www.w3.org/2000/svg">
<g clip-path="url(#clip0)">
<path d="M12.0189 12.3212C14.6265 12.3212 16.7479 10.1998 16.7479 7.59225C16.7479 4.98467 14.6265 2.86328 12.0189 2.86328C9.41134 2.86328 7.28995 4.98467 7.28995 7.59225C7.28995 10.1998 9.41134 12.3212 12.0189 12.3212ZM12.0189 4.41167C13.7727 4.41167 15.1995 5.83846 15.1995 7.59225C15.1995 9.34604 13.7727 10.7728 12.0189 10.7728C10.2651 10.7728 8.83834 9.34604 8.83834 7.59225C8.83834 5.83846 10.2651 4.41167 12.0189 4.41167ZM4.55894 13.8766C6.20081 13.8766 7.53653 12.5409 7.53653 10.8991C7.53653 9.2572 6.20081 7.92148 4.55894 7.92148C2.91711 7.92148 1.58139 9.2572 1.58139 10.8991C1.58139 12.5409 2.91711 13.8766 4.55894 13.8766ZM4.55894 9.46986C5.34702 9.46986 5.98814 10.111 5.98814 10.8991C5.98814 11.6871 5.34702 12.3282 4.55894 12.3282C3.7709 12.3282 3.12977 11.6871 3.12977 10.8991C3.12977 10.111 3.7709 9.46986 4.55894 9.46986ZM19.4411 13.8766C21.0829 13.8766 22.4186 12.5409 22.4186 10.8991C22.4186 9.2572 21.0829 7.92148 19.4411 7.92148C17.7992 7.92148 16.4635 9.2572 16.4635 10.8991C16.4635 12.5409 17.7992 13.8766 19.4411 13.8766ZM19.4411 9.46986C20.2291 9.46986 20.8702 10.111 20.8702 10.8991C20.8702 11.6871 20.2291 12.3282 19.4411 12.3282C18.653 12.3282 18.0119 11.6871 18.0119 10.8991C18.0119 10.111 18.653 9.46986 19.4411 9.46986ZM24 16.7368V18.0139C24 18.4414 23.6534 18.7881 23.2258 18.7881C22.7983 18.7881 22.4516 18.4414 22.4516 18.0139V16.7368C22.4516 16.6035 22.373 16.4822 22.2512 16.4279L20.9247 15.8356H18.4153C19.1175 16.3508 19.5484 17.1774 19.5484 18.0703V20.3624C19.5484 20.7899 19.2017 21.1366 18.7742 21.1366C18.3466 21.1366 18 20.7899 18 20.3624V18.0703C18 17.5885 17.7157 17.1503 17.2758 16.9538L14.7752 15.8373H14.5565C13.5129 17.9426 10.4884 17.9452 9.44347 15.8373H9.22476L6.72421 16.9538C6.28427 17.1503 6 17.5885 6 18.0703V20.3624C6 20.7899 5.65335 21.1366 5.22581 21.1366C4.79826 21.1366 4.45161 20.7899 4.45161 20.3624V18.0703C4.45161 17.1774 4.8825 16.3508 5.58469 15.8356H3.07524L1.74881 16.4278C1.62702 16.4822 1.54839 16.6035 1.54839 16.7368V18.0138C1.54839 18.4414 1.20174 18.788 0.774194 18.788C0.346645 18.788 0 18.4414 0 18.0138V16.7368C0 15.9933 0.438629 15.3171 1.11755 15.014C2.72961 14.2942 2.6911 14.2871 2.91029 14.2871C6.45837 14.2871 6.29468 14.2617 6.50216 14.3544L7.62508 14.8558L8.74413 14.3561C8.93811 14.2695 8.98689 14.2888 9.97993 14.2888C10.3363 14.2888 10.6466 14.532 10.7317 14.878C11.0563 16.1969 12.9436 16.1975 13.2683 14.878C13.3535 14.5321 13.6638 14.2888 14.0201 14.2888H14.9403C15.1583 14.2888 15.1681 14.3169 16.375 14.8558C17.5945 14.3113 17.5976 14.2871 17.8136 14.2871C21.3616 14.2871 21.1979 14.2617 21.4054 14.3544L22.8825 15.0139C23.5614 15.3171 24 15.9934 24 16.7368Z" fill="#76FFFF"/>
</g>
<defs>
<clipPath id="clip0">
<rect width="24" height="24" fill="white"/>
</clipPath>
</defs>
</svg>
