<svg width="62" height="62" viewBox="0 0 62 62" fill="none" xmlns="http://www.w3.org/2000/svg">
<g filter="url(#filter0_d)">
<path fill-rule="evenodd" clip-rule="evenodd" d="M31 15C39.8238 15 47 22.1799 47 31C47 39.8641 39.8201 47 31 47C22.1359 47.0037 15 39.8677 15 31C15 22.1799 22.1359 15 31 15Z" fill="#00D7D7"/>
<path fill-rule="evenodd" clip-rule="evenodd" d="M30.9994 15.5638C39.5193 15.5638 46.4392 22.4838 46.4392 31.0037C46.4392 39.5675 39.5193 46.4874 30.9994 46.4874C22.4355 46.4874 15.5156 39.5675 15.5156 31.0037C15.5193 22.4801 22.4392 15.5638 30.9994 15.5638Z" fill="#1BE6E6"/>
<path fill-rule="evenodd" clip-rule="evenodd" d="M31.0016 15.5638C34.0295 15.5638 36.8414 16.4279 39.2176 17.9437C34.3334 17.5519 25.7256 18.632 18.5494 28.8838C16.8213 31.3918 16.4295 34.3757 17.0373 37.6636C16.0817 35.6719 15.5215 33.3799 15.5215 31C15.5215 22.4801 22.4414 15.5638 31.0016 15.5638Z" fill="#26EDED"/>
<path fill-rule="evenodd" clip-rule="evenodd" d="M30.999 18.416C37.9629 18.416 43.583 24.0398 43.583 31C43.583 37.9602 37.9629 43.6316 30.999 43.6316C24.0388 43.6316 18.3711 37.9638 18.3711 31C18.3711 24.0362 24.0388 18.416 30.999 18.416Z" fill="#76FFFF"/>
<path fill-rule="evenodd" clip-rule="evenodd" d="M30.9988 19.6719C37.2706 19.6719 42.3306 24.7318 42.3306 31.0037C42.3306 37.3195 37.2706 42.3794 30.9988 42.3794C24.7269 42.3794 19.623 37.3195 19.623 31.0037C19.6267 24.7318 24.7306 19.6719 30.9988 19.6719Z" fill="#1BE6E6"/>
<path fill-rule="evenodd" clip-rule="evenodd" d="M38.0513 22.0919C40.6912 24.1679 42.3314 27.4118 42.3314 30.9999C42.3314 37.3157 37.2715 42.3757 30.9996 42.3757C28.1035 42.3757 25.5076 41.3395 23.5195 39.5638C42.8074 39.0878 38.4834 23.5198 38.0513 22.0919Z" fill="#26EDED"/>
<path fill-rule="evenodd" clip-rule="evenodd" d="M31.0008 18.6321C37.8328 18.6321 43.3687 24.168 43.3687 31C43.3687 37.8321 37.8365 43.4119 31.0008 43.4119C24.1687 43.4119 18.6328 37.8321 18.6328 31C18.6328 24.168 24.1687 18.6321 31.0008 18.6321ZM31.1326 19.8C37.6205 19.8 42.8525 25.0321 42.8525 31.5199C42.8525 38.0078 37.6205 43.2399 31.1326 43.2399C24.6447 43.2399 19.4127 38.0078 19.4127 31.5199C19.4127 25.0321 24.6447 19.8 31.1326 19.8Z" fill="#07B4B4"/>
<g clip-path="url(#clip0)">
<path d="M34.9933 34.3379L34.6035 34.8985C34.2601 35.3923 33.7215 35.7202 33.1257 35.798C32.5932 35.8676 32.0314 35.7248 31.5814 35.406C31.2393 35.128 30.8589 34.9057 30.4528 34.7445C30.873 34.0246 31.0934 33.2104 31.0934 32.367C31.0934 32.3122 31.0924 32.2574 31.0905 32.2026H33.9548V30.0176H30.479C29.9254 29.3056 29.7755 28.7886 29.7755 28.3212C29.7755 27.1433 30.7339 26.1849 31.9118 26.1849C32.8459 26.1849 33.664 26.782 33.9476 27.6708L36.0292 27.0066C35.7527 26.1399 35.2189 25.3941 34.4856 24.8498C33.7366 24.2939 32.8467 24 31.9118 24C29.529 24 27.5905 25.9385 27.5905 28.3213C27.5905 28.9077 27.7089 29.4851 27.936 30.0176H26.0335V32.2027H28.9031C28.9066 32.2573 28.9083 32.3121 28.9083 32.3671C28.9083 33.3602 28.2992 34.2927 27.3904 34.6941C26.7364 34.93 26.1437 35.3236 25.675 35.8334L25.2129 36.3362L26.8216 37.8148L27.2837 37.3121C27.4754 37.1034 27.7123 36.9325 27.9726 36.8142C27.9726 36.8142 28.1327 36.7528 28.1805 36.7329C28.3117 36.6891 28.4456 36.6581 28.5786 36.6408C29.1651 36.5642 29.7629 36.7367 30.2187 37.1142L30.2726 37.1561C31.0202 37.7003 31.9399 38 32.8624 38C33.0454 38 33.2292 37.9881 33.4088 37.9646C34.6139 37.8072 35.7032 37.1443 36.3974 36.1459L36.7872 35.5853L34.9933 34.3379Z" fill="white"/>
</g>
</g>
<defs>
<filter id="filter0_d" x="0" y="0" width="62" height="62" filterUnits="userSpaceOnUse" color-interpolation-filters="sRGB">
<feFlood flood-opacity="0" result="BackgroundImageFix"/>
<feColorMatrix in="SourceAlpha" type="matrix" values="0 0 0 0 0 0 0 0 0 0 0 0 0 0 0 0 0 0 127 0"/>
<feOffset/>
<feGaussianBlur stdDeviation="7.5"/>
<feColorMatrix type="matrix" values="0 0 0 0 0.462745 0 0 0 0 1 0 0 0 0 1 0 0 0 1 0"/>
<feBlend mode="normal" in2="BackgroundImageFix" result="effect1_dropShadow"/>
<feBlend mode="normal" in="SourceGraphic" in2="effect1_dropShadow" result="shape"/>
</filter>
<clipPath id="clip0">
<rect width="14" height="14" fill="white" transform="translate(24 24)"/>
</clipPath>
</defs>
</svg>
