<svg width="171" height="170" viewBox="0 0 171 170" fill="none" xmlns="http://www.w3.org/2000/svg">
<path d="M65.9272 86H50.3413V84.4277L58.8691 74.7549C60.2819 73.1257 61.2617 71.7812 61.8086 70.7217C62.3555 69.6621 62.6289 68.631 62.6289 67.6284C62.6289 66.0562 62.1675 64.8143 61.2446 63.9028C60.3218 62.98 59.0514 62.5186 57.4336 62.5186C55.7588 62.5186 54.403 63.054 53.3662 64.125C52.3408 65.196 51.8281 66.5859 51.8281 68.2949H49.7944C49.7944 66.8936 50.1077 65.6175 50.7344 64.4668C51.3724 63.3161 52.2725 62.416 53.4346 61.7666C54.6081 61.1058 55.9411 60.7754 57.4336 60.7754C59.7122 60.7754 61.4896 61.3735 62.7656 62.5698C64.0531 63.7661 64.6968 65.3953 64.6968 67.4575C64.6968 68.6196 64.3322 69.89 63.603 71.2686C62.8853 72.6471 61.6149 74.3675 59.792 76.4297L52.8535 84.2739H65.9272V86ZM69.7896 88.1362H67.9268L78.3174 61.1172H80.1631L69.7896 88.1362ZM88.2124 72.4478H90.3315C91.505 72.4478 92.5304 72.2427 93.4077 71.8325C94.285 71.411 94.9515 70.8413 95.4072 70.1235C95.8743 69.3944 96.1079 68.557 96.1079 67.6113C96.1079 66.0163 95.6579 64.7687 94.7578 63.8687C93.8577 62.9686 92.5646 62.5186 90.8784 62.5186C89.2834 62.5186 87.9731 62.9914 86.9478 63.937C85.9338 64.8713 85.4268 66.1074 85.4268 67.6455H83.376C83.376 66.3581 83.7007 65.1846 84.3501 64.125C84.9995 63.054 85.8996 62.228 87.0503 61.647C88.201 61.0659 89.4771 60.7754 90.8784 60.7754C93.1343 60.7754 94.9116 61.3906 96.2104 62.6211C97.5093 63.8516 98.1587 65.5378 98.1587 67.6797C98.1587 68.876 97.777 69.9811 97.0137 70.9951C96.2617 71.9977 95.2249 72.7497 93.9033 73.251C95.4528 73.6839 96.6263 74.4302 97.4238 75.4897C98.2214 76.5379 98.6201 77.7912 98.6201 79.2495C98.6201 81.38 97.9251 83.0947 96.5352 84.3936C95.1452 85.6924 93.2881 86.3418 90.9639 86.3418C89.4827 86.3418 88.1213 86.0456 86.8794 85.4531C85.6489 84.8607 84.6919 84.0347 84.0083 82.9751C83.3361 81.9041 83 80.6623 83 79.2495H85.0508C85.0508 80.8332 85.6034 82.1263 86.7085 83.1289C87.8136 84.1201 89.2321 84.6157 90.9639 84.6157C92.7298 84.6157 94.1027 84.1657 95.0825 83.2656C96.0737 82.3542 96.5693 81.0382 96.5693 79.3179C96.5693 77.6545 96.0339 76.3841 94.9629 75.5068C93.9033 74.6296 92.3368 74.1909 90.2632 74.1909H88.2124V72.4478ZM118.085 75.6265C118.085 79.1356 117.442 81.8016 116.154 83.6245C114.867 85.436 112.97 86.3418 110.463 86.3418C108.002 86.3418 106.117 85.4531 104.807 83.6758C103.496 81.887 102.824 79.2894 102.79 75.8828V71.4224C102.79 67.9246 103.439 65.2757 104.738 63.4756C106.037 61.6755 107.934 60.7754 110.429 60.7754C112.89 60.7754 114.77 61.647 116.069 63.3901C117.368 65.1219 118.04 67.6797 118.085 71.0635V75.6265ZM116.035 71.166C116.035 68.3177 115.568 66.1644 114.633 64.7061C113.71 63.2477 112.309 62.5186 110.429 62.5186C108.583 62.5186 107.194 63.2306 106.259 64.6548C105.325 66.0789 104.847 68.181 104.824 70.9609V75.8486C104.824 78.6855 105.302 80.856 106.259 82.3599C107.228 83.8638 108.629 84.6157 110.463 84.6157C112.286 84.6157 113.665 83.8809 114.599 82.4111C115.545 80.9414 116.023 78.7881 116.035 75.9512V71.166Z" fill="white"/>
<circle cx="85" cy="85" r="77.5" stroke="#5266EF" stroke-width="15"/>
<path d="M89 9C131.464 11.2859 164.016 47.9206 161.707 90.826C160.653 110.404 152.522 127.904 139.959 140.93" stroke="#76FFFF" stroke-width="17" stroke-linecap="round"/>
<path d="M52.3984 103.367V108H51.4375V96.625H55.3125C56.4948 96.625 57.4271 96.9271 58.1094 97.5312C58.7969 98.1354 59.1406 98.9661 59.1406 100.023C59.1406 101.091 58.8099 101.917 58.1484 102.5C57.4922 103.078 56.5391 103.367 55.2891 103.367H52.3984ZM52.3984 102.555H55.3125C56.2448 102.555 56.9557 102.333 57.4453 101.891C57.9349 101.448 58.1797 100.831 58.1797 100.039C58.1797 99.2526 57.9349 98.6276 57.4453 98.1641C56.9609 97.6953 56.2708 97.4557 55.375 97.4453H52.3984V102.555ZM66.3203 108C66.2266 107.734 66.1667 107.341 66.1406 106.82C65.8125 107.247 65.3932 107.578 64.8828 107.812C64.3776 108.042 63.8411 108.156 63.2734 108.156C62.4609 108.156 61.8021 107.93 61.2969 107.477C60.7969 107.023 60.5469 106.451 60.5469 105.758C60.5469 104.935 60.888 104.284 61.5703 103.805C62.2578 103.326 63.2135 103.086 64.4375 103.086H66.1328V102.125C66.1328 101.521 65.9453 101.047 65.5703 100.703C65.2005 100.354 64.6589 100.18 63.9453 100.18C63.2943 100.18 62.7552 100.346 62.3281 100.68C61.901 101.013 61.6875 101.414 61.6875 101.883L60.75 101.875C60.75 101.203 61.0625 100.622 61.6875 100.133C62.3125 99.638 63.0807 99.3906 63.9922 99.3906C64.9349 99.3906 65.6771 99.6276 66.2188 100.102C66.7656 100.57 67.0469 101.227 67.0625 102.07V106.07C67.0625 106.888 67.1484 107.5 67.3203 107.906V108H66.3203ZM63.3828 107.328C64.0078 107.328 64.5651 107.177 65.0547 106.875C65.5495 106.573 65.9089 106.169 66.1328 105.664V103.805H64.4609C63.5286 103.815 62.7995 103.987 62.2734 104.32C61.7474 104.648 61.4844 105.102 61.4844 105.68C61.4844 106.154 61.6589 106.547 62.0078 106.859C62.362 107.172 62.8203 107.328 63.3828 107.328ZM72.1172 106.656L74.5859 99.5469H75.5938L71.9844 109.438L71.7969 109.875C71.3333 110.901 70.6172 111.414 69.6484 111.414C69.4245 111.414 69.1849 111.378 68.9297 111.305L68.9219 110.531L69.4062 110.578C69.8646 110.578 70.2344 110.464 70.5156 110.234C70.8021 110.01 71.0443 109.622 71.2422 109.07L71.6562 107.93L68.4688 99.5469H69.4922L72.1172 106.656ZM77.8984 99.5469L77.9297 100.922C78.2422 100.411 78.6328 100.029 79.1016 99.7734C79.5703 99.5182 80.0911 99.3906 80.6641 99.3906C81.9974 99.3906 82.8438 99.9375 83.2031 101.031C83.5052 100.505 83.9089 100.102 84.4141 99.8203C84.9193 99.5339 85.4766 99.3906 86.0859 99.3906C87.8984 99.3906 88.8229 100.38 88.8594 102.359V108H87.9219V102.43C87.9167 101.674 87.7526 101.115 87.4297 100.75C87.112 100.385 86.5911 100.203 85.8672 100.203C85.1953 100.214 84.6276 100.432 84.1641 100.859C83.7005 101.281 83.4427 101.797 83.3906 102.406V108H82.4531V102.359C82.4479 101.635 82.276 101.096 81.9375 100.742C81.6042 100.383 81.0885 100.203 80.3906 100.203C79.8021 100.203 79.2969 100.372 78.875 100.711C78.4531 101.044 78.1406 101.542 77.9375 102.203V108H77V99.5469H77.8984ZM94.5078 108.156C93.7891 108.156 93.138 107.979 92.5547 107.625C91.9766 107.271 91.526 106.779 91.2031 106.148C90.8802 105.513 90.7188 104.802 90.7188 104.016V103.68C90.7188 102.867 90.875 102.135 91.1875 101.484C91.5052 100.833 91.9453 100.323 92.5078 99.9531C93.0703 99.5781 93.6797 99.3906 94.3359 99.3906C95.362 99.3906 96.1745 99.7422 96.7734 100.445C97.3776 101.143 97.6797 102.099 97.6797 103.312V103.836H91.6484V104.016C91.6484 104.974 91.9219 105.773 92.4688 106.414C93.0208 107.049 93.7135 107.367 94.5469 107.367C95.0469 107.367 95.487 107.276 95.8672 107.094C96.2526 106.911 96.6016 106.62 96.9141 106.219L97.5 106.664C96.8125 107.659 95.8151 108.156 94.5078 108.156ZM94.3359 100.188C93.6328 100.188 93.0391 100.445 92.5547 100.961C92.0755 101.477 91.7839 102.169 91.6797 103.039H96.75V102.938C96.724 102.125 96.4922 101.464 96.0547 100.953C95.6172 100.443 95.0443 100.188 94.3359 100.188ZM100.391 99.5469L100.422 100.992C100.74 100.471 101.135 100.076 101.609 99.8047C102.083 99.5286 102.607 99.3906 103.18 99.3906C104.086 99.3906 104.76 99.6458 105.203 100.156C105.646 100.667 105.87 101.432 105.875 102.453V108H104.945V102.445C104.94 101.69 104.779 101.128 104.461 100.758C104.148 100.388 103.646 100.203 102.953 100.203C102.375 100.203 101.862 100.385 101.414 100.75C100.971 101.109 100.643 101.596 100.43 102.211V108H99.5V99.5469H100.391ZM109.75 97.3828V99.5469H111.5V100.312H109.75V105.945C109.75 106.414 109.833 106.763 110 106.992C110.172 107.221 110.456 107.336 110.852 107.336C111.008 107.336 111.26 107.31 111.609 107.258L111.648 108.023C111.404 108.112 111.07 108.156 110.648 108.156C110.008 108.156 109.542 107.971 109.25 107.602C108.958 107.227 108.812 106.677 108.812 105.953V100.312H107.258V99.5469H108.812V97.3828H109.75ZM118.5 105.852C118.5 105.388 118.312 105.016 117.938 104.734C117.568 104.453 117.008 104.234 116.258 104.078C115.508 103.917 114.924 103.734 114.508 103.531C114.096 103.323 113.789 103.07 113.586 102.773C113.388 102.477 113.289 102.117 113.289 101.695C113.289 101.029 113.568 100.479 114.125 100.047C114.682 99.6094 115.396 99.3906 116.266 99.3906C117.208 99.3906 117.964 99.625 118.531 100.094C119.104 100.557 119.391 101.164 119.391 101.914H118.453C118.453 101.419 118.245 101.008 117.828 100.68C117.417 100.352 116.896 100.188 116.266 100.188C115.651 100.188 115.156 100.326 114.781 100.602C114.411 100.872 114.227 101.227 114.227 101.664C114.227 102.086 114.38 102.414 114.688 102.648C115 102.878 115.565 103.089 116.383 103.281C117.206 103.474 117.82 103.68 118.227 103.898C118.638 104.117 118.943 104.38 119.141 104.688C119.339 104.995 119.438 105.367 119.438 105.805C119.438 106.518 119.148 107.089 118.57 107.516C117.997 107.943 117.247 108.156 116.32 108.156C115.336 108.156 114.536 107.919 113.922 107.445C113.312 106.966 113.008 106.362 113.008 105.633H113.945C113.982 106.18 114.211 106.607 114.633 106.914C115.06 107.216 115.622 107.367 116.32 107.367C116.971 107.367 117.497 107.224 117.898 106.938C118.299 106.651 118.5 106.289 118.5 105.852Z" fill="#9CA5FF"/>
</svg>
