<svg width="16" height="16" viewBox="0 0 16 16" fill="none" xmlns="http://www.w3.org/2000/svg">
<g clip-path="url(#clip0)">
<path d="M15.5 4H0.5C0.224 4 0 3.776 0 3.5C0 3.224 0.224 3 0.5 3H15.5C15.776 3 16 3.224 16 3.5C16 3.776 15.776 4 15.5 4Z" fill="white" stroke="#090C4B" stroke-width="0.3"/>
<path d="M4.88248 7H3.21582C2.93982 7 2.71582 6.776 2.71582 6.5C2.71582 6.224 2.93982 6 3.21582 6H4.88248C5.15848 6 5.38248 6.224 5.38248 6.5C5.38248 6.776 5.15848 7 4.88248 7Z" fill="white" stroke="#090C4B" stroke-width="0.3"/>
<path d="M12.8818 7H7.88184C7.60584 7 7.38184 6.776 7.38184 6.5C7.38184 6.224 7.60584 6 7.88184 6H12.8818C13.1578 6 13.3818 6.224 13.3818 6.5C13.3818 6.776 13.1578 7 12.8818 7Z" fill="white" stroke="#090C4B" stroke-width="0.3"/>
<path d="M4.88248 9.66675H3.21582C2.93982 9.66675 2.71582 9.44275 2.71582 9.16675C2.71582 8.89075 2.93982 8.66675 3.21582 8.66675H4.88248C5.15848 8.66675 5.38248 8.89075 5.38248 9.16675C5.38248 9.44275 5.15848 9.66675 4.88248 9.66675Z" fill="white" stroke="#090C4B" stroke-width="0.3"/>
<path d="M12.8818 9.66675H7.88184C7.60584 9.66675 7.38184 9.44275 7.38184 9.16675C7.38184 8.89075 7.60584 8.66675 7.88184 8.66675H12.8818C13.1578 8.66675 13.3818 8.89075 13.3818 9.16675C13.3818 9.44275 13.1578 9.66675 12.8818 9.66675Z" fill="white" stroke="#090C4B" stroke-width="0.3"/>
<path d="M4.88248 12.3333H3.21582C2.93982 12.3333 2.71582 12.1093 2.71582 11.8333C2.71582 11.5573 2.93982 11.3333 3.21582 11.3333H4.88248C5.15848 11.3333 5.38248 11.5573 5.38248 11.8333C5.38248 12.1093 5.15848 12.3333 4.88248 12.3333Z" fill="white" stroke="#090C4B" stroke-width="0.3"/>
<path d="M12.8818 12.3333H7.88184C7.60584 12.3333 7.38184 12.1093 7.38184 11.8333C7.38184 11.5573 7.60584 11.3333 7.88184 11.3333H12.8818C13.1578 11.3333 13.3818 11.5573 13.3818 11.8333C13.3818 12.1093 13.1578 12.3333 12.8818 12.3333Z" fill="white" stroke="#090C4B" stroke-width="0.3"/>
<path d="M14.1667 15.3334H1.83333C0.822 15.3334 0 14.5114 0 13.5001V2.50008C0 1.48875 0.822 0.666748 1.83333 0.666748H14.1667C15.178 0.666748 16 1.48875 16 2.50008V13.5001C16 14.5114 15.178 15.3334 14.1667 15.3334ZM1.83333 1.66675C1.374 1.66675 1 2.04075 1 2.50008V13.5001C1 13.9594 1.374 14.3334 1.83333 14.3334H14.1667C14.626 14.3334 15 13.9594 15 13.5001V2.50008C15 2.04075 14.626 1.66675 14.1667 1.66675H1.83333Z" fill="white" stroke="#090C4B" stroke-width="0.3"/>
</g>
<defs>
<clipPath id="clip0">
<rect width="16" height="16" fill="white"/>
</clipPath>
</defs>
</svg>
