<svg width="26" height="24" viewBox="0 0 26 24" fill="none" xmlns="http://www.w3.org/2000/svg">
<path d="M5.20974 17.9292L5.28725 18.0615L5.41783 17.9811L6.17875 17.5124L6.30366 17.4355L6.22953 17.3089L5.53696 16.1262L5.53693 16.1261C5.45383 15.9843 5.42972 15.82 5.46832 15.6626C5.50705 15.5051 5.60319 15.3729 5.73913 15.2893L5.73913 15.2893L5.73966 15.289C6.01464 15.1183 6.37671 15.2089 6.54534 15.4962C6.54536 15.4962 6.54538 15.4962 6.54541 15.4963L7.91551 17.8358L7.99301 17.9682L8.12359 17.8878L8.88502 17.4189L9.00995 17.342L8.93581 17.2154L7.56539 14.8754C7.56539 14.8754 7.56539 14.8754 7.56539 14.8754C7.06151 14.0149 5.96609 13.7345 5.12459 14.2527L5.12454 14.2527C4.71755 14.5036 4.43035 14.9007 4.31568 15.3696L4.31567 15.3696C4.20074 15.8398 4.27209 16.3292 4.51697 16.7465L5.20974 17.9292Z" fill="#76FFFF" stroke="#76FFFF" stroke-width="0.3"/>
<path d="M9.89517 16.8092C9.52539 16.58 9.10433 16.2886 8.73703 15.9579C8.30336 15.5673 7.92381 15.1035 7.81448 14.6053C7.72476 14.1968 7.81578 13.8032 8.07445 13.4737L8.07448 13.4736C8.38587 13.0773 8.94282 12.9832 9.56783 13.0396C10.2019 13.0967 10.9591 13.3128 11.7378 13.603C13.2804 14.178 14.9439 15.0579 15.978 15.6393L20.7783 15.6504L20.9283 15.6508L20.928 15.8008L20.9259 16.7117L20.9256 16.8617L20.7756 16.8613L15.7088 16.8494L15.6695 16.8493L15.6352 16.8299L15.5354 16.7733L15.5354 16.7733C13.3995 15.5631 11.7802 14.8754 10.6729 14.5235C10.1187 14.3473 9.69664 14.2566 9.4045 14.2254C9.25786 14.2097 9.1495 14.2097 9.07601 14.2191C9.03932 14.2237 9.01577 14.2302 9.00224 14.2356C8.99977 14.2366 8.99787 14.2374 8.99646 14.2381C8.97907 14.2613 8.97339 14.2758 8.97109 14.2854C8.9687 14.2953 8.9673 14.3109 8.97386 14.3408L8.97388 14.3409C8.99853 14.4537 9.08731 14.6012 9.24364 14.7745C9.39677 14.9443 9.60154 15.1246 9.83468 15.3033C10.3008 15.6606 10.8666 16.0011 11.3233 16.2274L11.3233 16.2274L12.0448 16.585L12.2814 16.7022L12.0596 16.8454L9.89371 18.244L9.85784 18.2672L9.81514 18.268L5.02809 18.3573L4.9886 18.3581L4.95386 18.3393L2.8581 17.2045L2.85805 17.2045C2.58641 17.0573 2.25038 17.1479 2.0846 17.4086C1.96542 17.6961 2.08037 18.0367 2.35312 18.1873C2.35313 18.1873 2.35314 18.1873 2.35315 18.1874L5.07195 19.6878L10.1839 20.3812L10.2181 20.3859L10.2469 20.405L10.3247 20.4569C10.3262 20.4577 10.3281 20.4586 10.3305 20.4598C10.3328 20.4609 10.3356 20.4623 10.3388 20.4638C10.3534 20.4707 10.3769 20.4812 10.4106 20.4944C10.4778 20.5208 10.5852 20.5579 10.7409 20.598C11.0522 20.6782 11.5563 20.7701 12.3173 20.8115C13.8397 20.8942 16.3863 20.7745 20.4675 19.9582L20.616 19.9285L20.6443 20.0773L20.8143 20.9715L20.842 21.1175L20.6963 21.1466C17.2418 21.8366 14.8257 22.0518 13.1563 22.0518C11.0946 22.0518 10.1649 21.7243 9.82053 21.5532L4.72643 20.8628L4.69864 20.859L4.67409 20.8455L1.78742 19.2519L1.85991 19.1206L1.78742 19.2519C0.997316 18.8158 0.658473 17.8551 0.957982 17.0207L0.943349 17.0119L1.00863 16.8866L1.05842 16.7909L1.13192 16.6497L1.14874 16.6598C1.66297 15.9494 2.62756 15.7074 3.41531 16.1345L9.89517 16.8092ZM9.89517 16.8092L9.50317 17.0621L5.27437 17.1411L3.4154 16.1346L9.89517 16.8092ZM8.88374 14.1386C8.82302 14.2155 8.80727 14.2815 8.82734 14.373L15.6093 16.6428C11.3248 14.215 9.09309 13.8725 8.88374 14.1386Z" fill="#76FFFF" stroke="#76FFFF" stroke-width="0.3"/>
<path d="M7.95352 6.0104C7.95352 8.8523 10.2079 11.1708 12.9876 11.1708C15.7671 11.1708 18.0217 8.85231 18.0217 6.0104C18.0217 3.16848 15.7671 0.85 12.9876 0.85C10.2079 0.85 7.95352 3.16849 7.95352 6.0104ZM9.14147 6.0104C9.14147 3.82889 10.8706 2.06091 12.9876 2.06091C15.1044 2.06091 16.8335 3.82888 16.8335 6.0104C16.8335 8.19166 15.1044 9.95988 12.9876 9.95988C10.8706 9.95988 9.14147 8.19165 9.14147 6.0104Z" fill="#76FFFF" stroke="#76FFFF" stroke-width="0.3"/>
<path d="M20.5613 23.15H24.5552C24.8867 23.15 25.149 22.8757 25.149 22.5447V14.7935C25.149 14.4626 24.8868 14.1879 24.5552 14.1879H20.5613C20.2297 14.1879 19.9672 14.4624 19.9672 14.7935V22.5447C19.9672 22.8758 20.2299 23.15 20.5613 23.15ZM23.9611 15.3988V21.9391H21.1554V15.3988H23.9611Z" fill="#76FFFF" stroke="#76FFFF" stroke-width="0.3"/>
</svg>
