<svg width="18" height="18" viewBox="0 0 18 18" fill="none" xmlns="http://www.w3.org/2000/svg">
<path d="M16.541 7.29689L14.9525 6.97823C14.8649 6.71857 14.7596 6.46527 14.6371 6.22014L15.5359 4.87094C15.609 4.76104 15.6419 4.62917 15.6288 4.49778C15.6157 4.36639 15.5575 4.24359 15.4641 4.15026L13.8499 2.53597C13.7565 2.44264 13.6337 2.38453 13.5023 2.37151C13.3709 2.35849 13.2391 2.39136 13.1292 2.46454L11.78 3.363C11.5349 3.24048 11.2816 3.13504 11.0219 3.04743L10.7031 1.45911C10.6772 1.32964 10.6072 1.21315 10.505 1.12945C10.4029 1.04575 10.2749 1.00001 10.1429 1H7.85714C7.72509 1.00001 7.59712 1.04575 7.49498 1.12945C7.39284 1.21315 7.32284 1.32964 7.29689 1.45911L6.97823 3.04743C6.71857 3.13504 6.46527 3.24048 6.22014 3.363L4.87109 2.46443C4.76122 2.39118 4.62937 2.35826 4.49797 2.37129C4.36657 2.38431 4.24375 2.44247 4.1504 2.53586L2.53611 4.15014C2.44271 4.24347 2.38453 4.36628 2.37145 4.49767C2.35838 4.62906 2.39122 4.76092 2.4644 4.87083L3.36311 6.22003C3.24059 6.46515 3.13515 6.71845 3.04754 6.97811L1.45897 7.29677C1.3295 7.32276 1.21303 7.39279 1.12936 7.49495C1.04568 7.59711 0.999973 7.72509 1 7.85714V10.1429C0.999999 10.2749 1.04572 10.4028 1.12939 10.505C1.21306 10.6071 1.32952 10.6771 1.45897 10.7031L3.04754 11.0218C3.1351 11.2815 3.24051 11.5348 3.363 11.78L2.46429 13.1291C2.39111 13.239 2.35826 13.3708 2.37134 13.5022C2.38441 13.6336 2.4426 13.7564 2.536 13.8497L4.15029 15.464C4.24364 15.5574 4.36647 15.6156 4.49786 15.6286C4.62926 15.6416 4.7611 15.6087 4.87097 15.5355L6.22003 14.6369C6.46516 14.7594 6.71846 14.8648 6.97811 14.9525L7.29677 16.5408C7.32271 16.6703 7.39271 16.7868 7.49488 16.8705C7.59704 16.9543 7.72505 17 7.85714 17H10.1429C10.2749 17 10.4029 16.9543 10.505 16.8706C10.6072 16.7869 10.6772 16.6704 10.7031 16.5409L11.0218 14.9526C11.2815 14.865 11.5348 14.7596 11.78 14.6371L13.1291 15.5357C13.2389 15.6089 13.3708 15.6418 13.5022 15.6287C13.6335 15.6157 13.7564 15.5576 13.8497 15.4643L15.464 13.85C15.5574 13.7567 15.6156 13.6339 15.6287 13.5025C15.6418 13.3711 15.6089 13.2392 15.5357 13.1293L14.6371 11.78C14.7597 11.5349 14.8651 11.2816 14.9527 11.0219L16.5413 10.7033C16.6707 10.6772 16.7871 10.6072 16.8708 10.505C16.9544 10.4028 17 10.2749 17 10.1429V7.85714C17 7.72511 16.9543 7.59715 16.8706 7.49502C16.7869 7.39288 16.6705 7.32287 16.541 7.29689ZM15.8571 9.67466L14.3931 9.96834C14.2891 9.98923 14.1929 10.0387 14.1154 10.1111C14.0379 10.1836 13.9821 10.2762 13.9542 10.3786C13.8453 10.7799 13.6849 11.1653 13.4768 11.5253C13.4235 11.6175 13.3971 11.7229 13.4004 11.8294C13.4038 11.9359 13.4368 12.0394 13.4958 12.1281L14.3248 13.3728L13.3728 14.3248L12.1281 13.4959C12.0393 13.4369 11.9358 13.4039 11.8293 13.4005C11.7228 13.3972 11.6175 13.4236 11.5252 13.4769C11.1651 13.6849 10.7796 13.8454 10.3783 13.9543C10.276 13.9822 10.1834 14.038 10.1109 14.1156C10.0385 14.1931 9.98905 14.2893 9.9682 14.3933L9.67466 15.8571H8.32534L8.0318 14.3934C8.01096 14.2894 7.96155 14.1932 7.88911 14.1156C7.81667 14.038 7.72406 13.9822 7.62166 13.9543C7.22038 13.8453 6.83492 13.6848 6.47489 13.4767C6.38264 13.4233 6.27729 13.3968 6.17074 13.4002C6.0642 13.4035 5.96073 13.4366 5.87203 13.4957L4.62731 14.3247L3.67531 13.3727L4.50426 12.128C4.56327 12.0392 4.59632 11.9358 4.59967 11.8293C4.60303 11.7227 4.57656 11.6174 4.52326 11.5251C4.3152 11.1652 4.15468 10.7798 4.04571 10.3786C4.01787 10.2762 3.96205 10.1836 3.88453 10.1111C3.80701 10.0387 3.71084 9.98923 3.6068 9.96834L2.14286 9.67466V8.32534L3.60686 8.03166C3.7109 8.01077 3.80707 7.96132 3.88459 7.88885C3.96211 7.81639 4.01792 7.72377 4.04577 7.62137C4.15468 7.22014 4.31515 6.83471 4.52317 6.47474C4.57648 6.38246 4.60295 6.27712 4.59959 6.17061C4.59623 6.06409 4.56318 5.96063 4.50417 5.87189L3.67523 4.62717L4.62723 3.67517L5.87194 4.50411C5.96064 4.56323 6.06412 4.59634 6.17066 4.59969C6.2772 4.60305 6.38255 4.57652 6.4748 4.52311C6.83486 4.31512 7.22036 4.15465 7.62166 4.04571C7.72405 4.01783 7.81665 3.96199 7.88909 3.88444C7.96153 3.80689 8.01095 3.71071 8.0318 3.60666L8.32534 2.14286H9.67466L9.9682 3.60657C9.98904 3.71064 10.0384 3.80684 10.1109 3.88441C10.1833 3.96197 10.2759 4.01783 10.3783 4.04571C10.7796 4.1547 11.1651 4.31522 11.5251 4.52326C11.6174 4.57653 11.7227 4.60298 11.8292 4.59962C11.9358 4.59627 12.0392 4.56324 12.128 4.50426L13.3727 3.67531L14.3247 4.62731L13.4957 5.87203C13.4367 5.96077 13.4037 6.06423 13.4003 6.17075C13.397 6.27727 13.4234 6.38261 13.4767 6.47489C13.6848 6.8348 13.8453 7.22018 13.9543 7.62137C13.9821 7.72377 14.0379 7.81639 14.1155 7.88885C14.193 7.96132 14.2892 8.01077 14.3932 8.03166L15.8571 8.32534V9.67466Z" fill="white" stroke="#0A0E53" stroke-width="0.4"/>
<path d="M8.99991 6.09082C8.42455 6.09082 7.86211 6.26144 7.38371 6.58109C6.90531 6.90075 6.53245 7.35508 6.31226 7.88665C6.09208 8.41822 6.03447 9.00314 6.14672 9.56745C6.25897 10.1318 6.53603 10.6501 6.94287 11.0569C7.34972 11.4638 7.86807 11.7409 8.43238 11.8531C8.99669 11.9654 9.58161 11.9077 10.1132 11.6876C10.6447 11.4674 11.0991 11.0945 11.4187 10.6161C11.7384 10.1377 11.909 9.57527 11.909 8.99991C11.9081 8.22864 11.6013 7.48921 11.056 6.94384C10.5106 6.39847 9.77118 6.0917 8.99991 6.09082ZM8.99991 10.7454C8.65469 10.7454 8.31723 10.643 8.03019 10.4512C7.74315 10.2594 7.51943 9.98681 7.38732 9.66787C7.25521 9.34893 7.22065 8.99797 7.288 8.65939C7.35534 8.3208 7.52158 8.00979 7.76569 7.76569C8.0098 7.52158 8.32081 7.35534 8.65939 7.28799C8.99798 7.22065 9.34893 7.25521 9.66787 7.38732C9.98681 7.51943 10.2594 7.74315 10.4512 8.03019C10.643 8.31723 10.7454 8.65469 10.7454 8.99991C10.7449 9.46268 10.5608 9.90635 10.2336 10.2336C9.90635 10.5608 9.46268 10.7449 8.99991 10.7454Z" fill="white" stroke="#0A0E53" stroke-width="0.4"/>
</svg>
