<svg width="375" height="812" viewBox="0 0 375 812" fill="none" xmlns="http://www.w3.org/2000/svg">
<g clip-path="url(#clip0)">
<line x1="16.5" x2="16.5" y2="1934" stroke="white" stroke-opacity="0.1"/>
<line x1="359.5" x2="359.5" y2="1934" stroke="white" stroke-opacity="0.1"/>
<line x1="188.5" x2="188.5" y2="1934" stroke="white" stroke-opacity="0.1"/>
<path d="M133.746 621.59C133.974 621.337 134.094 621.004 134.08 620.664C134.065 620.323 133.917 620.002 133.668 619.769C133.897 620.019 134.216 620.169 134.555 620.186C134.893 620.202 135.225 620.085 135.478 619.858C135.25 620.109 135.13 620.44 135.145 620.779C135.159 621.118 135.307 621.437 135.555 621.668C135.442 621.543 135.305 621.443 135.153 621.371C135 621.3 134.835 621.26 134.667 621.253C134.499 621.245 134.331 621.271 134.172 621.329C134.014 621.387 133.869 621.476 133.746 621.59Z" fill="white"/>
<path d="M219.383 664.924C219.143 665.163 218.839 665.326 218.507 665.391C218.175 665.457 217.832 665.423 217.52 665.293C217.207 665.164 216.941 664.945 216.753 664.664C216.565 664.383 216.465 664.052 216.465 663.714C216.465 663.376 216.565 663.046 216.753 662.765C216.941 662.483 217.207 662.264 217.52 662.135C217.832 662.005 218.175 661.971 218.507 662.037C218.839 662.103 219.143 662.265 219.383 662.504C219.543 662.662 219.67 662.85 219.757 663.058C219.844 663.266 219.889 663.489 219.889 663.714C219.889 663.939 219.844 664.162 219.757 664.37C219.67 664.578 219.543 664.766 219.383 664.924Z" fill="white"/>
<path d="M9.58001 665.783C9.40122 665.961 9.17369 666.082 8.92617 666.131C8.67865 666.18 8.42222 666.154 8.18925 666.057C7.95627 665.96 7.75717 665.797 7.61713 665.587C7.47708 665.377 7.40234 665.13 7.40234 664.878C7.40234 664.626 7.47708 664.379 7.61713 664.169C7.75717 663.959 7.95627 663.796 8.18925 663.699C8.42222 663.602 8.67865 663.577 8.92617 663.625C9.17369 663.674 9.40122 663.795 9.58001 663.973C9.69918 664.092 9.79373 664.233 9.85826 664.388C9.92279 664.543 9.95601 664.71 9.95601 664.878C9.95601 665.046 9.92279 665.213 9.85826 665.368C9.79373 665.523 9.69918 665.664 9.58001 665.783Z" fill="white"/>
<path d="M181.877 519.533C181.698 519.711 181.471 519.832 181.223 519.881C180.976 519.93 180.719 519.904 180.486 519.807C180.253 519.71 180.054 519.547 179.914 519.337C179.774 519.127 179.699 518.88 179.699 518.628C179.699 518.376 179.774 518.129 179.914 517.919C180.054 517.71 180.253 517.546 180.486 517.449C180.719 517.352 180.976 517.327 181.223 517.375C181.471 517.424 181.698 517.545 181.877 517.723C181.996 517.842 182.091 517.983 182.155 518.138C182.22 518.293 182.253 518.46 182.253 518.628C182.253 518.796 182.22 518.963 182.155 519.118C182.091 519.273 181.996 519.414 181.877 519.533Z" fill="white"/>
<path d="M241.9 413.392C241.722 413.57 241.494 413.691 241.246 413.74C240.999 413.789 240.743 413.763 240.51 413.666C240.277 413.57 240.077 413.406 239.937 413.196C239.797 412.986 239.723 412.74 239.723 412.487C239.723 412.235 239.797 411.988 239.937 411.779C240.077 411.569 240.277 411.405 240.51 411.308C240.743 411.212 240.999 411.186 241.246 411.235C241.494 411.283 241.722 411.405 241.9 411.582C242.019 411.701 242.114 411.842 242.179 411.997C242.243 412.153 242.276 412.319 242.276 412.487C242.276 412.656 242.243 412.822 242.179 412.977C242.114 413.133 242.019 413.274 241.9 413.392Z" fill="white"/>
<path d="M298.132 449.335C298.36 449.084 298.48 448.753 298.465 448.415C298.451 448.076 298.303 447.756 298.055 447.526C298.285 447.774 298.605 447.922 298.944 447.936C299.282 447.951 299.613 447.831 299.864 447.603C299.751 447.728 299.663 447.873 299.606 448.032C299.549 448.19 299.524 448.359 299.532 448.527C299.54 448.695 299.582 448.86 299.654 449.012C299.726 449.164 299.828 449.3 299.953 449.413C299.721 449.164 299.399 449.016 299.059 449.001C298.718 448.987 298.385 449.107 298.132 449.335Z" fill="white"/>
<path d="M255.675 502.951C255.903 502.7 256.023 502.369 256.008 502.03C255.994 501.691 255.846 501.372 255.598 501.141C255.828 501.39 256.148 501.537 256.487 501.552C256.825 501.566 257.156 501.447 257.407 501.219C257.179 501.472 257.059 501.805 257.073 502.145C257.088 502.486 257.236 502.807 257.485 503.04C257.256 502.79 256.937 502.64 256.599 502.623C256.26 502.607 255.928 502.724 255.675 502.951Z" fill="white"/>
<path d="M177.644 348.266C177.872 348.015 177.992 347.684 177.977 347.346C177.963 347.007 177.815 346.687 177.566 346.457C177.797 346.705 178.116 346.853 178.455 346.867C178.794 346.882 179.125 346.762 179.376 346.534C179.148 346.786 179.029 347.116 179.043 347.455C179.058 347.794 179.205 348.113 179.454 348.344C179.223 348.096 178.904 347.948 178.565 347.933C178.226 347.919 177.895 348.038 177.644 348.266Z" fill="white"/>
<path d="M240.718 448.736C240.944 448.483 241.062 448.152 241.045 447.813C241.029 447.474 240.879 447.155 240.629 446.926C240.861 447.175 241.183 447.323 241.523 447.338C241.864 447.352 242.197 447.232 242.45 447.004C242.222 447.255 242.102 447.586 242.117 447.925C242.131 448.263 242.279 448.583 242.527 448.813C242.297 448.565 241.977 448.417 241.639 448.403C241.3 448.388 240.969 448.508 240.718 448.736Z" fill="white"/>
<path d="M176.343 425.92C176.572 425.667 176.692 425.334 176.677 424.993C176.663 424.653 176.515 424.331 176.266 424.099C176.495 424.349 176.813 424.499 177.152 424.515C177.491 424.532 177.823 424.414 178.075 424.188C177.847 424.439 177.728 424.77 177.742 425.108C177.757 425.447 177.904 425.767 178.153 425.997C178.04 425.873 177.903 425.772 177.75 425.701C177.598 425.63 177.433 425.589 177.264 425.582C177.096 425.575 176.928 425.601 176.77 425.659C176.612 425.717 176.467 425.805 176.343 425.92Z" fill="white"/>
<path d="M218.591 316.99C218.819 316.739 218.939 316.408 218.924 316.069C218.91 315.73 218.762 315.411 218.514 315.18C218.744 315.429 219.064 315.576 219.403 315.591C219.741 315.605 220.072 315.486 220.323 315.258C220.096 315.509 219.976 315.84 219.99 316.179C220.005 316.517 220.153 316.837 220.401 317.068C220.171 316.819 219.851 316.671 219.512 316.657C219.173 316.642 218.843 316.762 218.591 316.99Z" fill="white"/>
<path d="M237.677 496.311C237.905 496.06 238.025 495.729 238.01 495.39C237.996 495.052 237.848 494.732 237.6 494.501C237.83 494.75 238.15 494.898 238.489 494.912C238.827 494.927 239.158 494.807 239.409 494.579C239.181 494.83 239.062 495.161 239.076 495.5C239.091 495.839 239.238 496.158 239.487 496.389C239.256 496.14 238.937 495.993 238.598 495.978C238.259 495.964 237.928 496.083 237.677 496.311Z" fill="white"/>
<path d="M228.23 326.25C228.458 325.998 228.578 325.668 228.563 325.329C228.549 324.99 228.401 324.67 228.152 324.44C228.383 324.688 228.702 324.836 229.041 324.851C229.38 324.865 229.711 324.745 229.962 324.518C229.734 324.769 229.614 325.1 229.629 325.438C229.644 325.777 229.791 326.097 230.04 326.327C229.809 326.079 229.49 325.931 229.151 325.917C228.812 325.902 228.481 326.022 228.23 326.25Z" fill="white"/>
<path d="M103 371.849C103.228 371.596 103.348 371.263 103.334 370.922C103.319 370.582 103.171 370.261 102.922 370.028C103.035 370.156 103.172 370.26 103.326 370.334C103.48 370.409 103.646 370.452 103.817 370.461C103.987 370.471 104.158 370.446 104.319 370.389C104.48 370.331 104.628 370.243 104.754 370.128C104.526 370.379 104.406 370.71 104.421 371.049C104.435 371.388 104.583 371.707 104.832 371.938C104.718 371.81 104.58 371.707 104.426 371.634C104.272 371.56 104.105 371.518 103.934 371.51C103.764 371.502 103.593 371.527 103.433 371.586C103.272 371.644 103.125 371.733 103 371.849Z" fill="white"/>
<path d="M162.156 336.242C161.977 336.42 161.75 336.541 161.502 336.59C161.255 336.639 160.998 336.613 160.765 336.516C160.532 336.419 160.333 336.256 160.193 336.046C160.053 335.836 159.979 335.589 159.979 335.337C159.979 335.085 160.053 334.838 160.193 334.628C160.333 334.419 160.532 334.255 160.765 334.158C160.998 334.061 161.255 334.036 161.502 334.084C161.75 334.133 161.977 334.254 162.156 334.432C162.275 334.551 162.37 334.692 162.434 334.847C162.499 335.002 162.532 335.169 162.532 335.337C162.532 335.505 162.499 335.672 162.434 335.827C162.37 335.982 162.275 336.123 162.156 336.242Z" fill="white"/>
<path d="M222.178 480.112C221.999 480.29 221.771 480.411 221.524 480.46C221.276 480.509 221.02 480.483 220.787 480.387C220.554 480.29 220.355 480.126 220.215 479.916C220.075 479.706 220 479.46 220 479.207C220 478.955 220.075 478.709 220.215 478.499C220.355 478.289 220.554 478.125 220.787 478.028C221.02 477.932 221.276 477.906 221.524 477.955C221.771 478.004 221.999 478.125 222.178 478.303C222.297 478.421 222.391 478.562 222.456 478.718C222.52 478.873 222.554 479.039 222.554 479.207C222.554 479.376 222.52 479.542 222.456 479.697C222.391 479.853 222.297 479.994 222.178 480.112Z" fill="white"/>
<path d="M69.9802 420.254C69.7409 420.493 69.4363 420.655 69.1047 420.721C68.7731 420.786 68.4295 420.752 68.1172 420.623C67.805 420.493 67.5382 420.274 67.3504 419.993C67.1627 419.712 67.0625 419.382 67.0625 419.044C67.0625 418.706 67.1627 418.375 67.3504 418.094C67.5382 417.813 67.805 417.594 68.1172 417.464C68.4295 417.335 68.7731 417.301 69.1047 417.366C69.4363 417.432 69.7409 417.595 69.9802 417.833C70.1406 417.991 70.2681 418.18 70.3551 418.388C70.442 418.595 70.4868 418.818 70.4868 419.044C70.4868 419.269 70.442 419.492 70.3551 419.7C70.2681 419.907 70.1406 420.096 69.9802 420.254Z" fill="white"/>
<path d="M30.1777 431.112C29.9989 431.29 29.7713 431.411 29.5238 431.46C29.2763 431.509 29.0199 431.483 28.7869 431.387C28.5539 431.29 28.3548 431.126 28.2148 430.916C28.0747 430.706 28 430.46 28 430.207C28 429.955 28.0747 429.709 28.2148 429.499C28.3548 429.289 28.5539 429.125 28.7869 429.028C29.0199 428.932 29.2763 428.906 29.5238 428.955C29.7713 429.004 29.9989 429.125 30.1777 429.303C30.2968 429.421 30.3914 429.562 30.4559 429.718C30.5204 429.873 30.5537 430.039 30.5537 430.207C30.5537 430.376 30.5204 430.542 30.4559 430.697C30.3914 430.853 30.2968 430.994 30.1777 431.112Z" fill="white"/>
<g style="mix-blend-mode:overlay">
<path d="M205.119 364.63C205.233 364.506 205.322 364.361 205.38 364.203C205.437 364.045 205.464 363.877 205.456 363.709C205.449 363.541 205.409 363.376 205.337 363.223C205.266 363.071 205.165 362.934 205.041 362.82C205.272 363.069 205.591 363.217 205.93 363.231C206.269 363.246 206.6 363.126 206.851 362.898C206.624 363.151 206.506 363.482 206.523 363.821C206.54 364.16 206.689 364.479 206.94 364.708C206.707 364.458 206.386 364.311 206.045 364.296C205.704 364.281 205.372 364.401 205.119 364.63Z" fill="white"/>
</g>
<g style="mix-blend-mode:overlay">
<path d="M195.582 447.713C195.81 447.461 195.929 447.131 195.915 446.792C195.9 446.453 195.753 446.133 195.504 445.903C195.735 446.151 196.054 446.299 196.393 446.314C196.732 446.328 197.063 446.208 197.314 445.981C197.2 446.105 197.112 446.251 197.055 446.409C196.998 446.568 196.973 446.736 196.981 446.904C196.99 447.072 197.031 447.237 197.103 447.389C197.176 447.541 197.277 447.678 197.402 447.79C197.17 447.541 196.849 447.393 196.508 447.379C196.167 447.364 195.835 447.484 195.582 447.713Z" fill="white"/>
</g>
<g style="mix-blend-mode:overlay">
<path d="M153.125 501.328C153.353 501.077 153.472 500.746 153.458 500.407C153.443 500.068 153.295 499.749 153.047 499.518C153.278 499.767 153.597 499.914 153.936 499.929C154.275 499.943 154.606 499.824 154.857 499.596C154.628 499.849 154.508 500.181 154.523 500.522C154.537 500.863 154.685 501.184 154.934 501.417C154.705 501.166 154.387 501.017 154.048 501C153.709 500.984 153.377 501.101 153.125 501.328Z" fill="white"/>
</g>
<g style="mix-blend-mode:overlay">
<path d="M254.726 344.723C254.954 344.471 255.074 344.141 255.059 343.802C255.045 343.463 254.897 343.144 254.648 342.913C254.882 343.158 255.203 343.302 255.542 343.312C255.881 343.323 256.21 343.199 256.458 342.968C256.23 343.219 256.111 343.55 256.125 343.889C256.14 344.228 256.287 344.547 256.536 344.778C256.302 344.533 255.981 344.389 255.642 344.379C255.304 344.368 254.974 344.492 254.726 344.723Z" fill="white"/>
</g>
<g style="mix-blend-mode:overlay">
<path d="M138.167 447.113C138.393 446.86 138.511 446.529 138.495 446.19C138.478 445.851 138.328 445.532 138.078 445.303C138.311 445.553 138.632 445.7 138.973 445.715C139.313 445.73 139.646 445.61 139.899 445.381C139.671 445.632 139.551 445.963 139.566 446.302C139.58 446.641 139.728 446.96 139.977 447.191C139.746 446.942 139.427 446.794 139.088 446.78C138.749 446.765 138.418 446.885 138.167 447.113Z" fill="white"/>
</g>
<g style="mix-blend-mode:overlay">
<path d="M135.127 494.688C135.354 494.437 135.474 494.106 135.46 493.768C135.445 493.429 135.297 493.109 135.049 492.879C135.279 493.127 135.599 493.275 135.938 493.289C136.277 493.304 136.607 493.184 136.859 492.956C136.631 493.208 136.511 493.538 136.526 493.877C136.54 494.216 136.688 494.535 136.936 494.766C136.706 494.518 136.386 494.37 136.047 494.355C135.709 494.341 135.378 494.46 135.127 494.688Z" fill="white"/>
</g>
<g style="mix-blend-mode:overlay">
<path d="M273.443 403.079C273.204 403.319 272.9 403.483 272.567 403.55C272.235 403.617 271.891 403.584 271.578 403.455C271.265 403.326 270.997 403.107 270.809 402.826C270.62 402.544 270.52 402.213 270.52 401.874C270.52 401.536 270.62 401.205 270.809 400.923C270.997 400.642 271.265 400.423 271.578 400.294C271.891 400.164 272.235 400.131 272.567 400.198C272.9 400.265 273.204 400.429 273.443 400.67C273.758 400.991 273.935 401.424 273.935 401.874C273.935 402.325 273.758 402.757 273.443 403.079Z" fill="white"/>
</g>
<g style="mix-blend-mode:overlay">
<path d="M159.429 467.631C159.19 467.87 158.885 468.032 158.554 468.098C158.222 468.164 157.879 468.13 157.566 468C157.254 467.871 156.987 467.651 156.8 467.37C156.612 467.089 156.512 466.759 156.512 466.421C156.512 466.083 156.612 465.752 156.8 465.471C156.987 465.19 157.254 464.971 157.566 464.841C157.879 464.712 158.222 464.678 158.554 464.744C158.885 464.809 159.19 464.972 159.429 465.211C159.59 465.369 159.717 465.557 159.804 465.765C159.891 465.973 159.936 466.196 159.936 466.421C159.936 466.646 159.891 466.869 159.804 467.077C159.717 467.285 159.59 467.473 159.429 467.631Z" fill="white"/>
</g>
<g style="mix-blend-mode:overlay">
<path d="M119.627 478.49C119.448 478.668 119.221 478.789 118.973 478.837C118.726 478.886 118.469 478.861 118.236 478.764C118.003 478.667 117.804 478.503 117.664 478.293C117.524 478.084 117.449 477.837 117.449 477.585C117.449 477.332 117.524 477.086 117.664 476.876C117.804 476.666 118.003 476.502 118.236 476.406C118.469 476.309 118.726 476.283 118.973 476.332C119.221 476.381 119.448 476.502 119.627 476.68C119.746 476.798 119.841 476.939 119.905 477.095C119.97 477.25 120.003 477.417 120.003 477.585C120.003 477.753 119.97 477.919 119.905 478.075C119.841 478.23 119.746 478.371 119.627 478.49Z" fill="white"/>
</g>
<g style="mix-blend-mode:overlay">
<path d="M255.348 286.466C255.348 286.466 245.1 286.466 242.324 286.466C239.893 286.522 239.715 287.188 242.324 287.132C245.922 287.088 255.348 286.466 255.348 286.466Z" fill="white"/>
</g>
<g style="mix-blend-mode:overlay">
<path d="M267.781 296.337C267.781 296.337 257.533 296.337 254.746 296.337C252.326 296.392 252.137 297.058 254.746 296.992C258.31 296.958 267.781 296.337 267.781 296.337Z" fill="white"/>
</g>
<g style="mix-blend-mode:overlay">
<path d="M221.37 349.53C221.37 349.53 200.275 349.53 194.524 349.619C189.539 349.73 189.161 351.107 194.602 350.974C201.852 350.807 221.37 349.53 221.37 349.53Z" fill="white"/>
</g>
<g style="mix-blend-mode:overlay">
<path d="M173.574 331.466C173.574 331.466 152.479 331.466 146.739 331.555C141.753 331.666 141.365 333.043 146.805 332.909C154.066 332.743 173.574 331.466 173.574 331.466Z" fill="white"/>
</g>
<g style="mix-blend-mode:overlay">
<path d="M259.042 270.356C259.042 270.356 251.481 270.356 249.438 270.356C247.651 270.356 247.506 270.889 249.438 270.845C252.014 270.8 259.042 270.356 259.042 270.356Z" fill="white"/>
</g>
<g style="mix-blend-mode:overlay">
<path d="M301.655 270.867C301.655 270.867 286.111 270.867 281.858 270.922C278.172 271.011 277.895 272.033 281.914 271.933C287.266 271.811 301.655 270.867 301.655 270.867Z" fill="white"/>
</g>
<path d="M239.964 335.876C240.192 335.625 240.312 335.294 240.298 334.955C240.283 334.616 240.135 334.297 239.887 334.066C240.117 334.315 240.437 334.462 240.776 334.477C241.114 334.491 241.445 334.372 241.696 334.144C241.469 334.395 241.349 334.726 241.363 335.064C241.378 335.403 241.526 335.723 241.774 335.953C241.544 335.705 241.224 335.557 240.885 335.543C240.546 335.528 240.216 335.648 239.964 335.876Z" fill="white"/>
<path d="M165.32 359.458C165.548 359.207 165.668 358.876 165.653 358.537C165.638 358.198 165.491 357.879 165.242 357.648C165.473 357.897 165.792 358.045 166.131 358.059C166.47 358.074 166.801 357.954 167.052 357.726C166.824 357.977 166.704 358.308 166.719 358.647C166.733 358.986 166.881 359.305 167.13 359.536C166.899 359.287 166.58 359.14 166.241 359.125C165.902 359.11 165.571 359.23 165.32 359.458Z" fill="white"/>
<path d="M224.475 323.862C224.296 324.04 224.068 324.162 223.821 324.21C223.573 324.259 223.317 324.234 223.084 324.137C222.851 324.04 222.652 323.876 222.512 323.666C222.372 323.457 222.297 323.21 222.297 322.958C222.297 322.705 222.372 322.459 222.512 322.249C222.652 322.039 222.851 321.875 223.084 321.779C223.317 321.682 223.573 321.656 223.821 321.705C224.068 321.754 224.296 321.875 224.475 322.053C224.594 322.171 224.688 322.312 224.753 322.468C224.817 322.623 224.851 322.789 224.851 322.958C224.851 323.126 224.817 323.292 224.753 323.448C224.688 323.603 224.594 323.744 224.475 323.862Z" fill="white"/>
<g style="mix-blend-mode:overlay">
<path d="M63.4428 382.079C63.2041 382.319 62.8995 382.483 62.5675 382.55C62.2355 382.617 61.8911 382.584 61.5779 382.455C61.2648 382.326 60.997 382.107 60.8086 381.826C60.6201 381.544 60.5195 381.213 60.5195 380.874C60.5195 380.536 60.6201 380.205 60.8086 379.923C60.997 379.642 61.2648 379.423 61.5779 379.294C61.8911 379.164 62.2355 379.131 62.5675 379.198C62.8995 379.265 63.2041 379.429 63.4428 379.67C63.7581 379.991 63.9347 380.424 63.9347 380.874C63.9347 381.325 63.7581 381.757 63.4428 382.079Z" fill="white"/>
</g>
<path d="M205.478 267.46C205.359 267.579 205.206 267.661 205.041 267.694C204.875 267.726 204.703 267.709 204.547 267.645C204.391 267.58 204.257 267.47 204.163 267.33C204.07 267.189 204.02 267.024 204.02 266.855C204.02 266.686 204.07 266.521 204.163 266.38C204.257 266.24 204.391 266.13 204.547 266.065C204.703 266 204.875 265.983 205.041 266.016C205.206 266.049 205.359 266.13 205.478 266.25C205.558 266.329 205.621 266.424 205.664 266.527C205.707 266.631 205.729 266.743 205.729 266.855C205.729 266.967 205.707 267.079 205.664 267.182C205.621 267.286 205.558 267.381 205.478 267.46Z" fill="white"/>
<path d="M284.498 467.722C284.319 467.9 284.092 468.021 283.844 468.07C283.597 468.118 283.34 468.093 283.107 467.996C282.874 467.899 282.675 467.735 282.535 467.526C282.395 467.316 282.32 467.069 282.32 466.817C282.32 466.565 282.395 466.318 282.535 466.108C282.675 465.898 282.874 465.735 283.107 465.638C283.34 465.541 283.597 465.515 283.844 465.564C284.092 465.613 284.319 465.734 284.498 465.912C284.617 466.031 284.712 466.172 284.776 466.327C284.841 466.482 284.874 466.649 284.874 466.817C284.874 466.985 284.841 467.152 284.776 467.307C284.712 467.462 284.617 467.603 284.498 467.722Z" fill="white"/>
<path d="M274.049 289.677C273.929 289.796 273.777 289.877 273.611 289.91C273.445 289.943 273.273 289.926 273.117 289.861C272.961 289.797 272.828 289.687 272.734 289.547C272.64 289.406 272.59 289.241 272.59 289.072C272.59 288.903 272.64 288.737 272.734 288.597C272.828 288.456 272.961 288.347 273.117 288.282C273.273 288.217 273.445 288.2 273.611 288.233C273.777 288.266 273.929 288.347 274.049 288.467C274.128 288.546 274.191 288.64 274.234 288.744C274.278 288.848 274.3 288.959 274.3 289.072C274.3 289.184 274.278 289.295 274.234 289.399C274.191 289.503 274.128 289.597 274.049 289.677Z" fill="white"/>
<path d="M280.536 791.256C280.529 791.58 280.427 791.895 280.242 792.161C280.057 792.427 279.798 792.632 279.496 792.751C279.195 792.87 278.865 792.897 278.548 792.829C278.231 792.761 277.942 792.601 277.716 792.369C277.49 792.137 277.337 791.843 277.278 791.524C277.218 791.206 277.254 790.877 277.381 790.579C277.508 790.281 277.721 790.027 277.992 789.849C278.263 789.671 278.58 789.577 278.904 789.58C279.122 789.579 279.338 789.623 279.539 789.708C279.74 789.793 279.922 789.917 280.074 790.073C280.226 790.229 280.346 790.415 280.425 790.618C280.504 790.821 280.542 791.038 280.536 791.256Z" fill="white"/>
<path d="M245.506 772.691C245.665 772.517 245.789 772.313 245.87 772.091C245.951 771.869 245.987 771.633 245.977 771.397C245.967 771.161 245.91 770.929 245.81 770.715C245.71 770.501 245.569 770.308 245.395 770.149C245.718 770.498 246.167 770.706 246.643 770.727C247.119 770.747 247.584 770.58 247.937 770.26C247.617 770.613 247.449 771.078 247.47 771.554C247.491 772.03 247.699 772.478 248.048 772.802C247.888 772.628 247.696 772.487 247.482 772.387C247.268 772.287 247.036 772.23 246.8 772.22C246.564 772.209 246.328 772.246 246.106 772.327C245.884 772.408 245.68 772.531 245.506 772.691Z" fill="white"/>
<path d="M322.078 801.821C322.306 801.568 322.426 801.235 322.412 800.895C322.397 800.554 322.249 800.233 322 800C322.229 800.25 322.548 800.4 322.887 800.416C323.225 800.433 323.557 800.315 323.81 800.089C323.582 800.34 323.462 800.671 323.477 801.01C323.491 801.348 323.639 801.668 323.887 801.899C323.657 801.65 323.337 801.502 322.999 801.488C322.66 801.473 322.329 801.593 322.078 801.821Z" fill="url(#paint0_linear)"/>
<g style="mix-blend-mode:overlay">
<path d="M218.784 795.074C218.784 795.074 211.223 795.074 209.18 795.074C207.393 795.074 207.249 795.607 209.18 795.562C211.801 795.529 218.784 795.074 218.784 795.074Z" fill="white"/>
</g>
<line x1="81.5" y1="-952" x2="81.5" y2="982" stroke="white" stroke-opacity="0.1"/>
<g style="mix-blend-mode:overlay">
<path d="M19.1285 735.393C19.3564 735.142 19.4761 734.811 19.4616 734.472C19.447 734.133 19.2994 733.814 19.0508 733.583C19.2844 733.829 19.6055 733.972 19.9443 733.983C20.2831 733.993 20.6123 733.87 20.8605 733.639C20.6326 733.89 20.5129 734.221 20.5275 734.56C20.542 734.899 20.6897 735.218 20.9383 735.449C20.7046 735.203 20.3836 735.06 20.0448 735.049C19.706 735.039 19.3768 735.162 19.1285 735.393Z" fill="white"/>
</g>
<g style="mix-blend-mode:overlay">
<path d="M37.8451 793.75C37.6065 793.99 37.3018 794.154 36.9698 794.221C36.6378 794.288 36.2934 794.255 35.9802 794.126C35.6671 793.997 35.3993 793.778 35.2109 793.496C35.0225 793.215 34.9219 792.884 34.9219 792.545C34.9219 792.206 35.0225 791.875 35.2109 791.594C35.3993 791.312 35.6671 791.093 35.9802 790.964C36.2934 790.835 36.6378 790.802 36.9698 790.869C37.3018 790.936 37.6065 791.1 37.8451 791.34C38.1604 791.662 38.3371 792.094 38.3371 792.545C38.3371 792.995 38.1604 793.428 37.8451 793.75Z" fill="white"/>
</g>
<g style="mix-blend-mode:overlay">
<path d="M19.7504 677.137C19.7504 677.137 9.50248 677.137 6.72678 677.137C4.29526 677.192 4.11762 677.858 6.72678 677.803C10.3241 677.758 19.7504 677.137 19.7504 677.137Z" fill="white"/>
</g>
<g style="mix-blend-mode:overlay">
<path d="M32.1832 687.007C32.1832 687.007 21.9353 687.007 19.1485 687.007C16.7281 687.063 16.5393 687.729 19.1485 687.662C22.7125 687.629 32.1832 687.007 32.1832 687.007Z" fill="white"/>
</g>
<g style="mix-blend-mode:overlay">
<path d="M23.4446 661.027C23.4446 661.027 15.8835 661.027 13.8406 661.027C12.0531 661.027 11.9087 661.56 13.8406 661.515C16.4165 661.471 23.4446 661.027 23.4446 661.027Z" fill="white"/>
</g>
<g style="mix-blend-mode:overlay">
<path d="M66.0571 661.537C66.0571 661.537 50.5132 661.537 46.2608 661.593C42.5747 661.682 42.2971 662.703 46.3163 662.603C51.6679 662.481 66.0571 661.537 66.0571 661.537Z" fill="white"/>
</g>
<path d="M4.36679 726.546C4.59472 726.295 4.71441 725.964 4.69986 725.625C4.68531 725.287 4.53768 724.967 4.28906 724.736C4.51972 724.985 4.83916 725.133 5.17799 725.147C5.51682 725.162 5.8477 725.042 6.09883 724.814C5.8709 725.065 5.75121 725.396 5.76576 725.735C5.78031 726.074 5.92793 726.393 6.17656 726.624C5.94589 726.375 5.62646 726.228 5.28763 726.213C4.9488 726.199 4.61792 726.318 4.36679 726.546Z" fill="white"/>
<path d="M38.4511 680.347C38.3314 680.467 38.1791 680.548 38.0133 680.581C37.8475 680.614 37.6757 680.597 37.5196 680.532C37.3635 680.467 37.23 680.358 37.1362 680.217C37.0423 680.076 36.9922 679.911 36.9922 679.742C36.9922 679.573 37.0423 679.408 37.1362 679.267C37.23 679.127 37.3635 679.017 37.5196 678.953C37.6757 678.888 37.8475 678.871 38.0133 678.904C38.1791 678.936 38.3314 679.018 38.4511 679.137C38.5306 679.217 38.5937 679.311 38.6368 679.415C38.6799 679.519 38.702 679.63 38.702 679.742C38.702 679.855 38.6799 679.966 38.6368 680.07C38.5937 680.174 38.5306 680.268 38.4511 680.347Z" fill="white"/>
<path d="M72.5361 129.256C72.5295 129.58 72.4273 129.895 72.2423 130.161C72.0573 130.427 71.7978 130.632 71.4963 130.751C71.1949 130.87 70.8651 130.897 70.5483 130.829C70.2315 130.761 69.9418 130.601 69.7158 130.369C69.4897 130.137 69.3374 129.843 69.2779 129.524C69.2184 129.206 69.2544 128.877 69.3814 128.579C69.5084 128.281 69.7207 128.027 69.9917 127.849C70.2626 127.671 70.58 127.577 70.904 127.58C71.1221 127.579 71.3381 127.623 71.539 127.708C71.74 127.793 71.9219 127.917 72.074 128.073C72.2262 128.229 72.3455 128.415 72.4249 128.618C72.5042 128.821 72.542 129.038 72.5361 129.256Z" fill="white"/>
<path d="M64.2861 271.677C64.2795 272.001 64.1773 272.315 63.9923 272.581C63.8073 272.847 63.5478 273.053 63.2463 273.172C62.9449 273.291 62.6151 273.318 62.2983 273.25C61.9815 273.182 61.6918 273.022 61.4658 272.789C61.2397 272.557 61.0874 272.263 61.0279 271.945C60.9684 271.626 61.0044 271.297 61.1314 270.999C61.2584 270.701 61.4707 270.447 61.7417 270.269C62.0126 270.092 62.33 269.998 62.654 270C62.8721 270 63.0881 270.044 63.289 270.128C63.49 270.213 63.6719 270.337 63.824 270.494C63.9762 270.65 64.0955 270.835 64.1749 271.038C64.2542 271.242 64.292 271.459 64.2861 271.677Z" fill="white"/>
<path d="M37.5055 110.691C37.6653 110.517 37.7892 110.313 37.87 110.091C37.9509 109.869 37.9873 109.633 37.977 109.397C37.9667 109.161 37.9099 108.929 37.81 108.715C37.7101 108.501 37.5689 108.308 37.3945 108.149C37.7184 108.498 38.167 108.706 38.643 108.727C39.119 108.747 39.584 108.58 39.9371 108.26C39.6171 108.613 39.4494 109.078 39.4701 109.554C39.4909 110.03 39.6986 110.478 40.0481 110.802C39.8885 110.628 39.6961 110.487 39.4819 110.387C39.2677 110.287 39.0359 110.23 38.7998 110.22C38.5637 110.209 38.3278 110.246 38.1057 110.327C37.8837 110.408 37.6797 110.531 37.5055 110.691Z" fill="white"/>
<path d="M21.6207 181.668C21.8493 181.415 21.9693 181.082 21.9547 180.742C21.9402 180.401 21.7923 180.08 21.543 179.847C21.7721 180.097 22.0907 180.247 22.4296 180.264C22.7684 180.28 23.1002 180.162 23.3527 179.936C23.1248 180.187 23.0051 180.518 23.0197 180.857C23.0342 181.196 23.1818 181.515 23.4304 181.746C23.1997 181.497 22.8803 181.349 22.5415 181.335C22.2027 181.32 21.8718 181.44 21.6207 181.668Z" fill="url(#paint1_linear)"/>
<path d="M37.9744 171.897C37.8844 171.988 37.7696 172.049 37.6447 172.074C37.5198 172.099 37.3903 172.086 37.2726 172.037C37.1549 171.988 37.0543 171.906 36.9836 171.8C36.9128 171.694 36.875 171.57 36.875 171.442C36.875 171.315 36.9128 171.19 36.9836 171.084C37.0543 170.978 37.1549 170.896 37.2726 170.847C37.3903 170.798 37.5198 170.786 37.6447 170.811C37.7696 170.835 37.8844 170.897 37.9744 170.987C38.0925 171.109 38.1584 171.272 38.1584 171.442C38.1584 171.612 38.0925 171.775 37.9744 171.897Z" fill="white"/>
<path d="M61.0994 237.099C61.0094 237.189 60.8946 237.251 60.7697 237.276C60.6448 237.3 60.5153 237.288 60.3976 237.239C60.2799 237.19 60.1793 237.108 60.1086 237.002C60.0378 236.896 60 236.771 60 236.644C60 236.517 60.0378 236.392 60.1086 236.286C60.1793 236.18 60.2799 236.098 60.3976 236.049C60.5153 236 60.6448 235.988 60.7697 236.012C60.8946 236.037 61.0094 236.099 61.0994 236.189C61.2175 236.311 61.2834 236.474 61.2834 236.644C61.2834 236.814 61.2175 236.977 61.0994 237.099Z" fill="white"/>
<g style="mix-blend-mode:overlay">
<path d="M12.148 181.515C12.148 181.515 1.88902 181.515 -0.886683 181.515C-3.3071 181.515 -3.49584 182.237 -0.886683 182.181C2.66622 182.126 12.148 181.515 12.148 181.515Z" fill="white"/>
</g>
<g style="mix-blend-mode:overlay">
<path d="M1.92307 297.473C1.92307 297.473 -8.32482 297.473 -11.1116 297.473C-13.532 297.529 -13.7097 298.195 -11.1116 298.139C-7.54762 298.084 1.92307 297.473 1.92307 297.473Z" fill="white"/>
</g>
<g style="mix-blend-mode:overlay">
<path d="M49.9428 263.854C49.9428 263.854 33.8993 263.854 29.547 263.909C25.7609 263.998 25.4722 265.02 29.6025 264.953C35.1206 264.798 49.9428 263.854 49.9428 263.854Z" fill="white"/>
</g>
<g style="mix-blend-mode:overlay">
<path d="M10.7844 133.074C10.7844 133.074 3.22339 133.074 1.18047 133.074C-0.607081 133.074 -0.751418 133.607 1.18047 133.562C3.80074 133.529 10.7844 133.074 10.7844 133.074Z" fill="white"/>
</g>
<g style="mix-blend-mode:overlay">
<path d="M45.6752 205.591C45.6752 205.591 61.7187 205.591 66.0599 205.524C69.8571 205.435 70.1458 204.414 66.0044 204.492C60.4974 204.636 45.6752 205.591 45.6752 205.591Z" fill="white"/>
</g>
<path d="M103.311 401.107C103.305 401.431 103.203 401.746 103.018 402.012C102.833 402.278 102.573 402.484 102.272 402.603C101.97 402.721 101.64 402.749 101.324 402.681C101.007 402.613 100.717 402.452 100.491 402.22C100.265 401.988 100.113 401.694 100.053 401.376C99.9938 401.057 100.03 400.728 100.157 400.43C100.284 400.132 100.496 399.878 100.767 399.7C101.038 399.522 101.355 399.429 101.679 399.431C101.898 399.431 102.113 399.474 102.314 399.559C102.515 399.644 102.697 399.768 102.849 399.924C103.002 400.081 103.121 400.266 103.2 400.469C103.28 400.672 103.317 400.889 103.311 401.107Z" fill="white"/>
<path d="M68.2809 382.543C68.4407 382.368 68.5645 382.164 68.6454 381.942C68.7263 381.72 68.7627 381.484 68.7524 381.248C68.7421 381.012 68.6853 380.78 68.5854 380.566C68.4855 380.352 68.3443 380.16 68.1699 380C68.4938 380.349 68.9424 380.557 69.4184 380.578C69.8944 380.599 70.3594 380.431 70.7124 380.111C70.3925 380.464 70.2247 380.929 70.2455 381.405C70.2663 381.881 70.474 382.33 70.8234 382.654C70.6639 382.479 70.4715 382.338 70.2573 382.238C70.0431 382.138 69.8113 382.081 69.5752 382.071C69.3391 382.061 69.1032 382.097 68.8811 382.178C68.659 382.259 68.4551 382.383 68.2809 382.543Z" fill="white"/>
<path d="M47.0777 523.821C47.3063 523.568 47.4263 523.235 47.4117 522.895C47.3972 522.554 47.2493 522.233 47 522C47.2291 522.25 47.5477 522.4 47.8866 522.416C48.2254 522.433 48.5572 522.315 48.8098 522.089C48.5818 522.34 48.4621 522.671 48.4767 523.01C48.4912 523.348 48.6388 523.668 48.8874 523.899C48.6568 523.65 48.3374 523.502 47.9985 523.488C47.6597 523.473 47.3289 523.593 47.0777 523.821Z" fill="url(#paint2_linear)"/>
<path d="M-0.922272 564.821C-0.693667 564.568 -0.573712 564.235 -0.588252 563.895C-0.602793 563.554 -0.75067 563.233 -1 563C-0.770851 563.25 -0.452273 563.4 -0.113414 563.416C0.225444 563.433 0.557218 563.315 0.809765 563.089C0.581833 563.34 0.462143 563.671 0.476694 564.01C0.491245 564.348 0.638803 564.668 0.887425 564.899C0.656764 564.65 0.337366 564.502 -0.00146455 564.488C-0.340295 564.473 -0.671145 564.593 -0.922272 564.821Z" fill="url(#paint3_linear)"/>
<path d="M68.7498 443.749C68.6598 443.839 68.545 443.9 68.4201 443.925C68.2952 443.95 68.1657 443.937 68.048 443.888C67.9303 443.84 67.8297 443.757 67.759 443.651C67.6882 443.545 67.6504 443.421 67.6504 443.294C67.6504 443.166 67.6882 443.042 67.759 442.936C67.8297 442.83 67.9303 442.747 68.048 442.699C68.1657 442.65 68.2952 442.637 68.4201 442.662C68.545 442.687 68.6598 442.748 68.7498 442.838C68.8679 442.96 68.9338 443.124 68.9338 443.294C68.9338 443.463 68.8679 443.627 68.7498 443.749Z" fill="white"/>
<g style="mix-blend-mode:overlay">
<path d="M30.5347 443.485C30.5347 443.485 20.2868 443.485 17.5 443.485C15.0796 443.54 14.8909 444.207 17.5 444.151C21.064 444.107 30.5347 443.485 30.5347 443.485Z" fill="white"/>
</g>
<g style="mix-blend-mode:overlay">
<path d="M32.6985 569.324C32.6985 569.324 22.4506 569.324 19.6638 569.324C17.2434 569.38 17.0657 570.046 19.6638 569.991C23.2278 569.935 32.6985 569.324 32.6985 569.324Z" fill="white"/>
</g>
<g style="mix-blend-mode:overlay">
<path d="M80.7182 535.705C80.7182 535.705 64.6747 535.705 60.3224 535.761C56.5363 535.849 56.2476 536.871 60.3779 536.804C65.896 536.649 80.7182 535.705 80.7182 535.705Z" fill="white"/>
</g>
<g style="mix-blend-mode:overlay">
<path d="M34.1858 427.386C34.1858 427.386 26.6248 427.386 24.5708 427.386C22.7832 427.386 22.65 427.919 24.5708 427.875C27.2021 427.841 34.1858 427.386 34.1858 427.386Z" fill="white"/>
</g>
<g style="mix-blend-mode:overlay">
<path d="M41.5579 404.925C41.5579 404.925 33.9968 404.925 31.9539 404.925C30.1664 404.925 30.022 405.458 31.9539 405.414C34.5742 405.38 41.5579 404.925 41.5579 404.925Z" fill="white"/>
</g>
<g style="mix-blend-mode:overlay">
<path d="M76.7988 427.897C76.7988 427.897 61.2548 427.897 57.0024 427.897C53.3163 427.985 53.0387 429.007 57.0024 428.896C62.4095 428.829 76.7988 427.897 76.7988 427.897Z" fill="white"/>
</g>
<g style="mix-blend-mode:overlay">
<path d="M76.4506 477.442C76.4506 477.442 92.4941 477.442 96.8353 477.376C100.632 477.287 100.921 476.265 96.7798 476.343C91.2728 476.487 76.4506 477.442 76.4506 477.442Z" fill="white"/>
</g>
</g>
<defs>
<linearGradient id="paint0_linear" x1="-2506.48" y1="-2165.48" x2="-2501.93" y2="-2165.48" gradientUnits="userSpaceOnUse">
<stop stop-color="white"/>
<stop offset="0.21" stop-color="#76FFFF"/>
<stop offset="1" stop-color="#FEED58"/>
</linearGradient>
<linearGradient id="paint1_linear" x1="-2806.93" y1="-2785.63" x2="-2802.38" y2="-2785.63" gradientUnits="userSpaceOnUse">
<stop stop-color="white"/>
<stop offset="0.21" stop-color="#76FFFF"/>
<stop offset="1" stop-color="#FEED58"/>
</linearGradient>
<linearGradient id="paint2_linear" x1="-2781.48" y1="-2443.48" x2="-2776.93" y2="-2443.48" gradientUnits="userSpaceOnUse">
<stop stop-color="white"/>
<stop offset="0.21" stop-color="#76FFFF"/>
<stop offset="1" stop-color="#FEED58"/>
</linearGradient>
<linearGradient id="paint3_linear" x1="-2829.48" y1="-2402.48" x2="-2824.93" y2="-2402.48" gradientUnits="userSpaceOnUse">
<stop stop-color="white"/>
<stop offset="0.21" stop-color="#76FFFF"/>
<stop offset="1" stop-color="#FEED58"/>
</linearGradient>
<clipPath id="clip0">
<rect width="375" height="812" fill="white"/>
</clipPath>
</defs>
</svg>
