<svg width="32" height="32" viewBox="0 0 32 32" fill="none" xmlns="http://www.w3.org/2000/svg">
<circle cx="16" cy="16" r="16" fill="#13186F"/>
<path d="M24.9625 8.76191L22.153 23.3341C22.153 23.3341 22.0322 24 21.2192 24C20.7872 24 20.5645 23.7912 20.5645 23.7912L14.479 18.6613L11.5015 17.1368L7.68025 16.1044C7.68025 16.1044 7 15.9048 7 15.3333C7 14.8571 7.69975 14.6301 7.69975 14.6301L23.6868 8.17829C23.686 8.17753 24.175 7.99924 24.5312 8C24.7502 8 25 8.09524 25 8.38095C25 8.57143 24.9625 8.76191 24.9625 8.76191Z" fill="white"/>
<path d="M17 20.6737L14.426 22.92C14.426 22.92 14.314 22.9965 14.1645 22.9998C14.1127 23.0012 14.0571 22.9939 14 22.9712L14.7243 19L17 20.6737Z" fill="#B0BEC5"/>
<path d="M21.9268 11.1473C21.806 10.9819 21.5832 10.9518 21.426 11.0774L12 17.0161C12 17.0161 13.5043 21.4471 13.7336 22.2141C13.9636 22.982 14.1479 23 14.1479 23L14.8365 18.5142L21.8596 11.6737C22.0168 11.5481 22.0461 11.3128 21.9268 11.1473Z" fill="#CFD8DC"/>
</svg>
