<svg width="16" height="16" viewBox="0 0 16 16" fill="none" xmlns="http://www.w3.org/2000/svg">
<g clip-path="url(#clip0)">
<path d="M15.5838 11.4518C15.2854 11.0132 14.7791 10.9061 14.2291 11.1649L13.9376 11.2932C14.3972 10.3135 14.4542 9.22145 14.2254 8.18988C13.9626 7.0051 12.5633 5.10566 11.5743 4.02682C11.4868 3.93141 11.3386 3.92498 11.2432 4.01245C11.1478 4.09988 11.1413 4.2481 11.2288 4.34354C12.1615 5.36091 13.5231 7.18795 13.7679 8.29135C14.0257 9.45363 13.8757 10.6523 13.2179 11.6101L10.3009 12.8944L10.3033 12.565C10.3034 12.5567 10.303 12.5484 10.3022 12.5401C10.2348 11.863 9.71727 11.3235 9.04355 11.2282C9.04155 11.2279 9.03955 11.2277 9.03752 11.2274L6.44498 10.9289C5.44808 10.787 5.19133 10.1896 3.8412 9.84898C3.74792 9.05742 3.87227 8.21463 4.21308 7.36973C4.72636 6.09729 5.73052 4.86104 7.12258 3.78501C7.64142 4.15288 9.9562 4.19866 10.4742 3.7241C10.7396 3.92563 10.9929 4.13332 11.2288 4.34354C11.2735 4.38335 11.3291 4.40291 11.3846 4.40291C11.4491 4.40291 11.5134 4.37645 11.5596 4.32448C11.6457 4.22785 11.6372 4.07973 11.5405 3.99363C11.2819 3.76323 11.0037 3.53588 10.712 3.31616C10.7803 3.02623 10.6846 2.68688 10.4321 2.48488C11.1659 1.37201 11.3793 0.643602 11.0845 0.261977C10.882 -0.00017941 10.6301 0.122852 10.5226 0.175414C10.3403 0.264414 10.2409 0.269102 10.0731 0.159352C9.75308 -0.0500544 9.4167 -0.0568044 9.08636 0.159352C8.91648 0.270508 8.7827 0.270508 8.61289 0.159352C8.29283 -0.0500544 7.95658 -0.0568044 7.62617 0.159352C7.45648 0.270414 7.3567 0.263539 7.17727 0.174352C7.06983 0.120946 6.81823 -0.00411692 6.61448 0.258071C6.32633 0.628946 6.51911 1.33438 7.20333 2.40941C7.16142 2.43207 7.12148 2.45866 7.0842 2.48904C6.81208 2.20166 6.36623 1.90195 5.72148 1.97395C5.1867 2.03379 4.79236 1.85707 4.55567 1.69832C4.44817 1.62632 4.30261 1.65501 4.23055 1.76245C4.15848 1.86995 4.1872 2.01551 4.29467 2.08757C4.59639 2.28985 5.09783 2.51504 5.77348 2.4397C6.27161 2.38382 6.60961 2.63838 6.82002 2.89745C6.81714 2.90745 6.81448 2.91751 6.81202 2.92757C6.63255 2.93038 6.36433 2.94713 6.06895 3.00857C5.35858 3.15635 4.83127 3.49395 4.54398 3.98495C4.47864 4.09663 4.5162 4.2402 4.62789 4.30557C4.73961 4.37091 4.88314 4.33332 4.94848 4.22163C5.3758 3.49135 6.41883 3.40204 6.83311 3.39645C6.83489 3.4016 6.83698 3.4067 6.83886 3.41182C5.36048 4.55223 4.33123 5.82401 3.77848 7.19432C3.42911 8.06048 3.28955 8.92823 3.36039 9.75288C3.13567 9.71963 2.90836 9.70179 2.67995 9.70023V9.55851C2.67995 9.18354 2.37489 8.87851 1.99992 8.87851H0.924172C0.549203 8.87851 0.244141 9.18357 0.244141 9.55851V15.0161C0.244141 15.3911 0.549203 15.6962 0.924172 15.6962H1.99989C2.37486 15.6962 2.67992 15.3911 2.67992 15.0161V14.9494L5.02652 15.8228C5.34186 15.9401 5.67236 15.9997 6.00883 15.9997H9.50527C10.0398 15.9997 10.561 15.8484 11.0125 15.5623C15.6769 12.6054 15.3936 12.7894 15.4206 12.7655C15.7963 12.432 15.8665 11.8672 15.5838 11.4518ZM10.0345 3.44641C9.17752 3.66279 8.34433 3.66279 7.4872 3.44641C7.11942 3.35345 7.22598 2.69751 7.62123 2.79663C8.38805 2.98913 9.13355 2.98913 9.90042 2.79663C10.2888 2.69913 10.4081 3.35198 10.0345 3.44641ZM6.96323 0.591383C6.96508 0.592289 6.96867 0.594102 6.96867 0.594102C7.28583 0.751727 7.56373 0.760289 7.88277 0.551571C8.28202 0.290227 8.32536 0.709258 8.84958 0.709258C9.10195 0.709258 9.24123 0.618133 9.34292 0.551571C9.51283 0.440383 9.64664 0.440446 9.81652 0.551571C10.137 0.761258 10.4081 0.750914 10.7345 0.593508C10.7827 0.767321 10.6736 1.28548 9.97873 2.32004C9.63367 2.31416 9.13292 2.65307 7.71536 2.3376C7.02198 1.28966 6.91477 0.766477 6.96323 0.591383ZM15.1221 12.4036L10.7617 15.1666C10.3854 15.4051 9.95089 15.5312 9.5053 15.5312H6.00886C5.72839 15.5312 5.45289 15.4815 5.19002 15.3837L2.67992 14.4494V11.9258C2.67992 11.7964 2.57502 11.6915 2.44561 11.6915C2.3162 11.6915 2.2113 11.7964 2.2113 11.9258V15.0163C2.2113 15.1328 2.11645 15.2276 1.99992 15.2276H0.924172C0.807609 15.2276 0.712797 15.1328 0.712797 15.0163V9.55863C0.712797 9.44207 0.807609 9.34729 0.924172 9.34729H1.99989C2.11645 9.34729 2.21127 9.4421 2.21127 9.55863L2.2113 12C2.2113 12.1294 2.3162 12.2343 2.44561 12.2343C2.57502 12.2343 2.67992 12.1294 2.67992 12L2.67989 10.169C4.61836 10.1839 5.0542 11.2056 6.38227 11.3934C6.38427 11.3937 6.38627 11.394 6.38827 11.3942L8.98067 11.6927C9.43461 11.7582 9.78395 12.1197 9.83452 12.5748L9.83127 13.0205H7.41361C7.2842 13.0205 7.17927 13.1254 7.17927 13.2549C7.17927 13.3843 7.28417 13.4892 7.41361 13.4892H10.0639C10.0935 13.4892 10.1277 13.4826 10.1574 13.4697C10.1622 13.4675 14.4156 11.5948 14.4206 11.5926C14.7272 11.4564 15.0067 11.4369 15.1963 11.7155C15.3437 11.9319 15.311 12.2246 15.1221 12.4036Z" fill="#76FFFF"/>
<path d="M11.2288 4.34354C11.1413 4.2481 11.1478 4.09988 11.2432 4.01245C11.3386 3.92498 11.4868 3.93141 11.5743 4.02682C12.5633 5.10566 13.9626 7.0051 14.2254 8.18988C14.4542 9.22145 14.3972 10.3135 13.9376 11.2932L14.2291 11.1649C14.7791 10.9061 15.2854 11.0132 15.5838 11.4518C15.8665 11.8672 15.7963 12.432 15.4206 12.7655C15.3936 12.7894 15.6769 12.6054 11.0125 15.5623C10.561 15.8484 10.0398 15.9997 9.50527 15.9997H6.00883C5.67236 15.9997 5.34186 15.9401 5.02652 15.8228L2.67992 14.9494V15.0161C2.67992 15.3911 2.37486 15.6962 1.99989 15.6962H0.924172C0.549203 15.6962 0.244141 15.3911 0.244141 15.0161V9.55851C0.244141 9.18357 0.549203 8.87851 0.924172 8.87851H1.99992C2.37489 8.87851 2.67995 9.18354 2.67995 9.55851V9.70023C2.90836 9.70179 3.13567 9.71963 3.36039 9.75288C3.28955 8.92823 3.42911 8.06048 3.77848 7.19432C4.33123 5.82401 5.36048 4.55223 6.83886 3.41182C6.83698 3.4067 6.83489 3.4016 6.83311 3.39645C6.41883 3.40204 5.3758 3.49135 4.94848 4.22163C4.88314 4.33332 4.73961 4.37091 4.62789 4.30557C4.5162 4.2402 4.47864 4.09663 4.54398 3.98495C4.83127 3.49395 5.35858 3.15635 6.06895 3.00857C6.36433 2.94713 6.63255 2.93038 6.81202 2.92757C6.81448 2.91751 6.81714 2.90745 6.82002 2.89745C6.60961 2.63838 6.27161 2.38382 5.77348 2.4397C5.09783 2.51504 4.59639 2.28985 4.29467 2.08757C4.1872 2.01551 4.15848 1.86995 4.23055 1.76245C4.30261 1.65501 4.44817 1.62632 4.55567 1.69832C4.79236 1.85707 5.1867 2.03379 5.72148 1.97395C6.36623 1.90195 6.81208 2.20166 7.0842 2.48904C7.12148 2.45866 7.16142 2.43207 7.20333 2.40941C6.51911 1.33438 6.32633 0.628946 6.61448 0.258071C6.81823 -0.00411692 7.06983 0.120946 7.17727 0.174352C7.3567 0.263539 7.45648 0.270414 7.62617 0.159352C7.95658 -0.0568044 8.29283 -0.0500544 8.61289 0.159352C8.7827 0.270508 8.91648 0.270508 9.08636 0.159352C9.4167 -0.0568044 9.75308 -0.0500544 10.0731 0.159352C10.2409 0.269102 10.3403 0.264414 10.5226 0.175414C10.6301 0.122852 10.882 -0.00017941 11.0845 0.261977C11.3793 0.643602 11.1659 1.37201 10.4321 2.48488C10.6846 2.68688 10.7803 3.02623 10.712 3.31616C11.0037 3.53588 11.2819 3.76323 11.5405 3.99363C11.6372 4.07973 11.6457 4.22785 11.5596 4.32448C11.5134 4.37645 11.4491 4.40291 11.3846 4.40291C11.3291 4.40291 11.2735 4.38335 11.2288 4.34354ZM11.2288 4.34354C12.1615 5.36091 13.5231 7.18795 13.7679 8.29135C14.0257 9.45363 13.8757 10.6523 13.2179 11.6101L10.3009 12.8944L10.3033 12.565C10.3034 12.5567 10.303 12.5484 10.3022 12.5401C10.2348 11.863 9.71727 11.3235 9.04355 11.2282C9.04155 11.2279 9.03955 11.2277 9.03752 11.2274L6.44498 10.9289C5.44808 10.787 5.19133 10.1896 3.8412 9.84898C3.74792 9.05741 3.87227 8.21463 4.21308 7.36973C4.72636 6.09729 5.73052 4.86104 7.12258 3.78501C7.64142 4.15288 9.9562 4.19866 10.4742 3.7241C10.7396 3.92563 10.9929 4.13332 11.2288 4.34354ZM10.0345 3.44641C9.17752 3.66279 8.34433 3.66279 7.4872 3.44641C7.11942 3.35345 7.22598 2.69751 7.62123 2.79663C8.38805 2.98913 9.13355 2.98913 9.90042 2.79663C10.2888 2.69913 10.4081 3.35198 10.0345 3.44641ZM6.96323 0.591383C6.96508 0.592289 6.96867 0.594102 6.96867 0.594102C7.28583 0.751727 7.56373 0.760289 7.88277 0.551571C8.28202 0.290227 8.32536 0.709258 8.84958 0.709258C9.10195 0.709258 9.24123 0.618133 9.34292 0.551571C9.51283 0.440383 9.64664 0.440446 9.81652 0.551571C10.137 0.761258 10.4081 0.750914 10.7345 0.593508C10.7827 0.767321 10.6736 1.28548 9.97873 2.32004C9.63367 2.31416 9.13292 2.65307 7.71536 2.3376C7.02198 1.28966 6.91477 0.766477 6.96323 0.591383ZM15.1221 12.4036L10.7617 15.1666C10.3854 15.4051 9.95089 15.5312 9.5053 15.5312H6.00886C5.72839 15.5312 5.45289 15.4815 5.19002 15.3837L2.67992 14.4494V11.9258C2.67992 11.7964 2.57502 11.6915 2.44561 11.6915C2.3162 11.6915 2.2113 11.7964 2.2113 11.9258V15.0163C2.2113 15.1328 2.11645 15.2276 1.99992 15.2276H0.924172C0.807609 15.2276 0.712797 15.1328 0.712797 15.0163V9.55863C0.712797 9.44207 0.807609 9.34729 0.924172 9.34729H1.99989C2.11645 9.34729 2.21127 9.4421 2.21127 9.55863L2.2113 12C2.2113 12.1294 2.3162 12.2343 2.44561 12.2343C2.57502 12.2343 2.67992 12.1294 2.67992 12L2.67989 10.169C4.61836 10.1839 5.0542 11.2056 6.38227 11.3934C6.38427 11.3937 6.38627 11.394 6.38827 11.3942L8.98067 11.6927C9.43461 11.7582 9.78395 12.1197 9.83452 12.5748L9.83127 13.0205H7.41361C7.2842 13.0205 7.17927 13.1254 7.17927 13.2549C7.17927 13.3843 7.28417 13.4892 7.41361 13.4892H10.0639C10.0935 13.4892 10.1277 13.4826 10.1574 13.4697C10.1622 13.4675 14.4156 11.5948 14.4206 11.5926C14.7272 11.4564 15.0067 11.4369 15.1963 11.7155C15.3437 11.9319 15.311 12.2246 15.1221 12.4036Z" stroke="#76FFFF" stroke-width="0.2"/>
<path d="M8.82385 10.6318C8.95325 10.6318 9.05819 10.5268 9.05819 10.3974V10.009C9.71604 9.90222 10.0999 9.36975 10.1834 8.873C10.2877 8.25247 9.96267 7.71282 9.35535 7.49816C9.24804 7.46022 9.14929 7.42394 9.05816 7.38891V5.89479C9.33538 5.94075 9.50182 6.08422 9.51394 6.09494C9.60913 6.1815 9.75645 6.1751 9.84379 6.08041C9.93154 5.98529 9.92554 5.83704 9.83041 5.74929C9.81388 5.73404 9.52688 5.47563 9.05816 5.4216V5.08835C9.05816 4.95891 8.95325 4.854 8.82381 4.854C8.69441 4.854 8.5895 4.95891 8.5895 5.08835V5.44054C8.533 5.45135 8.47513 5.4651 8.41566 5.483C8.01815 5.60272 7.72103 5.94357 7.64018 6.37247C7.56684 6.76169 7.69025 7.136 7.96222 7.34932C8.11837 7.47179 8.31494 7.58391 8.5895 7.70379V9.55694C8.3185 9.54547 8.15169 9.4946 7.86068 9.30422C7.7524 9.23341 7.60715 9.26369 7.53631 9.37204C7.46546 9.48032 7.49581 9.62557 7.60412 9.69641C7.98665 9.94666 8.24237 10.0119 8.5895 10.0254V10.3974C8.5895 10.5268 8.69441 10.6318 8.82385 10.6318ZM8.25147 6.98057C8.11769 6.87563 8.0599 6.67588 8.10075 6.45929C8.13862 6.25841 8.27672 6.01435 8.55085 5.93179C8.56388 5.92785 8.57669 5.92447 8.5895 5.92104V7.18682C8.44919 7.11675 8.33916 7.04935 8.25147 6.98057ZM9.19916 7.94004C9.78229 8.14613 9.74616 8.64682 9.72119 8.79535C9.66951 9.10288 9.44376 9.43119 9.05816 9.53V7.88925C9.10379 7.90594 9.15038 7.92279 9.19916 7.94004Z" fill="#76FFFF" stroke="#76FFFF" stroke-width="0.2"/>
</g>
<defs>
<clipPath id="clip0">
<rect width="16" height="16" fill="white"/>
</clipPath>
</defs>
</svg>
