<svg width="32" height="32" viewBox="0 0 32 32" fill="none" xmlns="http://www.w3.org/2000/svg">
<circle cx="16" cy="16" r="16" fill="#131970"/>
<path d="M25 9.77552C24.3375 10.0772 23.6258 10.2803 22.8789 10.3719C23.6417 9.90331 24.2267 9.16144 24.5022 8.27687C23.7892 8.71063 22.9986 9.02584 22.1568 9.19622C21.4832 8.46003 20.5237 8 19.4618 8C17.4223 8 15.7691 9.69601 15.7691 11.7867C15.7691 12.0835 15.8024 12.3731 15.8647 12.6493C12.7958 12.4917 10.0751 10.9838 8.25303 8.69218C7.93596 9.2516 7.75389 9.90189 7.75389 10.5969C7.75389 11.9103 8.40533 13.0696 9.39598 13.7483C8.79093 13.7284 8.22118 13.558 7.72343 13.2747C7.72343 13.2911 7.72343 13.306 7.72343 13.3223C7.72343 15.1575 8.99585 16.6881 10.6857 17.0352C10.3763 17.1218 10.0495 17.168 9.71236 17.168C9.4749 17.168 9.24299 17.1438 9.018 17.1005C9.48806 18.6049 10.8519 19.7003 12.4676 19.7308C11.2042 20.7467 9.61198 21.3523 7.88127 21.3523C7.58359 21.3523 7.28937 21.3345 7 21.299C8.63448 22.3731 10.5749 23 12.6608 23C19.4534 23 23.1668 17.2297 23.1668 12.2255C23.1668 12.0615 23.1634 11.8982 23.1565 11.7356C23.8785 11.2011 24.505 10.5344 25 9.77552Z" fill="white"/>
</svg>
