<svg width="36" height="36" viewBox="0 0 36 36" fill="none" xmlns="http://www.w3.org/2000/svg">
<g opacity="0.7">
<path d="M18 36C13.738 36 9.60427 34.4838 6.36026 31.7306C5.59856 31.0845 4.88405 30.3682 4.23675 29.6018C1.50448 26.3632 0 22.2431 0 18C0 13.192 1.87228 8.67178 5.27203 5.27203C8.67178 1.87228 13.192 0 18 0C22.808 0 27.3282 1.87228 30.728 5.27203C34.1277 8.67178 36 13.192 36 18C36 22.2432 34.4955 26.3633 31.7636 29.6014C31.116 30.3682 30.4014 31.0845 29.6395 31.7308C26.3957 34.4838 22.262 36 18 36ZM18 2.25C9.31542 2.25 2.25 9.31542 2.25 18C2.25 21.7129 3.56618 25.3177 5.9561 28.1505C6.52282 28.8215 7.14867 29.4489 7.81594 30.0149C10.654 32.4236 14.2707 33.75 18 33.75C21.7293 33.75 25.346 32.4236 28.1839 30.0151C28.8513 29.4489 29.4772 28.8214 30.0442 28.15C32.4338 25.3178 33.75 21.7129 33.75 18C33.75 9.31542 26.6846 2.25 18 2.25Z" fill="white"/>
<path d="M18 18C14.278 18 11.25 14.972 11.25 11.25C11.25 7.52801 14.278 4.5 18 4.5C21.722 4.5 24.75 7.52801 24.75 11.25C24.75 14.972 21.722 18 18 18ZM18 6.75C15.5187 6.75 13.5 8.76867 13.5 11.25C13.5 13.7313 15.5187 15.75 18 15.75C20.4813 15.75 22.5 13.7313 22.5 11.25C22.5 8.76867 20.4813 6.75 18 6.75Z" fill="white"/>
<path d="M28.9126 31.9981C28.8219 31.9981 28.7298 31.9871 28.6379 31.964C28.0353 31.8127 27.6694 31.2016 27.8206 30.5989C28.0226 29.7944 28.125 28.962 28.125 28.125C28.125 22.6206 23.6499 18.0797 18.1481 18.0007L18 18L17.8519 18.0007C12.3501 18.0797 7.875 22.6206 7.875 28.125C7.875 28.962 7.97745 29.7944 8.17938 30.5989C8.33063 31.2016 7.96472 31.8127 7.36214 31.964C6.75956 32.1152 6.14834 31.7494 5.99709 31.1468C5.75016 30.1631 5.625 29.1465 5.625 28.125C5.625 24.85 6.89182 21.7629 9.19209 19.4323C11.4901 17.1039 14.5559 15.7965 17.8246 15.7508C17.8299 15.7508 17.8351 15.7508 17.8404 15.7508L18 15.75L18.1596 15.7507C18.1649 15.7507 18.1701 15.7507 18.1754 15.7508C21.4441 15.7964 24.5099 17.1039 26.8079 19.4322C29.1082 21.7629 30.375 24.85 30.375 28.125C30.375 29.1465 30.2498 30.1631 30.0029 31.1468C29.8747 31.6574 29.4163 31.998 28.9126 31.9981Z" fill="white"/>
</g>
</svg>
