<svg width="16" height="16" viewBox="0 0 16 16" fill="none" xmlns="http://www.w3.org/2000/svg">
<path d="M15.6522 0.695652C15.8441 0.695652 16 0.539742 16 0.347826C16 0.15591 15.8441 0 15.6522 0H1.73913C0.780231 0 0 0.780231 0 1.73913V14.2609C0 15.2198 0.780231 16 1.73913 16H15.6522C15.8441 16 16 15.8446 16 15.6522V3.13043C16 2.93852 15.8441 2.78261 15.6522 2.78261C15.0769 2.78261 14.6087 2.31437 14.6087 1.73913C14.6087 1.16389 15.0769 0.695652 15.6522 0.695652ZM1.73913 0.695652H14.2615C14.0431 0.986413 13.913 1.34783 13.913 1.73913C13.913 2.13043 14.0431 2.49185 14.2615 2.78261H1.73913C1.16389 2.78261 0.695652 2.31437 0.695652 1.73913C0.695652 1.16389 1.16389 0.695652 1.73913 0.695652ZM15.3043 11.1304H9.3913C8.43241 11.1304 7.65217 10.3502 7.65217 9.3913C7.65217 8.43241 8.43241 7.65217 9.3913 7.65217H15.3043V11.1304ZM15.3043 3.47826V6.95652H9.3913C8.04874 6.95652 6.95652 8.04874 6.95652 9.3913C6.95652 10.7335 8.04874 11.8261 9.3913 11.8261H15.3043V15.3043H1.73913C1.16389 15.3043 0.695652 14.8361 0.695652 14.2609V3.12976C0.986413 3.34817 1.34783 3.47826 1.73913 3.47826H15.3043Z" fill="white"/>
</svg>
