<svg width="62" height="62" viewBox="0 0 62 62" fill="none" xmlns="http://www.w3.org/2000/svg">
<g filter="url(#filter0_d)">
<path fill-rule="evenodd" clip-rule="evenodd" d="M31 15C39.8238 15 47 22.1799 47 31C47 39.8641 39.8201 47 31 47C22.1359 47.0037 15 39.8677 15 31C15 22.1799 22.1359 15 31 15Z" fill="#00D7D7"/>
<path fill-rule="evenodd" clip-rule="evenodd" d="M31.0013 15.5638C39.5212 15.5638 46.4411 22.4838 46.4411 31.0037C46.4411 39.5675 39.5212 46.4874 31.0013 46.4874C22.4375 46.4874 15.5176 39.5675 15.5176 31.0037C15.5212 22.4801 22.4411 15.5638 31.0013 15.5638Z" fill="#1BE6E6"/>
<path fill-rule="evenodd" clip-rule="evenodd" d="M31.0016 15.5638C34.0295 15.5638 36.8414 16.4279 39.2176 17.9437C34.3334 17.5519 25.7256 18.632 18.5494 28.8838C16.8213 31.3918 16.4295 34.3757 17.0373 37.6636C16.0817 35.6719 15.5215 33.3799 15.5215 31C15.5215 22.4801 22.4414 15.5638 31.0016 15.5638Z" fill="#26EDED"/>
<path fill-rule="evenodd" clip-rule="evenodd" d="M30.999 18.416C37.9629 18.416 43.583 24.0398 43.583 31C43.583 37.9602 37.9629 43.6316 30.999 43.6316C24.0388 43.6316 18.3711 37.9638 18.3711 31C18.3711 24.0362 24.0388 18.416 30.999 18.416Z" fill="#76FFFF"/>
<path fill-rule="evenodd" clip-rule="evenodd" d="M30.9988 19.6719C37.2706 19.6719 42.3306 24.7318 42.3306 31.0037C42.3306 37.3195 37.2706 42.3794 30.9988 42.3794C24.7269 42.3794 19.623 37.3195 19.623 31.0037C19.6267 24.7318 24.7306 19.6719 30.9988 19.6719Z" fill="#1BE6E6"/>
<path fill-rule="evenodd" clip-rule="evenodd" d="M38.0513 22.0919C40.6912 24.1679 42.3314 27.4118 42.3314 30.9999C42.3314 37.3157 37.2715 42.3757 30.9996 42.3757C28.1035 42.3757 25.5076 41.3395 23.5195 39.5638C42.8074 39.0878 38.4834 23.5198 38.0513 22.0919Z" fill="#26EDED"/>
<path fill-rule="evenodd" clip-rule="evenodd" d="M31.0008 18.6321C37.8328 18.6321 43.3687 24.168 43.3687 31C43.3687 37.8321 37.8365 43.4119 31.0008 43.4119C24.1687 43.4119 18.6328 37.8321 18.6328 31C18.6328 24.168 24.1687 18.6321 31.0008 18.6321ZM31.1326 19.8C37.6205 19.8 42.8525 25.0321 42.8525 31.5199C42.8525 38.0078 37.6205 43.2399 31.1326 43.2399C24.6447 43.2399 19.4127 38.0078 19.4127 31.5199C19.4127 25.0321 24.6447 19.8 31.1326 19.8Z" fill="#07B4B4"/>
<path d="M30.0061 32.3768H27.897C27.8046 32.3768 27.7246 32.4105 27.6572 32.4779C27.5896 32.5454 27.5561 32.6253 27.5561 32.7177V33.8255C27.5561 33.9249 27.5897 34.0066 27.6572 34.0706C27.7246 34.1347 27.8046 34.1663 27.897 34.1663H30.2821V35.0717H27.897C27.8046 35.0717 27.7246 35.1059 27.6572 35.1734C27.5896 35.2408 27.5561 35.3207 27.5561 35.4131V36.51C27.5561 36.6099 27.5897 36.6914 27.6572 36.7551C27.7246 36.8191 27.8046 36.8513 27.897 36.8513H30.2821V38.6591C30.2821 38.7585 30.3157 38.8401 30.3832 38.9038C30.4506 38.9679 30.5305 39 30.6229 39H32.4554C32.5476 39 32.6275 38.9663 32.6952 38.8989C32.7626 38.8314 32.7964 38.7515 32.7964 38.6591V36.8514H35.2028C35.2951 36.8514 35.375 36.8193 35.4426 36.7553C35.5101 36.6916 35.5437 36.6101 35.5437 36.5102V35.4131C35.5437 35.3207 35.5099 35.2408 35.4426 35.1734C35.375 35.1059 35.2951 35.0717 35.2028 35.0717H32.7964V34.1663H35.2028C35.2951 34.1663 35.375 34.1347 35.4426 34.0706C35.5101 34.0066 35.5437 33.9249 35.5437 33.8255V32.7177C35.5437 32.6253 35.5099 32.5454 35.4426 32.4779C35.375 32.4105 35.2951 32.3769 35.2028 32.3769H33.0832L36.9301 24.5006C36.9868 24.3803 36.9834 24.27 36.9195 24.1706C36.8485 24.057 36.7527 24 36.6319 24H34.5968C34.4477 24 34.3445 24.0674 34.2878 24.2022L32.253 28.6766C32.2031 28.7977 32.1054 29.0145 31.9601 29.3266C31.8144 29.6391 31.7062 29.8804 31.6351 30.051C31.3723 29.433 31.1733 28.9895 31.0386 28.7193L28.748 24.1918C28.6769 24.064 28.5737 24 28.439 24H26.3722C26.2443 24 26.1449 24.057 26.0739 24.1706C26.017 24.2842 26.017 24.3979 26.0739 24.5115L30.0061 32.3768Z" fill="white"/>
</g>
<defs>
<filter id="filter0_d" x="0" y="0" width="62" height="62" filterUnits="userSpaceOnUse" color-interpolation-filters="sRGB">
<feFlood flood-opacity="0" result="BackgroundImageFix"/>
<feColorMatrix in="SourceAlpha" type="matrix" values="0 0 0 0 0 0 0 0 0 0 0 0 0 0 0 0 0 0 127 0"/>
<feOffset/>
<feGaussianBlur stdDeviation="7.5"/>
<feColorMatrix type="matrix" values="0 0 0 0 0.462745 0 0 0 0 1 0 0 0 0 1 0 0 0 1 0"/>
<feBlend mode="normal" in2="BackgroundImageFix" result="effect1_dropShadow"/>
<feBlend mode="normal" in="SourceGraphic" in2="effect1_dropShadow" result="shape"/>
</filter>
</defs>
</svg>
